<?xml version="1.0" encoding="utf-8" standalone="no"?>
<!DOCTYPE svg PUBLIC "-//W3C//DTD SVG 1.1//EN"
  "http://www.w3.org/Graphics/SVG/1.1/DTD/svg11.dtd">
<svg xmlns:xlink="http://www.w3.org/1999/xlink" width="720pt" height="432pt" viewBox="0 0 720 432" xmlns="http://www.w3.org/2000/svg" version="1.1">
 <metadata>
  <rdf:RDF xmlns:dc="http://purl.org/dc/elements/1.1/" xmlns:cc="http://creativecommons.org/ns#" xmlns:rdf="http://www.w3.org/1999/02/22-rdf-syntax-ns#">
   <cc:Work>
    <dc:type rdf:resource="http://purl.org/dc/dcmitype/StillImage"/>
    <dc:date>2023-05-31T19:07:56.092586</dc:date>
    <dc:format>image/svg+xml</dc:format>
    <dc:creator>
     <cc:Agent>
      <dc:title>Matplotlib v3.7.1, https://matplotlib.org/</dc:title>
     </cc:Agent>
    </dc:creator>
   </cc:Work>
  </rdf:RDF>
 </metadata>
 <defs>
  <style type="text/css">*{stroke-linejoin: round; stroke-linecap: butt}</style>
 </defs>
 <g id="figure_1">
  <g id="patch_1">
   <path d="M 0 432 
L 720 432 
L 720 0 
L 0 0 
z
" style="fill: #ffffff"/>
  </g>
  <g id="axes_1">
   <g id="patch_2">
    <path d="M 90 384.48 
L 648 384.48 
L 648 51.84 
L 90 51.84 
z
" style="fill: #ffffff"/>
   </g>
   <g id="PolyCollection_1">
    <defs>
     <path id="m2ca8a60e4b" d="M 115.363636 -93.263084 
L 115.363636 -93.263084 
L 115.871417 -93.222273 
L 116.379197 -93.181461 
L 116.886978 -93.14065 
L 117.394758 -93.099839 
L 117.902539 -93.059028 
L 118.410319 -93.018217 
L 118.9181 -92.977406 
L 119.42588 -92.936595 
L 119.933661 -92.895784 
L 120.441441 -92.854973 
L 120.949222 -92.814161 
L 121.457002 -92.77335 
L 121.964783 -92.732539 
L 122.472563 -92.691728 
L 122.980344 -92.650917 
L 123.488124 -92.610106 
L 123.995905 -92.569295 
L 124.503686 -92.528484 
L 125.011466 -92.487673 
L 125.519247 -92.446861 
L 126.027027 -92.40605 
L 126.534808 -92.365239 
L 127.042588 -92.324428 
L 127.550369 -92.283617 
L 128.058149 -92.242806 
L 128.56593 -92.201995 
L 129.07371 -92.161184 
L 129.581491 -92.120373 
L 130.089271 -92.079561 
L 130.597052 -92.03875 
L 131.104832 -91.997939 
L 131.612613 -91.957128 
L 132.120393 -91.916317 
L 132.628174 -91.875506 
L 133.135954 -91.834695 
L 133.643735 -91.793884 
L 134.151515 -91.753072 
L 134.659296 -91.712261 
L 135.167076 -91.67145 
L 135.674857 -91.630639 
L 136.182637 -91.589828 
L 136.690418 -91.549017 
L 137.198198 -91.508206 
L 137.705979 -91.467395 
L 138.213759 -91.426584 
L 138.72154 -91.385772 
L 139.22932 -91.344961 
L 139.737101 -91.30415 
L 140.244881 -91.263339 
L 140.752662 -91.222528 
L 141.260442 -91.181717 
L 141.768223 -91.140906 
L 142.276003 -91.100095 
L 142.783784 -91.059284 
L 143.291564 -91.018472 
L 143.799345 -90.977661 
L 144.307125 -90.93685 
L 144.814906 -90.896039 
L 145.322686 -90.855228 
L 145.830467 -90.814417 
L 146.338247 -90.773606 
L 146.846028 -90.732795 
L 147.353808 -90.691984 
L 147.861589 -90.651172 
L 148.369369 -90.610361 
L 148.87715 -90.56955 
L 149.38493 -90.528739 
L 149.892711 -90.487928 
L 150.400491 -90.447117 
L 150.908272 -90.406306 
L 151.416052 -90.365495 
L 151.923833 -90.324683 
L 152.431613 -90.283872 
L 152.939394 -90.243061 
L 153.447174 -90.20225 
L 153.954955 -90.161439 
L 154.462735 -90.120628 
L 154.970516 -90.079817 
L 155.478296 -90.039006 
L 155.986077 -89.998195 
L 156.493857 -89.957383 
L 157.001638 -89.916572 
L 157.509419 -89.875761 
L 158.017199 -89.83495 
L 158.52498 -89.794139 
L 159.03276 -89.753328 
L 159.540541 -89.712517 
L 160.048321 -89.671706 
L 160.556102 -89.630895 
L 161.063882 -89.590083 
L 161.571663 -89.549272 
L 162.079443 -89.508461 
L 162.587224 -89.46765 
L 163.095004 -89.426839 
L 163.602785 -89.386028 
L 164.110565 -89.345217 
L 164.618346 -89.304406 
L 165.126126 -89.263595 
L 165.633907 -89.222783 
L 166.141687 -89.181972 
L 166.649468 -89.141161 
L 167.157248 -89.10035 
L 167.665029 -89.059539 
L 168.172809 -89.018728 
L 168.68059 -88.977917 
L 169.18837 -88.937106 
L 169.696151 -88.896294 
L 170.203931 -88.855483 
L 170.711712 -88.814672 
L 171.219492 -88.773861 
L 171.727273 -88.73305 
L 172.235053 -88.692239 
L 172.742834 -88.651428 
L 173.250614 -88.610617 
L 173.758395 -88.569806 
L 174.266175 -88.528994 
L 174.773956 -88.488183 
L 175.281736 -88.447372 
L 175.789517 -88.406561 
L 176.297297 -88.36575 
L 176.805078 -88.324939 
L 177.312858 -88.284128 
L 177.820639 -88.243317 
L 178.328419 -88.202506 
L 178.8362 -88.161694 
L 179.34398 -88.120883 
L 179.851761 -88.080072 
L 180.359541 -88.039261 
L 180.867322 -87.99845 
L 181.375102 -87.957639 
L 181.882883 -87.916828 
L 182.390663 -87.876017 
L 182.898444 -87.835206 
L 183.406224 -87.794394 
L 183.914005 -87.753583 
L 184.421785 -87.712772 
L 184.929566 -87.671961 
L 185.437346 -87.63115 
L 185.945127 -87.590339 
L 186.452907 -87.549528 
L 186.960688 -87.508717 
L 187.468468 -87.467906 
L 187.976249 -87.427094 
L 188.484029 -87.386283 
L 188.99181 -87.345472 
L 189.49959 -87.304661 
L 190.007371 -87.26385 
L 190.515152 -87.223039 
L 191.022932 -87.182228 
L 191.530713 -87.141417 
L 192.038493 -87.100605 
L 192.546274 -87.059794 
L 193.054054 -87.018983 
L 193.561835 -86.978172 
L 194.069615 -86.937361 
L 194.577396 -86.89655 
L 195.085176 -86.855739 
L 195.592957 -86.814928 
L 196.100737 -86.774117 
L 196.608518 -86.733305 
L 197.116298 -86.692494 
L 197.624079 -86.651683 
L 198.131859 -86.610872 
L 198.63964 -86.570061 
L 199.14742 -86.52925 
L 199.655201 -86.488439 
L 200.162981 -86.447628 
L 200.670762 -86.406817 
L 201.178542 -86.366005 
L 201.686323 -86.325194 
L 202.194103 -86.284383 
L 202.701884 -86.243572 
L 203.209664 -86.202761 
L 203.717445 -86.16195 
L 204.225225 -86.121139 
L 204.733006 -86.080328 
L 205.240786 -86.039517 
L 205.748567 -85.998705 
L 206.256347 -85.957894 
L 206.764128 -85.917083 
L 207.271908 -85.876272 
L 207.779689 -85.835461 
L 208.287469 -85.79465 
L 208.79525 -85.753839 
L 209.30303 -85.713028 
L 209.810811 -85.672216 
L 210.318591 -85.631405 
L 210.826372 -85.590594 
L 211.334152 -85.549783 
L 211.841933 -85.508972 
L 212.349713 -85.468161 
L 212.857494 -85.42735 
L 213.365274 -85.386539 
L 213.873055 -85.345728 
L 214.380835 -85.304916 
L 214.888616 -85.264105 
L 215.396396 -85.223294 
L 215.904177 -85.182483 
L 216.411957 -85.141672 
L 216.919738 -85.100861 
L 217.427518 -85.06005 
L 217.935299 -85.019239 
L 218.443079 -84.978428 
L 218.95086 -84.937616 
L 219.45864 -84.896805 
L 219.966421 -84.855994 
L 220.474201 -84.815183 
L 220.981982 -84.774372 
L 221.489762 -84.733561 
L 221.997543 -84.69275 
L 222.505324 -84.651939 
L 223.013104 -84.611128 
L 223.520885 -84.570316 
L 224.028665 -84.529505 
L 224.536446 -84.488694 
L 225.044226 -84.447883 
L 225.552007 -84.407072 
L 226.059787 -84.366261 
L 226.567568 -84.32545 
L 227.075348 -84.284639 
L 227.583129 -84.243827 
L 228.090909 -84.203016 
L 228.59869 -84.162205 
L 229.10647 -84.121394 
L 229.614251 -84.080583 
L 230.122031 -84.039772 
L 230.629812 -83.998961 
L 231.137592 -83.95815 
L 231.645373 -83.917339 
L 232.153153 -83.876527 
L 232.660934 -83.835716 
L 233.168714 -83.794905 
L 233.676495 -83.754094 
L 234.184275 -83.713283 
L 234.692056 -83.672472 
L 235.199836 -83.631661 
L 235.707617 -83.59085 
L 236.215397 -83.550039 
L 236.723178 -83.509227 
L 237.230958 -83.468416 
L 237.738739 -83.427605 
L 238.246519 -83.386794 
L 238.7543 -83.345983 
L 239.26208 -83.305172 
L 239.769861 -83.264361 
L 240.277641 -83.22355 
L 240.785422 -83.182739 
L 241.293202 -83.141927 
L 241.800983 -83.101116 
L 242.308763 -83.060305 
L 242.816544 -83.019494 
L 243.324324 -82.978683 
L 243.832105 -82.937872 
L 244.339885 -82.897061 
L 244.847666 -82.85625 
L 245.355446 -82.815438 
L 245.863227 -82.774627 
L 246.371007 -82.733816 
L 246.878788 -82.693005 
L 247.386568 -82.652194 
L 247.894349 -82.611383 
L 248.402129 -82.570572 
L 248.90991 -82.529761 
L 249.41769 -82.48895 
L 249.925471 -82.448138 
L 250.433251 -82.407327 
L 250.941032 -82.366516 
L 251.448812 -82.325705 
L 251.956593 -82.284894 
L 252.464373 -82.244083 
L 252.972154 -82.203272 
L 253.479934 -82.162461 
L 253.987715 -82.12165 
L 254.495495 -82.080838 
L 255.003276 -82.040027 
L 255.511057 -81.999216 
L 256.018837 -81.958405 
L 256.526618 -81.917594 
L 257.034398 -81.876783 
L 257.542179 -81.835972 
L 258.049959 -81.795161 
L 258.55774 -81.75435 
L 259.06552 -81.713538 
L 259.573301 -81.672727 
L 260.081081 -81.631916 
L 260.588862 -81.591105 
L 261.096642 -81.550294 
L 261.604423 -81.509483 
L 262.112203 -81.468672 
L 262.619984 -81.427861 
L 263.127764 -81.38705 
L 263.635545 -81.346238 
L 264.143325 -81.305427 
L 264.651106 -81.264616 
L 265.158886 -81.223805 
L 265.666667 -81.182994 
L 266.174447 -81.142183 
L 266.682228 -81.101372 
L 267.190008 -81.060561 
L 267.697789 -81.019749 
L 268.205569 -80.978938 
L 268.71335 -80.938127 
L 269.22113 -80.897316 
L 269.728911 -80.856505 
L 270.236691 -80.815694 
L 270.744472 -80.774883 
L 271.252252 -80.734072 
L 271.760033 -80.693261 
L 272.267813 -80.652449 
L 272.775594 -80.611638 
L 273.283374 -80.570827 
L 273.791155 -80.530016 
L 274.298935 -80.489205 
L 274.806716 -80.448394 
L 275.314496 -80.407583 
L 275.822277 -80.366772 
L 276.330057 -80.325961 
L 276.837838 -80.285149 
L 277.345618 -80.244338 
L 277.853399 -80.203527 
L 278.361179 -80.162716 
L 278.86896 -80.121905 
L 279.37674 -80.081094 
L 279.884521 -80.040283 
L 280.392301 -79.999472 
L 280.900082 -79.958661 
L 281.407862 -79.917849 
L 281.915643 -79.877038 
L 282.423423 -79.836227 
L 282.931204 -79.795416 
L 283.438984 -79.754605 
L 283.946765 -79.713794 
L 284.454545 -79.672983 
L 284.962326 -79.632172 
L 285.470106 -79.59136 
L 285.977887 -79.550549 
L 286.485667 -79.509738 
L 286.993448 -79.468927 
L 287.501229 -79.428116 
L 288.009009 -79.387305 
L 288.51679 -79.346494 
L 289.02457 -79.305683 
L 289.532351 -79.264872 
L 290.040131 -79.22406 
L 290.547912 -79.183249 
L 291.055692 -79.142438 
L 291.563473 -79.101627 
L 292.071253 -79.060816 
L 292.579034 -79.020005 
L 293.086814 -78.979194 
L 293.594595 -78.938383 
L 294.102375 -78.897572 
L 294.610156 -78.85676 
L 295.117936 -78.815949 
L 295.625717 -78.775138 
L 296.133497 -78.734327 
L 296.641278 -78.693516 
L 297.149058 -78.652705 
L 297.656839 -78.611894 
L 298.164619 -78.571083 
L 298.6724 -78.530272 
L 299.18018 -78.48946 
L 299.687961 -78.448649 
L 300.195741 -78.407838 
L 300.703522 -78.367027 
L 301.211302 -78.326216 
L 301.719083 -78.285405 
L 302.226863 -78.244594 
L 302.734644 -78.203783 
L 303.242424 -78.162971 
L 303.750205 -78.12216 
L 304.257985 -78.081349 
L 304.765766 -78.040538 
L 305.273546 -77.999727 
L 305.781327 -77.958916 
L 306.289107 -77.918105 
L 306.796888 -77.877294 
L 307.304668 -77.836483 
L 307.812449 -77.795671 
L 308.320229 -77.75486 
L 308.82801 -77.714049 
L 309.33579 -77.673238 
L 309.843571 -77.632427 
L 310.351351 -77.591616 
L 310.859132 -77.550805 
L 311.366912 -77.509994 
L 311.874693 -77.469183 
L 312.382473 -77.428371 
L 312.890254 -77.38756 
L 313.398034 -77.346749 
L 313.905815 -77.305938 
L 314.413595 -77.265127 
L 314.921376 -77.224316 
L 315.429156 -77.183505 
L 315.936937 -77.142694 
L 316.444717 -77.101883 
L 316.952498 -77.061071 
L 317.460278 -77.02026 
L 317.968059 -76.979449 
L 318.475839 -76.938638 
L 318.98362 -76.897827 
L 319.4914 -76.857016 
L 319.999181 -76.816205 
L 320.506962 -76.775394 
L 321.014742 -76.734582 
L 321.522523 -76.693771 
L 322.030303 -76.65296 
L 322.538084 -76.612149 
L 323.045864 -76.571338 
L 323.553645 -76.530527 
L 324.061425 -76.489716 
L 324.569206 -76.448905 
L 325.076986 -76.408094 
L 325.584767 -76.367282 
L 326.092547 -76.326471 
L 326.600328 -76.28566 
L 327.108108 -76.244849 
L 327.615889 -76.204038 
L 328.123669 -76.163227 
L 328.63145 -76.122416 
L 329.13923 -76.081605 
L 329.647011 -76.040794 
L 330.154791 -75.999982 
L 330.662572 -75.959171 
L 331.170352 -75.91836 
L 331.678133 -75.877549 
L 332.185913 -75.836738 
L 332.693694 -75.795927 
L 333.201474 -75.755116 
L 333.709255 -75.714305 
L 334.217035 -75.673494 
L 334.724816 -75.632682 
L 335.232596 -75.591871 
L 335.740377 -75.55106 
L 336.248157 -75.510249 
L 336.755938 -75.469438 
L 337.263718 -75.428627 
L 337.771499 -75.387816 
L 338.279279 -75.347005 
L 338.78706 -75.306194 
L 339.29484 -75.265382 
L 339.802621 -75.224571 
L 340.310401 -75.18376 
L 340.818182 -75.142949 
L 341.325962 -75.102138 
L 341.833743 -75.061327 
L 342.341523 -75.020516 
L 342.849304 -74.979705 
L 343.357084 -74.938893 
L 343.864865 -74.898082 
L 344.372645 -74.857271 
L 344.880426 -74.81646 
L 345.388206 -74.775649 
L 345.895987 -74.734838 
L 346.403767 -74.694027 
L 346.911548 -74.653216 
L 347.419328 -74.612405 
L 347.927109 -74.571593 
L 348.434889 -74.530782 
L 348.94267 -74.489971 
L 349.45045 -74.44916 
L 349.958231 -74.408349 
L 350.466011 -74.367538 
L 350.973792 -74.326727 
L 351.481572 -74.285916 
L 351.989353 -74.245105 
L 352.497133 -74.204293 
L 353.004914 -74.163482 
L 353.512695 -74.122671 
L 354.020475 -74.08186 
L 354.528256 -74.041049 
L 355.036036 -74.000238 
L 355.543817 -73.959427 
L 356.051597 -73.918616 
L 356.559378 -73.877805 
L 357.067158 -73.836993 
L 357.574939 -73.796182 
L 358.082719 -73.755371 
L 358.5905 -73.71456 
L 359.09828 -73.673749 
L 359.606061 -73.632938 
L 360.113841 -73.592127 
L 360.621622 -73.551316 
L 361.129402 -73.510504 
L 361.637183 -73.469693 
L 362.144963 -73.428882 
L 362.652744 -73.388071 
L 363.160524 -73.34726 
L 363.668305 -73.306449 
L 364.176085 -73.265638 
L 364.683866 -73.224827 
L 365.191646 -73.184016 
L 365.699427 -73.143204 
L 366.207207 -73.102393 
L 366.714988 -73.061582 
L 367.222768 -73.020771 
L 367.730549 -72.97996 
L 368.238329 -72.939149 
L 368.74611 -72.898338 
L 369.25389 -72.863426 
L 369.761671 -72.834415 
L 370.269451 -72.805404 
L 370.777232 -72.776392 
L 371.285012 -72.747381 
L 371.792793 -72.718369 
L 372.300573 -72.689358 
L 372.808354 -72.660346 
L 373.316134 -72.631335 
L 373.823915 -72.602323 
L 374.331695 -72.573312 
L 374.839476 -72.5443 
L 375.347256 -72.515289 
L 375.855037 -72.486277 
L 376.362817 -72.457266 
L 376.870598 -72.428254 
L 377.378378 -72.399243 
L 377.886159 -72.370231 
L 378.393939 -72.34122 
L 378.90172 -72.312208 
L 379.4095 -72.283197 
L 379.917281 -72.254185 
L 380.425061 -72.225174 
L 380.932842 -72.196162 
L 381.440622 -72.167151 
L 381.948403 -72.138139 
L 382.456183 -72.109128 
L 382.963964 -72.080116 
L 383.471744 -72.051105 
L 383.979525 -72.022093 
L 384.487305 -71.993082 
L 384.995086 -71.96407 
L 385.502867 -71.935059 
L 386.010647 -71.906047 
L 386.518428 -71.877036 
L 387.026208 -71.848025 
L 387.533989 -71.819013 
L 388.041769 -71.790002 
L 388.54955 -71.76099 
L 389.05733 -71.731979 
L 389.565111 -71.702967 
L 390.072891 -71.673956 
L 390.580672 -71.644944 
L 391.088452 -71.615933 
L 391.596233 -71.586921 
L 392.104013 -71.55791 
L 392.611794 -71.528898 
L 393.119574 -71.499887 
L 393.627355 -71.470875 
L 394.135135 -71.441864 
L 394.642916 -71.412852 
L 395.150696 -71.383841 
L 395.658477 -71.354829 
L 396.166257 -71.325818 
L 396.674038 -71.296806 
L 397.181818 -71.267795 
L 397.689599 -71.238783 
L 398.197379 -71.209772 
L 398.70516 -71.18076 
L 399.21294 -71.151749 
L 399.720721 -71.122737 
L 400.228501 -71.093726 
L 400.736282 -71.064714 
L 401.244062 -71.035703 
L 401.751843 -71.006691 
L 402.259623 -70.97768 
L 402.767404 -70.948668 
L 403.275184 -70.919657 
L 403.782965 -70.890646 
L 404.290745 -70.861634 
L 404.798526 -70.832623 
L 405.306306 -70.803611 
L 405.814087 -70.7746 
L 406.321867 -70.745588 
L 406.829648 -70.716577 
L 407.337428 -70.687565 
L 407.845209 -70.658554 
L 408.352989 -70.629542 
L 408.86077 -70.600531 
L 409.36855 -70.571519 
L 409.876331 -70.542508 
L 410.384111 -70.513496 
L 410.891892 -70.484485 
L 411.399672 -70.455473 
L 411.907453 -70.426462 
L 412.415233 -70.39745 
L 412.923014 -70.368439 
L 413.430794 -70.339427 
L 413.938575 -70.310416 
L 414.446355 -70.281404 
L 414.954136 -70.252393 
L 415.461916 -70.223381 
L 415.969697 -70.19437 
L 416.477477 -70.165358 
L 416.985258 -70.136347 
L 417.493038 -70.107335 
L 418.000819 -70.078324 
L 418.5086 -70.049312 
L 419.01638 -70.020301 
L 419.524161 -69.99129 
L 420.031941 -69.962278 
L 420.539722 -69.933267 
L 421.047502 -69.904255 
L 421.555283 -69.875244 
L 422.063063 -69.846232 
L 422.570844 -69.817221 
L 423.078624 -69.788209 
L 423.586405 -69.759198 
L 424.094185 -69.730186 
L 424.601966 -69.701175 
L 425.109746 -69.672163 
L 425.617527 -69.643152 
L 426.125307 -69.61414 
L 426.633088 -69.585129 
L 427.140868 -69.556117 
L 427.648649 -69.527106 
L 428.156429 -69.498094 
L 428.66421 -69.469083 
L 429.17199 -69.440071 
L 429.679771 -69.41106 
L 430.187551 -69.382048 
L 430.695332 -69.353037 
L 431.203112 -69.324025 
L 431.710893 -69.295014 
L 432.218673 -69.266002 
L 432.726454 -69.236991 
L 433.234234 -69.207979 
L 433.742015 -69.178968 
L 434.249795 -69.149956 
L 434.757576 -69.120945 
L 435.265356 -69.091933 
L 435.773137 -69.062922 
L 436.280917 -69.033911 
L 436.788698 -69.004899 
L 437.296478 -68.975888 
L 437.804259 -68.946876 
L 438.312039 -68.917865 
L 438.81982 -68.888853 
L 439.3276 -68.859842 
L 439.835381 -68.83083 
L 440.343161 -68.801819 
L 440.850942 -68.772807 
L 441.358722 -68.743796 
L 441.866503 -68.714784 
L 442.374283 -68.685773 
L 442.882064 -68.656761 
L 443.389844 -68.62775 
L 443.897625 -68.598738 
L 444.405405 -68.569727 
L 444.913186 -68.540715 
L 445.420966 -68.511704 
L 445.928747 -68.482692 
L 446.436527 -68.453681 
L 446.944308 -68.424669 
L 447.452088 -68.395658 
L 447.959869 -68.366646 
L 448.467649 -68.337635 
L 448.97543 -68.308623 
L 449.48321 -68.279612 
L 449.990991 -68.2506 
L 450.498771 -68.221589 
L 451.006552 -68.192577 
L 451.514333 -68.163566 
L 452.022113 -68.134554 
L 452.529894 -68.105543 
L 453.037674 -68.076532 
L 453.545455 -68.04752 
L 454.053235 -68.018509 
L 454.561016 -67.989497 
L 455.068796 -67.960486 
L 455.576577 -67.931474 
L 456.084357 -67.902463 
L 456.592138 -67.873451 
L 457.099918 -67.84444 
L 457.607699 -67.815428 
L 458.115479 -67.786417 
L 458.62326 -67.757405 
L 459.13104 -67.728394 
L 459.638821 -67.699382 
L 460.146601 -67.670371 
L 460.654382 -67.641359 
L 461.162162 -67.612348 
L 461.669943 -67.583336 
L 462.177723 -67.554325 
L 462.685504 -67.525313 
L 463.193284 -67.496302 
L 463.701065 -67.46729 
L 464.208845 -67.438279 
L 464.716626 -67.409267 
L 465.224406 -67.380256 
L 465.732187 -67.351244 
L 466.239967 -67.322233 
L 466.747748 -67.293221 
L 467.255528 -67.26421 
L 467.763309 -67.235198 
L 468.271089 -67.206187 
L 468.77887 -67.177176 
L 469.28665 -67.148164 
L 469.794431 -67.119153 
L 470.302211 -67.090141 
L 470.809992 -67.06113 
L 471.317772 -67.032118 
L 471.825553 -67.003107 
L 472.333333 -66.974095 
L 472.841114 -66.945084 
L 473.348894 -66.916072 
L 473.856675 -66.887061 
L 474.364455 -66.858049 
L 474.872236 -66.829038 
L 475.380016 -66.800026 
L 475.887797 -66.771015 
L 476.395577 -66.742003 
L 476.903358 -66.712992 
L 477.411138 -66.68398 
L 477.918919 -66.654969 
L 478.426699 -66.625957 
L 478.93448 -66.596946 
L 479.44226 -66.567934 
L 479.950041 -66.538923 
L 480.457821 -66.509911 
L 480.965602 -66.4809 
L 481.473382 -66.451888 
L 481.981163 -66.422877 
L 482.488943 -66.393865 
L 482.996724 -66.364854 
L 483.504505 -66.335842 
L 484.012285 -66.306831 
L 484.520066 -66.277819 
L 485.027846 -66.248808 
L 485.535627 -66.219797 
L 486.043407 -66.190785 
L 486.551188 -66.161774 
L 487.058968 -66.132762 
L 487.566749 -66.103751 
L 488.074529 -66.074739 
L 488.58231 -66.045728 
L 489.09009 -66.016716 
L 489.597871 -65.987705 
L 490.105651 -65.958693 
L 490.613432 -65.929682 
L 491.121212 -65.90067 
L 491.628993 -65.871659 
L 492.136773 -65.842647 
L 492.644554 -65.813636 
L 493.152334 -65.784624 
L 493.660115 -65.755613 
L 494.167895 -65.726601 
L 494.675676 -65.69759 
L 495.183456 -65.668578 
L 495.691237 -65.639567 
L 496.199017 -65.610555 
L 496.706798 -65.581544 
L 497.214578 -65.552532 
L 497.722359 -65.523521 
L 498.230139 -65.494509 
L 498.73792 -65.465498 
L 499.2457 -65.436486 
L 499.753481 -65.407475 
L 500.261261 -65.378463 
L 500.769042 -65.349452 
L 501.276822 -65.32044 
L 501.784603 -65.291429 
L 502.292383 -65.262418 
L 502.800164 -65.233406 
L 503.307944 -65.204395 
L 503.815725 -65.175383 
L 504.323505 -65.146372 
L 504.831286 -65.11736 
L 505.339066 -65.088349 
L 505.846847 -65.059337 
L 506.354627 -65.030326 
L 506.862408 -65.001314 
L 507.370188 -64.972303 
L 507.877969 -64.943291 
L 508.385749 -64.91428 
L 508.89353 -64.885268 
L 509.40131 -64.856257 
L 509.909091 -64.827245 
L 510.416871 -64.798234 
L 510.924652 -64.769222 
L 511.432432 -64.740211 
L 511.940213 -64.711199 
L 512.447993 -64.682188 
L 512.955774 -64.653176 
L 513.463554 -64.624165 
L 513.971335 -64.595153 
L 514.479115 -64.566142 
L 514.986896 -64.53713 
L 515.494676 -64.508119 
L 516.002457 -64.479107 
L 516.510238 -64.450096 
L 517.018018 -64.421084 
L 517.525799 -64.392073 
L 518.033579 -64.363062 
L 518.54136 -64.33405 
L 519.04914 -64.305039 
L 519.556921 -64.276027 
L 520.064701 -64.247016 
L 520.572482 -64.218004 
L 521.080262 -64.188993 
L 521.588043 -64.159981 
L 522.095823 -64.13097 
L 522.603604 -64.101958 
L 523.111384 -64.072947 
L 523.619165 -64.043935 
L 524.126945 -64.014924 
L 524.634726 -63.985912 
L 525.142506 -63.956901 
L 525.650287 -63.927889 
L 526.158067 -63.898878 
L 526.665848 -63.869866 
L 527.173628 -63.840855 
L 527.681409 -63.811843 
L 528.189189 -63.782832 
L 528.69697 -63.75382 
L 529.20475 -63.724809 
L 529.712531 -63.695797 
L 530.220311 -63.666786 
L 530.728092 -63.637774 
L 531.235872 -63.608763 
L 531.743653 -63.579751 
L 532.251433 -63.55074 
L 532.759214 -63.521728 
L 533.266994 -63.492717 
L 533.774775 -63.463705 
L 534.282555 -63.434694 
L 534.790336 -63.405683 
L 535.298116 -63.376671 
L 535.805897 -63.34766 
L 536.313677 -63.318648 
L 536.821458 -63.289637 
L 537.329238 -63.260625 
L 537.837019 -63.231614 
L 538.344799 -63.202602 
L 538.85258 -63.173591 
L 539.36036 -63.144579 
L 539.868141 -63.115568 
L 540.375921 -63.086556 
L 540.883702 -63.057545 
L 541.391482 -63.028533 
L 541.899263 -62.999522 
L 542.407043 -62.97051 
L 542.914824 -62.941499 
L 543.422604 -62.912487 
L 543.930385 -62.883476 
L 544.438165 -62.854464 
L 544.945946 -62.825453 
L 545.453726 -62.796441 
L 545.961507 -62.76743 
L 546.469287 -62.738418 
L 546.977068 -62.709407 
L 547.484848 -62.680395 
L 547.992629 -62.651384 
L 548.50041 -62.622372 
L 549.00819 -62.593361 
L 549.515971 -62.564349 
L 550.023751 -62.535338 
L 550.531532 -62.506326 
L 551.039312 -62.477315 
L 551.547093 -62.448304 
L 552.054873 -62.419292 
L 552.562654 -62.390281 
L 553.070434 -62.361269 
L 553.578215 -62.332258 
L 554.085995 -62.303246 
L 554.593776 -62.274235 
L 555.101556 -62.245223 
L 555.609337 -62.216212 
L 556.117117 -62.1872 
L 556.624898 -62.158189 
L 557.132678 -62.129177 
L 557.640459 -62.100166 
L 558.148239 -62.071154 
L 558.65602 -62.042143 
L 559.1638 -62.013131 
L 559.671581 -61.98412 
L 560.179361 -61.955108 
L 560.687142 -61.926097 
L 561.194922 -61.897085 
L 561.702703 -61.868074 
L 562.210483 -61.839062 
L 562.718264 -61.810051 
L 563.226044 -61.781039 
L 563.733825 -61.752028 
L 564.241605 -61.723016 
L 564.749386 -61.694005 
L 565.257166 -61.664993 
L 565.764947 -61.635982 
L 566.272727 -61.60697 
L 566.780508 -61.577959 
L 567.288288 -61.548947 
L 567.796069 -61.519936 
L 568.303849 -61.490925 
L 568.81163 -61.461913 
L 569.31941 -61.432902 
L 569.827191 -61.40389 
L 570.334971 -61.374879 
L 570.842752 -61.345867 
L 571.350532 -61.316856 
L 571.858313 -61.287844 
L 572.366093 -61.258833 
L 572.873874 -61.229821 
L 573.381654 -61.20081 
L 573.889435 -61.171798 
L 574.397215 -61.142787 
L 574.904996 -61.113775 
L 575.412776 -61.084764 
L 575.920557 -61.055752 
L 576.428337 -61.026741 
L 576.936118 -60.997729 
L 577.443898 -60.968718 
L 577.951679 -60.939706 
L 578.459459 -60.910695 
L 578.96724 -60.881683 
L 579.47502 -60.852672 
L 579.982801 -60.82366 
L 580.490581 -60.794649 
L 580.998362 -60.765637 
L 581.506143 -60.736626 
L 582.013923 -60.707614 
L 582.521704 -60.678603 
L 583.029484 -60.649591 
L 583.537265 -60.62058 
L 584.045045 -60.591569 
L 584.552826 -60.562557 
L 585.060606 -60.533546 
L 585.568387 -60.504534 
L 586.076167 -60.475523 
L 586.583948 -60.446511 
L 587.091728 -60.4175 
L 587.599509 -60.388488 
L 588.107289 -60.359477 
L 588.61507 -60.330465 
L 589.12285 -60.301454 
L 589.630631 -60.272442 
L 590.138411 -60.243431 
L 590.646192 -60.214419 
L 591.153972 -60.185408 
L 591.661753 -60.156396 
L 592.169533 -60.127385 
L 592.677314 -60.098373 
L 593.185094 -60.069362 
L 593.692875 -60.04035 
L 594.200655 -60.011339 
L 594.708436 -59.982327 
L 595.216216 -59.953316 
L 595.723997 -59.924304 
L 596.231777 -59.895293 
L 596.739558 -59.866281 
L 597.247338 -59.83727 
L 597.755119 -59.808258 
L 598.262899 -59.779247 
L 598.77068 -59.750235 
L 599.27846 -59.721224 
L 599.786241 -59.692212 
L 600.294021 -59.663201 
L 600.801802 -59.63419 
L 601.309582 -59.605178 
L 601.817363 -59.576167 
L 602.325143 -59.547155 
L 602.832924 -59.518144 
L 603.340704 -59.489132 
L 603.848485 -59.460121 
L 604.356265 -59.431109 
L 604.864046 -59.402098 
L 605.371826 -59.373086 
L 605.879607 -59.344075 
L 606.387387 -59.315063 
L 606.895168 -59.286052 
L 607.402948 -59.25704 
L 607.910729 -59.228029 
L 608.418509 -59.199017 
L 608.92629 -59.170006 
L 609.43407 -59.140994 
L 609.941851 -59.111983 
L 610.449631 -59.082971 
L 610.957412 -59.05396 
L 611.465192 -59.024948 
L 611.972973 -58.995937 
L 612.480753 -58.966925 
L 612.988534 -58.937914 
L 613.496314 -58.908902 
L 614.004095 -58.879891 
L 614.511876 -58.850879 
L 615.019656 -58.821868 
L 615.527437 -58.792856 
L 616.035217 -58.763845 
L 616.542998 -58.734833 
L 617.050778 -58.705822 
L 617.558559 -58.676811 
L 618.066339 -58.647799 
L 618.57412 -58.618788 
L 619.0819 -58.589776 
L 619.589681 -58.560765 
L 620.097461 -58.531753 
L 620.605242 -58.502742 
L 621.113022 -58.47373 
L 621.620803 -58.444719 
L 622.128583 -58.415707 
L 622.636364 -58.386696 
L 622.636364 -312.930985 
L 622.636364 -312.930985 
L 622.128583 -312.634888 
L 621.620803 -312.338791 
L 621.113022 -312.042694 
L 620.605242 -311.746598 
L 620.097461 -311.450501 
L 619.589681 -311.154404 
L 619.0819 -310.858307 
L 618.57412 -310.562211 
L 618.066339 -310.266114 
L 617.558559 -309.970017 
L 617.050778 -309.67392 
L 616.542998 -309.377824 
L 616.035217 -309.081727 
L 615.527437 -308.78563 
L 615.019656 -308.489533 
L 614.511876 -308.193437 
L 614.004095 -307.89734 
L 613.496314 -307.601243 
L 612.988534 -307.305146 
L 612.480753 -307.00905 
L 611.972973 -306.712953 
L 611.465192 -306.416856 
L 610.957412 -306.120759 
L 610.449631 -305.824663 
L 609.941851 -305.528566 
L 609.43407 -305.232469 
L 608.92629 -304.936372 
L 608.418509 -304.640276 
L 607.910729 -304.344179 
L 607.402948 -304.048082 
L 606.895168 -303.751985 
L 606.387387 -303.455889 
L 605.879607 -303.159792 
L 605.371826 -302.863695 
L 604.864046 -302.567598 
L 604.356265 -302.271502 
L 603.848485 -301.975405 
L 603.340704 -301.679308 
L 602.832924 -301.383211 
L 602.325143 -301.087115 
L 601.817363 -300.791018 
L 601.309582 -300.494921 
L 600.801802 -300.198824 
L 600.294021 -299.902728 
L 599.786241 -299.606631 
L 599.27846 -299.310534 
L 598.77068 -299.014437 
L 598.262899 -298.718341 
L 597.755119 -298.422244 
L 597.247338 -298.126147 
L 596.739558 -297.830051 
L 596.231777 -297.533954 
L 595.723997 -297.237857 
L 595.216216 -296.94176 
L 594.708436 -296.645664 
L 594.200655 -296.349567 
L 593.692875 -296.05347 
L 593.185094 -295.757373 
L 592.677314 -295.461277 
L 592.169533 -295.16518 
L 591.661753 -294.869083 
L 591.153972 -294.572986 
L 590.646192 -294.27689 
L 590.138411 -293.980793 
L 589.630631 -293.684696 
L 589.12285 -293.388599 
L 588.61507 -293.092503 
L 588.107289 -292.796406 
L 587.599509 -292.500309 
L 587.091728 -292.204212 
L 586.583948 -291.908116 
L 586.076167 -291.612019 
L 585.568387 -291.315922 
L 585.060606 -291.019825 
L 584.552826 -290.723729 
L 584.045045 -290.427632 
L 583.537265 -290.131535 
L 583.029484 -289.835438 
L 582.521704 -289.539342 
L 582.013923 -289.243245 
L 581.506143 -288.947148 
L 580.998362 -288.651051 
L 580.490581 -288.354955 
L 579.982801 -288.058858 
L 579.47502 -287.762761 
L 578.96724 -287.466664 
L 578.459459 -287.170568 
L 577.951679 -286.874471 
L 577.443898 -286.578374 
L 576.936118 -286.282277 
L 576.428337 -285.986181 
L 575.920557 -285.690084 
L 575.412776 -285.393987 
L 574.904996 -285.09789 
L 574.397215 -284.801794 
L 573.889435 -284.505697 
L 573.381654 -284.2096 
L 572.873874 -283.913503 
L 572.366093 -283.617407 
L 571.858313 -283.32131 
L 571.350532 -283.025213 
L 570.842752 -282.729116 
L 570.334971 -282.43302 
L 569.827191 -282.136923 
L 569.31941 -281.840826 
L 568.81163 -281.544729 
L 568.303849 -281.248633 
L 567.796069 -280.952536 
L 567.288288 -280.656439 
L 566.780508 -280.360342 
L 566.272727 -280.064246 
L 565.764947 -279.768149 
L 565.257166 -279.472052 
L 564.749386 -279.175955 
L 564.241605 -278.879859 
L 563.733825 -278.583762 
L 563.226044 -278.287665 
L 562.718264 -277.991568 
L 562.210483 -277.695472 
L 561.702703 -277.399375 
L 561.194922 -277.103278 
L 560.687142 -276.807181 
L 560.179361 -276.511085 
L 559.671581 -276.214988 
L 559.1638 -275.918891 
L 558.65602 -275.622794 
L 558.148239 -275.326698 
L 557.640459 -275.030601 
L 557.132678 -274.734504 
L 556.624898 -274.438407 
L 556.117117 -274.142311 
L 555.609337 -273.846214 
L 555.101556 -273.550117 
L 554.593776 -273.25402 
L 554.085995 -272.957924 
L 553.578215 -272.661827 
L 553.070434 -272.36573 
L 552.562654 -272.069633 
L 552.054873 -271.773537 
L 551.547093 -271.47744 
L 551.039312 -271.181343 
L 550.531532 -270.885246 
L 550.023751 -270.58915 
L 549.515971 -270.293053 
L 549.00819 -269.996956 
L 548.50041 -269.700859 
L 547.992629 -269.404763 
L 547.484848 -269.108666 
L 546.977068 -268.812569 
L 546.469287 -268.516472 
L 545.961507 -268.220376 
L 545.453726 -267.924279 
L 544.945946 -267.628182 
L 544.438165 -267.332085 
L 543.930385 -267.035989 
L 543.422604 -266.739892 
L 542.914824 -266.443795 
L 542.407043 -266.147698 
L 541.899263 -265.851602 
L 541.391482 -265.555505 
L 540.883702 -265.259408 
L 540.375921 -264.963311 
L 539.868141 -264.667215 
L 539.36036 -264.371118 
L 538.85258 -264.075021 
L 538.344799 -263.778924 
L 537.837019 -263.482828 
L 537.329238 -263.186731 
L 536.821458 -262.890634 
L 536.313677 -262.594537 
L 535.805897 -262.298441 
L 535.298116 -262.002344 
L 534.790336 -261.706247 
L 534.282555 -261.41015 
L 533.774775 -261.114054 
L 533.266994 -260.817957 
L 532.759214 -260.52186 
L 532.251433 -260.225764 
L 531.743653 -259.929667 
L 531.235872 -259.63357 
L 530.728092 -259.337473 
L 530.220311 -259.041377 
L 529.712531 -258.74528 
L 529.20475 -258.449183 
L 528.69697 -258.153086 
L 528.189189 -257.85699 
L 527.681409 -257.560893 
L 527.173628 -257.264796 
L 526.665848 -256.968699 
L 526.158067 -256.672603 
L 525.650287 -256.376506 
L 525.142506 -256.080409 
L 524.634726 -255.784312 
L 524.126945 -255.488216 
L 523.619165 -255.192119 
L 523.111384 -254.896022 
L 522.603604 -254.599925 
L 522.095823 -254.303829 
L 521.588043 -254.007732 
L 521.080262 -253.711635 
L 520.572482 -253.415538 
L 520.064701 -253.119442 
L 519.556921 -252.823345 
L 519.04914 -252.527248 
L 518.54136 -252.231151 
L 518.033579 -251.935055 
L 517.525799 -251.638958 
L 517.018018 -251.342861 
L 516.510238 -251.046764 
L 516.002457 -250.750668 
L 515.494676 -250.454571 
L 514.986896 -250.158474 
L 514.479115 -249.862377 
L 513.971335 -249.566281 
L 513.463554 -249.270184 
L 512.955774 -248.974087 
L 512.447993 -248.67799 
L 511.940213 -248.381894 
L 511.432432 -248.085797 
L 510.924652 -247.7897 
L 510.416871 -247.493603 
L 509.909091 -247.197507 
L 509.40131 -246.90141 
L 508.89353 -246.605313 
L 508.385749 -246.309216 
L 507.877969 -246.01312 
L 507.370188 -245.717023 
L 506.862408 -245.420926 
L 506.354627 -245.124829 
L 505.846847 -244.828733 
L 505.339066 -244.532636 
L 504.831286 -244.236539 
L 504.323505 -243.940442 
L 503.815725 -243.644346 
L 503.307944 -243.348249 
L 502.800164 -243.052152 
L 502.292383 -242.756055 
L 501.784603 -242.459959 
L 501.276822 -242.163862 
L 500.769042 -241.867765 
L 500.261261 -241.571668 
L 499.753481 -241.275572 
L 499.2457 -240.979475 
L 498.73792 -240.683378 
L 498.230139 -240.387281 
L 497.722359 -240.091185 
L 497.214578 -239.795088 
L 496.706798 -239.498991 
L 496.199017 -239.202894 
L 495.691237 -238.906798 
L 495.183456 -238.610701 
L 494.675676 -238.314604 
L 494.167895 -238.018507 
L 493.660115 -237.722411 
L 493.152334 -237.426314 
L 492.644554 -237.130217 
L 492.136773 -236.83412 
L 491.628993 -236.538024 
L 491.121212 -236.241927 
L 490.613432 -235.94583 
L 490.105651 -235.649733 
L 489.597871 -235.353637 
L 489.09009 -235.05754 
L 488.58231 -234.761443 
L 488.074529 -234.465346 
L 487.566749 -234.16925 
L 487.058968 -233.873153 
L 486.551188 -233.577056 
L 486.043407 -233.280959 
L 485.535627 -232.984863 
L 485.027846 -232.688766 
L 484.520066 -232.392669 
L 484.012285 -232.096572 
L 483.504505 -231.800476 
L 482.996724 -231.504379 
L 482.488943 -231.208282 
L 481.981163 -230.912185 
L 481.473382 -230.616089 
L 480.965602 -230.319992 
L 480.457821 -230.023895 
L 479.950041 -229.727798 
L 479.44226 -229.431702 
L 478.93448 -229.135605 
L 478.426699 -228.839508 
L 477.918919 -228.543411 
L 477.411138 -228.247315 
L 476.903358 -227.951218 
L 476.395577 -227.655121 
L 475.887797 -227.359024 
L 475.380016 -227.062928 
L 474.872236 -226.766831 
L 474.364455 -226.470734 
L 473.856675 -226.174637 
L 473.348894 -225.878541 
L 472.841114 -225.582444 
L 472.333333 -225.286347 
L 471.825553 -224.99025 
L 471.317772 -224.694154 
L 470.809992 -224.398057 
L 470.302211 -224.10196 
L 469.794431 -223.805864 
L 469.28665 -223.509767 
L 468.77887 -223.21367 
L 468.271089 -222.917573 
L 467.763309 -222.621477 
L 467.255528 -222.32538 
L 466.747748 -222.029283 
L 466.239967 -221.733186 
L 465.732187 -221.43709 
L 465.224406 -221.140993 
L 464.716626 -220.844896 
L 464.208845 -220.548799 
L 463.701065 -220.252703 
L 463.193284 -219.956606 
L 462.685504 -219.660509 
L 462.177723 -219.364412 
L 461.669943 -219.068316 
L 461.162162 -218.772219 
L 460.654382 -218.476122 
L 460.146601 -218.180025 
L 459.638821 -217.883929 
L 459.13104 -217.587832 
L 458.62326 -217.291735 
L 458.115479 -216.995638 
L 457.607699 -216.699542 
L 457.099918 -216.403445 
L 456.592138 -216.107348 
L 456.084357 -215.811251 
L 455.576577 -215.515155 
L 455.068796 -215.219058 
L 454.561016 -214.922961 
L 454.053235 -214.626864 
L 453.545455 -214.330768 
L 453.037674 -214.034671 
L 452.529894 -213.738574 
L 452.022113 -213.442477 
L 451.514333 -213.146381 
L 451.006552 -212.850284 
L 450.498771 -212.554187 
L 449.990991 -212.25809 
L 449.48321 -211.961994 
L 448.97543 -211.665897 
L 448.467649 -211.3698 
L 447.959869 -211.073703 
L 447.452088 -210.777607 
L 446.944308 -210.48151 
L 446.436527 -210.185413 
L 445.928747 -209.889316 
L 445.420966 -209.59322 
L 444.913186 -209.297123 
L 444.405405 -209.001026 
L 443.897625 -208.704929 
L 443.389844 -208.408833 
L 442.882064 -208.112736 
L 442.374283 -207.816639 
L 441.866503 -207.520542 
L 441.358722 -207.224446 
L 440.850942 -206.928349 
L 440.343161 -206.632252 
L 439.835381 -206.336155 
L 439.3276 -206.040059 
L 438.81982 -205.743962 
L 438.312039 -205.447865 
L 437.804259 -205.151768 
L 437.296478 -204.855672 
L 436.788698 -204.559575 
L 436.280917 -204.263478 
L 435.773137 -203.967381 
L 435.265356 -203.671285 
L 434.757576 -203.375188 
L 434.249795 -203.079091 
L 433.742015 -202.782994 
L 433.234234 -202.486898 
L 432.726454 -202.190801 
L 432.218673 -201.894704 
L 431.710893 -201.598607 
L 431.203112 -201.302511 
L 430.695332 -201.006414 
L 430.187551 -200.710317 
L 429.679771 -200.41422 
L 429.17199 -200.118124 
L 428.66421 -199.822027 
L 428.156429 -199.52593 
L 427.648649 -199.229833 
L 427.140868 -198.933737 
L 426.633088 -198.63764 
L 426.125307 -198.341543 
L 425.617527 -198.045446 
L 425.109746 -197.74935 
L 424.601966 -197.453253 
L 424.094185 -197.157156 
L 423.586405 -196.861059 
L 423.078624 -196.564963 
L 422.570844 -196.268866 
L 422.063063 -195.972769 
L 421.555283 -195.676672 
L 421.047502 -195.380576 
L 420.539722 -195.084479 
L 420.031941 -194.788382 
L 419.524161 -194.492285 
L 419.01638 -194.196189 
L 418.5086 -193.900092 
L 418.000819 -193.603995 
L 417.493038 -193.307898 
L 416.985258 -193.011802 
L 416.477477 -192.715705 
L 415.969697 -192.419608 
L 415.461916 -192.123511 
L 414.954136 -191.827415 
L 414.446355 -191.531318 
L 413.938575 -191.235221 
L 413.430794 -190.939124 
L 412.923014 -190.643028 
L 412.415233 -190.346931 
L 411.907453 -190.050834 
L 411.399672 -189.754737 
L 410.891892 -189.458641 
L 410.384111 -189.162544 
L 409.876331 -188.866447 
L 409.36855 -188.57035 
L 408.86077 -188.274254 
L 408.352989 -187.978157 
L 407.845209 -187.68206 
L 407.337428 -187.385963 
L 406.829648 -187.089867 
L 406.321867 -186.79377 
L 405.814087 -186.497673 
L 405.306306 -186.201577 
L 404.798526 -185.90548 
L 404.290745 -185.609383 
L 403.782965 -185.313286 
L 403.275184 -185.01719 
L 402.767404 -184.721093 
L 402.259623 -184.424996 
L 401.751843 -184.128899 
L 401.244062 -183.832803 
L 400.736282 -183.536706 
L 400.228501 -183.240609 
L 399.720721 -182.944512 
L 399.21294 -182.648416 
L 398.70516 -182.352319 
L 398.197379 -182.056222 
L 397.689599 -181.760125 
L 397.181818 -181.464029 
L 396.674038 -181.167932 
L 396.166257 -180.871835 
L 395.658477 -180.575738 
L 395.150696 -180.279642 
L 394.642916 -179.983545 
L 394.135135 -179.687448 
L 393.627355 -179.391351 
L 393.119574 -179.095255 
L 392.611794 -178.799158 
L 392.104013 -178.503061 
L 391.596233 -178.206964 
L 391.088452 -177.910868 
L 390.580672 -177.614771 
L 390.072891 -177.318674 
L 389.565111 -177.022577 
L 389.05733 -176.726481 
L 388.54955 -176.430384 
L 388.041769 -176.134287 
L 387.533989 -175.83819 
L 387.026208 -175.542094 
L 386.518428 -175.245997 
L 386.010647 -174.9499 
L 385.502867 -174.653803 
L 384.995086 -174.357707 
L 384.487305 -174.06161 
L 383.979525 -173.765513 
L 383.471744 -173.469416 
L 382.963964 -173.17332 
L 382.456183 -172.877223 
L 381.948403 -172.581126 
L 381.440622 -172.285029 
L 380.932842 -171.988933 
L 380.425061 -171.692836 
L 379.917281 -171.396739 
L 379.4095 -171.100642 
L 378.90172 -170.804546 
L 378.393939 -170.508449 
L 377.886159 -170.212352 
L 377.378378 -169.916255 
L 376.870598 -169.620159 
L 376.362817 -169.324062 
L 375.855037 -169.027965 
L 375.347256 -168.731868 
L 374.839476 -168.435772 
L 374.331695 -168.139675 
L 373.823915 -167.843578 
L 373.316134 -167.547481 
L 372.808354 -167.251385 
L 372.300573 -166.955288 
L 371.792793 -166.659191 
L 371.285012 -166.363094 
L 370.777232 -166.066998 
L 370.269451 -165.770901 
L 369.761671 -165.474804 
L 369.25389 -165.178707 
L 368.74611 -164.95882 
L 368.238329 -164.815141 
L 367.730549 -164.671462 
L 367.222768 -164.527783 
L 366.714988 -164.384104 
L 366.207207 -164.240425 
L 365.699427 -164.096747 
L 365.191646 -163.953068 
L 364.683866 -163.809389 
L 364.176085 -163.66571 
L 363.668305 -163.522031 
L 363.160524 -163.378352 
L 362.652744 -163.234674 
L 362.144963 -163.090995 
L 361.637183 -162.947316 
L 361.129402 -162.803637 
L 360.621622 -162.659958 
L 360.113841 -162.51628 
L 359.606061 -162.372601 
L 359.09828 -162.228922 
L 358.5905 -162.085243 
L 358.082719 -161.941564 
L 357.574939 -161.797885 
L 357.067158 -161.654207 
L 356.559378 -161.510528 
L 356.051597 -161.366849 
L 355.543817 -161.22317 
L 355.036036 -161.079491 
L 354.528256 -160.935812 
L 354.020475 -160.792134 
L 353.512695 -160.648455 
L 353.004914 -160.504776 
L 352.497133 -160.361097 
L 351.989353 -160.217418 
L 351.481572 -160.073739 
L 350.973792 -159.930061 
L 350.466011 -159.786382 
L 349.958231 -159.642703 
L 349.45045 -159.499024 
L 348.94267 -159.355345 
L 348.434889 -159.211666 
L 347.927109 -159.067988 
L 347.419328 -158.924309 
L 346.911548 -158.78063 
L 346.403767 -158.636951 
L 345.895987 -158.493272 
L 345.388206 -158.349593 
L 344.880426 -158.205915 
L 344.372645 -158.062236 
L 343.864865 -157.918557 
L 343.357084 -157.774878 
L 342.849304 -157.631199 
L 342.341523 -157.48752 
L 341.833743 -157.343842 
L 341.325962 -157.200163 
L 340.818182 -157.056484 
L 340.310401 -156.912805 
L 339.802621 -156.769126 
L 339.29484 -156.625447 
L 338.78706 -156.481769 
L 338.279279 -156.33809 
L 337.771499 -156.194411 
L 337.263718 -156.050732 
L 336.755938 -155.907053 
L 336.248157 -155.763375 
L 335.740377 -155.619696 
L 335.232596 -155.476017 
L 334.724816 -155.332338 
L 334.217035 -155.188659 
L 333.709255 -155.04498 
L 333.201474 -154.901302 
L 332.693694 -154.757623 
L 332.185913 -154.613944 
L 331.678133 -154.470265 
L 331.170352 -154.326586 
L 330.662572 -154.182907 
L 330.154791 -154.039229 
L 329.647011 -153.89555 
L 329.13923 -153.751871 
L 328.63145 -153.608192 
L 328.123669 -153.464513 
L 327.615889 -153.320834 
L 327.108108 -153.177156 
L 326.600328 -153.033477 
L 326.092547 -152.889798 
L 325.584767 -152.746119 
L 325.076986 -152.60244 
L 324.569206 -152.458761 
L 324.061425 -152.315083 
L 323.553645 -152.171404 
L 323.045864 -152.027725 
L 322.538084 -151.884046 
L 322.030303 -151.740367 
L 321.522523 -151.596688 
L 321.014742 -151.45301 
L 320.506962 -151.309331 
L 319.999181 -151.165652 
L 319.4914 -151.021973 
L 318.98362 -150.878294 
L 318.475839 -150.734615 
L 317.968059 -150.590937 
L 317.460278 -150.447258 
L 316.952498 -150.303579 
L 316.444717 -150.1599 
L 315.936937 -150.016221 
L 315.429156 -149.872543 
L 314.921376 -149.728864 
L 314.413595 -149.585185 
L 313.905815 -149.441506 
L 313.398034 -149.297827 
L 312.890254 -149.154148 
L 312.382473 -149.01047 
L 311.874693 -148.866791 
L 311.366912 -148.723112 
L 310.859132 -148.579433 
L 310.351351 -148.435754 
L 309.843571 -148.292075 
L 309.33579 -148.148397 
L 308.82801 -148.004718 
L 308.320229 -147.861039 
L 307.812449 -147.71736 
L 307.304668 -147.573681 
L 306.796888 -147.430002 
L 306.289107 -147.286324 
L 305.781327 -147.142645 
L 305.273546 -146.998966 
L 304.765766 -146.855287 
L 304.257985 -146.711608 
L 303.750205 -146.567929 
L 303.242424 -146.424251 
L 302.734644 -146.280572 
L 302.226863 -146.136893 
L 301.719083 -145.993214 
L 301.211302 -145.849535 
L 300.703522 -145.705856 
L 300.195741 -145.562178 
L 299.687961 -145.418499 
L 299.18018 -145.27482 
L 298.6724 -145.131141 
L 298.164619 -144.987462 
L 297.656839 -144.843783 
L 297.149058 -144.700105 
L 296.641278 -144.556426 
L 296.133497 -144.412747 
L 295.625717 -144.269068 
L 295.117936 -144.125389 
L 294.610156 -143.981711 
L 294.102375 -143.838032 
L 293.594595 -143.694353 
L 293.086814 -143.550674 
L 292.579034 -143.406995 
L 292.071253 -143.263316 
L 291.563473 -143.119638 
L 291.055692 -142.975959 
L 290.547912 -142.83228 
L 290.040131 -142.688601 
L 289.532351 -142.544922 
L 289.02457 -142.401243 
L 288.51679 -142.257565 
L 288.009009 -142.113886 
L 287.501229 -141.970207 
L 286.993448 -141.826528 
L 286.485667 -141.682849 
L 285.977887 -141.53917 
L 285.470106 -141.395492 
L 284.962326 -141.251813 
L 284.454545 -141.108134 
L 283.946765 -140.964455 
L 283.438984 -140.820776 
L 282.931204 -140.677097 
L 282.423423 -140.533419 
L 281.915643 -140.38974 
L 281.407862 -140.246061 
L 280.900082 -140.102382 
L 280.392301 -139.958703 
L 279.884521 -139.815024 
L 279.37674 -139.671346 
L 278.86896 -139.527667 
L 278.361179 -139.383988 
L 277.853399 -139.240309 
L 277.345618 -139.09663 
L 276.837838 -138.952951 
L 276.330057 -138.809273 
L 275.822277 -138.665594 
L 275.314496 -138.521915 
L 274.806716 -138.378236 
L 274.298935 -138.234557 
L 273.791155 -138.090878 
L 273.283374 -137.9472 
L 272.775594 -137.803521 
L 272.267813 -137.659842 
L 271.760033 -137.516163 
L 271.252252 -137.372484 
L 270.744472 -137.228806 
L 270.236691 -137.085127 
L 269.728911 -136.941448 
L 269.22113 -136.797769 
L 268.71335 -136.65409 
L 268.205569 -136.510411 
L 267.697789 -136.366733 
L 267.190008 -136.223054 
L 266.682228 -136.079375 
L 266.174447 -135.935696 
L 265.666667 -135.792017 
L 265.158886 -135.648338 
L 264.651106 -135.50466 
L 264.143325 -135.360981 
L 263.635545 -135.217302 
L 263.127764 -135.073623 
L 262.619984 -134.929944 
L 262.112203 -134.786265 
L 261.604423 -134.642587 
L 261.096642 -134.498908 
L 260.588862 -134.355229 
L 260.081081 -134.21155 
L 259.573301 -134.067871 
L 259.06552 -133.924192 
L 258.55774 -133.780514 
L 258.049959 -133.636835 
L 257.542179 -133.493156 
L 257.034398 -133.349477 
L 256.526618 -133.205798 
L 256.018837 -133.062119 
L 255.511057 -132.918441 
L 255.003276 -132.774762 
L 254.495495 -132.631083 
L 253.987715 -132.487404 
L 253.479934 -132.343725 
L 252.972154 -132.200046 
L 252.464373 -132.056368 
L 251.956593 -131.912689 
L 251.448812 -131.76901 
L 250.941032 -131.625331 
L 250.433251 -131.481652 
L 249.925471 -131.337974 
L 249.41769 -131.194295 
L 248.90991 -131.050616 
L 248.402129 -130.906937 
L 247.894349 -130.763258 
L 247.386568 -130.619579 
L 246.878788 -130.475901 
L 246.371007 -130.332222 
L 245.863227 -130.188543 
L 245.355446 -130.044864 
L 244.847666 -129.901185 
L 244.339885 -129.757506 
L 243.832105 -129.613828 
L 243.324324 -129.470149 
L 242.816544 -129.32647 
L 242.308763 -129.182791 
L 241.800983 -129.039112 
L 241.293202 -128.895433 
L 240.785422 -128.751755 
L 240.277641 -128.608076 
L 239.769861 -128.464397 
L 239.26208 -128.320718 
L 238.7543 -128.177039 
L 238.246519 -128.03336 
L 237.738739 -127.889682 
L 237.230958 -127.746003 
L 236.723178 -127.602324 
L 236.215397 -127.458645 
L 235.707617 -127.314966 
L 235.199836 -127.171287 
L 234.692056 -127.027609 
L 234.184275 -126.88393 
L 233.676495 -126.740251 
L 233.168714 -126.596572 
L 232.660934 -126.452893 
L 232.153153 -126.309214 
L 231.645373 -126.165536 
L 231.137592 -126.021857 
L 230.629812 -125.878178 
L 230.122031 -125.734499 
L 229.614251 -125.59082 
L 229.10647 -125.447142 
L 228.59869 -125.303463 
L 228.090909 -125.159784 
L 227.583129 -125.016105 
L 227.075348 -124.872426 
L 226.567568 -124.728747 
L 226.059787 -124.585069 
L 225.552007 -124.44139 
L 225.044226 -124.297711 
L 224.536446 -124.154032 
L 224.028665 -124.010353 
L 223.520885 -123.866674 
L 223.013104 -123.722996 
L 222.505324 -123.579317 
L 221.997543 -123.435638 
L 221.489762 -123.291959 
L 220.981982 -123.14828 
L 220.474201 -123.004601 
L 219.966421 -122.860923 
L 219.45864 -122.717244 
L 218.95086 -122.573565 
L 218.443079 -122.429886 
L 217.935299 -122.286207 
L 217.427518 -122.142528 
L 216.919738 -121.99885 
L 216.411957 -121.855171 
L 215.904177 -121.711492 
L 215.396396 -121.567813 
L 214.888616 -121.424134 
L 214.380835 -121.280455 
L 213.873055 -121.136777 
L 213.365274 -120.993098 
L 212.857494 -120.849419 
L 212.349713 -120.70574 
L 211.841933 -120.562061 
L 211.334152 -120.418382 
L 210.826372 -120.274704 
L 210.318591 -120.131025 
L 209.810811 -119.987346 
L 209.30303 -119.843667 
L 208.79525 -119.699988 
L 208.287469 -119.556309 
L 207.779689 -119.412631 
L 207.271908 -119.268952 
L 206.764128 -119.125273 
L 206.256347 -118.981594 
L 205.748567 -118.837915 
L 205.240786 -118.694237 
L 204.733006 -118.550558 
L 204.225225 -118.406879 
L 203.717445 -118.2632 
L 203.209664 -118.119521 
L 202.701884 -117.975842 
L 202.194103 -117.832164 
L 201.686323 -117.688485 
L 201.178542 -117.544806 
L 200.670762 -117.401127 
L 200.162981 -117.257448 
L 199.655201 -117.113769 
L 199.14742 -116.970091 
L 198.63964 -116.826412 
L 198.131859 -116.682733 
L 197.624079 -116.539054 
L 197.116298 -116.395375 
L 196.608518 -116.251696 
L 196.100737 -116.108018 
L 195.592957 -115.964339 
L 195.085176 -115.82066 
L 194.577396 -115.676981 
L 194.069615 -115.533302 
L 193.561835 -115.389623 
L 193.054054 -115.245945 
L 192.546274 -115.102266 
L 192.038493 -114.958587 
L 191.530713 -114.814908 
L 191.022932 -114.671229 
L 190.515152 -114.52755 
L 190.007371 -114.383872 
L 189.49959 -114.240193 
L 188.99181 -114.096514 
L 188.484029 -113.952835 
L 187.976249 -113.809156 
L 187.468468 -113.665477 
L 186.960688 -113.521799 
L 186.452907 -113.37812 
L 185.945127 -113.234441 
L 185.437346 -113.090762 
L 184.929566 -112.947083 
L 184.421785 -112.803405 
L 183.914005 -112.659726 
L 183.406224 -112.516047 
L 182.898444 -112.372368 
L 182.390663 -112.228689 
L 181.882883 -112.08501 
L 181.375102 -111.941332 
L 180.867322 -111.797653 
L 180.359541 -111.653974 
L 179.851761 -111.510295 
L 179.34398 -111.366616 
L 178.8362 -111.222937 
L 178.328419 -111.079259 
L 177.820639 -110.93558 
L 177.312858 -110.791901 
L 176.805078 -110.648222 
L 176.297297 -110.504543 
L 175.789517 -110.360864 
L 175.281736 -110.217186 
L 174.773956 -110.073507 
L 174.266175 -109.929828 
L 173.758395 -109.786149 
L 173.250614 -109.64247 
L 172.742834 -109.498791 
L 172.235053 -109.355113 
L 171.727273 -109.211434 
L 171.219492 -109.067755 
L 170.711712 -108.924076 
L 170.203931 -108.780397 
L 169.696151 -108.636718 
L 169.18837 -108.49304 
L 168.68059 -108.349361 
L 168.172809 -108.205682 
L 167.665029 -108.062003 
L 167.157248 -107.918324 
L 166.649468 -107.774645 
L 166.141687 -107.630967 
L 165.633907 -107.487288 
L 165.126126 -107.343609 
L 164.618346 -107.19993 
L 164.110565 -107.056251 
L 163.602785 -106.912573 
L 163.095004 -106.768894 
L 162.587224 -106.625215 
L 162.079443 -106.481536 
L 161.571663 -106.337857 
L 161.063882 -106.194178 
L 160.556102 -106.0505 
L 160.048321 -105.906821 
L 159.540541 -105.763142 
L 159.03276 -105.619463 
L 158.52498 -105.475784 
L 158.017199 -105.332105 
L 157.509419 -105.188427 
L 157.001638 -105.044748 
L 156.493857 -104.901069 
L 155.986077 -104.75739 
L 155.478296 -104.613711 
L 154.970516 -104.470032 
L 154.462735 -104.326354 
L 153.954955 -104.182675 
L 153.447174 -104.038996 
L 152.939394 -103.895317 
L 152.431613 -103.751638 
L 151.923833 -103.607959 
L 151.416052 -103.464281 
L 150.908272 -103.320602 
L 150.400491 -103.176923 
L 149.892711 -103.033244 
L 149.38493 -102.889565 
L 148.87715 -102.745886 
L 148.369369 -102.602208 
L 147.861589 -102.458529 
L 147.353808 -102.31485 
L 146.846028 -102.171171 
L 146.338247 -102.027492 
L 145.830467 -101.883813 
L 145.322686 -101.740135 
L 144.814906 -101.596456 
L 144.307125 -101.452777 
L 143.799345 -101.309098 
L 143.291564 -101.165419 
L 142.783784 -101.02174 
L 142.276003 -100.878062 
L 141.768223 -100.734383 
L 141.260442 -100.590704 
L 140.752662 -100.447025 
L 140.244881 -100.303346 
L 139.737101 -100.159668 
L 139.22932 -100.015989 
L 138.72154 -99.87231 
L 138.213759 -99.728631 
L 137.705979 -99.584952 
L 137.198198 -99.441273 
L 136.690418 -99.297595 
L 136.182637 -99.153916 
L 135.674857 -99.010237 
L 135.167076 -98.866558 
L 134.659296 -98.722879 
L 134.151515 -98.5792 
L 133.643735 -98.435522 
L 133.135954 -98.291843 
L 132.628174 -98.148164 
L 132.120393 -98.004485 
L 131.612613 -97.860806 
L 131.104832 -97.717127 
L 130.597052 -97.573449 
L 130.089271 -97.42977 
L 129.581491 -97.286091 
L 129.07371 -97.142412 
L 128.56593 -96.998733 
L 128.058149 -96.855054 
L 127.550369 -96.711376 
L 127.042588 -96.567697 
L 126.534808 -96.424018 
L 126.027027 -96.280339 
L 125.519247 -96.13666 
L 125.011466 -95.992981 
L 124.503686 -95.849303 
L 123.995905 -95.705624 
L 123.488124 -95.561945 
L 122.980344 -95.418266 
L 122.472563 -95.274587 
L 121.964783 -95.130908 
L 121.457002 -94.98723 
L 120.949222 -94.843551 
L 120.441441 -94.699872 
L 119.933661 -94.556193 
L 119.42588 -94.412514 
L 118.9181 -94.268836 
L 118.410319 -94.125157 
L 117.902539 -93.981478 
L 117.394758 -93.837799 
L 116.886978 -93.69412 
L 116.379197 -93.550441 
L 115.871417 -93.406763 
L 115.363636 -93.263084 
z
" style="stroke: #ff0000; stroke-opacity: 0.2"/>
    </defs>
    <g clip-path="url(#p9d9a999537)">
     <use xlink:href="#m2ca8a60e4b" x="0" y="432" style="fill: #ff0000; fill-opacity: 0.2; stroke: #ff0000; stroke-opacity: 0.2"/>
    </g>
   </g>
   <g id="matplotlib.axis_1">
    <g id="xtick_1">
     <g id="line2d_1">
      <path d="M 115.363636 384.48 
L 115.363636 51.84 
" clip-path="url(#p9d9a999537)" style="fill: none; stroke: #b0b0b0; stroke-width: 0.8; stroke-linecap: square"/>
     </g>
     <g id="line2d_2">
      <defs>
       <path id="m4a939c189c" d="M 0 0 
L 0 3.5 
" style="stroke: #000000; stroke-width: 0.8"/>
      </defs>
      <g>
       <use xlink:href="#m4a939c189c" x="115.363636" y="384.48" style="stroke: #000000; stroke-width: 0.8"/>
      </g>
     </g>
     <g id="text_1">
      <!-- n -->
      <g transform="translate(112.194886 399.078438) scale(0.1 -0.1)">
       <defs>
        <path id="DejaVuSans-6e" d="M 3513 2113 
L 3513 0 
L 2938 0 
L 2938 2094 
Q 2938 2591 2744 2837 
Q 2550 3084 2163 3084 
Q 1697 3084 1428 2787 
Q 1159 2491 1159 1978 
L 1159 0 
L 581 0 
L 581 3500 
L 1159 3500 
L 1159 2956 
Q 1366 3272 1645 3428 
Q 1925 3584 2291 3584 
Q 2894 3584 3203 3211 
Q 3513 2838 3513 2113 
z
" transform="scale(0.015625)"/>
       </defs>
       <use xlink:href="#DejaVuSans-6e"/>
      </g>
     </g>
    </g>
    <g id="xtick_2">
     <g id="line2d_3">
      <path d="M 369 384.48 
L 369 51.84 
" clip-path="url(#p9d9a999537)" style="fill: none; stroke: #b0b0b0; stroke-width: 0.8; stroke-linecap: square"/>
     </g>
     <g id="line2d_4">
      <g>
       <use xlink:href="#m4a939c189c" x="369" y="384.48" style="stroke: #000000; stroke-width: 0.8"/>
      </g>
     </g>
     <g id="text_2">
      <!-- 2n -->
      <g transform="translate(359.464063 399.078438) scale(0.1 -0.1)">
       <defs>
        <path id="DejaVuSans-221a" d="M 3488 5191 
L 4078 5191 
L 4078 4891 
L 3719 4891 
L 1863 -128 
L 1656 -128 
L 659 2631 
L 269 2491 
L 191 2741 
L 1075 3047 
L 1875 831 
L 3488 5191 
z
" transform="scale(0.015625)"/>
        <path id="DejaVuSans-32" d="M 1228 531 
L 3431 531 
L 3431 0 
L 469 0 
L 469 531 
Q 828 903 1448 1529 
Q 2069 2156 2228 2338 
Q 2531 2678 2651 2914 
Q 2772 3150 2772 3378 
Q 2772 3750 2511 3984 
Q 2250 4219 1831 4219 
Q 1534 4219 1204 4116 
Q 875 4013 500 3803 
L 500 4441 
Q 881 4594 1212 4672 
Q 1544 4750 1819 4750 
Q 2544 4750 2975 4387 
Q 3406 4025 3406 3419 
Q 3406 3131 3298 2873 
Q 3191 2616 2906 2266 
Q 2828 2175 2409 1742 
Q 1991 1309 1228 531 
z
" transform="scale(0.015625)"/>
       </defs>
       <use xlink:href="#DejaVuSans-221a"/>
       <use xlink:href="#DejaVuSans-32" x="63.720703"/>
       <use xlink:href="#DejaVuSans-6e" x="127.34375"/>
      </g>
     </g>
    </g>
    <g id="xtick_3">
     <g id="line2d_5">
      <path d="M 622.636364 384.48 
L 622.636364 51.84 
" clip-path="url(#p9d9a999537)" style="fill: none; stroke: #b0b0b0; stroke-width: 0.8; stroke-linecap: square"/>
     </g>
     <g id="line2d_6">
      <g>
       <use xlink:href="#m4a939c189c" x="622.636364" y="384.48" style="stroke: #000000; stroke-width: 0.8"/>
      </g>
     </g>
     <g id="text_3">
      <!-- (2*2n) -->
      <g transform="translate(600.331676 399.078438) scale(0.1 -0.1)">
       <defs>
        <path id="DejaVuSans-28" d="M 1984 4856 
Q 1566 4138 1362 3434 
Q 1159 2731 1159 2009 
Q 1159 1288 1364 580 
Q 1569 -128 1984 -844 
L 1484 -844 
Q 1016 -109 783 600 
Q 550 1309 550 2009 
Q 550 2706 781 3412 
Q 1013 4119 1484 4856 
L 1984 4856 
z
" transform="scale(0.015625)"/>
        <path id="DejaVuSans-2a" d="M 3009 3897 
L 1888 3291 
L 3009 2681 
L 2828 2375 
L 1778 3009 
L 1778 1831 
L 1422 1831 
L 1422 3009 
L 372 2375 
L 191 2681 
L 1313 3291 
L 191 3897 
L 372 4206 
L 1422 3572 
L 1422 4750 
L 1778 4750 
L 1778 3572 
L 2828 4206 
L 3009 3897 
z
" transform="scale(0.015625)"/>
        <path id="DejaVuSans-29" d="M 513 4856 
L 1013 4856 
Q 1481 4119 1714 3412 
Q 1947 2706 1947 2009 
Q 1947 1309 1714 600 
Q 1481 -109 1013 -844 
L 513 -844 
Q 928 -128 1133 580 
Q 1338 1288 1338 2009 
Q 1338 2731 1133 3434 
Q 928 4138 513 4856 
z
" transform="scale(0.015625)"/>
       </defs>
       <use xlink:href="#DejaVuSans-221a"/>
       <use xlink:href="#DejaVuSans-28" x="63.720703"/>
       <use xlink:href="#DejaVuSans-32" x="102.734375"/>
       <use xlink:href="#DejaVuSans-2a" x="166.357422"/>
       <use xlink:href="#DejaVuSans-221a" x="216.357422"/>
       <use xlink:href="#DejaVuSans-32" x="280.078125"/>
       <use xlink:href="#DejaVuSans-6e" x="343.701172"/>
       <use xlink:href="#DejaVuSans-29" x="407.080078"/>
      </g>
     </g>
    </g>
    <g id="text_4">
     <!-- Sample size -->
     <g transform="translate(338.967969 412.756563) scale(0.1 -0.1)">
      <defs>
       <path id="DejaVuSans-53" d="M 3425 4513 
L 3425 3897 
Q 3066 4069 2747 4153 
Q 2428 4238 2131 4238 
Q 1616 4238 1336 4038 
Q 1056 3838 1056 3469 
Q 1056 3159 1242 3001 
Q 1428 2844 1947 2747 
L 2328 2669 
Q 3034 2534 3370 2195 
Q 3706 1856 3706 1288 
Q 3706 609 3251 259 
Q 2797 -91 1919 -91 
Q 1588 -91 1214 -16 
Q 841 59 441 206 
L 441 856 
Q 825 641 1194 531 
Q 1563 422 1919 422 
Q 2459 422 2753 634 
Q 3047 847 3047 1241 
Q 3047 1584 2836 1778 
Q 2625 1972 2144 2069 
L 1759 2144 
Q 1053 2284 737 2584 
Q 422 2884 422 3419 
Q 422 4038 858 4394 
Q 1294 4750 2059 4750 
Q 2388 4750 2728 4690 
Q 3069 4631 3425 4513 
z
" transform="scale(0.015625)"/>
       <path id="DejaVuSans-61" d="M 2194 1759 
Q 1497 1759 1228 1600 
Q 959 1441 959 1056 
Q 959 750 1161 570 
Q 1363 391 1709 391 
Q 2188 391 2477 730 
Q 2766 1069 2766 1631 
L 2766 1759 
L 2194 1759 
z
M 3341 1997 
L 3341 0 
L 2766 0 
L 2766 531 
Q 2569 213 2275 61 
Q 1981 -91 1556 -91 
Q 1019 -91 701 211 
Q 384 513 384 1019 
Q 384 1609 779 1909 
Q 1175 2209 1959 2209 
L 2766 2209 
L 2766 2266 
Q 2766 2663 2505 2880 
Q 2244 3097 1772 3097 
Q 1472 3097 1187 3025 
Q 903 2953 641 2809 
L 641 3341 
Q 956 3463 1253 3523 
Q 1550 3584 1831 3584 
Q 2591 3584 2966 3190 
Q 3341 2797 3341 1997 
z
" transform="scale(0.015625)"/>
       <path id="DejaVuSans-6d" d="M 3328 2828 
Q 3544 3216 3844 3400 
Q 4144 3584 4550 3584 
Q 5097 3584 5394 3201 
Q 5691 2819 5691 2113 
L 5691 0 
L 5113 0 
L 5113 2094 
Q 5113 2597 4934 2840 
Q 4756 3084 4391 3084 
Q 3944 3084 3684 2787 
Q 3425 2491 3425 1978 
L 3425 0 
L 2847 0 
L 2847 2094 
Q 2847 2600 2669 2842 
Q 2491 3084 2119 3084 
Q 1678 3084 1418 2786 
Q 1159 2488 1159 1978 
L 1159 0 
L 581 0 
L 581 3500 
L 1159 3500 
L 1159 2956 
Q 1356 3278 1631 3431 
Q 1906 3584 2284 3584 
Q 2666 3584 2933 3390 
Q 3200 3197 3328 2828 
z
" transform="scale(0.015625)"/>
       <path id="DejaVuSans-70" d="M 1159 525 
L 1159 -1331 
L 581 -1331 
L 581 3500 
L 1159 3500 
L 1159 2969 
Q 1341 3281 1617 3432 
Q 1894 3584 2278 3584 
Q 2916 3584 3314 3078 
Q 3713 2572 3713 1747 
Q 3713 922 3314 415 
Q 2916 -91 2278 -91 
Q 1894 -91 1617 61 
Q 1341 213 1159 525 
z
M 3116 1747 
Q 3116 2381 2855 2742 
Q 2594 3103 2138 3103 
Q 1681 3103 1420 2742 
Q 1159 2381 1159 1747 
Q 1159 1113 1420 752 
Q 1681 391 2138 391 
Q 2594 391 2855 752 
Q 3116 1113 3116 1747 
z
" transform="scale(0.015625)"/>
       <path id="DejaVuSans-6c" d="M 603 4863 
L 1178 4863 
L 1178 0 
L 603 0 
L 603 4863 
z
" transform="scale(0.015625)"/>
       <path id="DejaVuSans-65" d="M 3597 1894 
L 3597 1613 
L 953 1613 
Q 991 1019 1311 708 
Q 1631 397 2203 397 
Q 2534 397 2845 478 
Q 3156 559 3463 722 
L 3463 178 
Q 3153 47 2828 -22 
Q 2503 -91 2169 -91 
Q 1331 -91 842 396 
Q 353 884 353 1716 
Q 353 2575 817 3079 
Q 1281 3584 2069 3584 
Q 2775 3584 3186 3129 
Q 3597 2675 3597 1894 
z
M 3022 2063 
Q 3016 2534 2758 2815 
Q 2500 3097 2075 3097 
Q 1594 3097 1305 2825 
Q 1016 2553 972 2059 
L 3022 2063 
z
" transform="scale(0.015625)"/>
       <path id="DejaVuSans-20" transform="scale(0.015625)"/>
       <path id="DejaVuSans-73" d="M 2834 3397 
L 2834 2853 
Q 2591 2978 2328 3040 
Q 2066 3103 1784 3103 
Q 1356 3103 1142 2972 
Q 928 2841 928 2578 
Q 928 2378 1081 2264 
Q 1234 2150 1697 2047 
L 1894 2003 
Q 2506 1872 2764 1633 
Q 3022 1394 3022 966 
Q 3022 478 2636 193 
Q 2250 -91 1575 -91 
Q 1294 -91 989 -36 
Q 684 19 347 128 
L 347 722 
Q 666 556 975 473 
Q 1284 391 1588 391 
Q 1994 391 2212 530 
Q 2431 669 2431 922 
Q 2431 1156 2273 1281 
Q 2116 1406 1581 1522 
L 1381 1569 
Q 847 1681 609 1914 
Q 372 2147 372 2553 
Q 372 3047 722 3315 
Q 1072 3584 1716 3584 
Q 2034 3584 2315 3537 
Q 2597 3491 2834 3397 
z
" transform="scale(0.015625)"/>
       <path id="DejaVuSans-69" d="M 603 3500 
L 1178 3500 
L 1178 0 
L 603 0 
L 603 3500 
z
M 603 4863 
L 1178 4863 
L 1178 4134 
L 603 4134 
L 603 4863 
z
" transform="scale(0.015625)"/>
       <path id="DejaVuSans-7a" d="M 353 3500 
L 3084 3500 
L 3084 2975 
L 922 459 
L 3084 459 
L 3084 0 
L 275 0 
L 275 525 
L 2438 3041 
L 353 3041 
L 353 3500 
z
" transform="scale(0.015625)"/>
      </defs>
      <use xlink:href="#DejaVuSans-53"/>
      <use xlink:href="#DejaVuSans-61" x="63.476562"/>
      <use xlink:href="#DejaVuSans-6d" x="124.755859"/>
      <use xlink:href="#DejaVuSans-70" x="222.167969"/>
      <use xlink:href="#DejaVuSans-6c" x="285.644531"/>
      <use xlink:href="#DejaVuSans-65" x="313.427734"/>
      <use xlink:href="#DejaVuSans-20" x="374.951172"/>
      <use xlink:href="#DejaVuSans-73" x="406.738281"/>
      <use xlink:href="#DejaVuSans-69" x="458.837891"/>
      <use xlink:href="#DejaVuSans-7a" x="486.621094"/>
      <use xlink:href="#DejaVuSans-65" x="539.111328"/>
     </g>
    </g>
   </g>
   <g id="matplotlib.axis_2">
    <g id="ytick_1">
     <g id="line2d_7">
      <path d="M 90 384.48 
L 648 384.48 
" clip-path="url(#p9d9a999537)" style="fill: none; stroke: #b0b0b0; stroke-width: 0.8; stroke-linecap: square"/>
     </g>
     <g id="line2d_8">
      <defs>
       <path id="mf0e06365f3" d="M 0 0 
L -3.5 0 
" style="stroke: #000000; stroke-width: 0.8"/>
      </defs>
      <g>
       <use xlink:href="#mf0e06365f3" x="90" y="384.48" style="stroke: #000000; stroke-width: 0.8"/>
      </g>
     </g>
     <g id="text_5">
      <!-- 0.10 -->
      <g transform="translate(60.734375 388.279219) scale(0.1 -0.1)">
       <defs>
        <path id="DejaVuSans-30" d="M 2034 4250 
Q 1547 4250 1301 3770 
Q 1056 3291 1056 2328 
Q 1056 1369 1301 889 
Q 1547 409 2034 409 
Q 2525 409 2770 889 
Q 3016 1369 3016 2328 
Q 3016 3291 2770 3770 
Q 2525 4250 2034 4250 
z
M 2034 4750 
Q 2819 4750 3233 4129 
Q 3647 3509 3647 2328 
Q 3647 1150 3233 529 
Q 2819 -91 2034 -91 
Q 1250 -91 836 529 
Q 422 1150 422 2328 
Q 422 3509 836 4129 
Q 1250 4750 2034 4750 
z
" transform="scale(0.015625)"/>
        <path id="DejaVuSans-2e" d="M 684 794 
L 1344 794 
L 1344 0 
L 684 0 
L 684 794 
z
" transform="scale(0.015625)"/>
        <path id="DejaVuSans-31" d="M 794 531 
L 1825 531 
L 1825 4091 
L 703 3866 
L 703 4441 
L 1819 4666 
L 2450 4666 
L 2450 531 
L 3481 531 
L 3481 0 
L 794 0 
L 794 531 
z
" transform="scale(0.015625)"/>
       </defs>
       <use xlink:href="#DejaVuSans-30"/>
       <use xlink:href="#DejaVuSans-2e" x="63.623047"/>
       <use xlink:href="#DejaVuSans-31" x="95.410156"/>
       <use xlink:href="#DejaVuSans-30" x="159.033203"/>
      </g>
     </g>
    </g>
    <g id="ytick_2">
     <g id="line2d_9">
      <path d="M 90 329.04 
L 648 329.04 
" clip-path="url(#p9d9a999537)" style="fill: none; stroke: #b0b0b0; stroke-width: 0.8; stroke-linecap: square"/>
     </g>
     <g id="line2d_10">
      <g>
       <use xlink:href="#mf0e06365f3" x="90" y="329.04" style="stroke: #000000; stroke-width: 0.8"/>
      </g>
     </g>
     <g id="text_6">
      <!-- 0.15 -->
      <g transform="translate(60.734375 332.839219) scale(0.1 -0.1)">
       <defs>
        <path id="DejaVuSans-35" d="M 691 4666 
L 3169 4666 
L 3169 4134 
L 1269 4134 
L 1269 2991 
Q 1406 3038 1543 3061 
Q 1681 3084 1819 3084 
Q 2600 3084 3056 2656 
Q 3513 2228 3513 1497 
Q 3513 744 3044 326 
Q 2575 -91 1722 -91 
Q 1428 -91 1123 -41 
Q 819 9 494 109 
L 494 744 
Q 775 591 1075 516 
Q 1375 441 1709 441 
Q 2250 441 2565 725 
Q 2881 1009 2881 1497 
Q 2881 1984 2565 2268 
Q 2250 2553 1709 2553 
Q 1456 2553 1204 2497 
Q 953 2441 691 2322 
L 691 4666 
z
" transform="scale(0.015625)"/>
       </defs>
       <use xlink:href="#DejaVuSans-30"/>
       <use xlink:href="#DejaVuSans-2e" x="63.623047"/>
       <use xlink:href="#DejaVuSans-31" x="95.410156"/>
       <use xlink:href="#DejaVuSans-35" x="159.033203"/>
      </g>
     </g>
    </g>
    <g id="ytick_3">
     <g id="line2d_11">
      <path d="M 90 273.6 
L 648 273.6 
" clip-path="url(#p9d9a999537)" style="fill: none; stroke: #b0b0b0; stroke-width: 0.8; stroke-linecap: square"/>
     </g>
     <g id="line2d_12">
      <g>
       <use xlink:href="#mf0e06365f3" x="90" y="273.6" style="stroke: #000000; stroke-width: 0.8"/>
      </g>
     </g>
     <g id="text_7">
      <!-- 0.20 -->
      <g transform="translate(60.734375 277.399219) scale(0.1 -0.1)">
       <use xlink:href="#DejaVuSans-30"/>
       <use xlink:href="#DejaVuSans-2e" x="63.623047"/>
       <use xlink:href="#DejaVuSans-32" x="95.410156"/>
       <use xlink:href="#DejaVuSans-30" x="159.033203"/>
      </g>
     </g>
    </g>
    <g id="ytick_4">
     <g id="line2d_13">
      <path d="M 90 218.16 
L 648 218.16 
" clip-path="url(#p9d9a999537)" style="fill: none; stroke: #b0b0b0; stroke-width: 0.8; stroke-linecap: square"/>
     </g>
     <g id="line2d_14">
      <g>
       <use xlink:href="#mf0e06365f3" x="90" y="218.16" style="stroke: #000000; stroke-width: 0.8"/>
      </g>
     </g>
     <g id="text_8">
      <!-- 0.25 -->
      <g transform="translate(60.734375 221.959219) scale(0.1 -0.1)">
       <use xlink:href="#DejaVuSans-30"/>
       <use xlink:href="#DejaVuSans-2e" x="63.623047"/>
       <use xlink:href="#DejaVuSans-32" x="95.410156"/>
       <use xlink:href="#DejaVuSans-35" x="159.033203"/>
      </g>
     </g>
    </g>
    <g id="ytick_5">
     <g id="line2d_15">
      <path d="M 90 162.72 
L 648 162.72 
" clip-path="url(#p9d9a999537)" style="fill: none; stroke: #b0b0b0; stroke-width: 0.8; stroke-linecap: square"/>
     </g>
     <g id="line2d_16">
      <g>
       <use xlink:href="#mf0e06365f3" x="90" y="162.72" style="stroke: #000000; stroke-width: 0.8"/>
      </g>
     </g>
     <g id="text_9">
      <!-- 0.30 -->
      <g transform="translate(60.734375 166.519219) scale(0.1 -0.1)">
       <defs>
        <path id="DejaVuSans-33" d="M 2597 2516 
Q 3050 2419 3304 2112 
Q 3559 1806 3559 1356 
Q 3559 666 3084 287 
Q 2609 -91 1734 -91 
Q 1441 -91 1130 -33 
Q 819 25 488 141 
L 488 750 
Q 750 597 1062 519 
Q 1375 441 1716 441 
Q 2309 441 2620 675 
Q 2931 909 2931 1356 
Q 2931 1769 2642 2001 
Q 2353 2234 1838 2234 
L 1294 2234 
L 1294 2753 
L 1863 2753 
Q 2328 2753 2575 2939 
Q 2822 3125 2822 3475 
Q 2822 3834 2567 4026 
Q 2313 4219 1838 4219 
Q 1578 4219 1281 4162 
Q 984 4106 628 3988 
L 628 4550 
Q 988 4650 1302 4700 
Q 1616 4750 1894 4750 
Q 2613 4750 3031 4423 
Q 3450 4097 3450 3541 
Q 3450 3153 3228 2886 
Q 3006 2619 2597 2516 
z
" transform="scale(0.015625)"/>
       </defs>
       <use xlink:href="#DejaVuSans-30"/>
       <use xlink:href="#DejaVuSans-2e" x="63.623047"/>
       <use xlink:href="#DejaVuSans-33" x="95.410156"/>
       <use xlink:href="#DejaVuSans-30" x="159.033203"/>
      </g>
     </g>
    </g>
    <g id="ytick_6">
     <g id="line2d_17">
      <path d="M 90 107.28 
L 648 107.28 
" clip-path="url(#p9d9a999537)" style="fill: none; stroke: #b0b0b0; stroke-width: 0.8; stroke-linecap: square"/>
     </g>
     <g id="line2d_18">
      <g>
       <use xlink:href="#mf0e06365f3" x="90" y="107.28" style="stroke: #000000; stroke-width: 0.8"/>
      </g>
     </g>
     <g id="text_10">
      <!-- 0.35 -->
      <g transform="translate(60.734375 111.079219) scale(0.1 -0.1)">
       <use xlink:href="#DejaVuSans-30"/>
       <use xlink:href="#DejaVuSans-2e" x="63.623047"/>
       <use xlink:href="#DejaVuSans-33" x="95.410156"/>
       <use xlink:href="#DejaVuSans-35" x="159.033203"/>
      </g>
     </g>
    </g>
    <g id="ytick_7">
     <g id="line2d_19">
      <path d="M 90 51.84 
L 648 51.84 
" clip-path="url(#p9d9a999537)" style="fill: none; stroke: #b0b0b0; stroke-width: 0.8; stroke-linecap: square"/>
     </g>
     <g id="line2d_20">
      <g>
       <use xlink:href="#mf0e06365f3" x="90" y="51.84" style="stroke: #000000; stroke-width: 0.8"/>
      </g>
     </g>
     <g id="text_11">
      <!-- 0.40 -->
      <g transform="translate(60.734375 55.639219) scale(0.1 -0.1)">
       <defs>
        <path id="DejaVuSans-34" d="M 2419 4116 
L 825 1625 
L 2419 1625 
L 2419 4116 
z
M 2253 4666 
L 3047 4666 
L 3047 1625 
L 3713 1625 
L 3713 1100 
L 3047 1100 
L 3047 0 
L 2419 0 
L 2419 1100 
L 313 1100 
L 313 1709 
L 2253 4666 
z
" transform="scale(0.015625)"/>
       </defs>
       <use xlink:href="#DejaVuSans-30"/>
       <use xlink:href="#DejaVuSans-2e" x="63.623047"/>
       <use xlink:href="#DejaVuSans-34" x="95.410156"/>
       <use xlink:href="#DejaVuSans-30" x="159.033203"/>
      </g>
     </g>
    </g>
    <g id="text_12">
     <!-- Score -->
     <g transform="translate(54.654688 232.162344) rotate(-90) scale(0.1 -0.1)">
      <defs>
       <path id="DejaVuSans-63" d="M 3122 3366 
L 3122 2828 
Q 2878 2963 2633 3030 
Q 2388 3097 2138 3097 
Q 1578 3097 1268 2742 
Q 959 2388 959 1747 
Q 959 1106 1268 751 
Q 1578 397 2138 397 
Q 2388 397 2633 464 
Q 2878 531 3122 666 
L 3122 134 
Q 2881 22 2623 -34 
Q 2366 -91 2075 -91 
Q 1284 -91 818 406 
Q 353 903 353 1747 
Q 353 2603 823 3093 
Q 1294 3584 2113 3584 
Q 2378 3584 2631 3529 
Q 2884 3475 3122 3366 
z
" transform="scale(0.015625)"/>
       <path id="DejaVuSans-6f" d="M 1959 3097 
Q 1497 3097 1228 2736 
Q 959 2375 959 1747 
Q 959 1119 1226 758 
Q 1494 397 1959 397 
Q 2419 397 2687 759 
Q 2956 1122 2956 1747 
Q 2956 2369 2687 2733 
Q 2419 3097 1959 3097 
z
M 1959 3584 
Q 2709 3584 3137 3096 
Q 3566 2609 3566 1747 
Q 3566 888 3137 398 
Q 2709 -91 1959 -91 
Q 1206 -91 779 398 
Q 353 888 353 1747 
Q 353 2609 779 3096 
Q 1206 3584 1959 3584 
z
" transform="scale(0.015625)"/>
       <path id="DejaVuSans-72" d="M 2631 2963 
Q 2534 3019 2420 3045 
Q 2306 3072 2169 3072 
Q 1681 3072 1420 2755 
Q 1159 2438 1159 1844 
L 1159 0 
L 581 0 
L 581 3500 
L 1159 3500 
L 1159 2956 
Q 1341 3275 1631 3429 
Q 1922 3584 2338 3584 
Q 2397 3584 2469 3576 
Q 2541 3569 2628 3553 
L 2631 2963 
z
" transform="scale(0.015625)"/>
      </defs>
      <use xlink:href="#DejaVuSans-53"/>
      <use xlink:href="#DejaVuSans-63" x="63.476562"/>
      <use xlink:href="#DejaVuSans-6f" x="118.457031"/>
      <use xlink:href="#DejaVuSans-72" x="179.638672"/>
      <use xlink:href="#DejaVuSans-65" x="218.501953"/>
     </g>
    </g>
   </g>
   <g id="line2d_21">
    <path d="M 115.363636 338.736916 
L 369 313.045704 
L 622.636364 246.34116 
" clip-path="url(#p9d9a999537)" style="fill: none; stroke: #1f77b4; stroke-width: 1.5; stroke-linecap: square"/>
   </g>
   <g id="patch_3">
    <path d="M 90 384.48 
L 90 51.84 
" style="fill: none; stroke: #000000; stroke-width: 0.8; stroke-linejoin: miter; stroke-linecap: square"/>
   </g>
   <g id="patch_4">
    <path d="M 648 384.48 
L 648 51.84 
" style="fill: none; stroke: #000000; stroke-width: 0.8; stroke-linejoin: miter; stroke-linecap: square"/>
   </g>
   <g id="patch_5">
    <path d="M 90 384.48 
L 648 384.48 
" style="fill: none; stroke: #000000; stroke-width: 0.8; stroke-linejoin: miter; stroke-linecap: square"/>
   </g>
   <g id="patch_6">
    <path d="M 90 51.84 
L 648 51.84 
" style="fill: none; stroke: #000000; stroke-width: 0.8; stroke-linejoin: miter; stroke-linecap: square"/>
   </g>
   <g id="text_13">
    <!-- MMD scores -->
    <g transform="translate(332.874375 45.84) scale(0.12 -0.12)">
     <defs>
      <path id="DejaVuSans-4d" d="M 628 4666 
L 1569 4666 
L 2759 1491 
L 3956 4666 
L 4897 4666 
L 4897 0 
L 4281 0 
L 4281 4097 
L 3078 897 
L 2444 897 
L 1241 4097 
L 1241 0 
L 628 0 
L 628 4666 
z
" transform="scale(0.015625)"/>
      <path id="DejaVuSans-44" d="M 1259 4147 
L 1259 519 
L 2022 519 
Q 2988 519 3436 956 
Q 3884 1394 3884 2338 
Q 3884 3275 3436 3711 
Q 2988 4147 2022 4147 
L 1259 4147 
z
M 628 4666 
L 1925 4666 
Q 3281 4666 3915 4102 
Q 4550 3538 4550 2338 
Q 4550 1131 3912 565 
Q 3275 0 1925 0 
L 628 0 
L 628 4666 
z
" transform="scale(0.015625)"/>
     </defs>
     <use xlink:href="#DejaVuSans-4d"/>
     <use xlink:href="#DejaVuSans-4d" x="86.279297"/>
     <use xlink:href="#DejaVuSans-44" x="172.558594"/>
     <use xlink:href="#DejaVuSans-20" x="249.560547"/>
     <use xlink:href="#DejaVuSans-73" x="281.347656"/>
     <use xlink:href="#DejaVuSans-63" x="333.447266"/>
     <use xlink:href="#DejaVuSans-6f" x="388.427734"/>
     <use xlink:href="#DejaVuSans-72" x="449.609375"/>
     <use xlink:href="#DejaVuSans-65" x="488.472656"/>
     <use xlink:href="#DejaVuSans-73" x="549.996094"/>
    </g>
   </g>
   <g id="legend_1">
    <g id="patch_7">
     <path d="M 513.845312 89.19625 
L 641 89.19625 
Q 643 89.19625 643 87.19625 
L 643 58.84 
Q 643 56.84 641 56.84 
L 513.845312 56.84 
Q 511.845312 56.84 511.845312 58.84 
L 511.845312 87.19625 
Q 511.845312 89.19625 513.845312 89.19625 
z
" style="fill: #ffffff; opacity: 0.8; stroke: #cccccc; stroke-linejoin: miter"/>
    </g>
    <g id="line2d_22">
     <path d="M 515.845312 64.938437 
L 525.845312 64.938437 
L 535.845312 64.938437 
" style="fill: none; stroke: #1f77b4; stroke-width: 1.5; stroke-linecap: square"/>
    </g>
    <g id="text_14">
     <!-- Mean -->
     <g transform="translate(543.845312 68.438437) scale(0.1 -0.1)">
      <use xlink:href="#DejaVuSans-4d"/>
      <use xlink:href="#DejaVuSans-65" x="86.279297"/>
      <use xlink:href="#DejaVuSans-61" x="147.802734"/>
      <use xlink:href="#DejaVuSans-6e" x="209.082031"/>
     </g>
    </g>
    <g id="patch_8">
     <path d="M 515.845312 83.116562 
L 535.845312 83.116562 
L 535.845312 76.116562 
L 515.845312 76.116562 
z
" style="fill: #ff0000; fill-opacity: 0.2; stroke: #ff0000; stroke-opacity: 0.2; stroke-linejoin: miter"/>
    </g>
    <g id="text_15">
     <!-- Standard deviation -->
     <g transform="translate(543.845312 83.116562) scale(0.1 -0.1)">
      <defs>
       <path id="DejaVuSans-74" d="M 1172 4494 
L 1172 3500 
L 2356 3500 
L 2356 3053 
L 1172 3053 
L 1172 1153 
Q 1172 725 1289 603 
Q 1406 481 1766 481 
L 2356 481 
L 2356 0 
L 1766 0 
Q 1100 0 847 248 
Q 594 497 594 1153 
L 594 3053 
L 172 3053 
L 172 3500 
L 594 3500 
L 594 4494 
L 1172 4494 
z
" transform="scale(0.015625)"/>
       <path id="DejaVuSans-64" d="M 2906 2969 
L 2906 4863 
L 3481 4863 
L 3481 0 
L 2906 0 
L 2906 525 
Q 2725 213 2448 61 
Q 2172 -91 1784 -91 
Q 1150 -91 751 415 
Q 353 922 353 1747 
Q 353 2572 751 3078 
Q 1150 3584 1784 3584 
Q 2172 3584 2448 3432 
Q 2725 3281 2906 2969 
z
M 947 1747 
Q 947 1113 1208 752 
Q 1469 391 1925 391 
Q 2381 391 2643 752 
Q 2906 1113 2906 1747 
Q 2906 2381 2643 2742 
Q 2381 3103 1925 3103 
Q 1469 3103 1208 2742 
Q 947 2381 947 1747 
z
" transform="scale(0.015625)"/>
       <path id="DejaVuSans-76" d="M 191 3500 
L 800 3500 
L 1894 563 
L 2988 3500 
L 3597 3500 
L 2284 0 
L 1503 0 
L 191 3500 
z
" transform="scale(0.015625)"/>
      </defs>
      <use xlink:href="#DejaVuSans-53"/>
      <use xlink:href="#DejaVuSans-74" x="63.476562"/>
      <use xlink:href="#DejaVuSans-61" x="102.685547"/>
      <use xlink:href="#DejaVuSans-6e" x="163.964844"/>
      <use xlink:href="#DejaVuSans-64" x="227.34375"/>
      <use xlink:href="#DejaVuSans-61" x="290.820312"/>
      <use xlink:href="#DejaVuSans-72" x="352.099609"/>
      <use xlink:href="#DejaVuSans-64" x="391.462891"/>
      <use xlink:href="#DejaVuSans-20" x="454.939453"/>
      <use xlink:href="#DejaVuSans-64" x="486.726562"/>
      <use xlink:href="#DejaVuSans-65" x="550.203125"/>
      <use xlink:href="#DejaVuSans-76" x="611.726562"/>
      <use xlink:href="#DejaVuSans-69" x="670.90625"/>
      <use xlink:href="#DejaVuSans-61" x="698.689453"/>
      <use xlink:href="#DejaVuSans-74" x="759.96875"/>
      <use xlink:href="#DejaVuSans-69" x="799.177734"/>
      <use xlink:href="#DejaVuSans-6f" x="826.960938"/>
      <use xlink:href="#DejaVuSans-6e" x="888.142578"/>
     </g>
    </g>
   </g>
  </g>
 </g>
 <defs>
  <clipPath id="p9d9a999537">
   <rect x="90" y="51.84" width="558" height="332.64"/>
  </clipPath>
 </defs>
</svg>
