<?xml version="1.0" encoding="utf-8" standalone="no"?>
<!DOCTYPE svg PUBLIC "-//W3C//DTD SVG 1.1//EN"
  "http://www.w3.org/Graphics/SVG/1.1/DTD/svg11.dtd">
<svg xmlns:xlink="http://www.w3.org/1999/xlink" width="720pt" height="432pt" viewBox="0 0 720 432" xmlns="http://www.w3.org/2000/svg" version="1.1">
 <metadata>
  <rdf:RDF xmlns:dc="http://purl.org/dc/elements/1.1/" xmlns:cc="http://creativecommons.org/ns#" xmlns:rdf="http://www.w3.org/1999/02/22-rdf-syntax-ns#">
   <cc:Work>
    <dc:type rdf:resource="http://purl.org/dc/dcmitype/StillImage"/>
    <dc:date>2023-05-29T19:32:05.054101</dc:date>
    <dc:format>image/svg+xml</dc:format>
    <dc:creator>
     <cc:Agent>
      <dc:title>Matplotlib v3.7.1, https://matplotlib.org/</dc:title>
     </cc:Agent>
    </dc:creator>
   </cc:Work>
  </rdf:RDF>
 </metadata>
 <defs>
  <style type="text/css">*{stroke-linejoin: round; stroke-linecap: butt}</style>
 </defs>
 <g id="figure_1">
  <g id="patch_1">
   <path d="M 0 432 
L 720 432 
L 720 0 
L 0 0 
z
" style="fill: #ffffff"/>
  </g>
  <g id="axes_1">
   <g id="patch_2">
    <path d="M 90 384.48 
L 648 384.48 
L 648 51.84 
L 90 51.84 
z
" style="fill: #ffffff"/>
   </g>
   <g id="PolyCollection_1">
    <defs>
     <path id="m7ef68b0f58" d="M 115.363636 -220.737967 
L 115.363636 -220.737967 
L 115.871417 -220.634701 
L 116.379197 -220.531434 
L 116.886978 -220.428168 
L 117.394758 -220.324902 
L 117.902539 -220.221635 
L 118.410319 -220.118369 
L 118.9181 -220.015103 
L 119.42588 -219.911836 
L 119.933661 -219.80857 
L 120.441441 -219.705304 
L 120.949222 -219.602037 
L 121.457002 -219.498771 
L 121.964783 -219.395505 
L 122.472563 -219.292239 
L 122.980344 -219.188972 
L 123.488124 -219.085706 
L 123.995905 -218.98244 
L 124.503686 -218.879173 
L 125.011466 -218.775907 
L 125.519247 -218.672641 
L 126.027027 -218.569374 
L 126.534808 -218.466108 
L 127.042588 -218.362842 
L 127.550369 -218.259575 
L 128.058149 -218.156309 
L 128.56593 -218.053043 
L 129.07371 -217.949777 
L 129.581491 -217.84651 
L 130.089271 -217.743244 
L 130.597052 -217.639978 
L 131.104832 -217.536711 
L 131.612613 -217.433445 
L 132.120393 -217.330179 
L 132.628174 -217.226912 
L 133.135954 -217.123646 
L 133.643735 -217.02038 
L 134.151515 -216.917113 
L 134.659296 -216.813847 
L 135.167076 -216.710581 
L 135.674857 -216.607315 
L 136.182637 -216.504048 
L 136.690418 -216.400782 
L 137.198198 -216.297516 
L 137.705979 -216.194249 
L 138.213759 -216.090983 
L 138.72154 -215.987717 
L 139.22932 -215.88445 
L 139.737101 -215.781184 
L 140.244881 -215.677918 
L 140.752662 -215.574651 
L 141.260442 -215.471385 
L 141.768223 -215.368119 
L 142.276003 -215.264852 
L 142.783784 -215.161586 
L 143.291564 -215.05832 
L 143.799345 -214.955054 
L 144.307125 -214.851787 
L 144.814906 -214.748521 
L 145.322686 -214.645255 
L 145.830467 -214.541988 
L 146.338247 -214.438722 
L 146.846028 -214.335456 
L 147.353808 -214.232189 
L 147.861589 -214.128923 
L 148.369369 -214.025657 
L 148.87715 -213.92239 
L 149.38493 -213.819124 
L 149.892711 -213.715858 
L 150.400491 -213.612592 
L 150.908272 -213.509325 
L 151.416052 -213.406059 
L 151.923833 -213.302793 
L 152.431613 -213.199526 
L 152.939394 -213.09626 
L 153.447174 -212.992994 
L 153.954955 -212.889727 
L 154.462735 -212.786461 
L 154.970516 -212.683195 
L 155.478296 -212.579928 
L 155.986077 -212.476662 
L 156.493857 -212.373396 
L 157.001638 -212.270129 
L 157.509419 -212.166863 
L 158.017199 -212.063597 
L 158.52498 -211.960331 
L 159.03276 -211.857064 
L 159.540541 -211.753798 
L 160.048321 -211.650532 
L 160.556102 -211.547265 
L 161.063882 -211.443999 
L 161.571663 -211.340733 
L 162.079443 -211.237466 
L 162.587224 -211.1342 
L 163.095004 -211.030934 
L 163.602785 -210.927667 
L 164.110565 -210.824401 
L 164.618346 -210.721135 
L 165.126126 -210.617869 
L 165.633907 -210.514602 
L 166.141687 -210.411336 
L 166.649468 -210.30807 
L 167.157248 -210.204803 
L 167.665029 -210.101537 
L 168.172809 -209.998271 
L 168.68059 -209.895004 
L 169.18837 -209.791738 
L 169.696151 -209.688472 
L 170.203931 -209.585205 
L 170.711712 -209.481939 
L 171.219492 -209.378673 
L 171.727273 -209.275407 
L 172.235053 -209.17214 
L 172.742834 -209.068874 
L 173.250614 -208.965608 
L 173.758395 -208.862341 
L 174.266175 -208.759075 
L 174.773956 -208.655809 
L 175.281736 -208.552542 
L 175.789517 -208.449276 
L 176.297297 -208.34601 
L 176.805078 -208.242743 
L 177.312858 -208.139477 
L 177.820639 -208.036211 
L 178.328419 -207.932944 
L 178.8362 -207.829678 
L 179.34398 -207.726412 
L 179.851761 -207.623146 
L 180.359541 -207.519879 
L 180.867322 -207.416613 
L 181.375102 -207.313347 
L 181.882883 -207.21008 
L 182.390663 -207.106814 
L 182.898444 -207.003548 
L 183.406224 -206.900281 
L 183.914005 -206.797015 
L 184.421785 -206.693749 
L 184.929566 -206.590482 
L 185.437346 -206.487216 
L 185.945127 -206.38395 
L 186.452907 -206.280684 
L 186.960688 -206.177417 
L 187.468468 -206.074151 
L 187.976249 -205.970885 
L 188.484029 -205.867618 
L 188.99181 -205.764352 
L 189.49959 -205.661086 
L 190.007371 -205.557819 
L 190.515152 -205.454553 
L 191.022932 -205.351287 
L 191.530713 -205.24802 
L 192.038493 -205.144754 
L 192.546274 -205.041488 
L 193.054054 -204.938222 
L 193.561835 -204.834955 
L 194.069615 -204.731689 
L 194.577396 -204.628423 
L 195.085176 -204.525156 
L 195.592957 -204.42189 
L 196.100737 -204.318624 
L 196.608518 -204.215357 
L 197.116298 -204.112091 
L 197.624079 -204.008825 
L 198.131859 -203.905558 
L 198.63964 -203.802292 
L 199.14742 -203.699026 
L 199.655201 -203.595759 
L 200.162981 -203.492493 
L 200.670762 -203.389227 
L 201.178542 -203.285961 
L 201.686323 -203.182694 
L 202.194103 -203.079428 
L 202.701884 -202.976162 
L 203.209664 -202.872895 
L 203.717445 -202.769629 
L 204.225225 -202.666363 
L 204.733006 -202.563096 
L 205.240786 -202.45983 
L 205.748567 -202.356564 
L 206.256347 -202.253297 
L 206.764128 -202.150031 
L 207.271908 -202.046765 
L 207.779689 -201.943499 
L 208.287469 -201.840232 
L 208.79525 -201.736966 
L 209.30303 -201.6337 
L 209.810811 -201.530433 
L 210.318591 -201.427167 
L 210.826372 -201.323901 
L 211.334152 -201.220634 
L 211.841933 -201.117368 
L 212.349713 -201.014102 
L 212.857494 -200.910835 
L 213.365274 -200.807569 
L 213.873055 -200.704303 
L 214.380835 -200.601037 
L 214.888616 -200.49777 
L 215.396396 -200.394504 
L 215.904177 -200.291238 
L 216.411957 -200.187971 
L 216.919738 -200.084705 
L 217.427518 -199.981439 
L 217.935299 -199.878172 
L 218.443079 -199.774906 
L 218.95086 -199.67164 
L 219.45864 -199.568373 
L 219.966421 -199.465107 
L 220.474201 -199.361841 
L 220.981982 -199.258574 
L 221.489762 -199.155308 
L 221.997543 -199.052042 
L 222.505324 -198.948776 
L 223.013104 -198.845509 
L 223.520885 -198.742243 
L 224.028665 -198.638977 
L 224.536446 -198.53571 
L 225.044226 -198.432444 
L 225.552007 -198.329178 
L 226.059787 -198.225911 
L 226.567568 -198.122645 
L 227.075348 -198.019379 
L 227.583129 -197.916112 
L 228.090909 -197.812846 
L 228.59869 -197.70958 
L 229.10647 -197.606314 
L 229.614251 -197.503047 
L 230.122031 -197.399781 
L 230.629812 -197.296515 
L 231.137592 -197.193248 
L 231.645373 -197.089982 
L 232.153153 -196.986716 
L 232.660934 -196.883449 
L 233.168714 -196.780183 
L 233.676495 -196.676917 
L 234.184275 -196.57365 
L 234.692056 -196.470384 
L 235.199836 -196.367118 
L 235.707617 -196.263851 
L 236.215397 -196.160585 
L 236.723178 -196.057319 
L 237.230958 -195.954053 
L 237.738739 -195.850786 
L 238.246519 -195.74752 
L 238.7543 -195.644254 
L 239.26208 -195.540987 
L 239.769861 -195.437721 
L 240.277641 -195.334455 
L 240.785422 -195.231188 
L 241.293202 -195.127922 
L 241.800983 -195.024656 
L 242.308763 -194.921389 
L 242.816544 -194.818123 
L 243.324324 -194.714857 
L 243.832105 -194.611591 
L 244.339885 -194.508324 
L 244.847666 -194.405058 
L 245.355446 -194.301792 
L 245.863227 -194.198525 
L 246.371007 -194.095259 
L 246.878788 -193.991993 
L 247.386568 -193.888726 
L 247.894349 -193.78546 
L 248.402129 -193.682194 
L 248.90991 -193.578927 
L 249.41769 -193.475661 
L 249.925471 -193.372395 
L 250.433251 -193.269129 
L 250.941032 -193.165862 
L 251.448812 -193.062596 
L 251.956593 -192.95933 
L 252.464373 -192.856063 
L 252.972154 -192.752797 
L 253.479934 -192.649531 
L 253.987715 -192.546264 
L 254.495495 -192.442998 
L 255.003276 -192.339732 
L 255.511057 -192.236465 
L 256.018837 -192.133199 
L 256.526618 -192.029933 
L 257.034398 -191.926666 
L 257.542179 -191.8234 
L 258.049959 -191.720134 
L 258.55774 -191.616868 
L 259.06552 -191.513601 
L 259.573301 -191.410335 
L 260.081081 -191.307069 
L 260.588862 -191.203802 
L 261.096642 -191.100536 
L 261.604423 -190.99727 
L 262.112203 -190.894003 
L 262.619984 -190.790737 
L 263.127764 -190.687471 
L 263.635545 -190.584204 
L 264.143325 -190.480938 
L 264.651106 -190.377672 
L 265.158886 -190.274406 
L 265.666667 -190.171139 
L 266.174447 -190.067873 
L 266.682228 -189.964607 
L 267.190008 -189.86134 
L 267.697789 -189.758074 
L 268.205569 -189.654808 
L 268.71335 -189.551541 
L 269.22113 -189.448275 
L 269.728911 -189.345009 
L 270.236691 -189.241742 
L 270.744472 -189.138476 
L 271.252252 -189.03521 
L 271.760033 -188.931944 
L 272.267813 -188.828677 
L 272.775594 -188.725411 
L 273.283374 -188.622145 
L 273.791155 -188.518878 
L 274.298935 -188.415612 
L 274.806716 -188.312346 
L 275.314496 -188.209079 
L 275.822277 -188.105813 
L 276.330057 -188.002547 
L 276.837838 -187.89928 
L 277.345618 -187.796014 
L 277.853399 -187.692748 
L 278.361179 -187.589481 
L 278.86896 -187.486215 
L 279.37674 -187.382949 
L 279.884521 -187.279683 
L 280.392301 -187.176416 
L 280.900082 -187.07315 
L 281.407862 -186.969884 
L 281.915643 -186.866617 
L 282.423423 -186.763351 
L 282.931204 -186.660085 
L 283.438984 -186.556818 
L 283.946765 -186.453552 
L 284.454545 -186.350286 
L 284.962326 -186.247019 
L 285.470106 -186.143753 
L 285.977887 -186.040487 
L 286.485667 -185.937221 
L 286.993448 -185.833954 
L 287.501229 -185.730688 
L 288.009009 -185.627422 
L 288.51679 -185.524155 
L 289.02457 -185.420889 
L 289.532351 -185.317623 
L 290.040131 -185.214356 
L 290.547912 -185.11109 
L 291.055692 -185.007824 
L 291.563473 -184.904557 
L 292.071253 -184.801291 
L 292.579034 -184.698025 
L 293.086814 -184.594758 
L 293.594595 -184.491492 
L 294.102375 -184.388226 
L 294.610156 -184.28496 
L 295.117936 -184.181693 
L 295.625717 -184.078427 
L 296.133497 -183.975161 
L 296.641278 -183.871894 
L 297.149058 -183.768628 
L 297.656839 -183.665362 
L 298.164619 -183.562095 
L 298.6724 -183.458829 
L 299.18018 -183.355563 
L 299.687961 -183.252296 
L 300.195741 -183.14903 
L 300.703522 -183.045764 
L 301.211302 -182.942498 
L 301.719083 -182.839231 
L 302.226863 -182.735965 
L 302.734644 -182.632699 
L 303.242424 -182.529432 
L 303.750205 -182.426166 
L 304.257985 -182.3229 
L 304.765766 -182.219633 
L 305.273546 -182.116367 
L 305.781327 -182.013101 
L 306.289107 -181.909834 
L 306.796888 -181.806568 
L 307.304668 -181.703302 
L 307.812449 -181.600036 
L 308.320229 -181.496769 
L 308.82801 -181.393503 
L 309.33579 -181.290237 
L 309.843571 -181.18697 
L 310.351351 -181.083704 
L 310.859132 -180.980438 
L 311.366912 -180.877171 
L 311.874693 -180.773905 
L 312.382473 -180.670639 
L 312.890254 -180.567372 
L 313.398034 -180.464106 
L 313.905815 -180.36084 
L 314.413595 -180.257573 
L 314.921376 -180.154307 
L 315.429156 -180.051041 
L 315.936937 -179.947775 
L 316.444717 -179.844508 
L 316.952498 -179.741242 
L 317.460278 -179.637976 
L 317.968059 -179.534709 
L 318.475839 -179.431443 
L 318.98362 -179.328177 
L 319.4914 -179.22491 
L 319.999181 -179.121644 
L 320.506962 -179.018378 
L 321.014742 -178.915111 
L 321.522523 -178.811845 
L 322.030303 -178.708579 
L 322.538084 -178.605313 
L 323.045864 -178.502046 
L 323.553645 -178.39878 
L 324.061425 -178.295514 
L 324.569206 -178.192247 
L 325.076986 -178.088981 
L 325.584767 -177.985715 
L 326.092547 -177.882448 
L 326.600328 -177.779182 
L 327.108108 -177.675916 
L 327.615889 -177.572649 
L 328.123669 -177.469383 
L 328.63145 -177.366117 
L 329.13923 -177.262851 
L 329.647011 -177.159584 
L 330.154791 -177.056318 
L 330.662572 -176.953052 
L 331.170352 -176.849785 
L 331.678133 -176.746519 
L 332.185913 -176.643253 
L 332.693694 -176.539986 
L 333.201474 -176.43672 
L 333.709255 -176.333454 
L 334.217035 -176.230187 
L 334.724816 -176.126921 
L 335.232596 -176.023655 
L 335.740377 -175.920388 
L 336.248157 -175.817122 
L 336.755938 -175.713856 
L 337.263718 -175.61059 
L 337.771499 -175.507323 
L 338.279279 -175.404057 
L 338.78706 -175.300791 
L 339.29484 -175.197524 
L 339.802621 -175.094258 
L 340.310401 -174.990992 
L 340.818182 -174.887725 
L 341.325962 -174.784459 
L 341.833743 -174.681193 
L 342.341523 -174.577926 
L 342.849304 -174.47466 
L 343.357084 -174.371394 
L 343.864865 -174.268128 
L 344.372645 -174.164861 
L 344.880426 -174.061595 
L 345.388206 -173.958329 
L 345.895987 -173.855062 
L 346.403767 -173.751796 
L 346.911548 -173.64853 
L 347.419328 -173.545263 
L 347.927109 -173.441997 
L 348.434889 -173.338731 
L 348.94267 -173.235464 
L 349.45045 -173.132198 
L 349.958231 -173.028932 
L 350.466011 -172.925665 
L 350.973792 -172.822399 
L 351.481572 -172.719133 
L 351.989353 -172.615867 
L 352.497133 -172.5126 
L 353.004914 -172.409334 
L 353.512695 -172.306068 
L 354.020475 -172.202801 
L 354.528256 -172.099535 
L 355.036036 -171.996269 
L 355.543817 -171.893002 
L 356.051597 -171.789736 
L 356.559378 -171.68647 
L 357.067158 -171.583203 
L 357.574939 -171.479937 
L 358.082719 -171.376671 
L 358.5905 -171.273405 
L 359.09828 -171.170138 
L 359.606061 -171.066872 
L 360.113841 -170.963606 
L 360.621622 -170.860339 
L 361.129402 -170.757073 
L 361.637183 -170.653807 
L 362.144963 -170.55054 
L 362.652744 -170.447274 
L 363.160524 -170.344008 
L 363.668305 -170.240741 
L 364.176085 -170.137475 
L 364.683866 -170.034209 
L 365.191646 -169.930943 
L 365.699427 -169.827676 
L 366.207207 -169.72441 
L 366.714988 -169.621144 
L 367.222768 -169.517877 
L 367.730549 -169.414611 
L 368.238329 -169.311345 
L 368.74611 -169.208078 
L 369.25389 -169.058177 
L 369.761671 -168.861639 
L 370.269451 -168.665102 
L 370.777232 -168.468565 
L 371.285012 -168.272028 
L 371.792793 -168.07549 
L 372.300573 -167.878953 
L 372.808354 -167.682416 
L 373.316134 -167.485878 
L 373.823915 -167.289341 
L 374.331695 -167.092804 
L 374.839476 -166.896267 
L 375.347256 -166.699729 
L 375.855037 -166.503192 
L 376.362817 -166.306655 
L 376.870598 -166.110118 
L 377.378378 -165.91358 
L 377.886159 -165.717043 
L 378.393939 -165.520506 
L 378.90172 -165.323969 
L 379.4095 -165.127431 
L 379.917281 -164.930894 
L 380.425061 -164.734357 
L 380.932842 -164.53782 
L 381.440622 -164.341282 
L 381.948403 -164.144745 
L 382.456183 -163.948208 
L 382.963964 -163.751671 
L 383.471744 -163.555133 
L 383.979525 -163.358596 
L 384.487305 -163.162059 
L 384.995086 -162.965522 
L 385.502867 -162.768984 
L 386.010647 -162.572447 
L 386.518428 -162.37591 
L 387.026208 -162.179372 
L 387.533989 -161.982835 
L 388.041769 -161.786298 
L 388.54955 -161.589761 
L 389.05733 -161.393223 
L 389.565111 -161.196686 
L 390.072891 -161.000149 
L 390.580672 -160.803612 
L 391.088452 -160.607074 
L 391.596233 -160.410537 
L 392.104013 -160.214 
L 392.611794 -160.017463 
L 393.119574 -159.820925 
L 393.627355 -159.624388 
L 394.135135 -159.427851 
L 394.642916 -159.231314 
L 395.150696 -159.034776 
L 395.658477 -158.838239 
L 396.166257 -158.641702 
L 396.674038 -158.445165 
L 397.181818 -158.248627 
L 397.689599 -158.05209 
L 398.197379 -157.855553 
L 398.70516 -157.659015 
L 399.21294 -157.462478 
L 399.720721 -157.265941 
L 400.228501 -157.069404 
L 400.736282 -156.872866 
L 401.244062 -156.676329 
L 401.751843 -156.479792 
L 402.259623 -156.283255 
L 402.767404 -156.086717 
L 403.275184 -155.89018 
L 403.782965 -155.693643 
L 404.290745 -155.497106 
L 404.798526 -155.300568 
L 405.306306 -155.104031 
L 405.814087 -154.907494 
L 406.321867 -154.710957 
L 406.829648 -154.514419 
L 407.337428 -154.317882 
L 407.845209 -154.121345 
L 408.352989 -153.924808 
L 408.86077 -153.72827 
L 409.36855 -153.531733 
L 409.876331 -153.335196 
L 410.384111 -153.138659 
L 410.891892 -152.942121 
L 411.399672 -152.745584 
L 411.907453 -152.549047 
L 412.415233 -152.352509 
L 412.923014 -152.155972 
L 413.430794 -151.959435 
L 413.938575 -151.762898 
L 414.446355 -151.56636 
L 414.954136 -151.369823 
L 415.461916 -151.173286 
L 415.969697 -150.976749 
L 416.477477 -150.780211 
L 416.985258 -150.583674 
L 417.493038 -150.387137 
L 418.000819 -150.1906 
L 418.5086 -149.994062 
L 419.01638 -149.797525 
L 419.524161 -149.600988 
L 420.031941 -149.404451 
L 420.539722 -149.207913 
L 421.047502 -149.011376 
L 421.555283 -148.814839 
L 422.063063 -148.618302 
L 422.570844 -148.421764 
L 423.078624 -148.225227 
L 423.586405 -148.02869 
L 424.094185 -147.832152 
L 424.601966 -147.635615 
L 425.109746 -147.439078 
L 425.617527 -147.242541 
L 426.125307 -147.046003 
L 426.633088 -146.849466 
L 427.140868 -146.652929 
L 427.648649 -146.456392 
L 428.156429 -146.259854 
L 428.66421 -146.063317 
L 429.17199 -145.86678 
L 429.679771 -145.670243 
L 430.187551 -145.473705 
L 430.695332 -145.277168 
L 431.203112 -145.080631 
L 431.710893 -144.884094 
L 432.218673 -144.687556 
L 432.726454 -144.491019 
L 433.234234 -144.294482 
L 433.742015 -144.097945 
L 434.249795 -143.901407 
L 434.757576 -143.70487 
L 435.265356 -143.508333 
L 435.773137 -143.311796 
L 436.280917 -143.115258 
L 436.788698 -142.918721 
L 437.296478 -142.722184 
L 437.804259 -142.525646 
L 438.312039 -142.329109 
L 438.81982 -142.132572 
L 439.3276 -141.936035 
L 439.835381 -141.739497 
L 440.343161 -141.54296 
L 440.850942 -141.346423 
L 441.358722 -141.149886 
L 441.866503 -140.953348 
L 442.374283 -140.756811 
L 442.882064 -140.560274 
L 443.389844 -140.363737 
L 443.897625 -140.167199 
L 444.405405 -139.970662 
L 444.913186 -139.774125 
L 445.420966 -139.577588 
L 445.928747 -139.38105 
L 446.436527 -139.184513 
L 446.944308 -138.987976 
L 447.452088 -138.791439 
L 447.959869 -138.594901 
L 448.467649 -138.398364 
L 448.97543 -138.201827 
L 449.48321 -138.005289 
L 449.990991 -137.808752 
L 450.498771 -137.612215 
L 451.006552 -137.415678 
L 451.514333 -137.21914 
L 452.022113 -137.022603 
L 452.529894 -136.826066 
L 453.037674 -136.629529 
L 453.545455 -136.432991 
L 454.053235 -136.236454 
L 454.561016 -136.039917 
L 455.068796 -135.84338 
L 455.576577 -135.646842 
L 456.084357 -135.450305 
L 456.592138 -135.253768 
L 457.099918 -135.057231 
L 457.607699 -134.860693 
L 458.115479 -134.664156 
L 458.62326 -134.467619 
L 459.13104 -134.271082 
L 459.638821 -134.074544 
L 460.146601 -133.878007 
L 460.654382 -133.68147 
L 461.162162 -133.484933 
L 461.669943 -133.288395 
L 462.177723 -133.091858 
L 462.685504 -132.895321 
L 463.193284 -132.698783 
L 463.701065 -132.502246 
L 464.208845 -132.305709 
L 464.716626 -132.109172 
L 465.224406 -131.912634 
L 465.732187 -131.716097 
L 466.239967 -131.51956 
L 466.747748 -131.323023 
L 467.255528 -131.126485 
L 467.763309 -130.929948 
L 468.271089 -130.733411 
L 468.77887 -130.536874 
L 469.28665 -130.340336 
L 469.794431 -130.143799 
L 470.302211 -129.947262 
L 470.809992 -129.750725 
L 471.317772 -129.554187 
L 471.825553 -129.35765 
L 472.333333 -129.161113 
L 472.841114 -128.964576 
L 473.348894 -128.768038 
L 473.856675 -128.571501 
L 474.364455 -128.374964 
L 474.872236 -128.178426 
L 475.380016 -127.981889 
L 475.887797 -127.785352 
L 476.395577 -127.588815 
L 476.903358 -127.392277 
L 477.411138 -127.19574 
L 477.918919 -126.999203 
L 478.426699 -126.802666 
L 478.93448 -126.606128 
L 479.44226 -126.409591 
L 479.950041 -126.213054 
L 480.457821 -126.016517 
L 480.965602 -125.819979 
L 481.473382 -125.623442 
L 481.981163 -125.426905 
L 482.488943 -125.230368 
L 482.996724 -125.03383 
L 483.504505 -124.837293 
L 484.012285 -124.640756 
L 484.520066 -124.444219 
L 485.027846 -124.247681 
L 485.535627 -124.051144 
L 486.043407 -123.854607 
L 486.551188 -123.65807 
L 487.058968 -123.461532 
L 487.566749 -123.264995 
L 488.074529 -123.068458 
L 488.58231 -122.87192 
L 489.09009 -122.675383 
L 489.597871 -122.478846 
L 490.105651 -122.282309 
L 490.613432 -122.085771 
L 491.121212 -121.889234 
L 491.628993 -121.692697 
L 492.136773 -121.49616 
L 492.644554 -121.299622 
L 493.152334 -121.103085 
L 493.660115 -120.906548 
L 494.167895 -120.710011 
L 494.675676 -120.513473 
L 495.183456 -120.316936 
L 495.691237 -120.120399 
L 496.199017 -119.923862 
L 496.706798 -119.727324 
L 497.214578 -119.530787 
L 497.722359 -119.33425 
L 498.230139 -119.137713 
L 498.73792 -118.941175 
L 499.2457 -118.744638 
L 499.753481 -118.548101 
L 500.261261 -118.351563 
L 500.769042 -118.155026 
L 501.276822 -117.958489 
L 501.784603 -117.761952 
L 502.292383 -117.565414 
L 502.800164 -117.368877 
L 503.307944 -117.17234 
L 503.815725 -116.975803 
L 504.323505 -116.779265 
L 504.831286 -116.582728 
L 505.339066 -116.386191 
L 505.846847 -116.189654 
L 506.354627 -115.993116 
L 506.862408 -115.796579 
L 507.370188 -115.600042 
L 507.877969 -115.403505 
L 508.385749 -115.206967 
L 508.89353 -115.01043 
L 509.40131 -114.813893 
L 509.909091 -114.617356 
L 510.416871 -114.420818 
L 510.924652 -114.224281 
L 511.432432 -114.027744 
L 511.940213 -113.831207 
L 512.447993 -113.634669 
L 512.955774 -113.438132 
L 513.463554 -113.241595 
L 513.971335 -113.045057 
L 514.479115 -112.84852 
L 514.986896 -112.651983 
L 515.494676 -112.455446 
L 516.002457 -112.258908 
L 516.510238 -112.062371 
L 517.018018 -111.865834 
L 517.525799 -111.669297 
L 518.033579 -111.472759 
L 518.54136 -111.276222 
L 519.04914 -111.079685 
L 519.556921 -110.883148 
L 520.064701 -110.68661 
L 520.572482 -110.490073 
L 521.080262 -110.293536 
L 521.588043 -110.096999 
L 522.095823 -109.900461 
L 522.603604 -109.703924 
L 523.111384 -109.507387 
L 523.619165 -109.31085 
L 524.126945 -109.114312 
L 524.634726 -108.917775 
L 525.142506 -108.721238 
L 525.650287 -108.5247 
L 526.158067 -108.328163 
L 526.665848 -108.131626 
L 527.173628 -107.935089 
L 527.681409 -107.738551 
L 528.189189 -107.542014 
L 528.69697 -107.345477 
L 529.20475 -107.14894 
L 529.712531 -106.952402 
L 530.220311 -106.755865 
L 530.728092 -106.559328 
L 531.235872 -106.362791 
L 531.743653 -106.166253 
L 532.251433 -105.969716 
L 532.759214 -105.773179 
L 533.266994 -105.576642 
L 533.774775 -105.380104 
L 534.282555 -105.183567 
L 534.790336 -104.98703 
L 535.298116 -104.790493 
L 535.805897 -104.593955 
L 536.313677 -104.397418 
L 536.821458 -104.200881 
L 537.329238 -104.004344 
L 537.837019 -103.807806 
L 538.344799 -103.611269 
L 538.85258 -103.414732 
L 539.36036 -103.218194 
L 539.868141 -103.021657 
L 540.375921 -102.82512 
L 540.883702 -102.628583 
L 541.391482 -102.432045 
L 541.899263 -102.235508 
L 542.407043 -102.038971 
L 542.914824 -101.842434 
L 543.422604 -101.645896 
L 543.930385 -101.449359 
L 544.438165 -101.252822 
L 544.945946 -101.056285 
L 545.453726 -100.859747 
L 545.961507 -100.66321 
L 546.469287 -100.466673 
L 546.977068 -100.270136 
L 547.484848 -100.073598 
L 547.992629 -99.877061 
L 548.50041 -99.680524 
L 549.00819 -99.483987 
L 549.515971 -99.287449 
L 550.023751 -99.090912 
L 550.531532 -98.894375 
L 551.039312 -98.697837 
L 551.547093 -98.5013 
L 552.054873 -98.304763 
L 552.562654 -98.108226 
L 553.070434 -97.911688 
L 553.578215 -97.715151 
L 554.085995 -97.518614 
L 554.593776 -97.322077 
L 555.101556 -97.125539 
L 555.609337 -96.929002 
L 556.117117 -96.732465 
L 556.624898 -96.535928 
L 557.132678 -96.33939 
L 557.640459 -96.142853 
L 558.148239 -95.946316 
L 558.65602 -95.749779 
L 559.1638 -95.553241 
L 559.671581 -95.356704 
L 560.179361 -95.160167 
L 560.687142 -94.96363 
L 561.194922 -94.767092 
L 561.702703 -94.570555 
L 562.210483 -94.374018 
L 562.718264 -94.177481 
L 563.226044 -93.980943 
L 563.733825 -93.784406 
L 564.241605 -93.587869 
L 564.749386 -93.391331 
L 565.257166 -93.194794 
L 565.764947 -92.998257 
L 566.272727 -92.80172 
L 566.780508 -92.605182 
L 567.288288 -92.408645 
L 567.796069 -92.212108 
L 568.303849 -92.015571 
L 568.81163 -91.819033 
L 569.31941 -91.622496 
L 569.827191 -91.425959 
L 570.334971 -91.229422 
L 570.842752 -91.032884 
L 571.350532 -90.836347 
L 571.858313 -90.63981 
L 572.366093 -90.443273 
L 572.873874 -90.246735 
L 573.381654 -90.050198 
L 573.889435 -89.853661 
L 574.397215 -89.657124 
L 574.904996 -89.460586 
L 575.412776 -89.264049 
L 575.920557 -89.067512 
L 576.428337 -88.870974 
L 576.936118 -88.674437 
L 577.443898 -88.4779 
L 577.951679 -88.281363 
L 578.459459 -88.084825 
L 578.96724 -87.888288 
L 579.47502 -87.691751 
L 579.982801 -87.495214 
L 580.490581 -87.298676 
L 580.998362 -87.102139 
L 581.506143 -86.905602 
L 582.013923 -86.709065 
L 582.521704 -86.512527 
L 583.029484 -86.31599 
L 583.537265 -86.119453 
L 584.045045 -85.922916 
L 584.552826 -85.726378 
L 585.060606 -85.529841 
L 585.568387 -85.333304 
L 586.076167 -85.136767 
L 586.583948 -84.940229 
L 587.091728 -84.743692 
L 587.599509 -84.547155 
L 588.107289 -84.350618 
L 588.61507 -84.15408 
L 589.12285 -83.957543 
L 589.630631 -83.761006 
L 590.138411 -83.564468 
L 590.646192 -83.367931 
L 591.153972 -83.171394 
L 591.661753 -82.974857 
L 592.169533 -82.778319 
L 592.677314 -82.581782 
L 593.185094 -82.385245 
L 593.692875 -82.188708 
L 594.200655 -81.99217 
L 594.708436 -81.795633 
L 595.216216 -81.599096 
L 595.723997 -81.402559 
L 596.231777 -81.206021 
L 596.739558 -81.009484 
L 597.247338 -80.812947 
L 597.755119 -80.61641 
L 598.262899 -80.419872 
L 598.77068 -80.223335 
L 599.27846 -80.026798 
L 599.786241 -79.830261 
L 600.294021 -79.633723 
L 600.801802 -79.437186 
L 601.309582 -79.240649 
L 601.817363 -79.044111 
L 602.325143 -78.847574 
L 602.832924 -78.651037 
L 603.340704 -78.4545 
L 603.848485 -78.257962 
L 604.356265 -78.061425 
L 604.864046 -77.864888 
L 605.371826 -77.668351 
L 605.879607 -77.471813 
L 606.387387 -77.275276 
L 606.895168 -77.078739 
L 607.402948 -76.882202 
L 607.910729 -76.685664 
L 608.418509 -76.489127 
L 608.92629 -76.29259 
L 609.43407 -76.096053 
L 609.941851 -75.899515 
L 610.449631 -75.702978 
L 610.957412 -75.506441 
L 611.465192 -75.309904 
L 611.972973 -75.113366 
L 612.480753 -74.916829 
L 612.988534 -74.720292 
L 613.496314 -74.523755 
L 614.004095 -74.327217 
L 614.511876 -74.13068 
L 615.019656 -73.934143 
L 615.527437 -73.737605 
L 616.035217 -73.541068 
L 616.542998 -73.344531 
L 617.050778 -73.147994 
L 617.558559 -72.951456 
L 618.066339 -72.754919 
L 618.57412 -72.558382 
L 619.0819 -72.361845 
L 619.589681 -72.165307 
L 620.097461 -71.96877 
L 620.605242 -71.772233 
L 621.113022 -71.575696 
L 621.620803 -71.379158 
L 622.128583 -71.182621 
L 622.636364 -70.986084 
L 622.636364 -343.467807 
L 622.636364 -343.467807 
L 622.128583 -343.273263 
L 621.620803 -343.078718 
L 621.113022 -342.884174 
L 620.605242 -342.68963 
L 620.097461 -342.495085 
L 619.589681 -342.300541 
L 619.0819 -342.105996 
L 618.57412 -341.911452 
L 618.066339 -341.716908 
L 617.558559 -341.522363 
L 617.050778 -341.327819 
L 616.542998 -341.133274 
L 616.035217 -340.93873 
L 615.527437 -340.744186 
L 615.019656 -340.549641 
L 614.511876 -340.355097 
L 614.004095 -340.160552 
L 613.496314 -339.966008 
L 612.988534 -339.771463 
L 612.480753 -339.576919 
L 611.972973 -339.382375 
L 611.465192 -339.18783 
L 610.957412 -338.993286 
L 610.449631 -338.798741 
L 609.941851 -338.604197 
L 609.43407 -338.409653 
L 608.92629 -338.215108 
L 608.418509 -338.020564 
L 607.910729 -337.826019 
L 607.402948 -337.631475 
L 606.895168 -337.436931 
L 606.387387 -337.242386 
L 605.879607 -337.047842 
L 605.371826 -336.853297 
L 604.864046 -336.658753 
L 604.356265 -336.464209 
L 603.848485 -336.269664 
L 603.340704 -336.07512 
L 602.832924 -335.880575 
L 602.325143 -335.686031 
L 601.817363 -335.491486 
L 601.309582 -335.296942 
L 600.801802 -335.102398 
L 600.294021 -334.907853 
L 599.786241 -334.713309 
L 599.27846 -334.518764 
L 598.77068 -334.32422 
L 598.262899 -334.129676 
L 597.755119 -333.935131 
L 597.247338 -333.740587 
L 596.739558 -333.546042 
L 596.231777 -333.351498 
L 595.723997 -333.156954 
L 595.216216 -332.962409 
L 594.708436 -332.767865 
L 594.200655 -332.57332 
L 593.692875 -332.378776 
L 593.185094 -332.184232 
L 592.677314 -331.989687 
L 592.169533 -331.795143 
L 591.661753 -331.600598 
L 591.153972 -331.406054 
L 590.646192 -331.211509 
L 590.138411 -331.016965 
L 589.630631 -330.822421 
L 589.12285 -330.627876 
L 588.61507 -330.433332 
L 588.107289 -330.238787 
L 587.599509 -330.044243 
L 587.091728 -329.849699 
L 586.583948 -329.655154 
L 586.076167 -329.46061 
L 585.568387 -329.266065 
L 585.060606 -329.071521 
L 584.552826 -328.876977 
L 584.045045 -328.682432 
L 583.537265 -328.487888 
L 583.029484 -328.293343 
L 582.521704 -328.098799 
L 582.013923 -327.904255 
L 581.506143 -327.70971 
L 580.998362 -327.515166 
L 580.490581 -327.320621 
L 579.982801 -327.126077 
L 579.47502 -326.931532 
L 578.96724 -326.736988 
L 578.459459 -326.542444 
L 577.951679 -326.347899 
L 577.443898 -326.153355 
L 576.936118 -325.95881 
L 576.428337 -325.764266 
L 575.920557 -325.569722 
L 575.412776 -325.375177 
L 574.904996 -325.180633 
L 574.397215 -324.986088 
L 573.889435 -324.791544 
L 573.381654 -324.597 
L 572.873874 -324.402455 
L 572.366093 -324.207911 
L 571.858313 -324.013366 
L 571.350532 -323.818822 
L 570.842752 -323.624278 
L 570.334971 -323.429733 
L 569.827191 -323.235189 
L 569.31941 -323.040644 
L 568.81163 -322.8461 
L 568.303849 -322.651555 
L 567.796069 -322.457011 
L 567.288288 -322.262467 
L 566.780508 -322.067922 
L 566.272727 -321.873378 
L 565.764947 -321.678833 
L 565.257166 -321.484289 
L 564.749386 -321.289745 
L 564.241605 -321.0952 
L 563.733825 -320.900656 
L 563.226044 -320.706111 
L 562.718264 -320.511567 
L 562.210483 -320.317023 
L 561.702703 -320.122478 
L 561.194922 -319.927934 
L 560.687142 -319.733389 
L 560.179361 -319.538845 
L 559.671581 -319.3443 
L 559.1638 -319.149756 
L 558.65602 -318.955212 
L 558.148239 -318.760667 
L 557.640459 -318.566123 
L 557.132678 -318.371578 
L 556.624898 -318.177034 
L 556.117117 -317.98249 
L 555.609337 -317.787945 
L 555.101556 -317.593401 
L 554.593776 -317.398856 
L 554.085995 -317.204312 
L 553.578215 -317.009768 
L 553.070434 -316.815223 
L 552.562654 -316.620679 
L 552.054873 -316.426134 
L 551.547093 -316.23159 
L 551.039312 -316.037046 
L 550.531532 -315.842501 
L 550.023751 -315.647957 
L 549.515971 -315.453412 
L 549.00819 -315.258868 
L 548.50041 -315.064323 
L 547.992629 -314.869779 
L 547.484848 -314.675235 
L 546.977068 -314.48069 
L 546.469287 -314.286146 
L 545.961507 -314.091601 
L 545.453726 -313.897057 
L 544.945946 -313.702513 
L 544.438165 -313.507968 
L 543.930385 -313.313424 
L 543.422604 -313.118879 
L 542.914824 -312.924335 
L 542.407043 -312.729791 
L 541.899263 -312.535246 
L 541.391482 -312.340702 
L 540.883702 -312.146157 
L 540.375921 -311.951613 
L 539.868141 -311.757069 
L 539.36036 -311.562524 
L 538.85258 -311.36798 
L 538.344799 -311.173435 
L 537.837019 -310.978891 
L 537.329238 -310.784346 
L 536.821458 -310.589802 
L 536.313677 -310.395258 
L 535.805897 -310.200713 
L 535.298116 -310.006169 
L 534.790336 -309.811624 
L 534.282555 -309.61708 
L 533.774775 -309.422536 
L 533.266994 -309.227991 
L 532.759214 -309.033447 
L 532.251433 -308.838902 
L 531.743653 -308.644358 
L 531.235872 -308.449814 
L 530.728092 -308.255269 
L 530.220311 -308.060725 
L 529.712531 -307.86618 
L 529.20475 -307.671636 
L 528.69697 -307.477092 
L 528.189189 -307.282547 
L 527.681409 -307.088003 
L 527.173628 -306.893458 
L 526.665848 -306.698914 
L 526.158067 -306.504369 
L 525.650287 -306.309825 
L 525.142506 -306.115281 
L 524.634726 -305.920736 
L 524.126945 -305.726192 
L 523.619165 -305.531647 
L 523.111384 -305.337103 
L 522.603604 -305.142559 
L 522.095823 -304.948014 
L 521.588043 -304.75347 
L 521.080262 -304.558925 
L 520.572482 -304.364381 
L 520.064701 -304.169837 
L 519.556921 -303.975292 
L 519.04914 -303.780748 
L 518.54136 -303.586203 
L 518.033579 -303.391659 
L 517.525799 -303.197115 
L 517.018018 -303.00257 
L 516.510238 -302.808026 
L 516.002457 -302.613481 
L 515.494676 -302.418937 
L 514.986896 -302.224392 
L 514.479115 -302.029848 
L 513.971335 -301.835304 
L 513.463554 -301.640759 
L 512.955774 -301.446215 
L 512.447993 -301.25167 
L 511.940213 -301.057126 
L 511.432432 -300.862582 
L 510.924652 -300.668037 
L 510.416871 -300.473493 
L 509.909091 -300.278948 
L 509.40131 -300.084404 
L 508.89353 -299.88986 
L 508.385749 -299.695315 
L 507.877969 -299.500771 
L 507.370188 -299.306226 
L 506.862408 -299.111682 
L 506.354627 -298.917138 
L 505.846847 -298.722593 
L 505.339066 -298.528049 
L 504.831286 -298.333504 
L 504.323505 -298.13896 
L 503.815725 -297.944415 
L 503.307944 -297.749871 
L 502.800164 -297.555327 
L 502.292383 -297.360782 
L 501.784603 -297.166238 
L 501.276822 -296.971693 
L 500.769042 -296.777149 
L 500.261261 -296.582605 
L 499.753481 -296.38806 
L 499.2457 -296.193516 
L 498.73792 -295.998971 
L 498.230139 -295.804427 
L 497.722359 -295.609883 
L 497.214578 -295.415338 
L 496.706798 -295.220794 
L 496.199017 -295.026249 
L 495.691237 -294.831705 
L 495.183456 -294.637161 
L 494.675676 -294.442616 
L 494.167895 -294.248072 
L 493.660115 -294.053527 
L 493.152334 -293.858983 
L 492.644554 -293.664438 
L 492.136773 -293.469894 
L 491.628993 -293.27535 
L 491.121212 -293.080805 
L 490.613432 -292.886261 
L 490.105651 -292.691716 
L 489.597871 -292.497172 
L 489.09009 -292.302628 
L 488.58231 -292.108083 
L 488.074529 -291.913539 
L 487.566749 -291.718994 
L 487.058968 -291.52445 
L 486.551188 -291.329906 
L 486.043407 -291.135361 
L 485.535627 -290.940817 
L 485.027846 -290.746272 
L 484.520066 -290.551728 
L 484.012285 -290.357183 
L 483.504505 -290.162639 
L 482.996724 -289.968095 
L 482.488943 -289.77355 
L 481.981163 -289.579006 
L 481.473382 -289.384461 
L 480.965602 -289.189917 
L 480.457821 -288.995373 
L 479.950041 -288.800828 
L 479.44226 -288.606284 
L 478.93448 -288.411739 
L 478.426699 -288.217195 
L 477.918919 -288.022651 
L 477.411138 -287.828106 
L 476.903358 -287.633562 
L 476.395577 -287.439017 
L 475.887797 -287.244473 
L 475.380016 -287.049929 
L 474.872236 -286.855384 
L 474.364455 -286.66084 
L 473.856675 -286.466295 
L 473.348894 -286.271751 
L 472.841114 -286.077206 
L 472.333333 -285.882662 
L 471.825553 -285.688118 
L 471.317772 -285.493573 
L 470.809992 -285.299029 
L 470.302211 -285.104484 
L 469.794431 -284.90994 
L 469.28665 -284.715396 
L 468.77887 -284.520851 
L 468.271089 -284.326307 
L 467.763309 -284.131762 
L 467.255528 -283.937218 
L 466.747748 -283.742674 
L 466.239967 -283.548129 
L 465.732187 -283.353585 
L 465.224406 -283.15904 
L 464.716626 -282.964496 
L 464.208845 -282.769952 
L 463.701065 -282.575407 
L 463.193284 -282.380863 
L 462.685504 -282.186318 
L 462.177723 -281.991774 
L 461.669943 -281.797229 
L 461.162162 -281.602685 
L 460.654382 -281.408141 
L 460.146601 -281.213596 
L 459.638821 -281.019052 
L 459.13104 -280.824507 
L 458.62326 -280.629963 
L 458.115479 -280.435419 
L 457.607699 -280.240874 
L 457.099918 -280.04633 
L 456.592138 -279.851785 
L 456.084357 -279.657241 
L 455.576577 -279.462697 
L 455.068796 -279.268152 
L 454.561016 -279.073608 
L 454.053235 -278.879063 
L 453.545455 -278.684519 
L 453.037674 -278.489975 
L 452.529894 -278.29543 
L 452.022113 -278.100886 
L 451.514333 -277.906341 
L 451.006552 -277.711797 
L 450.498771 -277.517252 
L 449.990991 -277.322708 
L 449.48321 -277.128164 
L 448.97543 -276.933619 
L 448.467649 -276.739075 
L 447.959869 -276.54453 
L 447.452088 -276.349986 
L 446.944308 -276.155442 
L 446.436527 -275.960897 
L 445.928747 -275.766353 
L 445.420966 -275.571808 
L 444.913186 -275.377264 
L 444.405405 -275.18272 
L 443.897625 -274.988175 
L 443.389844 -274.793631 
L 442.882064 -274.599086 
L 442.374283 -274.404542 
L 441.866503 -274.209998 
L 441.358722 -274.015453 
L 440.850942 -273.820909 
L 440.343161 -273.626364 
L 439.835381 -273.43182 
L 439.3276 -273.237275 
L 438.81982 -273.042731 
L 438.312039 -272.848187 
L 437.804259 -272.653642 
L 437.296478 -272.459098 
L 436.788698 -272.264553 
L 436.280917 -272.070009 
L 435.773137 -271.875465 
L 435.265356 -271.68092 
L 434.757576 -271.486376 
L 434.249795 -271.291831 
L 433.742015 -271.097287 
L 433.234234 -270.902743 
L 432.726454 -270.708198 
L 432.218673 -270.513654 
L 431.710893 -270.319109 
L 431.203112 -270.124565 
L 430.695332 -269.930021 
L 430.187551 -269.735476 
L 429.679771 -269.540932 
L 429.17199 -269.346387 
L 428.66421 -269.151843 
L 428.156429 -268.957298 
L 427.648649 -268.762754 
L 427.140868 -268.56821 
L 426.633088 -268.373665 
L 426.125307 -268.179121 
L 425.617527 -267.984576 
L 425.109746 -267.790032 
L 424.601966 -267.595488 
L 424.094185 -267.400943 
L 423.586405 -267.206399 
L 423.078624 -267.011854 
L 422.570844 -266.81731 
L 422.063063 -266.622766 
L 421.555283 -266.428221 
L 421.047502 -266.233677 
L 420.539722 -266.039132 
L 420.031941 -265.844588 
L 419.524161 -265.650044 
L 419.01638 -265.455499 
L 418.5086 -265.260955 
L 418.000819 -265.06641 
L 417.493038 -264.871866 
L 416.985258 -264.677321 
L 416.477477 -264.482777 
L 415.969697 -264.288233 
L 415.461916 -264.093688 
L 414.954136 -263.899144 
L 414.446355 -263.704599 
L 413.938575 -263.510055 
L 413.430794 -263.315511 
L 412.923014 -263.120966 
L 412.415233 -262.926422 
L 411.907453 -262.731877 
L 411.399672 -262.537333 
L 410.891892 -262.342789 
L 410.384111 -262.148244 
L 409.876331 -261.9537 
L 409.36855 -261.759155 
L 408.86077 -261.564611 
L 408.352989 -261.370067 
L 407.845209 -261.175522 
L 407.337428 -260.980978 
L 406.829648 -260.786433 
L 406.321867 -260.591889 
L 405.814087 -260.397344 
L 405.306306 -260.2028 
L 404.798526 -260.008256 
L 404.290745 -259.813711 
L 403.782965 -259.619167 
L 403.275184 -259.424622 
L 402.767404 -259.230078 
L 402.259623 -259.035534 
L 401.751843 -258.840989 
L 401.244062 -258.646445 
L 400.736282 -258.4519 
L 400.228501 -258.257356 
L 399.720721 -258.062812 
L 399.21294 -257.868267 
L 398.70516 -257.673723 
L 398.197379 -257.479178 
L 397.689599 -257.284634 
L 397.181818 -257.090089 
L 396.674038 -256.895545 
L 396.166257 -256.701001 
L 395.658477 -256.506456 
L 395.150696 -256.311912 
L 394.642916 -256.117367 
L 394.135135 -255.922823 
L 393.627355 -255.728279 
L 393.119574 -255.533734 
L 392.611794 -255.33919 
L 392.104013 -255.144645 
L 391.596233 -254.950101 
L 391.088452 -254.755557 
L 390.580672 -254.561012 
L 390.072891 -254.366468 
L 389.565111 -254.171923 
L 389.05733 -253.977379 
L 388.54955 -253.782835 
L 388.041769 -253.58829 
L 387.533989 -253.393746 
L 387.026208 -253.199201 
L 386.518428 -253.004657 
L 386.010647 -252.810112 
L 385.502867 -252.615568 
L 384.995086 -252.421024 
L 384.487305 -252.226479 
L 383.979525 -252.031935 
L 383.471744 -251.83739 
L 382.963964 -251.642846 
L 382.456183 -251.448302 
L 381.948403 -251.253757 
L 381.440622 -251.059213 
L 380.932842 -250.864668 
L 380.425061 -250.670124 
L 379.917281 -250.47558 
L 379.4095 -250.281035 
L 378.90172 -250.086491 
L 378.393939 -249.891946 
L 377.886159 -249.697402 
L 377.378378 -249.502858 
L 376.870598 -249.308313 
L 376.362817 -249.113769 
L 375.855037 -248.919224 
L 375.347256 -248.72468 
L 374.839476 -248.530135 
L 374.331695 -248.335591 
L 373.823915 -248.141047 
L 373.316134 -247.946502 
L 372.808354 -247.751958 
L 372.300573 -247.557413 
L 371.792793 -247.362869 
L 371.285012 -247.168325 
L 370.777232 -246.97378 
L 370.269451 -246.779236 
L 369.761671 -246.584691 
L 369.25389 -246.390147 
L 368.74611 -246.267294 
L 368.238329 -246.216133 
L 367.730549 -246.164972 
L 367.222768 -246.113811 
L 366.714988 -246.06265 
L 366.207207 -246.011489 
L 365.699427 -245.960328 
L 365.191646 -245.909167 
L 364.683866 -245.858006 
L 364.176085 -245.806845 
L 363.668305 -245.755685 
L 363.160524 -245.704524 
L 362.652744 -245.653363 
L 362.144963 -245.602202 
L 361.637183 -245.551041 
L 361.129402 -245.49988 
L 360.621622 -245.448719 
L 360.113841 -245.397558 
L 359.606061 -245.346397 
L 359.09828 -245.295236 
L 358.5905 -245.244075 
L 358.082719 -245.192914 
L 357.574939 -245.141753 
L 357.067158 -245.090592 
L 356.559378 -245.039431 
L 356.051597 -244.98827 
L 355.543817 -244.937109 
L 355.036036 -244.885948 
L 354.528256 -244.834787 
L 354.020475 -244.783626 
L 353.512695 -244.732465 
L 353.004914 -244.681304 
L 352.497133 -244.630143 
L 351.989353 -244.578982 
L 351.481572 -244.527821 
L 350.973792 -244.47666 
L 350.466011 -244.425499 
L 349.958231 -244.374338 
L 349.45045 -244.323177 
L 348.94267 -244.272016 
L 348.434889 -244.220855 
L 347.927109 -244.169694 
L 347.419328 -244.118533 
L 346.911548 -244.067372 
L 346.403767 -244.016211 
L 345.895987 -243.96505 
L 345.388206 -243.913889 
L 344.880426 -243.862728 
L 344.372645 -243.811567 
L 343.864865 -243.760406 
L 343.357084 -243.709245 
L 342.849304 -243.658084 
L 342.341523 -243.606923 
L 341.833743 -243.555763 
L 341.325962 -243.504602 
L 340.818182 -243.453441 
L 340.310401 -243.40228 
L 339.802621 -243.351119 
L 339.29484 -243.299958 
L 338.78706 -243.248797 
L 338.279279 -243.197636 
L 337.771499 -243.146475 
L 337.263718 -243.095314 
L 336.755938 -243.044153 
L 336.248157 -242.992992 
L 335.740377 -242.941831 
L 335.232596 -242.89067 
L 334.724816 -242.839509 
L 334.217035 -242.788348 
L 333.709255 -242.737187 
L 333.201474 -242.686026 
L 332.693694 -242.634865 
L 332.185913 -242.583704 
L 331.678133 -242.532543 
L 331.170352 -242.481382 
L 330.662572 -242.430221 
L 330.154791 -242.37906 
L 329.647011 -242.327899 
L 329.13923 -242.276738 
L 328.63145 -242.225577 
L 328.123669 -242.174416 
L 327.615889 -242.123255 
L 327.108108 -242.072094 
L 326.600328 -242.020933 
L 326.092547 -241.969772 
L 325.584767 -241.918611 
L 325.076986 -241.86745 
L 324.569206 -241.816289 
L 324.061425 -241.765128 
L 323.553645 -241.713967 
L 323.045864 -241.662806 
L 322.538084 -241.611645 
L 322.030303 -241.560484 
L 321.522523 -241.509323 
L 321.014742 -241.458162 
L 320.506962 -241.407001 
L 319.999181 -241.355841 
L 319.4914 -241.30468 
L 318.98362 -241.253519 
L 318.475839 -241.202358 
L 317.968059 -241.151197 
L 317.460278 -241.100036 
L 316.952498 -241.048875 
L 316.444717 -240.997714 
L 315.936937 -240.946553 
L 315.429156 -240.895392 
L 314.921376 -240.844231 
L 314.413595 -240.79307 
L 313.905815 -240.741909 
L 313.398034 -240.690748 
L 312.890254 -240.639587 
L 312.382473 -240.588426 
L 311.874693 -240.537265 
L 311.366912 -240.486104 
L 310.859132 -240.434943 
L 310.351351 -240.383782 
L 309.843571 -240.332621 
L 309.33579 -240.28146 
L 308.82801 -240.230299 
L 308.320229 -240.179138 
L 307.812449 -240.127977 
L 307.304668 -240.076816 
L 306.796888 -240.025655 
L 306.289107 -239.974494 
L 305.781327 -239.923333 
L 305.273546 -239.872172 
L 304.765766 -239.821011 
L 304.257985 -239.76985 
L 303.750205 -239.718689 
L 303.242424 -239.667528 
L 302.734644 -239.616367 
L 302.226863 -239.565206 
L 301.719083 -239.514045 
L 301.211302 -239.462884 
L 300.703522 -239.411723 
L 300.195741 -239.360562 
L 299.687961 -239.309401 
L 299.18018 -239.25824 
L 298.6724 -239.207079 
L 298.164619 -239.155919 
L 297.656839 -239.104758 
L 297.149058 -239.053597 
L 296.641278 -239.002436 
L 296.133497 -238.951275 
L 295.625717 -238.900114 
L 295.117936 -238.848953 
L 294.610156 -238.797792 
L 294.102375 -238.746631 
L 293.594595 -238.69547 
L 293.086814 -238.644309 
L 292.579034 -238.593148 
L 292.071253 -238.541987 
L 291.563473 -238.490826 
L 291.055692 -238.439665 
L 290.547912 -238.388504 
L 290.040131 -238.337343 
L 289.532351 -238.286182 
L 289.02457 -238.235021 
L 288.51679 -238.18386 
L 288.009009 -238.132699 
L 287.501229 -238.081538 
L 286.993448 -238.030377 
L 286.485667 -237.979216 
L 285.977887 -237.928055 
L 285.470106 -237.876894 
L 284.962326 -237.825733 
L 284.454545 -237.774572 
L 283.946765 -237.723411 
L 283.438984 -237.67225 
L 282.931204 -237.621089 
L 282.423423 -237.569928 
L 281.915643 -237.518767 
L 281.407862 -237.467606 
L 280.900082 -237.416445 
L 280.392301 -237.365284 
L 279.884521 -237.314123 
L 279.37674 -237.262962 
L 278.86896 -237.211801 
L 278.361179 -237.16064 
L 277.853399 -237.109479 
L 277.345618 -237.058318 
L 276.837838 -237.007157 
L 276.330057 -236.955997 
L 275.822277 -236.904836 
L 275.314496 -236.853675 
L 274.806716 -236.802514 
L 274.298935 -236.751353 
L 273.791155 -236.700192 
L 273.283374 -236.649031 
L 272.775594 -236.59787 
L 272.267813 -236.546709 
L 271.760033 -236.495548 
L 271.252252 -236.444387 
L 270.744472 -236.393226 
L 270.236691 -236.342065 
L 269.728911 -236.290904 
L 269.22113 -236.239743 
L 268.71335 -236.188582 
L 268.205569 -236.137421 
L 267.697789 -236.08626 
L 267.190008 -236.035099 
L 266.682228 -235.983938 
L 266.174447 -235.932777 
L 265.666667 -235.881616 
L 265.158886 -235.830455 
L 264.651106 -235.779294 
L 264.143325 -235.728133 
L 263.635545 -235.676972 
L 263.127764 -235.625811 
L 262.619984 -235.57465 
L 262.112203 -235.523489 
L 261.604423 -235.472328 
L 261.096642 -235.421167 
L 260.588862 -235.370006 
L 260.081081 -235.318845 
L 259.573301 -235.267684 
L 259.06552 -235.216523 
L 258.55774 -235.165362 
L 258.049959 -235.114201 
L 257.542179 -235.06304 
L 257.034398 -235.011879 
L 256.526618 -234.960718 
L 256.018837 -234.909557 
L 255.511057 -234.858396 
L 255.003276 -234.807235 
L 254.495495 -234.756075 
L 253.987715 -234.704914 
L 253.479934 -234.653753 
L 252.972154 -234.602592 
L 252.464373 -234.551431 
L 251.956593 -234.50027 
L 251.448812 -234.449109 
L 250.941032 -234.397948 
L 250.433251 -234.346787 
L 249.925471 -234.295626 
L 249.41769 -234.244465 
L 248.90991 -234.193304 
L 248.402129 -234.142143 
L 247.894349 -234.090982 
L 247.386568 -234.039821 
L 246.878788 -233.98866 
L 246.371007 -233.937499 
L 245.863227 -233.886338 
L 245.355446 -233.835177 
L 244.847666 -233.784016 
L 244.339885 -233.732855 
L 243.832105 -233.681694 
L 243.324324 -233.630533 
L 242.816544 -233.579372 
L 242.308763 -233.528211 
L 241.800983 -233.47705 
L 241.293202 -233.425889 
L 240.785422 -233.374728 
L 240.277641 -233.323567 
L 239.769861 -233.272406 
L 239.26208 -233.221245 
L 238.7543 -233.170084 
L 238.246519 -233.118923 
L 237.738739 -233.067762 
L 237.230958 -233.016601 
L 236.723178 -232.96544 
L 236.215397 -232.914279 
L 235.707617 -232.863118 
L 235.199836 -232.811957 
L 234.692056 -232.760796 
L 234.184275 -232.709635 
L 233.676495 -232.658474 
L 233.168714 -232.607313 
L 232.660934 -232.556153 
L 232.153153 -232.504992 
L 231.645373 -232.453831 
L 231.137592 -232.40267 
L 230.629812 -232.351509 
L 230.122031 -232.300348 
L 229.614251 -232.249187 
L 229.10647 -232.198026 
L 228.59869 -232.146865 
L 228.090909 -232.095704 
L 227.583129 -232.044543 
L 227.075348 -231.993382 
L 226.567568 -231.942221 
L 226.059787 -231.89106 
L 225.552007 -231.839899 
L 225.044226 -231.788738 
L 224.536446 -231.737577 
L 224.028665 -231.686416 
L 223.520885 -231.635255 
L 223.013104 -231.584094 
L 222.505324 -231.532933 
L 221.997543 -231.481772 
L 221.489762 -231.430611 
L 220.981982 -231.37945 
L 220.474201 -231.328289 
L 219.966421 -231.277128 
L 219.45864 -231.225967 
L 218.95086 -231.174806 
L 218.443079 -231.123645 
L 217.935299 -231.072484 
L 217.427518 -231.021323 
L 216.919738 -230.970162 
L 216.411957 -230.919001 
L 215.904177 -230.86784 
L 215.396396 -230.816679 
L 214.888616 -230.765518 
L 214.380835 -230.714357 
L 213.873055 -230.663196 
L 213.365274 -230.612035 
L 212.857494 -230.560874 
L 212.349713 -230.509713 
L 211.841933 -230.458552 
L 211.334152 -230.407391 
L 210.826372 -230.356231 
L 210.318591 -230.30507 
L 209.810811 -230.253909 
L 209.30303 -230.202748 
L 208.79525 -230.151587 
L 208.287469 -230.100426 
L 207.779689 -230.049265 
L 207.271908 -229.998104 
L 206.764128 -229.946943 
L 206.256347 -229.895782 
L 205.748567 -229.844621 
L 205.240786 -229.79346 
L 204.733006 -229.742299 
L 204.225225 -229.691138 
L 203.717445 -229.639977 
L 203.209664 -229.588816 
L 202.701884 -229.537655 
L 202.194103 -229.486494 
L 201.686323 -229.435333 
L 201.178542 -229.384172 
L 200.670762 -229.333011 
L 200.162981 -229.28185 
L 199.655201 -229.230689 
L 199.14742 -229.179528 
L 198.63964 -229.128367 
L 198.131859 -229.077206 
L 197.624079 -229.026045 
L 197.116298 -228.974884 
L 196.608518 -228.923723 
L 196.100737 -228.872562 
L 195.592957 -228.821401 
L 195.085176 -228.77024 
L 194.577396 -228.719079 
L 194.069615 -228.667918 
L 193.561835 -228.616757 
L 193.054054 -228.565596 
L 192.546274 -228.514435 
L 192.038493 -228.463274 
L 191.530713 -228.412113 
L 191.022932 -228.360952 
L 190.515152 -228.309791 
L 190.007371 -228.25863 
L 189.49959 -228.207469 
L 188.99181 -228.156309 
L 188.484029 -228.105148 
L 187.976249 -228.053987 
L 187.468468 -228.002826 
L 186.960688 -227.951665 
L 186.452907 -227.900504 
L 185.945127 -227.849343 
L 185.437346 -227.798182 
L 184.929566 -227.747021 
L 184.421785 -227.69586 
L 183.914005 -227.644699 
L 183.406224 -227.593538 
L 182.898444 -227.542377 
L 182.390663 -227.491216 
L 181.882883 -227.440055 
L 181.375102 -227.388894 
L 180.867322 -227.337733 
L 180.359541 -227.286572 
L 179.851761 -227.235411 
L 179.34398 -227.18425 
L 178.8362 -227.133089 
L 178.328419 -227.081928 
L 177.820639 -227.030767 
L 177.312858 -226.979606 
L 176.805078 -226.928445 
L 176.297297 -226.877284 
L 175.789517 -226.826123 
L 175.281736 -226.774962 
L 174.773956 -226.723801 
L 174.266175 -226.67264 
L 173.758395 -226.621479 
L 173.250614 -226.570318 
L 172.742834 -226.519157 
L 172.235053 -226.467996 
L 171.727273 -226.416835 
L 171.219492 -226.365674 
L 170.711712 -226.314513 
L 170.203931 -226.263352 
L 169.696151 -226.212191 
L 169.18837 -226.16103 
L 168.68059 -226.109869 
L 168.172809 -226.058708 
L 167.665029 -226.007547 
L 167.157248 -225.956387 
L 166.649468 -225.905226 
L 166.141687 -225.854065 
L 165.633907 -225.802904 
L 165.126126 -225.751743 
L 164.618346 -225.700582 
L 164.110565 -225.649421 
L 163.602785 -225.59826 
L 163.095004 -225.547099 
L 162.587224 -225.495938 
L 162.079443 -225.444777 
L 161.571663 -225.393616 
L 161.063882 -225.342455 
L 160.556102 -225.291294 
L 160.048321 -225.240133 
L 159.540541 -225.188972 
L 159.03276 -225.137811 
L 158.52498 -225.08665 
L 158.017199 -225.035489 
L 157.509419 -224.984328 
L 157.001638 -224.933167 
L 156.493857 -224.882006 
L 155.986077 -224.830845 
L 155.478296 -224.779684 
L 154.970516 -224.728523 
L 154.462735 -224.677362 
L 153.954955 -224.626201 
L 153.447174 -224.57504 
L 152.939394 -224.523879 
L 152.431613 -224.472718 
L 151.923833 -224.421557 
L 151.416052 -224.370396 
L 150.908272 -224.319235 
L 150.400491 -224.268074 
L 149.892711 -224.216913 
L 149.38493 -224.165752 
L 148.87715 -224.114591 
L 148.369369 -224.06343 
L 147.861589 -224.012269 
L 147.353808 -223.961108 
L 146.846028 -223.909947 
L 146.338247 -223.858786 
L 145.830467 -223.807625 
L 145.322686 -223.756465 
L 144.814906 -223.705304 
L 144.307125 -223.654143 
L 143.799345 -223.602982 
L 143.291564 -223.551821 
L 142.783784 -223.50066 
L 142.276003 -223.449499 
L 141.768223 -223.398338 
L 141.260442 -223.347177 
L 140.752662 -223.296016 
L 140.244881 -223.244855 
L 139.737101 -223.193694 
L 139.22932 -223.142533 
L 138.72154 -223.091372 
L 138.213759 -223.040211 
L 137.705979 -222.98905 
L 137.198198 -222.937889 
L 136.690418 -222.886728 
L 136.182637 -222.835567 
L 135.674857 -222.784406 
L 135.167076 -222.733245 
L 134.659296 -222.682084 
L 134.151515 -222.630923 
L 133.643735 -222.579762 
L 133.135954 -222.528601 
L 132.628174 -222.47744 
L 132.120393 -222.426279 
L 131.612613 -222.375118 
L 131.104832 -222.323957 
L 130.597052 -222.272796 
L 130.089271 -222.221635 
L 129.581491 -222.170474 
L 129.07371 -222.119313 
L 128.56593 -222.068152 
L 128.058149 -222.016991 
L 127.550369 -221.96583 
L 127.042588 -221.914669 
L 126.534808 -221.863508 
L 126.027027 -221.812347 
L 125.519247 -221.761186 
L 125.011466 -221.710025 
L 124.503686 -221.658864 
L 123.995905 -221.607703 
L 123.488124 -221.556543 
L 122.980344 -221.505382 
L 122.472563 -221.454221 
L 121.964783 -221.40306 
L 121.457002 -221.351899 
L 120.949222 -221.300738 
L 120.441441 -221.249577 
L 119.933661 -221.198416 
L 119.42588 -221.147255 
L 118.9181 -221.096094 
L 118.410319 -221.044933 
L 117.902539 -220.993772 
L 117.394758 -220.942611 
L 116.886978 -220.89145 
L 116.379197 -220.840289 
L 115.871417 -220.789128 
L 115.363636 -220.737967 
z
" style="stroke: #ff0000; stroke-opacity: 0.2"/>
    </defs>
    <g clip-path="url(#p9c46369aa1)">
     <use xlink:href="#m7ef68b0f58" x="0" y="432" style="fill: #ff0000; fill-opacity: 0.2; stroke: #ff0000; stroke-opacity: 0.2"/>
    </g>
   </g>
   <g id="matplotlib.axis_1">
    <g id="xtick_1">
     <g id="line2d_1">
      <path d="M 115.363636 384.48 
L 115.363636 51.84 
" clip-path="url(#p9c46369aa1)" style="fill: none; stroke: #b0b0b0; stroke-width: 0.8; stroke-linecap: square"/>
     </g>
     <g id="line2d_2">
      <defs>
       <path id="m1cad03f1a3" d="M 0 0 
L 0 3.5 
" style="stroke: #000000; stroke-width: 0.8"/>
      </defs>
      <g>
       <use xlink:href="#m1cad03f1a3" x="115.363636" y="384.48" style="stroke: #000000; stroke-width: 0.8"/>
      </g>
     </g>
     <g id="text_1">
      <!-- n -->
      <g transform="translate(112.194886 399.078438) scale(0.1 -0.1)">
       <defs>
        <path id="DejaVuSans-6e" d="M 3513 2113 
L 3513 0 
L 2938 0 
L 2938 2094 
Q 2938 2591 2744 2837 
Q 2550 3084 2163 3084 
Q 1697 3084 1428 2787 
Q 1159 2491 1159 1978 
L 1159 0 
L 581 0 
L 581 3500 
L 1159 3500 
L 1159 2956 
Q 1366 3272 1645 3428 
Q 1925 3584 2291 3584 
Q 2894 3584 3203 3211 
Q 3513 2838 3513 2113 
z
" transform="scale(0.015625)"/>
       </defs>
       <use xlink:href="#DejaVuSans-6e"/>
      </g>
     </g>
    </g>
    <g id="xtick_2">
     <g id="line2d_3">
      <path d="M 369 384.48 
L 369 51.84 
" clip-path="url(#p9c46369aa1)" style="fill: none; stroke: #b0b0b0; stroke-width: 0.8; stroke-linecap: square"/>
     </g>
     <g id="line2d_4">
      <g>
       <use xlink:href="#m1cad03f1a3" x="369" y="384.48" style="stroke: #000000; stroke-width: 0.8"/>
      </g>
     </g>
     <g id="text_2">
      <!-- 2n -->
      <g transform="translate(359.464063 399.078438) scale(0.1 -0.1)">
       <defs>
        <path id="DejaVuSans-221a" d="M 3488 5191 
L 4078 5191 
L 4078 4891 
L 3719 4891 
L 1863 -128 
L 1656 -128 
L 659 2631 
L 269 2491 
L 191 2741 
L 1075 3047 
L 1875 831 
L 3488 5191 
z
" transform="scale(0.015625)"/>
        <path id="DejaVuSans-32" d="M 1228 531 
L 3431 531 
L 3431 0 
L 469 0 
L 469 531 
Q 828 903 1448 1529 
Q 2069 2156 2228 2338 
Q 2531 2678 2651 2914 
Q 2772 3150 2772 3378 
Q 2772 3750 2511 3984 
Q 2250 4219 1831 4219 
Q 1534 4219 1204 4116 
Q 875 4013 500 3803 
L 500 4441 
Q 881 4594 1212 4672 
Q 1544 4750 1819 4750 
Q 2544 4750 2975 4387 
Q 3406 4025 3406 3419 
Q 3406 3131 3298 2873 
Q 3191 2616 2906 2266 
Q 2828 2175 2409 1742 
Q 1991 1309 1228 531 
z
" transform="scale(0.015625)"/>
       </defs>
       <use xlink:href="#DejaVuSans-221a"/>
       <use xlink:href="#DejaVuSans-32" x="63.720703"/>
       <use xlink:href="#DejaVuSans-6e" x="127.34375"/>
      </g>
     </g>
    </g>
    <g id="xtick_3">
     <g id="line2d_5">
      <path d="M 622.636364 384.48 
L 622.636364 51.84 
" clip-path="url(#p9c46369aa1)" style="fill: none; stroke: #b0b0b0; stroke-width: 0.8; stroke-linecap: square"/>
     </g>
     <g id="line2d_6">
      <g>
       <use xlink:href="#m1cad03f1a3" x="622.636364" y="384.48" style="stroke: #000000; stroke-width: 0.8"/>
      </g>
     </g>
     <g id="text_3">
      <!-- (2*2n) -->
      <g transform="translate(600.331676 399.078438) scale(0.1 -0.1)">
       <defs>
        <path id="DejaVuSans-28" d="M 1984 4856 
Q 1566 4138 1362 3434 
Q 1159 2731 1159 2009 
Q 1159 1288 1364 580 
Q 1569 -128 1984 -844 
L 1484 -844 
Q 1016 -109 783 600 
Q 550 1309 550 2009 
Q 550 2706 781 3412 
Q 1013 4119 1484 4856 
L 1984 4856 
z
" transform="scale(0.015625)"/>
        <path id="DejaVuSans-2a" d="M 3009 3897 
L 1888 3291 
L 3009 2681 
L 2828 2375 
L 1778 3009 
L 1778 1831 
L 1422 1831 
L 1422 3009 
L 372 2375 
L 191 2681 
L 1313 3291 
L 191 3897 
L 372 4206 
L 1422 3572 
L 1422 4750 
L 1778 4750 
L 1778 3572 
L 2828 4206 
L 3009 3897 
z
" transform="scale(0.015625)"/>
        <path id="DejaVuSans-29" d="M 513 4856 
L 1013 4856 
Q 1481 4119 1714 3412 
Q 1947 2706 1947 2009 
Q 1947 1309 1714 600 
Q 1481 -109 1013 -844 
L 513 -844 
Q 928 -128 1133 580 
Q 1338 1288 1338 2009 
Q 1338 2731 1133 3434 
Q 928 4138 513 4856 
z
" transform="scale(0.015625)"/>
       </defs>
       <use xlink:href="#DejaVuSans-221a"/>
       <use xlink:href="#DejaVuSans-28" x="63.720703"/>
       <use xlink:href="#DejaVuSans-32" x="102.734375"/>
       <use xlink:href="#DejaVuSans-2a" x="166.357422"/>
       <use xlink:href="#DejaVuSans-221a" x="216.357422"/>
       <use xlink:href="#DejaVuSans-32" x="280.078125"/>
       <use xlink:href="#DejaVuSans-6e" x="343.701172"/>
       <use xlink:href="#DejaVuSans-29" x="407.080078"/>
      </g>
     </g>
    </g>
    <g id="text_4">
     <!-- Sample size -->
     <g transform="translate(338.967969 412.756563) scale(0.1 -0.1)">
      <defs>
       <path id="DejaVuSans-53" d="M 3425 4513 
L 3425 3897 
Q 3066 4069 2747 4153 
Q 2428 4238 2131 4238 
Q 1616 4238 1336 4038 
Q 1056 3838 1056 3469 
Q 1056 3159 1242 3001 
Q 1428 2844 1947 2747 
L 2328 2669 
Q 3034 2534 3370 2195 
Q 3706 1856 3706 1288 
Q 3706 609 3251 259 
Q 2797 -91 1919 -91 
Q 1588 -91 1214 -16 
Q 841 59 441 206 
L 441 856 
Q 825 641 1194 531 
Q 1563 422 1919 422 
Q 2459 422 2753 634 
Q 3047 847 3047 1241 
Q 3047 1584 2836 1778 
Q 2625 1972 2144 2069 
L 1759 2144 
Q 1053 2284 737 2584 
Q 422 2884 422 3419 
Q 422 4038 858 4394 
Q 1294 4750 2059 4750 
Q 2388 4750 2728 4690 
Q 3069 4631 3425 4513 
z
" transform="scale(0.015625)"/>
       <path id="DejaVuSans-61" d="M 2194 1759 
Q 1497 1759 1228 1600 
Q 959 1441 959 1056 
Q 959 750 1161 570 
Q 1363 391 1709 391 
Q 2188 391 2477 730 
Q 2766 1069 2766 1631 
L 2766 1759 
L 2194 1759 
z
M 3341 1997 
L 3341 0 
L 2766 0 
L 2766 531 
Q 2569 213 2275 61 
Q 1981 -91 1556 -91 
Q 1019 -91 701 211 
Q 384 513 384 1019 
Q 384 1609 779 1909 
Q 1175 2209 1959 2209 
L 2766 2209 
L 2766 2266 
Q 2766 2663 2505 2880 
Q 2244 3097 1772 3097 
Q 1472 3097 1187 3025 
Q 903 2953 641 2809 
L 641 3341 
Q 956 3463 1253 3523 
Q 1550 3584 1831 3584 
Q 2591 3584 2966 3190 
Q 3341 2797 3341 1997 
z
" transform="scale(0.015625)"/>
       <path id="DejaVuSans-6d" d="M 3328 2828 
Q 3544 3216 3844 3400 
Q 4144 3584 4550 3584 
Q 5097 3584 5394 3201 
Q 5691 2819 5691 2113 
L 5691 0 
L 5113 0 
L 5113 2094 
Q 5113 2597 4934 2840 
Q 4756 3084 4391 3084 
Q 3944 3084 3684 2787 
Q 3425 2491 3425 1978 
L 3425 0 
L 2847 0 
L 2847 2094 
Q 2847 2600 2669 2842 
Q 2491 3084 2119 3084 
Q 1678 3084 1418 2786 
Q 1159 2488 1159 1978 
L 1159 0 
L 581 0 
L 581 3500 
L 1159 3500 
L 1159 2956 
Q 1356 3278 1631 3431 
Q 1906 3584 2284 3584 
Q 2666 3584 2933 3390 
Q 3200 3197 3328 2828 
z
" transform="scale(0.015625)"/>
       <path id="DejaVuSans-70" d="M 1159 525 
L 1159 -1331 
L 581 -1331 
L 581 3500 
L 1159 3500 
L 1159 2969 
Q 1341 3281 1617 3432 
Q 1894 3584 2278 3584 
Q 2916 3584 3314 3078 
Q 3713 2572 3713 1747 
Q 3713 922 3314 415 
Q 2916 -91 2278 -91 
Q 1894 -91 1617 61 
Q 1341 213 1159 525 
z
M 3116 1747 
Q 3116 2381 2855 2742 
Q 2594 3103 2138 3103 
Q 1681 3103 1420 2742 
Q 1159 2381 1159 1747 
Q 1159 1113 1420 752 
Q 1681 391 2138 391 
Q 2594 391 2855 752 
Q 3116 1113 3116 1747 
z
" transform="scale(0.015625)"/>
       <path id="DejaVuSans-6c" d="M 603 4863 
L 1178 4863 
L 1178 0 
L 603 0 
L 603 4863 
z
" transform="scale(0.015625)"/>
       <path id="DejaVuSans-65" d="M 3597 1894 
L 3597 1613 
L 953 1613 
Q 991 1019 1311 708 
Q 1631 397 2203 397 
Q 2534 397 2845 478 
Q 3156 559 3463 722 
L 3463 178 
Q 3153 47 2828 -22 
Q 2503 -91 2169 -91 
Q 1331 -91 842 396 
Q 353 884 353 1716 
Q 353 2575 817 3079 
Q 1281 3584 2069 3584 
Q 2775 3584 3186 3129 
Q 3597 2675 3597 1894 
z
M 3022 2063 
Q 3016 2534 2758 2815 
Q 2500 3097 2075 3097 
Q 1594 3097 1305 2825 
Q 1016 2553 972 2059 
L 3022 2063 
z
" transform="scale(0.015625)"/>
       <path id="DejaVuSans-20" transform="scale(0.015625)"/>
       <path id="DejaVuSans-73" d="M 2834 3397 
L 2834 2853 
Q 2591 2978 2328 3040 
Q 2066 3103 1784 3103 
Q 1356 3103 1142 2972 
Q 928 2841 928 2578 
Q 928 2378 1081 2264 
Q 1234 2150 1697 2047 
L 1894 2003 
Q 2506 1872 2764 1633 
Q 3022 1394 3022 966 
Q 3022 478 2636 193 
Q 2250 -91 1575 -91 
Q 1294 -91 989 -36 
Q 684 19 347 128 
L 347 722 
Q 666 556 975 473 
Q 1284 391 1588 391 
Q 1994 391 2212 530 
Q 2431 669 2431 922 
Q 2431 1156 2273 1281 
Q 2116 1406 1581 1522 
L 1381 1569 
Q 847 1681 609 1914 
Q 372 2147 372 2553 
Q 372 3047 722 3315 
Q 1072 3584 1716 3584 
Q 2034 3584 2315 3537 
Q 2597 3491 2834 3397 
z
" transform="scale(0.015625)"/>
       <path id="DejaVuSans-69" d="M 603 3500 
L 1178 3500 
L 1178 0 
L 603 0 
L 603 3500 
z
M 603 4863 
L 1178 4863 
L 1178 4134 
L 603 4134 
L 603 4863 
z
" transform="scale(0.015625)"/>
       <path id="DejaVuSans-7a" d="M 353 3500 
L 3084 3500 
L 3084 2975 
L 922 459 
L 3084 459 
L 3084 0 
L 275 0 
L 275 525 
L 2438 3041 
L 353 3041 
L 353 3500 
z
" transform="scale(0.015625)"/>
      </defs>
      <use xlink:href="#DejaVuSans-53"/>
      <use xlink:href="#DejaVuSans-61" x="63.476562"/>
      <use xlink:href="#DejaVuSans-6d" x="124.755859"/>
      <use xlink:href="#DejaVuSans-70" x="222.167969"/>
      <use xlink:href="#DejaVuSans-6c" x="285.644531"/>
      <use xlink:href="#DejaVuSans-65" x="313.427734"/>
      <use xlink:href="#DejaVuSans-20" x="374.951172"/>
      <use xlink:href="#DejaVuSans-73" x="406.738281"/>
      <use xlink:href="#DejaVuSans-69" x="458.837891"/>
      <use xlink:href="#DejaVuSans-7a" x="486.621094"/>
      <use xlink:href="#DejaVuSans-65" x="539.111328"/>
     </g>
    </g>
   </g>
   <g id="matplotlib.axis_2">
    <g id="ytick_1">
     <g id="line2d_7">
      <path d="M 90 384.48 
L 648 384.48 
" clip-path="url(#p9c46369aa1)" style="fill: none; stroke: #b0b0b0; stroke-width: 0.8; stroke-linecap: square"/>
     </g>
     <g id="line2d_8">
      <defs>
       <path id="mf210dddc58" d="M 0 0 
L -3.5 0 
" style="stroke: #000000; stroke-width: 0.8"/>
      </defs>
      <g>
       <use xlink:href="#mf210dddc58" x="90" y="384.48" style="stroke: #000000; stroke-width: 0.8"/>
      </g>
     </g>
     <g id="text_5">
      <!-- 0.00 -->
      <g transform="translate(60.734375 388.279219) scale(0.1 -0.1)">
       <defs>
        <path id="DejaVuSans-30" d="M 2034 4250 
Q 1547 4250 1301 3770 
Q 1056 3291 1056 2328 
Q 1056 1369 1301 889 
Q 1547 409 2034 409 
Q 2525 409 2770 889 
Q 3016 1369 3016 2328 
Q 3016 3291 2770 3770 
Q 2525 4250 2034 4250 
z
M 2034 4750 
Q 2819 4750 3233 4129 
Q 3647 3509 3647 2328 
Q 3647 1150 3233 529 
Q 2819 -91 2034 -91 
Q 1250 -91 836 529 
Q 422 1150 422 2328 
Q 422 3509 836 4129 
Q 1250 4750 2034 4750 
z
" transform="scale(0.015625)"/>
        <path id="DejaVuSans-2e" d="M 684 794 
L 1344 794 
L 1344 0 
L 684 0 
L 684 794 
z
" transform="scale(0.015625)"/>
       </defs>
       <use xlink:href="#DejaVuSans-30"/>
       <use xlink:href="#DejaVuSans-2e" x="63.623047"/>
       <use xlink:href="#DejaVuSans-30" x="95.410156"/>
       <use xlink:href="#DejaVuSans-30" x="159.033203"/>
      </g>
     </g>
    </g>
    <g id="ytick_2">
     <g id="line2d_9">
      <path d="M 90 329.04 
L 648 329.04 
" clip-path="url(#p9c46369aa1)" style="fill: none; stroke: #b0b0b0; stroke-width: 0.8; stroke-linecap: square"/>
     </g>
     <g id="line2d_10">
      <g>
       <use xlink:href="#mf210dddc58" x="90" y="329.04" style="stroke: #000000; stroke-width: 0.8"/>
      </g>
     </g>
     <g id="text_6">
      <!-- 0.05 -->
      <g transform="translate(60.734375 332.839219) scale(0.1 -0.1)">
       <defs>
        <path id="DejaVuSans-35" d="M 691 4666 
L 3169 4666 
L 3169 4134 
L 1269 4134 
L 1269 2991 
Q 1406 3038 1543 3061 
Q 1681 3084 1819 3084 
Q 2600 3084 3056 2656 
Q 3513 2228 3513 1497 
Q 3513 744 3044 326 
Q 2575 -91 1722 -91 
Q 1428 -91 1123 -41 
Q 819 9 494 109 
L 494 744 
Q 775 591 1075 516 
Q 1375 441 1709 441 
Q 2250 441 2565 725 
Q 2881 1009 2881 1497 
Q 2881 1984 2565 2268 
Q 2250 2553 1709 2553 
Q 1456 2553 1204 2497 
Q 953 2441 691 2322 
L 691 4666 
z
" transform="scale(0.015625)"/>
       </defs>
       <use xlink:href="#DejaVuSans-30"/>
       <use xlink:href="#DejaVuSans-2e" x="63.623047"/>
       <use xlink:href="#DejaVuSans-30" x="95.410156"/>
       <use xlink:href="#DejaVuSans-35" x="159.033203"/>
      </g>
     </g>
    </g>
    <g id="ytick_3">
     <g id="line2d_11">
      <path d="M 90 273.6 
L 648 273.6 
" clip-path="url(#p9c46369aa1)" style="fill: none; stroke: #b0b0b0; stroke-width: 0.8; stroke-linecap: square"/>
     </g>
     <g id="line2d_12">
      <g>
       <use xlink:href="#mf210dddc58" x="90" y="273.6" style="stroke: #000000; stroke-width: 0.8"/>
      </g>
     </g>
     <g id="text_7">
      <!-- 0.10 -->
      <g transform="translate(60.734375 277.399219) scale(0.1 -0.1)">
       <defs>
        <path id="DejaVuSans-31" d="M 794 531 
L 1825 531 
L 1825 4091 
L 703 3866 
L 703 4441 
L 1819 4666 
L 2450 4666 
L 2450 531 
L 3481 531 
L 3481 0 
L 794 0 
L 794 531 
z
" transform="scale(0.015625)"/>
       </defs>
       <use xlink:href="#DejaVuSans-30"/>
       <use xlink:href="#DejaVuSans-2e" x="63.623047"/>
       <use xlink:href="#DejaVuSans-31" x="95.410156"/>
       <use xlink:href="#DejaVuSans-30" x="159.033203"/>
      </g>
     </g>
    </g>
    <g id="ytick_4">
     <g id="line2d_13">
      <path d="M 90 218.16 
L 648 218.16 
" clip-path="url(#p9c46369aa1)" style="fill: none; stroke: #b0b0b0; stroke-width: 0.8; stroke-linecap: square"/>
     </g>
     <g id="line2d_14">
      <g>
       <use xlink:href="#mf210dddc58" x="90" y="218.16" style="stroke: #000000; stroke-width: 0.8"/>
      </g>
     </g>
     <g id="text_8">
      <!-- 0.15 -->
      <g transform="translate(60.734375 221.959219) scale(0.1 -0.1)">
       <use xlink:href="#DejaVuSans-30"/>
       <use xlink:href="#DejaVuSans-2e" x="63.623047"/>
       <use xlink:href="#DejaVuSans-31" x="95.410156"/>
       <use xlink:href="#DejaVuSans-35" x="159.033203"/>
      </g>
     </g>
    </g>
    <g id="ytick_5">
     <g id="line2d_15">
      <path d="M 90 162.72 
L 648 162.72 
" clip-path="url(#p9c46369aa1)" style="fill: none; stroke: #b0b0b0; stroke-width: 0.8; stroke-linecap: square"/>
     </g>
     <g id="line2d_16">
      <g>
       <use xlink:href="#mf210dddc58" x="90" y="162.72" style="stroke: #000000; stroke-width: 0.8"/>
      </g>
     </g>
     <g id="text_9">
      <!-- 0.20 -->
      <g transform="translate(60.734375 166.519219) scale(0.1 -0.1)">
       <use xlink:href="#DejaVuSans-30"/>
       <use xlink:href="#DejaVuSans-2e" x="63.623047"/>
       <use xlink:href="#DejaVuSans-32" x="95.410156"/>
       <use xlink:href="#DejaVuSans-30" x="159.033203"/>
      </g>
     </g>
    </g>
    <g id="ytick_6">
     <g id="line2d_17">
      <path d="M 90 107.28 
L 648 107.28 
" clip-path="url(#p9c46369aa1)" style="fill: none; stroke: #b0b0b0; stroke-width: 0.8; stroke-linecap: square"/>
     </g>
     <g id="line2d_18">
      <g>
       <use xlink:href="#mf210dddc58" x="90" y="107.28" style="stroke: #000000; stroke-width: 0.8"/>
      </g>
     </g>
     <g id="text_10">
      <!-- 0.25 -->
      <g transform="translate(60.734375 111.079219) scale(0.1 -0.1)">
       <use xlink:href="#DejaVuSans-30"/>
       <use xlink:href="#DejaVuSans-2e" x="63.623047"/>
       <use xlink:href="#DejaVuSans-32" x="95.410156"/>
       <use xlink:href="#DejaVuSans-35" x="159.033203"/>
      </g>
     </g>
    </g>
    <g id="ytick_7">
     <g id="line2d_19">
      <path d="M 90 51.84 
L 648 51.84 
" clip-path="url(#p9c46369aa1)" style="fill: none; stroke: #b0b0b0; stroke-width: 0.8; stroke-linecap: square"/>
     </g>
     <g id="line2d_20">
      <g>
       <use xlink:href="#mf210dddc58" x="90" y="51.84" style="stroke: #000000; stroke-width: 0.8"/>
      </g>
     </g>
     <g id="text_11">
      <!-- 0.30 -->
      <g transform="translate(60.734375 55.639219) scale(0.1 -0.1)">
       <defs>
        <path id="DejaVuSans-33" d="M 2597 2516 
Q 3050 2419 3304 2112 
Q 3559 1806 3559 1356 
Q 3559 666 3084 287 
Q 2609 -91 1734 -91 
Q 1441 -91 1130 -33 
Q 819 25 488 141 
L 488 750 
Q 750 597 1062 519 
Q 1375 441 1716 441 
Q 2309 441 2620 675 
Q 2931 909 2931 1356 
Q 2931 1769 2642 2001 
Q 2353 2234 1838 2234 
L 1294 2234 
L 1294 2753 
L 1863 2753 
Q 2328 2753 2575 2939 
Q 2822 3125 2822 3475 
Q 2822 3834 2567 4026 
Q 2313 4219 1838 4219 
Q 1578 4219 1281 4162 
Q 984 4106 628 3988 
L 628 4550 
Q 988 4650 1302 4700 
Q 1616 4750 1894 4750 
Q 2613 4750 3031 4423 
Q 3450 4097 3450 3541 
Q 3450 3153 3228 2886 
Q 3006 2619 2597 2516 
z
" transform="scale(0.015625)"/>
       </defs>
       <use xlink:href="#DejaVuSans-30"/>
       <use xlink:href="#DejaVuSans-2e" x="63.623047"/>
       <use xlink:href="#DejaVuSans-33" x="95.410156"/>
       <use xlink:href="#DejaVuSans-30" x="159.033203"/>
      </g>
     </g>
    </g>
    <g id="text_12">
     <!-- Score -->
     <g transform="translate(54.654688 232.162344) rotate(-90) scale(0.1 -0.1)">
      <defs>
       <path id="DejaVuSans-63" d="M 3122 3366 
L 3122 2828 
Q 2878 2963 2633 3030 
Q 2388 3097 2138 3097 
Q 1578 3097 1268 2742 
Q 959 2388 959 1747 
Q 959 1106 1268 751 
Q 1578 397 2138 397 
Q 2388 397 2633 464 
Q 2878 531 3122 666 
L 3122 134 
Q 2881 22 2623 -34 
Q 2366 -91 2075 -91 
Q 1284 -91 818 406 
Q 353 903 353 1747 
Q 353 2603 823 3093 
Q 1294 3584 2113 3584 
Q 2378 3584 2631 3529 
Q 2884 3475 3122 3366 
z
" transform="scale(0.015625)"/>
       <path id="DejaVuSans-6f" d="M 1959 3097 
Q 1497 3097 1228 2736 
Q 959 2375 959 1747 
Q 959 1119 1226 758 
Q 1494 397 1959 397 
Q 2419 397 2687 759 
Q 2956 1122 2956 1747 
Q 2956 2369 2687 2733 
Q 2419 3097 1959 3097 
z
M 1959 3584 
Q 2709 3584 3137 3096 
Q 3566 2609 3566 1747 
Q 3566 888 3137 398 
Q 2709 -91 1959 -91 
Q 1206 -91 779 398 
Q 353 888 353 1747 
Q 353 2609 779 3096 
Q 1206 3584 1959 3584 
z
" transform="scale(0.015625)"/>
       <path id="DejaVuSans-72" d="M 2631 2963 
Q 2534 3019 2420 3045 
Q 2306 3072 2169 3072 
Q 1681 3072 1420 2755 
Q 1159 2438 1159 1844 
L 1159 0 
L 581 0 
L 581 3500 
L 1159 3500 
L 1159 2956 
Q 1341 3275 1631 3429 
Q 1922 3584 2338 3584 
Q 2397 3584 2469 3576 
Q 2541 3569 2628 3553 
L 2631 2963 
z
" transform="scale(0.015625)"/>
      </defs>
      <use xlink:href="#DejaVuSans-53"/>
      <use xlink:href="#DejaVuSans-63" x="63.476562"/>
      <use xlink:href="#DejaVuSans-6f" x="118.457031"/>
      <use xlink:href="#DejaVuSans-72" x="179.638672"/>
      <use xlink:href="#DejaVuSans-65" x="218.501953"/>
     </g>
    </g>
   </g>
   <g id="line2d_21">
    <path d="M 115.363636 211.262033 
L 369 224.27534 
L 622.636364 224.773054 
" clip-path="url(#p9c46369aa1)" style="fill: none; stroke: #1f77b4; stroke-width: 1.5; stroke-linecap: square"/>
   </g>
   <g id="patch_3">
    <path d="M 90 384.48 
L 90 51.84 
" style="fill: none; stroke: #000000; stroke-width: 0.8; stroke-linejoin: miter; stroke-linecap: square"/>
   </g>
   <g id="patch_4">
    <path d="M 648 384.48 
L 648 51.84 
" style="fill: none; stroke: #000000; stroke-width: 0.8; stroke-linejoin: miter; stroke-linecap: square"/>
   </g>
   <g id="patch_5">
    <path d="M 90 384.48 
L 648 384.48 
" style="fill: none; stroke: #000000; stroke-width: 0.8; stroke-linejoin: miter; stroke-linecap: square"/>
   </g>
   <g id="patch_6">
    <path d="M 90 51.84 
L 648 51.84 
" style="fill: none; stroke: #000000; stroke-width: 0.8; stroke-linejoin: miter; stroke-linecap: square"/>
   </g>
   <g id="text_13">
    <!-- MMD scores -->
    <g transform="translate(332.874375 45.84) scale(0.12 -0.12)">
     <defs>
      <path id="DejaVuSans-4d" d="M 628 4666 
L 1569 4666 
L 2759 1491 
L 3956 4666 
L 4897 4666 
L 4897 0 
L 4281 0 
L 4281 4097 
L 3078 897 
L 2444 897 
L 1241 4097 
L 1241 0 
L 628 0 
L 628 4666 
z
" transform="scale(0.015625)"/>
      <path id="DejaVuSans-44" d="M 1259 4147 
L 1259 519 
L 2022 519 
Q 2988 519 3436 956 
Q 3884 1394 3884 2338 
Q 3884 3275 3436 3711 
Q 2988 4147 2022 4147 
L 1259 4147 
z
M 628 4666 
L 1925 4666 
Q 3281 4666 3915 4102 
Q 4550 3538 4550 2338 
Q 4550 1131 3912 565 
Q 3275 0 1925 0 
L 628 0 
L 628 4666 
z
" transform="scale(0.015625)"/>
     </defs>
     <use xlink:href="#DejaVuSans-4d"/>
     <use xlink:href="#DejaVuSans-4d" x="86.279297"/>
     <use xlink:href="#DejaVuSans-44" x="172.558594"/>
     <use xlink:href="#DejaVuSans-20" x="249.560547"/>
     <use xlink:href="#DejaVuSans-73" x="281.347656"/>
     <use xlink:href="#DejaVuSans-63" x="333.447266"/>
     <use xlink:href="#DejaVuSans-6f" x="388.427734"/>
     <use xlink:href="#DejaVuSans-72" x="449.609375"/>
     <use xlink:href="#DejaVuSans-65" x="488.472656"/>
     <use xlink:href="#DejaVuSans-73" x="549.996094"/>
    </g>
   </g>
   <g id="legend_1">
    <g id="patch_7">
     <path d="M 513.845312 89.19625 
L 641 89.19625 
Q 643 89.19625 643 87.19625 
L 643 58.84 
Q 643 56.84 641 56.84 
L 513.845312 56.84 
Q 511.845312 56.84 511.845312 58.84 
L 511.845312 87.19625 
Q 511.845312 89.19625 513.845312 89.19625 
z
" style="fill: #ffffff; opacity: 0.8; stroke: #cccccc; stroke-linejoin: miter"/>
    </g>
    <g id="line2d_22">
     <path d="M 515.845312 64.938437 
L 525.845312 64.938437 
L 535.845312 64.938437 
" style="fill: none; stroke: #1f77b4; stroke-width: 1.5; stroke-linecap: square"/>
    </g>
    <g id="text_14">
     <!-- Mean -->
     <g transform="translate(543.845312 68.438437) scale(0.1 -0.1)">
      <use xlink:href="#DejaVuSans-4d"/>
      <use xlink:href="#DejaVuSans-65" x="86.279297"/>
      <use xlink:href="#DejaVuSans-61" x="147.802734"/>
      <use xlink:href="#DejaVuSans-6e" x="209.082031"/>
     </g>
    </g>
    <g id="patch_8">
     <path d="M 515.845312 83.116562 
L 535.845312 83.116562 
L 535.845312 76.116562 
L 515.845312 76.116562 
z
" style="fill: #ff0000; fill-opacity: 0.2; stroke: #ff0000; stroke-opacity: 0.2; stroke-linejoin: miter"/>
    </g>
    <g id="text_15">
     <!-- Standard deviation -->
     <g transform="translate(543.845312 83.116562) scale(0.1 -0.1)">
      <defs>
       <path id="DejaVuSans-74" d="M 1172 4494 
L 1172 3500 
L 2356 3500 
L 2356 3053 
L 1172 3053 
L 1172 1153 
Q 1172 725 1289 603 
Q 1406 481 1766 481 
L 2356 481 
L 2356 0 
L 1766 0 
Q 1100 0 847 248 
Q 594 497 594 1153 
L 594 3053 
L 172 3053 
L 172 3500 
L 594 3500 
L 594 4494 
L 1172 4494 
z
" transform="scale(0.015625)"/>
       <path id="DejaVuSans-64" d="M 2906 2969 
L 2906 4863 
L 3481 4863 
L 3481 0 
L 2906 0 
L 2906 525 
Q 2725 213 2448 61 
Q 2172 -91 1784 -91 
Q 1150 -91 751 415 
Q 353 922 353 1747 
Q 353 2572 751 3078 
Q 1150 3584 1784 3584 
Q 2172 3584 2448 3432 
Q 2725 3281 2906 2969 
z
M 947 1747 
Q 947 1113 1208 752 
Q 1469 391 1925 391 
Q 2381 391 2643 752 
Q 2906 1113 2906 1747 
Q 2906 2381 2643 2742 
Q 2381 3103 1925 3103 
Q 1469 3103 1208 2742 
Q 947 2381 947 1747 
z
" transform="scale(0.015625)"/>
       <path id="DejaVuSans-76" d="M 191 3500 
L 800 3500 
L 1894 563 
L 2988 3500 
L 3597 3500 
L 2284 0 
L 1503 0 
L 191 3500 
z
" transform="scale(0.015625)"/>
      </defs>
      <use xlink:href="#DejaVuSans-53"/>
      <use xlink:href="#DejaVuSans-74" x="63.476562"/>
      <use xlink:href="#DejaVuSans-61" x="102.685547"/>
      <use xlink:href="#DejaVuSans-6e" x="163.964844"/>
      <use xlink:href="#DejaVuSans-64" x="227.34375"/>
      <use xlink:href="#DejaVuSans-61" x="290.820312"/>
      <use xlink:href="#DejaVuSans-72" x="352.099609"/>
      <use xlink:href="#DejaVuSans-64" x="391.462891"/>
      <use xlink:href="#DejaVuSans-20" x="454.939453"/>
      <use xlink:href="#DejaVuSans-64" x="486.726562"/>
      <use xlink:href="#DejaVuSans-65" x="550.203125"/>
      <use xlink:href="#DejaVuSans-76" x="611.726562"/>
      <use xlink:href="#DejaVuSans-69" x="670.90625"/>
      <use xlink:href="#DejaVuSans-61" x="698.689453"/>
      <use xlink:href="#DejaVuSans-74" x="759.96875"/>
      <use xlink:href="#DejaVuSans-69" x="799.177734"/>
      <use xlink:href="#DejaVuSans-6f" x="826.960938"/>
      <use xlink:href="#DejaVuSans-6e" x="888.142578"/>
     </g>
    </g>
   </g>
  </g>
 </g>
 <defs>
  <clipPath id="p9c46369aa1">
   <rect x="90" y="51.84" width="558" height="332.64"/>
  </clipPath>
 </defs>
</svg>
