<?xml version="1.0" encoding="utf-8" standalone="no"?>
<!DOCTYPE svg PUBLIC "-//W3C//DTD SVG 1.1//EN"
  "http://www.w3.org/Graphics/SVG/1.1/DTD/svg11.dtd">
<svg xmlns:xlink="http://www.w3.org/1999/xlink" width="720pt" height="432pt" viewBox="0 0 720 432" xmlns="http://www.w3.org/2000/svg" version="1.1">
 <metadata>
  <rdf:RDF xmlns:dc="http://purl.org/dc/elements/1.1/" xmlns:cc="http://creativecommons.org/ns#" xmlns:rdf="http://www.w3.org/1999/02/22-rdf-syntax-ns#">
   <cc:Work>
    <dc:type rdf:resource="http://purl.org/dc/dcmitype/StillImage"/>
    <dc:date>2023-05-29T19:37:43.097113</dc:date>
    <dc:format>image/svg+xml</dc:format>
    <dc:creator>
     <cc:Agent>
      <dc:title>Matplotlib v3.7.1, https://matplotlib.org/</dc:title>
     </cc:Agent>
    </dc:creator>
   </cc:Work>
  </rdf:RDF>
 </metadata>
 <defs>
  <style type="text/css">*{stroke-linejoin: round; stroke-linecap: butt}</style>
 </defs>
 <g id="figure_1">
  <g id="patch_1">
   <path d="M 0 432 
L 720 432 
L 720 0 
L 0 0 
z
" style="fill: #ffffff"/>
  </g>
  <g id="axes_1">
   <g id="patch_2">
    <path d="M 90 384.48 
L 648 384.48 
L 648 51.84 
L 90 51.84 
z
" style="fill: #ffffff"/>
   </g>
   <g id="PolyCollection_1">
    <defs>
     <path id="m0f48c7a4b7" d="M 115.363636 -199.794454 
L 115.363636 -199.648425 
L 115.871417 -199.648064 
L 116.379197 -199.647703 
L 116.886978 -199.647342 
L 117.394758 -199.646981 
L 117.902539 -199.646619 
L 118.410319 -199.646258 
L 118.9181 -199.645897 
L 119.42588 -199.645536 
L 119.933661 -199.645175 
L 120.441441 -199.644813 
L 120.949222 -199.644452 
L 121.457002 -199.644091 
L 121.964783 -199.64373 
L 122.472563 -199.643369 
L 122.980344 -199.643007 
L 123.488124 -199.642646 
L 123.995905 -199.642285 
L 124.503686 -199.641924 
L 125.011466 -199.641563 
L 125.519247 -199.641201 
L 126.027027 -199.64084 
L 126.534808 -199.640479 
L 127.042588 -199.640118 
L 127.550369 -199.639757 
L 128.058149 -199.639395 
L 128.56593 -199.639034 
L 129.07371 -199.638673 
L 129.581491 -199.638312 
L 130.089271 -199.637951 
L 130.597052 -199.63759 
L 131.104832 -199.637228 
L 131.612613 -199.636867 
L 132.120393 -199.636506 
L 132.628174 -199.636145 
L 133.135954 -199.635784 
L 133.643735 -199.635422 
L 134.151515 -199.635061 
L 134.659296 -199.6347 
L 135.167076 -199.634339 
L 135.674857 -199.633978 
L 136.182637 -199.633616 
L 136.690418 -199.633255 
L 137.198198 -199.632894 
L 137.705979 -199.632533 
L 138.213759 -199.632172 
L 138.72154 -199.63181 
L 139.22932 -199.631449 
L 139.737101 -199.631088 
L 140.244881 -199.630727 
L 140.752662 -199.630366 
L 141.260442 -199.630004 
L 141.768223 -199.629643 
L 142.276003 -199.629282 
L 142.783784 -199.628921 
L 143.291564 -199.62856 
L 143.799345 -199.628198 
L 144.307125 -199.627837 
L 144.814906 -199.627476 
L 145.322686 -199.627115 
L 145.830467 -199.626754 
L 146.338247 -199.626392 
L 146.846028 -199.626031 
L 147.353808 -199.62567 
L 147.861589 -199.625309 
L 148.369369 -199.624948 
L 148.87715 -199.624586 
L 149.38493 -199.624225 
L 149.892711 -199.623864 
L 150.400491 -199.623503 
L 150.908272 -199.623142 
L 151.416052 -199.62278 
L 151.923833 -199.622419 
L 152.431613 -199.622058 
L 152.939394 -199.621697 
L 153.447174 -199.621336 
L 153.954955 -199.620974 
L 154.462735 -199.620613 
L 154.970516 -199.620252 
L 155.478296 -199.619891 
L 155.986077 -199.61953 
L 156.493857 -199.619168 
L 157.001638 -199.618807 
L 157.509419 -199.618446 
L 158.017199 -199.618085 
L 158.52498 -199.617724 
L 159.03276 -199.617362 
L 159.540541 -199.617001 
L 160.048321 -199.61664 
L 160.556102 -199.616279 
L 161.063882 -199.615918 
L 161.571663 -199.615556 
L 162.079443 -199.615195 
L 162.587224 -199.614834 
L 163.095004 -199.614473 
L 163.602785 -199.614112 
L 164.110565 -199.61375 
L 164.618346 -199.613389 
L 165.126126 -199.613028 
L 165.633907 -199.612667 
L 166.141687 -199.612306 
L 166.649468 -199.611944 
L 167.157248 -199.611583 
L 167.665029 -199.611222 
L 168.172809 -199.610861 
L 168.68059 -199.6105 
L 169.18837 -199.610138 
L 169.696151 -199.609777 
L 170.203931 -199.609416 
L 170.711712 -199.609055 
L 171.219492 -199.608694 
L 171.727273 -199.608333 
L 172.235053 -199.607971 
L 172.742834 -199.60761 
L 173.250614 -199.607249 
L 173.758395 -199.606888 
L 174.266175 -199.606527 
L 174.773956 -199.606165 
L 175.281736 -199.605804 
L 175.789517 -199.605443 
L 176.297297 -199.605082 
L 176.805078 -199.604721 
L 177.312858 -199.604359 
L 177.820639 -199.603998 
L 178.328419 -199.603637 
L 178.8362 -199.603276 
L 179.34398 -199.602915 
L 179.851761 -199.602553 
L 180.359541 -199.602192 
L 180.867322 -199.601831 
L 181.375102 -199.60147 
L 181.882883 -199.601109 
L 182.390663 -199.600747 
L 182.898444 -199.600386 
L 183.406224 -199.600025 
L 183.914005 -199.599664 
L 184.421785 -199.599303 
L 184.929566 -199.598941 
L 185.437346 -199.59858 
L 185.945127 -199.598219 
L 186.452907 -199.597858 
L 186.960688 -199.597497 
L 187.468468 -199.597135 
L 187.976249 -199.596774 
L 188.484029 -199.596413 
L 188.99181 -199.596052 
L 189.49959 -199.595691 
L 190.007371 -199.595329 
L 190.515152 -199.594968 
L 191.022932 -199.594607 
L 191.530713 -199.594246 
L 192.038493 -199.593885 
L 192.546274 -199.593523 
L 193.054054 -199.593162 
L 193.561835 -199.592801 
L 194.069615 -199.59244 
L 194.577396 -199.592079 
L 195.085176 -199.591717 
L 195.592957 -199.591356 
L 196.100737 -199.590995 
L 196.608518 -199.590634 
L 197.116298 -199.590273 
L 197.624079 -199.589911 
L 198.131859 -199.58955 
L 198.63964 -199.589189 
L 199.14742 -199.588828 
L 199.655201 -199.588467 
L 200.162981 -199.588105 
L 200.670762 -199.587744 
L 201.178542 -199.587383 
L 201.686323 -199.587022 
L 202.194103 -199.586661 
L 202.701884 -199.586299 
L 203.209664 -199.585938 
L 203.717445 -199.585577 
L 204.225225 -199.585216 
L 204.733006 -199.584855 
L 205.240786 -199.584493 
L 205.748567 -199.584132 
L 206.256347 -199.583771 
L 206.764128 -199.58341 
L 207.271908 -199.583049 
L 207.779689 -199.582687 
L 208.287469 -199.582326 
L 208.79525 -199.581965 
L 209.30303 -199.581604 
L 209.810811 -199.581243 
L 210.318591 -199.580881 
L 210.826372 -199.58052 
L 211.334152 -199.580159 
L 211.841933 -199.579798 
L 212.349713 -199.579437 
L 212.857494 -199.579076 
L 213.365274 -199.578714 
L 213.873055 -199.578353 
L 214.380835 -199.577992 
L 214.888616 -199.577631 
L 215.396396 -199.57727 
L 215.904177 -199.576908 
L 216.411957 -199.576547 
L 216.919738 -199.576186 
L 217.427518 -199.575825 
L 217.935299 -199.575464 
L 218.443079 -199.575102 
L 218.95086 -199.574741 
L 219.45864 -199.57438 
L 219.966421 -199.574019 
L 220.474201 -199.573658 
L 220.981982 -199.573296 
L 221.489762 -199.572935 
L 221.997543 -199.572574 
L 222.505324 -199.572213 
L 223.013104 -199.571852 
L 223.520885 -199.57149 
L 224.028665 -199.571129 
L 224.536446 -199.570768 
L 225.044226 -199.570407 
L 225.552007 -199.570046 
L 226.059787 -199.569684 
L 226.567568 -199.569323 
L 227.075348 -199.568962 
L 227.583129 -199.568601 
L 228.090909 -199.56824 
L 228.59869 -199.567878 
L 229.10647 -199.567517 
L 229.614251 -199.567156 
L 230.122031 -199.566795 
L 230.629812 -199.566434 
L 231.137592 -199.566072 
L 231.645373 -199.565711 
L 232.153153 -199.56535 
L 232.660934 -199.564989 
L 233.168714 -199.564628 
L 233.676495 -199.564266 
L 234.184275 -199.563905 
L 234.692056 -199.563544 
L 235.199836 -199.563183 
L 235.707617 -199.562822 
L 236.215397 -199.56246 
L 236.723178 -199.562099 
L 237.230958 -199.561738 
L 237.738739 -199.561377 
L 238.246519 -199.561016 
L 238.7543 -199.560654 
L 239.26208 -199.560293 
L 239.769861 -199.559932 
L 240.277641 -199.559571 
L 240.785422 -199.55921 
L 241.293202 -199.558848 
L 241.800983 -199.558487 
L 242.308763 -199.558126 
L 242.816544 -199.557765 
L 243.324324 -199.557404 
L 243.832105 -199.557042 
L 244.339885 -199.556681 
L 244.847666 -199.55632 
L 245.355446 -199.555959 
L 245.863227 -199.555598 
L 246.371007 -199.555236 
L 246.878788 -199.554875 
L 247.386568 -199.554514 
L 247.894349 -199.554153 
L 248.402129 -199.553792 
L 248.90991 -199.55343 
L 249.41769 -199.553069 
L 249.925471 -199.552708 
L 250.433251 -199.552347 
L 250.941032 -199.551986 
L 251.448812 -199.551624 
L 251.956593 -199.551263 
L 252.464373 -199.550902 
L 252.972154 -199.550541 
L 253.479934 -199.55018 
L 253.987715 -199.549819 
L 254.495495 -199.549457 
L 255.003276 -199.549096 
L 255.511057 -199.548735 
L 256.018837 -199.548374 
L 256.526618 -199.548013 
L 257.034398 -199.547651 
L 257.542179 -199.54729 
L 258.049959 -199.546929 
L 258.55774 -199.546568 
L 259.06552 -199.546207 
L 259.573301 -199.545845 
L 260.081081 -199.545484 
L 260.588862 -199.545123 
L 261.096642 -199.544762 
L 261.604423 -199.544401 
L 262.112203 -199.544039 
L 262.619984 -199.543678 
L 263.127764 -199.543317 
L 263.635545 -199.542956 
L 264.143325 -199.542595 
L 264.651106 -199.542233 
L 265.158886 -199.541872 
L 265.666667 -199.541511 
L 266.174447 -199.54115 
L 266.682228 -199.540789 
L 267.190008 -199.540427 
L 267.697789 -199.540066 
L 268.205569 -199.539705 
L 268.71335 -199.539344 
L 269.22113 -199.538983 
L 269.728911 -199.538621 
L 270.236691 -199.53826 
L 270.744472 -199.537899 
L 271.252252 -199.537538 
L 271.760033 -199.537177 
L 272.267813 -199.536815 
L 272.775594 -199.536454 
L 273.283374 -199.536093 
L 273.791155 -199.535732 
L 274.298935 -199.535371 
L 274.806716 -199.535009 
L 275.314496 -199.534648 
L 275.822277 -199.534287 
L 276.330057 -199.533926 
L 276.837838 -199.533565 
L 277.345618 -199.533203 
L 277.853399 -199.532842 
L 278.361179 -199.532481 
L 278.86896 -199.53212 
L 279.37674 -199.531759 
L 279.884521 -199.531397 
L 280.392301 -199.531036 
L 280.900082 -199.530675 
L 281.407862 -199.530314 
L 281.915643 -199.529953 
L 282.423423 -199.529591 
L 282.931204 -199.52923 
L 283.438984 -199.528869 
L 283.946765 -199.528508 
L 284.454545 -199.528147 
L 284.962326 -199.527785 
L 285.470106 -199.527424 
L 285.977887 -199.527063 
L 286.485667 -199.526702 
L 286.993448 -199.526341 
L 287.501229 -199.525979 
L 288.009009 -199.525618 
L 288.51679 -199.525257 
L 289.02457 -199.524896 
L 289.532351 -199.524535 
L 290.040131 -199.524173 
L 290.547912 -199.523812 
L 291.055692 -199.523451 
L 291.563473 -199.52309 
L 292.071253 -199.522729 
L 292.579034 -199.522367 
L 293.086814 -199.522006 
L 293.594595 -199.521645 
L 294.102375 -199.521284 
L 294.610156 -199.520923 
L 295.117936 -199.520561 
L 295.625717 -199.5202 
L 296.133497 -199.519839 
L 296.641278 -199.519478 
L 297.149058 -199.519117 
L 297.656839 -199.518756 
L 298.164619 -199.518394 
L 298.6724 -199.518033 
L 299.18018 -199.517672 
L 299.687961 -199.517311 
L 300.195741 -199.51695 
L 300.703522 -199.516588 
L 301.211302 -199.516227 
L 301.719083 -199.515866 
L 302.226863 -199.515505 
L 302.734644 -199.515144 
L 303.242424 -199.514782 
L 303.750205 -199.514421 
L 304.257985 -199.51406 
L 304.765766 -199.513699 
L 305.273546 -199.513338 
L 305.781327 -199.512976 
L 306.289107 -199.512615 
L 306.796888 -199.512254 
L 307.304668 -199.511893 
L 307.812449 -199.511532 
L 308.320229 -199.51117 
L 308.82801 -199.510809 
L 309.33579 -199.510448 
L 309.843571 -199.510087 
L 310.351351 -199.509726 
L 310.859132 -199.509364 
L 311.366912 -199.509003 
L 311.874693 -199.508642 
L 312.382473 -199.508281 
L 312.890254 -199.50792 
L 313.398034 -199.507558 
L 313.905815 -199.507197 
L 314.413595 -199.506836 
L 314.921376 -199.506475 
L 315.429156 -199.506114 
L 315.936937 -199.505752 
L 316.444717 -199.505391 
L 316.952498 -199.50503 
L 317.460278 -199.504669 
L 317.968059 -199.504308 
L 318.475839 -199.503946 
L 318.98362 -199.503585 
L 319.4914 -199.503224 
L 319.999181 -199.502863 
L 320.506962 -199.502502 
L 321.014742 -199.50214 
L 321.522523 -199.501779 
L 322.030303 -199.501418 
L 322.538084 -199.501057 
L 323.045864 -199.500696 
L 323.553645 -199.500334 
L 324.061425 -199.499973 
L 324.569206 -199.499612 
L 325.076986 -199.499251 
L 325.584767 -199.49889 
L 326.092547 -199.498528 
L 326.600328 -199.498167 
L 327.108108 -199.497806 
L 327.615889 -199.497445 
L 328.123669 -199.497084 
L 328.63145 -199.496722 
L 329.13923 -199.496361 
L 329.647011 -199.496 
L 330.154791 -199.495639 
L 330.662572 -199.495278 
L 331.170352 -199.494916 
L 331.678133 -199.494555 
L 332.185913 -199.494194 
L 332.693694 -199.493833 
L 333.201474 -199.493472 
L 333.709255 -199.49311 
L 334.217035 -199.492749 
L 334.724816 -199.492388 
L 335.232596 -199.492027 
L 335.740377 -199.491666 
L 336.248157 -199.491304 
L 336.755938 -199.490943 
L 337.263718 -199.490582 
L 337.771499 -199.490221 
L 338.279279 -199.48986 
L 338.78706 -199.489499 
L 339.29484 -199.489137 
L 339.802621 -199.488776 
L 340.310401 -199.488415 
L 340.818182 -199.488054 
L 341.325962 -199.487693 
L 341.833743 -199.487331 
L 342.341523 -199.48697 
L 342.849304 -199.486609 
L 343.357084 -199.486248 
L 343.864865 -199.485887 
L 344.372645 -199.485525 
L 344.880426 -199.485164 
L 345.388206 -199.484803 
L 345.895987 -199.484442 
L 346.403767 -199.484081 
L 346.911548 -199.483719 
L 347.419328 -199.483358 
L 347.927109 -199.482997 
L 348.434889 -199.482636 
L 348.94267 -199.482275 
L 349.45045 -199.481913 
L 349.958231 -199.481552 
L 350.466011 -199.481191 
L 350.973792 -199.48083 
L 351.481572 -199.480469 
L 351.989353 -199.480107 
L 352.497133 -199.479746 
L 353.004914 -199.479385 
L 353.512695 -199.479024 
L 354.020475 -199.478663 
L 354.528256 -199.478301 
L 355.036036 -199.47794 
L 355.543817 -199.477579 
L 356.051597 -199.477218 
L 356.559378 -199.476857 
L 357.067158 -199.476495 
L 357.574939 -199.476134 
L 358.082719 -199.475773 
L 358.5905 -199.475412 
L 359.09828 -199.475051 
L 359.606061 -199.474689 
L 360.113841 -199.474328 
L 360.621622 -199.473967 
L 361.129402 -199.473606 
L 361.637183 -199.473245 
L 362.144963 -199.472883 
L 362.652744 -199.472522 
L 363.160524 -199.472161 
L 363.668305 -199.4718 
L 364.176085 -199.471439 
L 364.683866 -199.471077 
L 365.191646 -199.470716 
L 365.699427 -199.470355 
L 366.207207 -199.469994 
L 366.714988 -199.469633 
L 367.222768 -199.469271 
L 367.730549 -199.46891 
L 368.238329 -199.468549 
L 368.74611 -199.468188 
L 369.25389 -199.465397 
L 369.761671 -199.460176 
L 370.269451 -199.454956 
L 370.777232 -199.449735 
L 371.285012 -199.444515 
L 371.792793 -199.439294 
L 372.300573 -199.434074 
L 372.808354 -199.428853 
L 373.316134 -199.423632 
L 373.823915 -199.418412 
L 374.331695 -199.413191 
L 374.839476 -199.407971 
L 375.347256 -199.40275 
L 375.855037 -199.39753 
L 376.362817 -199.392309 
L 376.870598 -199.387088 
L 377.378378 -199.381868 
L 377.886159 -199.376647 
L 378.393939 -199.371427 
L 378.90172 -199.366206 
L 379.4095 -199.360986 
L 379.917281 -199.355765 
L 380.425061 -199.350544 
L 380.932842 -199.345324 
L 381.440622 -199.340103 
L 381.948403 -199.334883 
L 382.456183 -199.329662 
L 382.963964 -199.324442 
L 383.471744 -199.319221 
L 383.979525 -199.314 
L 384.487305 -199.30878 
L 384.995086 -199.303559 
L 385.502867 -199.298339 
L 386.010647 -199.293118 
L 386.518428 -199.287898 
L 387.026208 -199.282677 
L 387.533989 -199.277457 
L 388.041769 -199.272236 
L 388.54955 -199.267015 
L 389.05733 -199.261795 
L 389.565111 -199.256574 
L 390.072891 -199.251354 
L 390.580672 -199.246133 
L 391.088452 -199.240913 
L 391.596233 -199.235692 
L 392.104013 -199.230471 
L 392.611794 -199.225251 
L 393.119574 -199.22003 
L 393.627355 -199.21481 
L 394.135135 -199.209589 
L 394.642916 -199.204369 
L 395.150696 -199.199148 
L 395.658477 -199.193927 
L 396.166257 -199.188707 
L 396.674038 -199.183486 
L 397.181818 -199.178266 
L 397.689599 -199.173045 
L 398.197379 -199.167825 
L 398.70516 -199.162604 
L 399.21294 -199.157383 
L 399.720721 -199.152163 
L 400.228501 -199.146942 
L 400.736282 -199.141722 
L 401.244062 -199.136501 
L 401.751843 -199.131281 
L 402.259623 -199.12606 
L 402.767404 -199.120839 
L 403.275184 -199.115619 
L 403.782965 -199.110398 
L 404.290745 -199.105178 
L 404.798526 -199.099957 
L 405.306306 -199.094737 
L 405.814087 -199.089516 
L 406.321867 -199.084296 
L 406.829648 -199.079075 
L 407.337428 -199.073854 
L 407.845209 -199.068634 
L 408.352989 -199.063413 
L 408.86077 -199.058193 
L 409.36855 -199.052972 
L 409.876331 -199.047752 
L 410.384111 -199.042531 
L 410.891892 -199.03731 
L 411.399672 -199.03209 
L 411.907453 -199.026869 
L 412.415233 -199.021649 
L 412.923014 -199.016428 
L 413.430794 -199.011208 
L 413.938575 -199.005987 
L 414.446355 -199.000766 
L 414.954136 -198.995546 
L 415.461916 -198.990325 
L 415.969697 -198.985105 
L 416.477477 -198.979884 
L 416.985258 -198.974664 
L 417.493038 -198.969443 
L 418.000819 -198.964222 
L 418.5086 -198.959002 
L 419.01638 -198.953781 
L 419.524161 -198.948561 
L 420.031941 -198.94334 
L 420.539722 -198.93812 
L 421.047502 -198.932899 
L 421.555283 -198.927678 
L 422.063063 -198.922458 
L 422.570844 -198.917237 
L 423.078624 -198.912017 
L 423.586405 -198.906796 
L 424.094185 -198.901576 
L 424.601966 -198.896355 
L 425.109746 -198.891134 
L 425.617527 -198.885914 
L 426.125307 -198.880693 
L 426.633088 -198.875473 
L 427.140868 -198.870252 
L 427.648649 -198.865032 
L 428.156429 -198.859811 
L 428.66421 -198.854591 
L 429.17199 -198.84937 
L 429.679771 -198.844149 
L 430.187551 -198.838929 
L 430.695332 -198.833708 
L 431.203112 -198.828488 
L 431.710893 -198.823267 
L 432.218673 -198.818047 
L 432.726454 -198.812826 
L 433.234234 -198.807605 
L 433.742015 -198.802385 
L 434.249795 -198.797164 
L 434.757576 -198.791944 
L 435.265356 -198.786723 
L 435.773137 -198.781503 
L 436.280917 -198.776282 
L 436.788698 -198.771061 
L 437.296478 -198.765841 
L 437.804259 -198.76062 
L 438.312039 -198.7554 
L 438.81982 -198.750179 
L 439.3276 -198.744959 
L 439.835381 -198.739738 
L 440.343161 -198.734517 
L 440.850942 -198.729297 
L 441.358722 -198.724076 
L 441.866503 -198.718856 
L 442.374283 -198.713635 
L 442.882064 -198.708415 
L 443.389844 -198.703194 
L 443.897625 -198.697973 
L 444.405405 -198.692753 
L 444.913186 -198.687532 
L 445.420966 -198.682312 
L 445.928747 -198.677091 
L 446.436527 -198.671871 
L 446.944308 -198.66665 
L 447.452088 -198.661429 
L 447.959869 -198.656209 
L 448.467649 -198.650988 
L 448.97543 -198.645768 
L 449.48321 -198.640547 
L 449.990991 -198.635327 
L 450.498771 -198.630106 
L 451.006552 -198.624886 
L 451.514333 -198.619665 
L 452.022113 -198.614444 
L 452.529894 -198.609224 
L 453.037674 -198.604003 
L 453.545455 -198.598783 
L 454.053235 -198.593562 
L 454.561016 -198.588342 
L 455.068796 -198.583121 
L 455.576577 -198.5779 
L 456.084357 -198.57268 
L 456.592138 -198.567459 
L 457.099918 -198.562239 
L 457.607699 -198.557018 
L 458.115479 -198.551798 
L 458.62326 -198.546577 
L 459.13104 -198.541356 
L 459.638821 -198.536136 
L 460.146601 -198.530915 
L 460.654382 -198.525695 
L 461.162162 -198.520474 
L 461.669943 -198.515254 
L 462.177723 -198.510033 
L 462.685504 -198.504812 
L 463.193284 -198.499592 
L 463.701065 -198.494371 
L 464.208845 -198.489151 
L 464.716626 -198.48393 
L 465.224406 -198.47871 
L 465.732187 -198.473489 
L 466.239967 -198.468268 
L 466.747748 -198.463048 
L 467.255528 -198.457827 
L 467.763309 -198.452607 
L 468.271089 -198.447386 
L 468.77887 -198.442166 
L 469.28665 -198.436945 
L 469.794431 -198.431725 
L 470.302211 -198.426504 
L 470.809992 -198.421283 
L 471.317772 -198.416063 
L 471.825553 -198.410842 
L 472.333333 -198.405622 
L 472.841114 -198.400401 
L 473.348894 -198.395181 
L 473.856675 -198.38996 
L 474.364455 -198.384739 
L 474.872236 -198.379519 
L 475.380016 -198.374298 
L 475.887797 -198.369078 
L 476.395577 -198.363857 
L 476.903358 -198.358637 
L 477.411138 -198.353416 
L 477.918919 -198.348195 
L 478.426699 -198.342975 
L 478.93448 -198.337754 
L 479.44226 -198.332534 
L 479.950041 -198.327313 
L 480.457821 -198.322093 
L 480.965602 -198.316872 
L 481.473382 -198.311651 
L 481.981163 -198.306431 
L 482.488943 -198.30121 
L 482.996724 -198.29599 
L 483.504505 -198.290769 
L 484.012285 -198.285549 
L 484.520066 -198.280328 
L 485.027846 -198.275107 
L 485.535627 -198.269887 
L 486.043407 -198.264666 
L 486.551188 -198.259446 
L 487.058968 -198.254225 
L 487.566749 -198.249005 
L 488.074529 -198.243784 
L 488.58231 -198.238563 
L 489.09009 -198.233343 
L 489.597871 -198.228122 
L 490.105651 -198.222902 
L 490.613432 -198.217681 
L 491.121212 -198.212461 
L 491.628993 -198.20724 
L 492.136773 -198.20202 
L 492.644554 -198.196799 
L 493.152334 -198.191578 
L 493.660115 -198.186358 
L 494.167895 -198.181137 
L 494.675676 -198.175917 
L 495.183456 -198.170696 
L 495.691237 -198.165476 
L 496.199017 -198.160255 
L 496.706798 -198.155034 
L 497.214578 -198.149814 
L 497.722359 -198.144593 
L 498.230139 -198.139373 
L 498.73792 -198.134152 
L 499.2457 -198.128932 
L 499.753481 -198.123711 
L 500.261261 -198.11849 
L 500.769042 -198.11327 
L 501.276822 -198.108049 
L 501.784603 -198.102829 
L 502.292383 -198.097608 
L 502.800164 -198.092388 
L 503.307944 -198.087167 
L 503.815725 -198.081946 
L 504.323505 -198.076726 
L 504.831286 -198.071505 
L 505.339066 -198.066285 
L 505.846847 -198.061064 
L 506.354627 -198.055844 
L 506.862408 -198.050623 
L 507.370188 -198.045402 
L 507.877969 -198.040182 
L 508.385749 -198.034961 
L 508.89353 -198.029741 
L 509.40131 -198.02452 
L 509.909091 -198.0193 
L 510.416871 -198.014079 
L 510.924652 -198.008858 
L 511.432432 -198.003638 
L 511.940213 -197.998417 
L 512.447993 -197.993197 
L 512.955774 -197.987976 
L 513.463554 -197.982756 
L 513.971335 -197.977535 
L 514.479115 -197.972315 
L 514.986896 -197.967094 
L 515.494676 -197.961873 
L 516.002457 -197.956653 
L 516.510238 -197.951432 
L 517.018018 -197.946212 
L 517.525799 -197.940991 
L 518.033579 -197.935771 
L 518.54136 -197.93055 
L 519.04914 -197.925329 
L 519.556921 -197.920109 
L 520.064701 -197.914888 
L 520.572482 -197.909668 
L 521.080262 -197.904447 
L 521.588043 -197.899227 
L 522.095823 -197.894006 
L 522.603604 -197.888785 
L 523.111384 -197.883565 
L 523.619165 -197.878344 
L 524.126945 -197.873124 
L 524.634726 -197.867903 
L 525.142506 -197.862683 
L 525.650287 -197.857462 
L 526.158067 -197.852241 
L 526.665848 -197.847021 
L 527.173628 -197.8418 
L 527.681409 -197.83658 
L 528.189189 -197.831359 
L 528.69697 -197.826139 
L 529.20475 -197.820918 
L 529.712531 -197.815697 
L 530.220311 -197.810477 
L 530.728092 -197.805256 
L 531.235872 -197.800036 
L 531.743653 -197.794815 
L 532.251433 -197.789595 
L 532.759214 -197.784374 
L 533.266994 -197.779154 
L 533.774775 -197.773933 
L 534.282555 -197.768712 
L 534.790336 -197.763492 
L 535.298116 -197.758271 
L 535.805897 -197.753051 
L 536.313677 -197.74783 
L 536.821458 -197.74261 
L 537.329238 -197.737389 
L 537.837019 -197.732168 
L 538.344799 -197.726948 
L 538.85258 -197.721727 
L 539.36036 -197.716507 
L 539.868141 -197.711286 
L 540.375921 -197.706066 
L 540.883702 -197.700845 
L 541.391482 -197.695624 
L 541.899263 -197.690404 
L 542.407043 -197.685183 
L 542.914824 -197.679963 
L 543.422604 -197.674742 
L 543.930385 -197.669522 
L 544.438165 -197.664301 
L 544.945946 -197.65908 
L 545.453726 -197.65386 
L 545.961507 -197.648639 
L 546.469287 -197.643419 
L 546.977068 -197.638198 
L 547.484848 -197.632978 
L 547.992629 -197.627757 
L 548.50041 -197.622536 
L 549.00819 -197.617316 
L 549.515971 -197.612095 
L 550.023751 -197.606875 
L 550.531532 -197.601654 
L 551.039312 -197.596434 
L 551.547093 -197.591213 
L 552.054873 -197.585992 
L 552.562654 -197.580772 
L 553.070434 -197.575551 
L 553.578215 -197.570331 
L 554.085995 -197.56511 
L 554.593776 -197.55989 
L 555.101556 -197.554669 
L 555.609337 -197.549449 
L 556.117117 -197.544228 
L 556.624898 -197.539007 
L 557.132678 -197.533787 
L 557.640459 -197.528566 
L 558.148239 -197.523346 
L 558.65602 -197.518125 
L 559.1638 -197.512905 
L 559.671581 -197.507684 
L 560.179361 -197.502463 
L 560.687142 -197.497243 
L 561.194922 -197.492022 
L 561.702703 -197.486802 
L 562.210483 -197.481581 
L 562.718264 -197.476361 
L 563.226044 -197.47114 
L 563.733825 -197.465919 
L 564.241605 -197.460699 
L 564.749386 -197.455478 
L 565.257166 -197.450258 
L 565.764947 -197.445037 
L 566.272727 -197.439817 
L 566.780508 -197.434596 
L 567.288288 -197.429375 
L 567.796069 -197.424155 
L 568.303849 -197.418934 
L 568.81163 -197.413714 
L 569.31941 -197.408493 
L 569.827191 -197.403273 
L 570.334971 -197.398052 
L 570.842752 -197.392831 
L 571.350532 -197.387611 
L 571.858313 -197.38239 
L 572.366093 -197.37717 
L 572.873874 -197.371949 
L 573.381654 -197.366729 
L 573.889435 -197.361508 
L 574.397215 -197.356288 
L 574.904996 -197.351067 
L 575.412776 -197.345846 
L 575.920557 -197.340626 
L 576.428337 -197.335405 
L 576.936118 -197.330185 
L 577.443898 -197.324964 
L 577.951679 -197.319744 
L 578.459459 -197.314523 
L 578.96724 -197.309302 
L 579.47502 -197.304082 
L 579.982801 -197.298861 
L 580.490581 -197.293641 
L 580.998362 -197.28842 
L 581.506143 -197.2832 
L 582.013923 -197.277979 
L 582.521704 -197.272758 
L 583.029484 -197.267538 
L 583.537265 -197.262317 
L 584.045045 -197.257097 
L 584.552826 -197.251876 
L 585.060606 -197.246656 
L 585.568387 -197.241435 
L 586.076167 -197.236214 
L 586.583948 -197.230994 
L 587.091728 -197.225773 
L 587.599509 -197.220553 
L 588.107289 -197.215332 
L 588.61507 -197.210112 
L 589.12285 -197.204891 
L 589.630631 -197.19967 
L 590.138411 -197.19445 
L 590.646192 -197.189229 
L 591.153972 -197.184009 
L 591.661753 -197.178788 
L 592.169533 -197.173568 
L 592.677314 -197.168347 
L 593.185094 -197.163126 
L 593.692875 -197.157906 
L 594.200655 -197.152685 
L 594.708436 -197.147465 
L 595.216216 -197.142244 
L 595.723997 -197.137024 
L 596.231777 -197.131803 
L 596.739558 -197.126583 
L 597.247338 -197.121362 
L 597.755119 -197.116141 
L 598.262899 -197.110921 
L 598.77068 -197.1057 
L 599.27846 -197.10048 
L 599.786241 -197.095259 
L 600.294021 -197.090039 
L 600.801802 -197.084818 
L 601.309582 -197.079597 
L 601.817363 -197.074377 
L 602.325143 -197.069156 
L 602.832924 -197.063936 
L 603.340704 -197.058715 
L 603.848485 -197.053495 
L 604.356265 -197.048274 
L 604.864046 -197.043053 
L 605.371826 -197.037833 
L 605.879607 -197.032612 
L 606.387387 -197.027392 
L 606.895168 -197.022171 
L 607.402948 -197.016951 
L 607.910729 -197.01173 
L 608.418509 -197.006509 
L 608.92629 -197.001289 
L 609.43407 -196.996068 
L 609.941851 -196.990848 
L 610.449631 -196.985627 
L 610.957412 -196.980407 
L 611.465192 -196.975186 
L 611.972973 -196.969965 
L 612.480753 -196.964745 
L 612.988534 -196.959524 
L 613.496314 -196.954304 
L 614.004095 -196.949083 
L 614.511876 -196.943863 
L 615.019656 -196.938642 
L 615.527437 -196.933421 
L 616.035217 -196.928201 
L 616.542998 -196.92298 
L 617.050778 -196.91776 
L 617.558559 -196.912539 
L 618.066339 -196.907319 
L 618.57412 -196.902098 
L 619.0819 -196.896878 
L 619.589681 -196.891657 
L 620.097461 -196.886436 
L 620.605242 -196.881216 
L 621.113022 -196.875995 
L 621.620803 -196.870775 
L 622.128583 -196.865554 
L 622.636364 -196.860334 
L 622.636364 -201.030183 
L 622.636364 -201.030183 
L 622.128583 -201.028389 
L 621.620803 -201.026596 
L 621.113022 -201.024802 
L 620.605242 -201.023009 
L 620.097461 -201.021215 
L 619.589681 -201.019421 
L 619.0819 -201.017628 
L 618.57412 -201.015834 
L 618.066339 -201.014041 
L 617.558559 -201.012247 
L 617.050778 -201.010453 
L 616.542998 -201.00866 
L 616.035217 -201.006866 
L 615.527437 -201.005073 
L 615.019656 -201.003279 
L 614.511876 -201.001486 
L 614.004095 -200.999692 
L 613.496314 -200.997898 
L 612.988534 -200.996105 
L 612.480753 -200.994311 
L 611.972973 -200.992518 
L 611.465192 -200.990724 
L 610.957412 -200.98893 
L 610.449631 -200.987137 
L 609.941851 -200.985343 
L 609.43407 -200.98355 
L 608.92629 -200.981756 
L 608.418509 -200.979962 
L 607.910729 -200.978169 
L 607.402948 -200.976375 
L 606.895168 -200.974582 
L 606.387387 -200.972788 
L 605.879607 -200.970994 
L 605.371826 -200.969201 
L 604.864046 -200.967407 
L 604.356265 -200.965614 
L 603.848485 -200.96382 
L 603.340704 -200.962026 
L 602.832924 -200.960233 
L 602.325143 -200.958439 
L 601.817363 -200.956646 
L 601.309582 -200.954852 
L 600.801802 -200.953058 
L 600.294021 -200.951265 
L 599.786241 -200.949471 
L 599.27846 -200.947678 
L 598.77068 -200.945884 
L 598.262899 -200.944091 
L 597.755119 -200.942297 
L 597.247338 -200.940503 
L 596.739558 -200.93871 
L 596.231777 -200.936916 
L 595.723997 -200.935123 
L 595.216216 -200.933329 
L 594.708436 -200.931535 
L 594.200655 -200.929742 
L 593.692875 -200.927948 
L 593.185094 -200.926155 
L 592.677314 -200.924361 
L 592.169533 -200.922567 
L 591.661753 -200.920774 
L 591.153972 -200.91898 
L 590.646192 -200.917187 
L 590.138411 -200.915393 
L 589.630631 -200.913599 
L 589.12285 -200.911806 
L 588.61507 -200.910012 
L 588.107289 -200.908219 
L 587.599509 -200.906425 
L 587.091728 -200.904631 
L 586.583948 -200.902838 
L 586.076167 -200.901044 
L 585.568387 -200.899251 
L 585.060606 -200.897457 
L 584.552826 -200.895663 
L 584.045045 -200.89387 
L 583.537265 -200.892076 
L 583.029484 -200.890283 
L 582.521704 -200.888489 
L 582.013923 -200.886696 
L 581.506143 -200.884902 
L 580.998362 -200.883108 
L 580.490581 -200.881315 
L 579.982801 -200.879521 
L 579.47502 -200.877728 
L 578.96724 -200.875934 
L 578.459459 -200.87414 
L 577.951679 -200.872347 
L 577.443898 -200.870553 
L 576.936118 -200.86876 
L 576.428337 -200.866966 
L 575.920557 -200.865172 
L 575.412776 -200.863379 
L 574.904996 -200.861585 
L 574.397215 -200.859792 
L 573.889435 -200.857998 
L 573.381654 -200.856204 
L 572.873874 -200.854411 
L 572.366093 -200.852617 
L 571.858313 -200.850824 
L 571.350532 -200.84903 
L 570.842752 -200.847236 
L 570.334971 -200.845443 
L 569.827191 -200.843649 
L 569.31941 -200.841856 
L 568.81163 -200.840062 
L 568.303849 -200.838268 
L 567.796069 -200.836475 
L 567.288288 -200.834681 
L 566.780508 -200.832888 
L 566.272727 -200.831094 
L 565.764947 -200.829301 
L 565.257166 -200.827507 
L 564.749386 -200.825713 
L 564.241605 -200.82392 
L 563.733825 -200.822126 
L 563.226044 -200.820333 
L 562.718264 -200.818539 
L 562.210483 -200.816745 
L 561.702703 -200.814952 
L 561.194922 -200.813158 
L 560.687142 -200.811365 
L 560.179361 -200.809571 
L 559.671581 -200.807777 
L 559.1638 -200.805984 
L 558.65602 -200.80419 
L 558.148239 -200.802397 
L 557.640459 -200.800603 
L 557.132678 -200.798809 
L 556.624898 -200.797016 
L 556.117117 -200.795222 
L 555.609337 -200.793429 
L 555.101556 -200.791635 
L 554.593776 -200.789841 
L 554.085995 -200.788048 
L 553.578215 -200.786254 
L 553.070434 -200.784461 
L 552.562654 -200.782667 
L 552.054873 -200.780874 
L 551.547093 -200.77908 
L 551.039312 -200.777286 
L 550.531532 -200.775493 
L 550.023751 -200.773699 
L 549.515971 -200.771906 
L 549.00819 -200.770112 
L 548.50041 -200.768318 
L 547.992629 -200.766525 
L 547.484848 -200.764731 
L 546.977068 -200.762938 
L 546.469287 -200.761144 
L 545.961507 -200.75935 
L 545.453726 -200.757557 
L 544.945946 -200.755763 
L 544.438165 -200.75397 
L 543.930385 -200.752176 
L 543.422604 -200.750382 
L 542.914824 -200.748589 
L 542.407043 -200.746795 
L 541.899263 -200.745002 
L 541.391482 -200.743208 
L 540.883702 -200.741414 
L 540.375921 -200.739621 
L 539.868141 -200.737827 
L 539.36036 -200.736034 
L 538.85258 -200.73424 
L 538.344799 -200.732446 
L 537.837019 -200.730653 
L 537.329238 -200.728859 
L 536.821458 -200.727066 
L 536.313677 -200.725272 
L 535.805897 -200.723479 
L 535.298116 -200.721685 
L 534.790336 -200.719891 
L 534.282555 -200.718098 
L 533.774775 -200.716304 
L 533.266994 -200.714511 
L 532.759214 -200.712717 
L 532.251433 -200.710923 
L 531.743653 -200.70913 
L 531.235872 -200.707336 
L 530.728092 -200.705543 
L 530.220311 -200.703749 
L 529.712531 -200.701955 
L 529.20475 -200.700162 
L 528.69697 -200.698368 
L 528.189189 -200.696575 
L 527.681409 -200.694781 
L 527.173628 -200.692987 
L 526.665848 -200.691194 
L 526.158067 -200.6894 
L 525.650287 -200.687607 
L 525.142506 -200.685813 
L 524.634726 -200.684019 
L 524.126945 -200.682226 
L 523.619165 -200.680432 
L 523.111384 -200.678639 
L 522.603604 -200.676845 
L 522.095823 -200.675051 
L 521.588043 -200.673258 
L 521.080262 -200.671464 
L 520.572482 -200.669671 
L 520.064701 -200.667877 
L 519.556921 -200.666084 
L 519.04914 -200.66429 
L 518.54136 -200.662496 
L 518.033579 -200.660703 
L 517.525799 -200.658909 
L 517.018018 -200.657116 
L 516.510238 -200.655322 
L 516.002457 -200.653528 
L 515.494676 -200.651735 
L 514.986896 -200.649941 
L 514.479115 -200.648148 
L 513.971335 -200.646354 
L 513.463554 -200.64456 
L 512.955774 -200.642767 
L 512.447993 -200.640973 
L 511.940213 -200.63918 
L 511.432432 -200.637386 
L 510.924652 -200.635592 
L 510.416871 -200.633799 
L 509.909091 -200.632005 
L 509.40131 -200.630212 
L 508.89353 -200.628418 
L 508.385749 -200.626624 
L 507.877969 -200.624831 
L 507.370188 -200.623037 
L 506.862408 -200.621244 
L 506.354627 -200.61945 
L 505.846847 -200.617656 
L 505.339066 -200.615863 
L 504.831286 -200.614069 
L 504.323505 -200.612276 
L 503.815725 -200.610482 
L 503.307944 -200.608689 
L 502.800164 -200.606895 
L 502.292383 -200.605101 
L 501.784603 -200.603308 
L 501.276822 -200.601514 
L 500.769042 -200.599721 
L 500.261261 -200.597927 
L 499.753481 -200.596133 
L 499.2457 -200.59434 
L 498.73792 -200.592546 
L 498.230139 -200.590753 
L 497.722359 -200.588959 
L 497.214578 -200.587165 
L 496.706798 -200.585372 
L 496.199017 -200.583578 
L 495.691237 -200.581785 
L 495.183456 -200.579991 
L 494.675676 -200.578197 
L 494.167895 -200.576404 
L 493.660115 -200.57461 
L 493.152334 -200.572817 
L 492.644554 -200.571023 
L 492.136773 -200.569229 
L 491.628993 -200.567436 
L 491.121212 -200.565642 
L 490.613432 -200.563849 
L 490.105651 -200.562055 
L 489.597871 -200.560261 
L 489.09009 -200.558468 
L 488.58231 -200.556674 
L 488.074529 -200.554881 
L 487.566749 -200.553087 
L 487.058968 -200.551294 
L 486.551188 -200.5495 
L 486.043407 -200.547706 
L 485.535627 -200.545913 
L 485.027846 -200.544119 
L 484.520066 -200.542326 
L 484.012285 -200.540532 
L 483.504505 -200.538738 
L 482.996724 -200.536945 
L 482.488943 -200.535151 
L 481.981163 -200.533358 
L 481.473382 -200.531564 
L 480.965602 -200.52977 
L 480.457821 -200.527977 
L 479.950041 -200.526183 
L 479.44226 -200.52439 
L 478.93448 -200.522596 
L 478.426699 -200.520802 
L 477.918919 -200.519009 
L 477.411138 -200.517215 
L 476.903358 -200.515422 
L 476.395577 -200.513628 
L 475.887797 -200.511834 
L 475.380016 -200.510041 
L 474.872236 -200.508247 
L 474.364455 -200.506454 
L 473.856675 -200.50466 
L 473.348894 -200.502866 
L 472.841114 -200.501073 
L 472.333333 -200.499279 
L 471.825553 -200.497486 
L 471.317772 -200.495692 
L 470.809992 -200.493899 
L 470.302211 -200.492105 
L 469.794431 -200.490311 
L 469.28665 -200.488518 
L 468.77887 -200.486724 
L 468.271089 -200.484931 
L 467.763309 -200.483137 
L 467.255528 -200.481343 
L 466.747748 -200.47955 
L 466.239967 -200.477756 
L 465.732187 -200.475963 
L 465.224406 -200.474169 
L 464.716626 -200.472375 
L 464.208845 -200.470582 
L 463.701065 -200.468788 
L 463.193284 -200.466995 
L 462.685504 -200.465201 
L 462.177723 -200.463407 
L 461.669943 -200.461614 
L 461.162162 -200.45982 
L 460.654382 -200.458027 
L 460.146601 -200.456233 
L 459.638821 -200.454439 
L 459.13104 -200.452646 
L 458.62326 -200.450852 
L 458.115479 -200.449059 
L 457.607699 -200.447265 
L 457.099918 -200.445471 
L 456.592138 -200.443678 
L 456.084357 -200.441884 
L 455.576577 -200.440091 
L 455.068796 -200.438297 
L 454.561016 -200.436504 
L 454.053235 -200.43471 
L 453.545455 -200.432916 
L 453.037674 -200.431123 
L 452.529894 -200.429329 
L 452.022113 -200.427536 
L 451.514333 -200.425742 
L 451.006552 -200.423948 
L 450.498771 -200.422155 
L 449.990991 -200.420361 
L 449.48321 -200.418568 
L 448.97543 -200.416774 
L 448.467649 -200.41498 
L 447.959869 -200.413187 
L 447.452088 -200.411393 
L 446.944308 -200.4096 
L 446.436527 -200.407806 
L 445.928747 -200.406012 
L 445.420966 -200.404219 
L 444.913186 -200.402425 
L 444.405405 -200.400632 
L 443.897625 -200.398838 
L 443.389844 -200.397044 
L 442.882064 -200.395251 
L 442.374283 -200.393457 
L 441.866503 -200.391664 
L 441.358722 -200.38987 
L 440.850942 -200.388077 
L 440.343161 -200.386283 
L 439.835381 -200.384489 
L 439.3276 -200.382696 
L 438.81982 -200.380902 
L 438.312039 -200.379109 
L 437.804259 -200.377315 
L 437.296478 -200.375521 
L 436.788698 -200.373728 
L 436.280917 -200.371934 
L 435.773137 -200.370141 
L 435.265356 -200.368347 
L 434.757576 -200.366553 
L 434.249795 -200.36476 
L 433.742015 -200.362966 
L 433.234234 -200.361173 
L 432.726454 -200.359379 
L 432.218673 -200.357585 
L 431.710893 -200.355792 
L 431.203112 -200.353998 
L 430.695332 -200.352205 
L 430.187551 -200.350411 
L 429.679771 -200.348617 
L 429.17199 -200.346824 
L 428.66421 -200.34503 
L 428.156429 -200.343237 
L 427.648649 -200.341443 
L 427.140868 -200.339649 
L 426.633088 -200.337856 
L 426.125307 -200.336062 
L 425.617527 -200.334269 
L 425.109746 -200.332475 
L 424.601966 -200.330682 
L 424.094185 -200.328888 
L 423.586405 -200.327094 
L 423.078624 -200.325301 
L 422.570844 -200.323507 
L 422.063063 -200.321714 
L 421.555283 -200.31992 
L 421.047502 -200.318126 
L 420.539722 -200.316333 
L 420.031941 -200.314539 
L 419.524161 -200.312746 
L 419.01638 -200.310952 
L 418.5086 -200.309158 
L 418.000819 -200.307365 
L 417.493038 -200.305571 
L 416.985258 -200.303778 
L 416.477477 -200.301984 
L 415.969697 -200.30019 
L 415.461916 -200.298397 
L 414.954136 -200.296603 
L 414.446355 -200.29481 
L 413.938575 -200.293016 
L 413.430794 -200.291222 
L 412.923014 -200.289429 
L 412.415233 -200.287635 
L 411.907453 -200.285842 
L 411.399672 -200.284048 
L 410.891892 -200.282254 
L 410.384111 -200.280461 
L 409.876331 -200.278667 
L 409.36855 -200.276874 
L 408.86077 -200.27508 
L 408.352989 -200.273287 
L 407.845209 -200.271493 
L 407.337428 -200.269699 
L 406.829648 -200.267906 
L 406.321867 -200.266112 
L 405.814087 -200.264319 
L 405.306306 -200.262525 
L 404.798526 -200.260731 
L 404.290745 -200.258938 
L 403.782965 -200.257144 
L 403.275184 -200.255351 
L 402.767404 -200.253557 
L 402.259623 -200.251763 
L 401.751843 -200.24997 
L 401.244062 -200.248176 
L 400.736282 -200.246383 
L 400.228501 -200.244589 
L 399.720721 -200.242795 
L 399.21294 -200.241002 
L 398.70516 -200.239208 
L 398.197379 -200.237415 
L 397.689599 -200.235621 
L 397.181818 -200.233827 
L 396.674038 -200.232034 
L 396.166257 -200.23024 
L 395.658477 -200.228447 
L 395.150696 -200.226653 
L 394.642916 -200.224859 
L 394.135135 -200.223066 
L 393.627355 -200.221272 
L 393.119574 -200.219479 
L 392.611794 -200.217685 
L 392.104013 -200.215892 
L 391.596233 -200.214098 
L 391.088452 -200.212304 
L 390.580672 -200.210511 
L 390.072891 -200.208717 
L 389.565111 -200.206924 
L 389.05733 -200.20513 
L 388.54955 -200.203336 
L 388.041769 -200.201543 
L 387.533989 -200.199749 
L 387.026208 -200.197956 
L 386.518428 -200.196162 
L 386.010647 -200.194368 
L 385.502867 -200.192575 
L 384.995086 -200.190781 
L 384.487305 -200.188988 
L 383.979525 -200.187194 
L 383.471744 -200.1854 
L 382.963964 -200.183607 
L 382.456183 -200.181813 
L 381.948403 -200.18002 
L 381.440622 -200.178226 
L 380.932842 -200.176432 
L 380.425061 -200.174639 
L 379.917281 -200.172845 
L 379.4095 -200.171052 
L 378.90172 -200.169258 
L 378.393939 -200.167464 
L 377.886159 -200.165671 
L 377.378378 -200.163877 
L 376.870598 -200.162084 
L 376.362817 -200.16029 
L 375.855037 -200.158497 
L 375.347256 -200.156703 
L 374.839476 -200.154909 
L 374.331695 -200.153116 
L 373.823915 -200.151322 
L 373.316134 -200.149529 
L 372.808354 -200.147735 
L 372.300573 -200.145941 
L 371.792793 -200.144148 
L 371.285012 -200.142354 
L 370.777232 -200.140561 
L 370.269451 -200.138767 
L 369.761671 -200.136973 
L 369.25389 -200.13518 
L 368.74611 -200.133943 
L 368.238329 -200.133262 
L 367.730549 -200.132582 
L 367.222768 -200.131902 
L 366.714988 -200.131221 
L 366.207207 -200.130541 
L 365.699427 -200.129861 
L 365.191646 -200.12918 
L 364.683866 -200.1285 
L 364.176085 -200.12782 
L 363.668305 -200.127139 
L 363.160524 -200.126459 
L 362.652744 -200.125779 
L 362.144963 -200.125098 
L 361.637183 -200.124418 
L 361.129402 -200.123738 
L 360.621622 -200.123057 
L 360.113841 -200.122377 
L 359.606061 -200.121697 
L 359.09828 -200.121016 
L 358.5905 -200.120336 
L 358.082719 -200.119656 
L 357.574939 -200.118975 
L 357.067158 -200.118295 
L 356.559378 -200.117615 
L 356.051597 -200.116934 
L 355.543817 -200.116254 
L 355.036036 -200.115574 
L 354.528256 -200.114893 
L 354.020475 -200.114213 
L 353.512695 -200.113533 
L 353.004914 -200.112852 
L 352.497133 -200.112172 
L 351.989353 -200.111492 
L 351.481572 -200.110811 
L 350.973792 -200.110131 
L 350.466011 -200.109451 
L 349.958231 -200.10877 
L 349.45045 -200.10809 
L 348.94267 -200.10741 
L 348.434889 -200.106729 
L 347.927109 -200.106049 
L 347.419328 -200.105369 
L 346.911548 -200.104688 
L 346.403767 -200.104008 
L 345.895987 -200.103328 
L 345.388206 -200.102647 
L 344.880426 -200.101967 
L 344.372645 -200.101287 
L 343.864865 -200.100606 
L 343.357084 -200.099926 
L 342.849304 -200.099246 
L 342.341523 -200.098565 
L 341.833743 -200.097885 
L 341.325962 -200.097205 
L 340.818182 -200.096524 
L 340.310401 -200.095844 
L 339.802621 -200.095164 
L 339.29484 -200.094483 
L 338.78706 -200.093803 
L 338.279279 -200.093123 
L 337.771499 -200.092442 
L 337.263718 -200.091762 
L 336.755938 -200.091082 
L 336.248157 -200.090401 
L 335.740377 -200.089721 
L 335.232596 -200.089041 
L 334.724816 -200.08836 
L 334.217035 -200.08768 
L 333.709255 -200.087 
L 333.201474 -200.086319 
L 332.693694 -200.085639 
L 332.185913 -200.084958 
L 331.678133 -200.084278 
L 331.170352 -200.083598 
L 330.662572 -200.082917 
L 330.154791 -200.082237 
L 329.647011 -200.081557 
L 329.13923 -200.080876 
L 328.63145 -200.080196 
L 328.123669 -200.079516 
L 327.615889 -200.078835 
L 327.108108 -200.078155 
L 326.600328 -200.077475 
L 326.092547 -200.076794 
L 325.584767 -200.076114 
L 325.076986 -200.075434 
L 324.569206 -200.074753 
L 324.061425 -200.074073 
L 323.553645 -200.073393 
L 323.045864 -200.072712 
L 322.538084 -200.072032 
L 322.030303 -200.071352 
L 321.522523 -200.070671 
L 321.014742 -200.069991 
L 320.506962 -200.069311 
L 319.999181 -200.06863 
L 319.4914 -200.06795 
L 318.98362 -200.06727 
L 318.475839 -200.066589 
L 317.968059 -200.065909 
L 317.460278 -200.065229 
L 316.952498 -200.064548 
L 316.444717 -200.063868 
L 315.936937 -200.063188 
L 315.429156 -200.062507 
L 314.921376 -200.061827 
L 314.413595 -200.061147 
L 313.905815 -200.060466 
L 313.398034 -200.059786 
L 312.890254 -200.059106 
L 312.382473 -200.058425 
L 311.874693 -200.057745 
L 311.366912 -200.057065 
L 310.859132 -200.056384 
L 310.351351 -200.055704 
L 309.843571 -200.055024 
L 309.33579 -200.054343 
L 308.82801 -200.053663 
L 308.320229 -200.052983 
L 307.812449 -200.052302 
L 307.304668 -200.051622 
L 306.796888 -200.050942 
L 306.289107 -200.050261 
L 305.781327 -200.049581 
L 305.273546 -200.048901 
L 304.765766 -200.04822 
L 304.257985 -200.04754 
L 303.750205 -200.04686 
L 303.242424 -200.046179 
L 302.734644 -200.045499 
L 302.226863 -200.044819 
L 301.719083 -200.044138 
L 301.211302 -200.043458 
L 300.703522 -200.042778 
L 300.195741 -200.042097 
L 299.687961 -200.041417 
L 299.18018 -200.040737 
L 298.6724 -200.040056 
L 298.164619 -200.039376 
L 297.656839 -200.038696 
L 297.149058 -200.038015 
L 296.641278 -200.037335 
L 296.133497 -200.036654 
L 295.625717 -200.035974 
L 295.117936 -200.035294 
L 294.610156 -200.034613 
L 294.102375 -200.033933 
L 293.594595 -200.033253 
L 293.086814 -200.032572 
L 292.579034 -200.031892 
L 292.071253 -200.031212 
L 291.563473 -200.030531 
L 291.055692 -200.029851 
L 290.547912 -200.029171 
L 290.040131 -200.02849 
L 289.532351 -200.02781 
L 289.02457 -200.02713 
L 288.51679 -200.026449 
L 288.009009 -200.025769 
L 287.501229 -200.025089 
L 286.993448 -200.024408 
L 286.485667 -200.023728 
L 285.977887 -200.023048 
L 285.470106 -200.022367 
L 284.962326 -200.021687 
L 284.454545 -200.021007 
L 283.946765 -200.020326 
L 283.438984 -200.019646 
L 282.931204 -200.018966 
L 282.423423 -200.018285 
L 281.915643 -200.017605 
L 281.407862 -200.016925 
L 280.900082 -200.016244 
L 280.392301 -200.015564 
L 279.884521 -200.014884 
L 279.37674 -200.014203 
L 278.86896 -200.013523 
L 278.361179 -200.012843 
L 277.853399 -200.012162 
L 277.345618 -200.011482 
L 276.837838 -200.010802 
L 276.330057 -200.010121 
L 275.822277 -200.009441 
L 275.314496 -200.008761 
L 274.806716 -200.00808 
L 274.298935 -200.0074 
L 273.791155 -200.00672 
L 273.283374 -200.006039 
L 272.775594 -200.005359 
L 272.267813 -200.004679 
L 271.760033 -200.003998 
L 271.252252 -200.003318 
L 270.744472 -200.002638 
L 270.236691 -200.001957 
L 269.728911 -200.001277 
L 269.22113 -200.000597 
L 268.71335 -199.999916 
L 268.205569 -199.999236 
L 267.697789 -199.998556 
L 267.190008 -199.997875 
L 266.682228 -199.997195 
L 266.174447 -199.996515 
L 265.666667 -199.995834 
L 265.158886 -199.995154 
L 264.651106 -199.994474 
L 264.143325 -199.993793 
L 263.635545 -199.993113 
L 263.127764 -199.992433 
L 262.619984 -199.991752 
L 262.112203 -199.991072 
L 261.604423 -199.990392 
L 261.096642 -199.989711 
L 260.588862 -199.989031 
L 260.081081 -199.98835 
L 259.573301 -199.98767 
L 259.06552 -199.98699 
L 258.55774 -199.986309 
L 258.049959 -199.985629 
L 257.542179 -199.984949 
L 257.034398 -199.984268 
L 256.526618 -199.983588 
L 256.018837 -199.982908 
L 255.511057 -199.982227 
L 255.003276 -199.981547 
L 254.495495 -199.980867 
L 253.987715 -199.980186 
L 253.479934 -199.979506 
L 252.972154 -199.978826 
L 252.464373 -199.978145 
L 251.956593 -199.977465 
L 251.448812 -199.976785 
L 250.941032 -199.976104 
L 250.433251 -199.975424 
L 249.925471 -199.974744 
L 249.41769 -199.974063 
L 248.90991 -199.973383 
L 248.402129 -199.972703 
L 247.894349 -199.972022 
L 247.386568 -199.971342 
L 246.878788 -199.970662 
L 246.371007 -199.969981 
L 245.863227 -199.969301 
L 245.355446 -199.968621 
L 244.847666 -199.96794 
L 244.339885 -199.96726 
L 243.832105 -199.96658 
L 243.324324 -199.965899 
L 242.816544 -199.965219 
L 242.308763 -199.964539 
L 241.800983 -199.963858 
L 241.293202 -199.963178 
L 240.785422 -199.962498 
L 240.277641 -199.961817 
L 239.769861 -199.961137 
L 239.26208 -199.960457 
L 238.7543 -199.959776 
L 238.246519 -199.959096 
L 237.738739 -199.958416 
L 237.230958 -199.957735 
L 236.723178 -199.957055 
L 236.215397 -199.956375 
L 235.707617 -199.955694 
L 235.199836 -199.955014 
L 234.692056 -199.954334 
L 234.184275 -199.953653 
L 233.676495 -199.952973 
L 233.168714 -199.952293 
L 232.660934 -199.951612 
L 232.153153 -199.950932 
L 231.645373 -199.950252 
L 231.137592 -199.949571 
L 230.629812 -199.948891 
L 230.122031 -199.948211 
L 229.614251 -199.94753 
L 229.10647 -199.94685 
L 228.59869 -199.94617 
L 228.090909 -199.945489 
L 227.583129 -199.944809 
L 227.075348 -199.944129 
L 226.567568 -199.943448 
L 226.059787 -199.942768 
L 225.552007 -199.942087 
L 225.044226 -199.941407 
L 224.536446 -199.940727 
L 224.028665 -199.940046 
L 223.520885 -199.939366 
L 223.013104 -199.938686 
L 222.505324 -199.938005 
L 221.997543 -199.937325 
L 221.489762 -199.936645 
L 220.981982 -199.935964 
L 220.474201 -199.935284 
L 219.966421 -199.934604 
L 219.45864 -199.933923 
L 218.95086 -199.933243 
L 218.443079 -199.932563 
L 217.935299 -199.931882 
L 217.427518 -199.931202 
L 216.919738 -199.930522 
L 216.411957 -199.929841 
L 215.904177 -199.929161 
L 215.396396 -199.928481 
L 214.888616 -199.9278 
L 214.380835 -199.92712 
L 213.873055 -199.92644 
L 213.365274 -199.925759 
L 212.857494 -199.925079 
L 212.349713 -199.924399 
L 211.841933 -199.923718 
L 211.334152 -199.923038 
L 210.826372 -199.922358 
L 210.318591 -199.921677 
L 209.810811 -199.920997 
L 209.30303 -199.920317 
L 208.79525 -199.919636 
L 208.287469 -199.918956 
L 207.779689 -199.918276 
L 207.271908 -199.917595 
L 206.764128 -199.916915 
L 206.256347 -199.916235 
L 205.748567 -199.915554 
L 205.240786 -199.914874 
L 204.733006 -199.914194 
L 204.225225 -199.913513 
L 203.717445 -199.912833 
L 203.209664 -199.912153 
L 202.701884 -199.911472 
L 202.194103 -199.910792 
L 201.686323 -199.910112 
L 201.178542 -199.909431 
L 200.670762 -199.908751 
L 200.162981 -199.908071 
L 199.655201 -199.90739 
L 199.14742 -199.90671 
L 198.63964 -199.90603 
L 198.131859 -199.905349 
L 197.624079 -199.904669 
L 197.116298 -199.903989 
L 196.608518 -199.903308 
L 196.100737 -199.902628 
L 195.592957 -199.901948 
L 195.085176 -199.901267 
L 194.577396 -199.900587 
L 194.069615 -199.899907 
L 193.561835 -199.899226 
L 193.054054 -199.898546 
L 192.546274 -199.897866 
L 192.038493 -199.897185 
L 191.530713 -199.896505 
L 191.022932 -199.895825 
L 190.515152 -199.895144 
L 190.007371 -199.894464 
L 189.49959 -199.893783 
L 188.99181 -199.893103 
L 188.484029 -199.892423 
L 187.976249 -199.891742 
L 187.468468 -199.891062 
L 186.960688 -199.890382 
L 186.452907 -199.889701 
L 185.945127 -199.889021 
L 185.437346 -199.888341 
L 184.929566 -199.88766 
L 184.421785 -199.88698 
L 183.914005 -199.8863 
L 183.406224 -199.885619 
L 182.898444 -199.884939 
L 182.390663 -199.884259 
L 181.882883 -199.883578 
L 181.375102 -199.882898 
L 180.867322 -199.882218 
L 180.359541 -199.881537 
L 179.851761 -199.880857 
L 179.34398 -199.880177 
L 178.8362 -199.879496 
L 178.328419 -199.878816 
L 177.820639 -199.878136 
L 177.312858 -199.877455 
L 176.805078 -199.876775 
L 176.297297 -199.876095 
L 175.789517 -199.875414 
L 175.281736 -199.874734 
L 174.773956 -199.874054 
L 174.266175 -199.873373 
L 173.758395 -199.872693 
L 173.250614 -199.872013 
L 172.742834 -199.871332 
L 172.235053 -199.870652 
L 171.727273 -199.869972 
L 171.219492 -199.869291 
L 170.711712 -199.868611 
L 170.203931 -199.867931 
L 169.696151 -199.86725 
L 169.18837 -199.86657 
L 168.68059 -199.86589 
L 168.172809 -199.865209 
L 167.665029 -199.864529 
L 167.157248 -199.863849 
L 166.649468 -199.863168 
L 166.141687 -199.862488 
L 165.633907 -199.861808 
L 165.126126 -199.861127 
L 164.618346 -199.860447 
L 164.110565 -199.859767 
L 163.602785 -199.859086 
L 163.095004 -199.858406 
L 162.587224 -199.857726 
L 162.079443 -199.857045 
L 161.571663 -199.856365 
L 161.063882 -199.855685 
L 160.556102 -199.855004 
L 160.048321 -199.854324 
L 159.540541 -199.853644 
L 159.03276 -199.852963 
L 158.52498 -199.852283 
L 158.017199 -199.851603 
L 157.509419 -199.850922 
L 157.001638 -199.850242 
L 156.493857 -199.849562 
L 155.986077 -199.848881 
L 155.478296 -199.848201 
L 154.970516 -199.847521 
L 154.462735 -199.84684 
L 153.954955 -199.84616 
L 153.447174 -199.845479 
L 152.939394 -199.844799 
L 152.431613 -199.844119 
L 151.923833 -199.843438 
L 151.416052 -199.842758 
L 150.908272 -199.842078 
L 150.400491 -199.841397 
L 149.892711 -199.840717 
L 149.38493 -199.840037 
L 148.87715 -199.839356 
L 148.369369 -199.838676 
L 147.861589 -199.837996 
L 147.353808 -199.837315 
L 146.846028 -199.836635 
L 146.338247 -199.835955 
L 145.830467 -199.835274 
L 145.322686 -199.834594 
L 144.814906 -199.833914 
L 144.307125 -199.833233 
L 143.799345 -199.832553 
L 143.291564 -199.831873 
L 142.783784 -199.831192 
L 142.276003 -199.830512 
L 141.768223 -199.829832 
L 141.260442 -199.829151 
L 140.752662 -199.828471 
L 140.244881 -199.827791 
L 139.737101 -199.82711 
L 139.22932 -199.82643 
L 138.72154 -199.82575 
L 138.213759 -199.825069 
L 137.705979 -199.824389 
L 137.198198 -199.823709 
L 136.690418 -199.823028 
L 136.182637 -199.822348 
L 135.674857 -199.821668 
L 135.167076 -199.820987 
L 134.659296 -199.820307 
L 134.151515 -199.819627 
L 133.643735 -199.818946 
L 133.135954 -199.818266 
L 132.628174 -199.817586 
L 132.120393 -199.816905 
L 131.612613 -199.816225 
L 131.104832 -199.815545 
L 130.597052 -199.814864 
L 130.089271 -199.814184 
L 129.581491 -199.813504 
L 129.07371 -199.812823 
L 128.56593 -199.812143 
L 128.058149 -199.811463 
L 127.550369 -199.810782 
L 127.042588 -199.810102 
L 126.534808 -199.809422 
L 126.027027 -199.808741 
L 125.519247 -199.808061 
L 125.011466 -199.807381 
L 124.503686 -199.8067 
L 123.995905 -199.80602 
L 123.488124 -199.80534 
L 122.980344 -199.804659 
L 122.472563 -199.803979 
L 121.964783 -199.803299 
L 121.457002 -199.802618 
L 120.949222 -199.801938 
L 120.441441 -199.801258 
L 119.933661 -199.800577 
L 119.42588 -199.799897 
L 118.9181 -199.799217 
L 118.410319 -199.798536 
L 117.902539 -199.797856 
L 117.394758 -199.797175 
L 116.886978 -199.796495 
L 116.379197 -199.795815 
L 115.871417 -199.795134 
L 115.363636 -199.794454 
z
" style="stroke: #ff0000; stroke-opacity: 0.2"/>
    </defs>
    <g clip-path="url(#p48c0edcadc)">
     <use xlink:href="#m0f48c7a4b7" x="0" y="432" style="fill: #ff0000; fill-opacity: 0.2; stroke: #ff0000; stroke-opacity: 0.2"/>
    </g>
   </g>
   <g id="matplotlib.axis_1">
    <g id="xtick_1">
     <g id="line2d_1">
      <path d="M 115.363636 384.48 
L 115.363636 51.84 
" clip-path="url(#p48c0edcadc)" style="fill: none; stroke: #b0b0b0; stroke-width: 0.8; stroke-linecap: square"/>
     </g>
     <g id="line2d_2">
      <defs>
       <path id="ma8bf7d4945" d="M 0 0 
L 0 3.5 
" style="stroke: #000000; stroke-width: 0.8"/>
      </defs>
      <g>
       <use xlink:href="#ma8bf7d4945" x="115.363636" y="384.48" style="stroke: #000000; stroke-width: 0.8"/>
      </g>
     </g>
     <g id="text_1">
      <!-- n -->
      <g transform="translate(112.194886 399.078438) scale(0.1 -0.1)">
       <defs>
        <path id="DejaVuSans-6e" d="M 3513 2113 
L 3513 0 
L 2938 0 
L 2938 2094 
Q 2938 2591 2744 2837 
Q 2550 3084 2163 3084 
Q 1697 3084 1428 2787 
Q 1159 2491 1159 1978 
L 1159 0 
L 581 0 
L 581 3500 
L 1159 3500 
L 1159 2956 
Q 1366 3272 1645 3428 
Q 1925 3584 2291 3584 
Q 2894 3584 3203 3211 
Q 3513 2838 3513 2113 
z
" transform="scale(0.015625)"/>
       </defs>
       <use xlink:href="#DejaVuSans-6e"/>
      </g>
     </g>
    </g>
    <g id="xtick_2">
     <g id="line2d_3">
      <path d="M 369 384.48 
L 369 51.84 
" clip-path="url(#p48c0edcadc)" style="fill: none; stroke: #b0b0b0; stroke-width: 0.8; stroke-linecap: square"/>
     </g>
     <g id="line2d_4">
      <g>
       <use xlink:href="#ma8bf7d4945" x="369" y="384.48" style="stroke: #000000; stroke-width: 0.8"/>
      </g>
     </g>
     <g id="text_2">
      <!-- 2n -->
      <g transform="translate(359.464063 399.078438) scale(0.1 -0.1)">
       <defs>
        <path id="DejaVuSans-221a" d="M 3488 5191 
L 4078 5191 
L 4078 4891 
L 3719 4891 
L 1863 -128 
L 1656 -128 
L 659 2631 
L 269 2491 
L 191 2741 
L 1075 3047 
L 1875 831 
L 3488 5191 
z
" transform="scale(0.015625)"/>
        <path id="DejaVuSans-32" d="M 1228 531 
L 3431 531 
L 3431 0 
L 469 0 
L 469 531 
Q 828 903 1448 1529 
Q 2069 2156 2228 2338 
Q 2531 2678 2651 2914 
Q 2772 3150 2772 3378 
Q 2772 3750 2511 3984 
Q 2250 4219 1831 4219 
Q 1534 4219 1204 4116 
Q 875 4013 500 3803 
L 500 4441 
Q 881 4594 1212 4672 
Q 1544 4750 1819 4750 
Q 2544 4750 2975 4387 
Q 3406 4025 3406 3419 
Q 3406 3131 3298 2873 
Q 3191 2616 2906 2266 
Q 2828 2175 2409 1742 
Q 1991 1309 1228 531 
z
" transform="scale(0.015625)"/>
       </defs>
       <use xlink:href="#DejaVuSans-221a"/>
       <use xlink:href="#DejaVuSans-32" x="63.720703"/>
       <use xlink:href="#DejaVuSans-6e" x="127.34375"/>
      </g>
     </g>
    </g>
    <g id="xtick_3">
     <g id="line2d_5">
      <path d="M 622.636364 384.48 
L 622.636364 51.84 
" clip-path="url(#p48c0edcadc)" style="fill: none; stroke: #b0b0b0; stroke-width: 0.8; stroke-linecap: square"/>
     </g>
     <g id="line2d_6">
      <g>
       <use xlink:href="#ma8bf7d4945" x="622.636364" y="384.48" style="stroke: #000000; stroke-width: 0.8"/>
      </g>
     </g>
     <g id="text_3">
      <!-- (2*2n) -->
      <g transform="translate(600.331676 399.078438) scale(0.1 -0.1)">
       <defs>
        <path id="DejaVuSans-28" d="M 1984 4856 
Q 1566 4138 1362 3434 
Q 1159 2731 1159 2009 
Q 1159 1288 1364 580 
Q 1569 -128 1984 -844 
L 1484 -844 
Q 1016 -109 783 600 
Q 550 1309 550 2009 
Q 550 2706 781 3412 
Q 1013 4119 1484 4856 
L 1984 4856 
z
" transform="scale(0.015625)"/>
        <path id="DejaVuSans-2a" d="M 3009 3897 
L 1888 3291 
L 3009 2681 
L 2828 2375 
L 1778 3009 
L 1778 1831 
L 1422 1831 
L 1422 3009 
L 372 2375 
L 191 2681 
L 1313 3291 
L 191 3897 
L 372 4206 
L 1422 3572 
L 1422 4750 
L 1778 4750 
L 1778 3572 
L 2828 4206 
L 3009 3897 
z
" transform="scale(0.015625)"/>
        <path id="DejaVuSans-29" d="M 513 4856 
L 1013 4856 
Q 1481 4119 1714 3412 
Q 1947 2706 1947 2009 
Q 1947 1309 1714 600 
Q 1481 -109 1013 -844 
L 513 -844 
Q 928 -128 1133 580 
Q 1338 1288 1338 2009 
Q 1338 2731 1133 3434 
Q 928 4138 513 4856 
z
" transform="scale(0.015625)"/>
       </defs>
       <use xlink:href="#DejaVuSans-221a"/>
       <use xlink:href="#DejaVuSans-28" x="63.720703"/>
       <use xlink:href="#DejaVuSans-32" x="102.734375"/>
       <use xlink:href="#DejaVuSans-2a" x="166.357422"/>
       <use xlink:href="#DejaVuSans-221a" x="216.357422"/>
       <use xlink:href="#DejaVuSans-32" x="280.078125"/>
       <use xlink:href="#DejaVuSans-6e" x="343.701172"/>
       <use xlink:href="#DejaVuSans-29" x="407.080078"/>
      </g>
     </g>
    </g>
    <g id="text_4">
     <!-- Sample size -->
     <g transform="translate(338.967969 412.756563) scale(0.1 -0.1)">
      <defs>
       <path id="DejaVuSans-53" d="M 3425 4513 
L 3425 3897 
Q 3066 4069 2747 4153 
Q 2428 4238 2131 4238 
Q 1616 4238 1336 4038 
Q 1056 3838 1056 3469 
Q 1056 3159 1242 3001 
Q 1428 2844 1947 2747 
L 2328 2669 
Q 3034 2534 3370 2195 
Q 3706 1856 3706 1288 
Q 3706 609 3251 259 
Q 2797 -91 1919 -91 
Q 1588 -91 1214 -16 
Q 841 59 441 206 
L 441 856 
Q 825 641 1194 531 
Q 1563 422 1919 422 
Q 2459 422 2753 634 
Q 3047 847 3047 1241 
Q 3047 1584 2836 1778 
Q 2625 1972 2144 2069 
L 1759 2144 
Q 1053 2284 737 2584 
Q 422 2884 422 3419 
Q 422 4038 858 4394 
Q 1294 4750 2059 4750 
Q 2388 4750 2728 4690 
Q 3069 4631 3425 4513 
z
" transform="scale(0.015625)"/>
       <path id="DejaVuSans-61" d="M 2194 1759 
Q 1497 1759 1228 1600 
Q 959 1441 959 1056 
Q 959 750 1161 570 
Q 1363 391 1709 391 
Q 2188 391 2477 730 
Q 2766 1069 2766 1631 
L 2766 1759 
L 2194 1759 
z
M 3341 1997 
L 3341 0 
L 2766 0 
L 2766 531 
Q 2569 213 2275 61 
Q 1981 -91 1556 -91 
Q 1019 -91 701 211 
Q 384 513 384 1019 
Q 384 1609 779 1909 
Q 1175 2209 1959 2209 
L 2766 2209 
L 2766 2266 
Q 2766 2663 2505 2880 
Q 2244 3097 1772 3097 
Q 1472 3097 1187 3025 
Q 903 2953 641 2809 
L 641 3341 
Q 956 3463 1253 3523 
Q 1550 3584 1831 3584 
Q 2591 3584 2966 3190 
Q 3341 2797 3341 1997 
z
" transform="scale(0.015625)"/>
       <path id="DejaVuSans-6d" d="M 3328 2828 
Q 3544 3216 3844 3400 
Q 4144 3584 4550 3584 
Q 5097 3584 5394 3201 
Q 5691 2819 5691 2113 
L 5691 0 
L 5113 0 
L 5113 2094 
Q 5113 2597 4934 2840 
Q 4756 3084 4391 3084 
Q 3944 3084 3684 2787 
Q 3425 2491 3425 1978 
L 3425 0 
L 2847 0 
L 2847 2094 
Q 2847 2600 2669 2842 
Q 2491 3084 2119 3084 
Q 1678 3084 1418 2786 
Q 1159 2488 1159 1978 
L 1159 0 
L 581 0 
L 581 3500 
L 1159 3500 
L 1159 2956 
Q 1356 3278 1631 3431 
Q 1906 3584 2284 3584 
Q 2666 3584 2933 3390 
Q 3200 3197 3328 2828 
z
" transform="scale(0.015625)"/>
       <path id="DejaVuSans-70" d="M 1159 525 
L 1159 -1331 
L 581 -1331 
L 581 3500 
L 1159 3500 
L 1159 2969 
Q 1341 3281 1617 3432 
Q 1894 3584 2278 3584 
Q 2916 3584 3314 3078 
Q 3713 2572 3713 1747 
Q 3713 922 3314 415 
Q 2916 -91 2278 -91 
Q 1894 -91 1617 61 
Q 1341 213 1159 525 
z
M 3116 1747 
Q 3116 2381 2855 2742 
Q 2594 3103 2138 3103 
Q 1681 3103 1420 2742 
Q 1159 2381 1159 1747 
Q 1159 1113 1420 752 
Q 1681 391 2138 391 
Q 2594 391 2855 752 
Q 3116 1113 3116 1747 
z
" transform="scale(0.015625)"/>
       <path id="DejaVuSans-6c" d="M 603 4863 
L 1178 4863 
L 1178 0 
L 603 0 
L 603 4863 
z
" transform="scale(0.015625)"/>
       <path id="DejaVuSans-65" d="M 3597 1894 
L 3597 1613 
L 953 1613 
Q 991 1019 1311 708 
Q 1631 397 2203 397 
Q 2534 397 2845 478 
Q 3156 559 3463 722 
L 3463 178 
Q 3153 47 2828 -22 
Q 2503 -91 2169 -91 
Q 1331 -91 842 396 
Q 353 884 353 1716 
Q 353 2575 817 3079 
Q 1281 3584 2069 3584 
Q 2775 3584 3186 3129 
Q 3597 2675 3597 1894 
z
M 3022 2063 
Q 3016 2534 2758 2815 
Q 2500 3097 2075 3097 
Q 1594 3097 1305 2825 
Q 1016 2553 972 2059 
L 3022 2063 
z
" transform="scale(0.015625)"/>
       <path id="DejaVuSans-20" transform="scale(0.015625)"/>
       <path id="DejaVuSans-73" d="M 2834 3397 
L 2834 2853 
Q 2591 2978 2328 3040 
Q 2066 3103 1784 3103 
Q 1356 3103 1142 2972 
Q 928 2841 928 2578 
Q 928 2378 1081 2264 
Q 1234 2150 1697 2047 
L 1894 2003 
Q 2506 1872 2764 1633 
Q 3022 1394 3022 966 
Q 3022 478 2636 193 
Q 2250 -91 1575 -91 
Q 1294 -91 989 -36 
Q 684 19 347 128 
L 347 722 
Q 666 556 975 473 
Q 1284 391 1588 391 
Q 1994 391 2212 530 
Q 2431 669 2431 922 
Q 2431 1156 2273 1281 
Q 2116 1406 1581 1522 
L 1381 1569 
Q 847 1681 609 1914 
Q 372 2147 372 2553 
Q 372 3047 722 3315 
Q 1072 3584 1716 3584 
Q 2034 3584 2315 3537 
Q 2597 3491 2834 3397 
z
" transform="scale(0.015625)"/>
       <path id="DejaVuSans-69" d="M 603 3500 
L 1178 3500 
L 1178 0 
L 603 0 
L 603 3500 
z
M 603 4863 
L 1178 4863 
L 1178 4134 
L 603 4134 
L 603 4863 
z
" transform="scale(0.015625)"/>
       <path id="DejaVuSans-7a" d="M 353 3500 
L 3084 3500 
L 3084 2975 
L 922 459 
L 3084 459 
L 3084 0 
L 275 0 
L 275 525 
L 2438 3041 
L 353 3041 
L 353 3500 
z
" transform="scale(0.015625)"/>
      </defs>
      <use xlink:href="#DejaVuSans-53"/>
      <use xlink:href="#DejaVuSans-61" x="63.476562"/>
      <use xlink:href="#DejaVuSans-6d" x="124.755859"/>
      <use xlink:href="#DejaVuSans-70" x="222.167969"/>
      <use xlink:href="#DejaVuSans-6c" x="285.644531"/>
      <use xlink:href="#DejaVuSans-65" x="313.427734"/>
      <use xlink:href="#DejaVuSans-20" x="374.951172"/>
      <use xlink:href="#DejaVuSans-73" x="406.738281"/>
      <use xlink:href="#DejaVuSans-69" x="458.837891"/>
      <use xlink:href="#DejaVuSans-7a" x="486.621094"/>
      <use xlink:href="#DejaVuSans-65" x="539.111328"/>
     </g>
    </g>
   </g>
   <g id="matplotlib.axis_2">
    <g id="ytick_1">
     <g id="line2d_7">
      <path d="M 90 384.48 
L 648 384.48 
" clip-path="url(#p48c0edcadc)" style="fill: none; stroke: #b0b0b0; stroke-width: 0.8; stroke-linecap: square"/>
     </g>
     <g id="line2d_8">
      <defs>
       <path id="m80b030b879" d="M 0 0 
L -3.5 0 
" style="stroke: #000000; stroke-width: 0.8"/>
      </defs>
      <g>
       <use xlink:href="#m80b030b879" x="90" y="384.48" style="stroke: #000000; stroke-width: 0.8"/>
      </g>
     </g>
     <g id="text_5">
      <!-- 0.00 -->
      <g transform="translate(60.734375 388.279219) scale(0.1 -0.1)">
       <defs>
        <path id="DejaVuSans-30" d="M 2034 4250 
Q 1547 4250 1301 3770 
Q 1056 3291 1056 2328 
Q 1056 1369 1301 889 
Q 1547 409 2034 409 
Q 2525 409 2770 889 
Q 3016 1369 3016 2328 
Q 3016 3291 2770 3770 
Q 2525 4250 2034 4250 
z
M 2034 4750 
Q 2819 4750 3233 4129 
Q 3647 3509 3647 2328 
Q 3647 1150 3233 529 
Q 2819 -91 2034 -91 
Q 1250 -91 836 529 
Q 422 1150 422 2328 
Q 422 3509 836 4129 
Q 1250 4750 2034 4750 
z
" transform="scale(0.015625)"/>
        <path id="DejaVuSans-2e" d="M 684 794 
L 1344 794 
L 1344 0 
L 684 0 
L 684 794 
z
" transform="scale(0.015625)"/>
       </defs>
       <use xlink:href="#DejaVuSans-30"/>
       <use xlink:href="#DejaVuSans-2e" x="63.623047"/>
       <use xlink:href="#DejaVuSans-30" x="95.410156"/>
       <use xlink:href="#DejaVuSans-30" x="159.033203"/>
      </g>
     </g>
    </g>
    <g id="ytick_2">
     <g id="line2d_9">
      <path d="M 90 329.04 
L 648 329.04 
" clip-path="url(#p48c0edcadc)" style="fill: none; stroke: #b0b0b0; stroke-width: 0.8; stroke-linecap: square"/>
     </g>
     <g id="line2d_10">
      <g>
       <use xlink:href="#m80b030b879" x="90" y="329.04" style="stroke: #000000; stroke-width: 0.8"/>
      </g>
     </g>
     <g id="text_6">
      <!-- 0.05 -->
      <g transform="translate(60.734375 332.839219) scale(0.1 -0.1)">
       <defs>
        <path id="DejaVuSans-35" d="M 691 4666 
L 3169 4666 
L 3169 4134 
L 1269 4134 
L 1269 2991 
Q 1406 3038 1543 3061 
Q 1681 3084 1819 3084 
Q 2600 3084 3056 2656 
Q 3513 2228 3513 1497 
Q 3513 744 3044 326 
Q 2575 -91 1722 -91 
Q 1428 -91 1123 -41 
Q 819 9 494 109 
L 494 744 
Q 775 591 1075 516 
Q 1375 441 1709 441 
Q 2250 441 2565 725 
Q 2881 1009 2881 1497 
Q 2881 1984 2565 2268 
Q 2250 2553 1709 2553 
Q 1456 2553 1204 2497 
Q 953 2441 691 2322 
L 691 4666 
z
" transform="scale(0.015625)"/>
       </defs>
       <use xlink:href="#DejaVuSans-30"/>
       <use xlink:href="#DejaVuSans-2e" x="63.623047"/>
       <use xlink:href="#DejaVuSans-30" x="95.410156"/>
       <use xlink:href="#DejaVuSans-35" x="159.033203"/>
      </g>
     </g>
    </g>
    <g id="ytick_3">
     <g id="line2d_11">
      <path d="M 90 273.6 
L 648 273.6 
" clip-path="url(#p48c0edcadc)" style="fill: none; stroke: #b0b0b0; stroke-width: 0.8; stroke-linecap: square"/>
     </g>
     <g id="line2d_12">
      <g>
       <use xlink:href="#m80b030b879" x="90" y="273.6" style="stroke: #000000; stroke-width: 0.8"/>
      </g>
     </g>
     <g id="text_7">
      <!-- 0.10 -->
      <g transform="translate(60.734375 277.399219) scale(0.1 -0.1)">
       <defs>
        <path id="DejaVuSans-31" d="M 794 531 
L 1825 531 
L 1825 4091 
L 703 3866 
L 703 4441 
L 1819 4666 
L 2450 4666 
L 2450 531 
L 3481 531 
L 3481 0 
L 794 0 
L 794 531 
z
" transform="scale(0.015625)"/>
       </defs>
       <use xlink:href="#DejaVuSans-30"/>
       <use xlink:href="#DejaVuSans-2e" x="63.623047"/>
       <use xlink:href="#DejaVuSans-31" x="95.410156"/>
       <use xlink:href="#DejaVuSans-30" x="159.033203"/>
      </g>
     </g>
    </g>
    <g id="ytick_4">
     <g id="line2d_13">
      <path d="M 90 218.16 
L 648 218.16 
" clip-path="url(#p48c0edcadc)" style="fill: none; stroke: #b0b0b0; stroke-width: 0.8; stroke-linecap: square"/>
     </g>
     <g id="line2d_14">
      <g>
       <use xlink:href="#m80b030b879" x="90" y="218.16" style="stroke: #000000; stroke-width: 0.8"/>
      </g>
     </g>
     <g id="text_8">
      <!-- 0.15 -->
      <g transform="translate(60.734375 221.959219) scale(0.1 -0.1)">
       <use xlink:href="#DejaVuSans-30"/>
       <use xlink:href="#DejaVuSans-2e" x="63.623047"/>
       <use xlink:href="#DejaVuSans-31" x="95.410156"/>
       <use xlink:href="#DejaVuSans-35" x="159.033203"/>
      </g>
     </g>
    </g>
    <g id="ytick_5">
     <g id="line2d_15">
      <path d="M 90 162.72 
L 648 162.72 
" clip-path="url(#p48c0edcadc)" style="fill: none; stroke: #b0b0b0; stroke-width: 0.8; stroke-linecap: square"/>
     </g>
     <g id="line2d_16">
      <g>
       <use xlink:href="#m80b030b879" x="90" y="162.72" style="stroke: #000000; stroke-width: 0.8"/>
      </g>
     </g>
     <g id="text_9">
      <!-- 0.20 -->
      <g transform="translate(60.734375 166.519219) scale(0.1 -0.1)">
       <use xlink:href="#DejaVuSans-30"/>
       <use xlink:href="#DejaVuSans-2e" x="63.623047"/>
       <use xlink:href="#DejaVuSans-32" x="95.410156"/>
       <use xlink:href="#DejaVuSans-30" x="159.033203"/>
      </g>
     </g>
    </g>
    <g id="ytick_6">
     <g id="line2d_17">
      <path d="M 90 107.28 
L 648 107.28 
" clip-path="url(#p48c0edcadc)" style="fill: none; stroke: #b0b0b0; stroke-width: 0.8; stroke-linecap: square"/>
     </g>
     <g id="line2d_18">
      <g>
       <use xlink:href="#m80b030b879" x="90" y="107.28" style="stroke: #000000; stroke-width: 0.8"/>
      </g>
     </g>
     <g id="text_10">
      <!-- 0.25 -->
      <g transform="translate(60.734375 111.079219) scale(0.1 -0.1)">
       <use xlink:href="#DejaVuSans-30"/>
       <use xlink:href="#DejaVuSans-2e" x="63.623047"/>
       <use xlink:href="#DejaVuSans-32" x="95.410156"/>
       <use xlink:href="#DejaVuSans-35" x="159.033203"/>
      </g>
     </g>
    </g>
    <g id="ytick_7">
     <g id="line2d_19">
      <path d="M 90 51.84 
L 648 51.84 
" clip-path="url(#p48c0edcadc)" style="fill: none; stroke: #b0b0b0; stroke-width: 0.8; stroke-linecap: square"/>
     </g>
     <g id="line2d_20">
      <g>
       <use xlink:href="#m80b030b879" x="90" y="51.84" style="stroke: #000000; stroke-width: 0.8"/>
      </g>
     </g>
     <g id="text_11">
      <!-- 0.30 -->
      <g transform="translate(60.734375 55.639219) scale(0.1 -0.1)">
       <defs>
        <path id="DejaVuSans-33" d="M 2597 2516 
Q 3050 2419 3304 2112 
Q 3559 1806 3559 1356 
Q 3559 666 3084 287 
Q 2609 -91 1734 -91 
Q 1441 -91 1130 -33 
Q 819 25 488 141 
L 488 750 
Q 750 597 1062 519 
Q 1375 441 1716 441 
Q 2309 441 2620 675 
Q 2931 909 2931 1356 
Q 2931 1769 2642 2001 
Q 2353 2234 1838 2234 
L 1294 2234 
L 1294 2753 
L 1863 2753 
Q 2328 2753 2575 2939 
Q 2822 3125 2822 3475 
Q 2822 3834 2567 4026 
Q 2313 4219 1838 4219 
Q 1578 4219 1281 4162 
Q 984 4106 628 3988 
L 628 4550 
Q 988 4650 1302 4700 
Q 1616 4750 1894 4750 
Q 2613 4750 3031 4423 
Q 3450 4097 3450 3541 
Q 3450 3153 3228 2886 
Q 3006 2619 2597 2516 
z
" transform="scale(0.015625)"/>
       </defs>
       <use xlink:href="#DejaVuSans-30"/>
       <use xlink:href="#DejaVuSans-2e" x="63.623047"/>
       <use xlink:href="#DejaVuSans-33" x="95.410156"/>
       <use xlink:href="#DejaVuSans-30" x="159.033203"/>
      </g>
     </g>
    </g>
    <g id="text_12">
     <!-- Score -->
     <g transform="translate(54.654688 232.162344) rotate(-90) scale(0.1 -0.1)">
      <defs>
       <path id="DejaVuSans-63" d="M 3122 3366 
L 3122 2828 
Q 2878 2963 2633 3030 
Q 2388 3097 2138 3097 
Q 1578 3097 1268 2742 
Q 959 2388 959 1747 
Q 959 1106 1268 751 
Q 1578 397 2138 397 
Q 2388 397 2633 464 
Q 2878 531 3122 666 
L 3122 134 
Q 2881 22 2623 -34 
Q 2366 -91 2075 -91 
Q 1284 -91 818 406 
Q 353 903 353 1747 
Q 353 2603 823 3093 
Q 1294 3584 2113 3584 
Q 2378 3584 2631 3529 
Q 2884 3475 3122 3366 
z
" transform="scale(0.015625)"/>
       <path id="DejaVuSans-6f" d="M 1959 3097 
Q 1497 3097 1228 2736 
Q 959 2375 959 1747 
Q 959 1119 1226 758 
Q 1494 397 1959 397 
Q 2419 397 2687 759 
Q 2956 1122 2956 1747 
Q 2956 2369 2687 2733 
Q 2419 3097 1959 3097 
z
M 1959 3584 
Q 2709 3584 3137 3096 
Q 3566 2609 3566 1747 
Q 3566 888 3137 398 
Q 2709 -91 1959 -91 
Q 1206 -91 779 398 
Q 353 888 353 1747 
Q 353 2609 779 3096 
Q 1206 3584 1959 3584 
z
" transform="scale(0.015625)"/>
       <path id="DejaVuSans-72" d="M 2631 2963 
Q 2534 3019 2420 3045 
Q 2306 3072 2169 3072 
Q 1681 3072 1420 2755 
Q 1159 2438 1159 1844 
L 1159 0 
L 581 0 
L 581 3500 
L 1159 3500 
L 1159 2956 
Q 1341 3275 1631 3429 
Q 1922 3584 2338 3584 
Q 2397 3584 2469 3576 
Q 2541 3569 2628 3553 
L 2631 2963 
z
" transform="scale(0.015625)"/>
      </defs>
      <use xlink:href="#DejaVuSans-53"/>
      <use xlink:href="#DejaVuSans-63" x="63.476562"/>
      <use xlink:href="#DejaVuSans-6f" x="118.457031"/>
      <use xlink:href="#DejaVuSans-72" x="179.638672"/>
      <use xlink:href="#DejaVuSans-65" x="218.501953"/>
     </g>
    </g>
   </g>
   <g id="line2d_21">
    <path d="M 115.363636 232.27856 
L 369 232.198855 
L 622.636364 233.054742 
" clip-path="url(#p48c0edcadc)" style="fill: none; stroke: #1f77b4; stroke-width: 1.5; stroke-linecap: square"/>
   </g>
   <g id="patch_3">
    <path d="M 90 384.48 
L 90 51.84 
" style="fill: none; stroke: #000000; stroke-width: 0.8; stroke-linejoin: miter; stroke-linecap: square"/>
   </g>
   <g id="patch_4">
    <path d="M 648 384.48 
L 648 51.84 
" style="fill: none; stroke: #000000; stroke-width: 0.8; stroke-linejoin: miter; stroke-linecap: square"/>
   </g>
   <g id="patch_5">
    <path d="M 90 384.48 
L 648 384.48 
" style="fill: none; stroke: #000000; stroke-width: 0.8; stroke-linejoin: miter; stroke-linecap: square"/>
   </g>
   <g id="patch_6">
    <path d="M 90 51.84 
L 648 51.84 
" style="fill: none; stroke: #000000; stroke-width: 0.8; stroke-linejoin: miter; stroke-linecap: square"/>
   </g>
   <g id="text_13">
    <!-- Nystrm MMD scores -->
    <g transform="translate(305.6025 45.84) scale(0.12 -0.12)">
     <defs>
      <path id="DejaVuSans-4e" d="M 628 4666 
L 1478 4666 
L 3547 763 
L 3547 4666 
L 4159 4666 
L 4159 0 
L 3309 0 
L 1241 3903 
L 1241 0 
L 628 0 
L 628 4666 
z
" transform="scale(0.015625)"/>
      <path id="DejaVuSans-79" d="M 2059 -325 
Q 1816 -950 1584 -1140 
Q 1353 -1331 966 -1331 
L 506 -1331 
L 506 -850 
L 844 -850 
Q 1081 -850 1212 -737 
Q 1344 -625 1503 -206 
L 1606 56 
L 191 3500 
L 800 3500 
L 1894 763 
L 2988 3500 
L 3597 3500 
L 2059 -325 
z
" transform="scale(0.015625)"/>
      <path id="DejaVuSans-74" d="M 1172 4494 
L 1172 3500 
L 2356 3500 
L 2356 3053 
L 1172 3053 
L 1172 1153 
Q 1172 725 1289 603 
Q 1406 481 1766 481 
L 2356 481 
L 2356 0 
L 1766 0 
Q 1100 0 847 248 
Q 594 497 594 1153 
L 594 3053 
L 172 3053 
L 172 3500 
L 594 3500 
L 594 4494 
L 1172 4494 
z
" transform="scale(0.015625)"/>
      <path id="DejaVuSans-f6" d="M 1959 3097 
Q 1497 3097 1228 2736 
Q 959 2375 959 1747 
Q 959 1119 1226 758 
Q 1494 397 1959 397 
Q 2419 397 2687 759 
Q 2956 1122 2956 1747 
Q 2956 2369 2687 2733 
Q 2419 3097 1959 3097 
z
M 1959 3584 
Q 2709 3584 3137 3096 
Q 3566 2609 3566 1747 
Q 3566 888 3137 398 
Q 2709 -91 1959 -91 
Q 1206 -91 779 398 
Q 353 888 353 1747 
Q 353 2609 779 3096 
Q 1206 3584 1959 3584 
z
M 2254 4850 
L 2888 4850 
L 2888 4219 
L 2254 4219 
L 2254 4850 
z
M 1032 4850 
L 1666 4850 
L 1666 4219 
L 1032 4219 
L 1032 4850 
z
" transform="scale(0.015625)"/>
      <path id="DejaVuSans-4d" d="M 628 4666 
L 1569 4666 
L 2759 1491 
L 3956 4666 
L 4897 4666 
L 4897 0 
L 4281 0 
L 4281 4097 
L 3078 897 
L 2444 897 
L 1241 4097 
L 1241 0 
L 628 0 
L 628 4666 
z
" transform="scale(0.015625)"/>
      <path id="DejaVuSans-44" d="M 1259 4147 
L 1259 519 
L 2022 519 
Q 2988 519 3436 956 
Q 3884 1394 3884 2338 
Q 3884 3275 3436 3711 
Q 2988 4147 2022 4147 
L 1259 4147 
z
M 628 4666 
L 1925 4666 
Q 3281 4666 3915 4102 
Q 4550 3538 4550 2338 
Q 4550 1131 3912 565 
Q 3275 0 1925 0 
L 628 0 
L 628 4666 
z
" transform="scale(0.015625)"/>
     </defs>
     <use xlink:href="#DejaVuSans-4e"/>
     <use xlink:href="#DejaVuSans-79" x="74.804688"/>
     <use xlink:href="#DejaVuSans-73" x="133.984375"/>
     <use xlink:href="#DejaVuSans-74" x="186.083984"/>
     <use xlink:href="#DejaVuSans-72" x="225.292969"/>
     <use xlink:href="#DejaVuSans-f6" x="264.15625"/>
     <use xlink:href="#DejaVuSans-6d" x="325.337891"/>
     <use xlink:href="#DejaVuSans-20" x="422.75"/>
     <use xlink:href="#DejaVuSans-4d" x="454.537109"/>
     <use xlink:href="#DejaVuSans-4d" x="540.816406"/>
     <use xlink:href="#DejaVuSans-44" x="627.095703"/>
     <use xlink:href="#DejaVuSans-20" x="704.097656"/>
     <use xlink:href="#DejaVuSans-73" x="735.884766"/>
     <use xlink:href="#DejaVuSans-63" x="787.984375"/>
     <use xlink:href="#DejaVuSans-6f" x="842.964844"/>
     <use xlink:href="#DejaVuSans-72" x="904.146484"/>
     <use xlink:href="#DejaVuSans-65" x="943.009766"/>
     <use xlink:href="#DejaVuSans-73" x="1004.533203"/>
    </g>
   </g>
   <g id="legend_1">
    <g id="patch_7">
     <path d="M 513.845312 89.19625 
L 641 89.19625 
Q 643 89.19625 643 87.19625 
L 643 58.84 
Q 643 56.84 641 56.84 
L 513.845312 56.84 
Q 511.845312 56.84 511.845312 58.84 
L 511.845312 87.19625 
Q 511.845312 89.19625 513.845312 89.19625 
z
" style="fill: #ffffff; opacity: 0.8; stroke: #cccccc; stroke-linejoin: miter"/>
    </g>
    <g id="line2d_22">
     <path d="M 515.845312 64.938437 
L 525.845312 64.938437 
L 535.845312 64.938437 
" style="fill: none; stroke: #1f77b4; stroke-width: 1.5; stroke-linecap: square"/>
    </g>
    <g id="text_14">
     <!-- Mean -->
     <g transform="translate(543.845312 68.438437) scale(0.1 -0.1)">
      <use xlink:href="#DejaVuSans-4d"/>
      <use xlink:href="#DejaVuSans-65" x="86.279297"/>
      <use xlink:href="#DejaVuSans-61" x="147.802734"/>
      <use xlink:href="#DejaVuSans-6e" x="209.082031"/>
     </g>
    </g>
    <g id="patch_8">
     <path d="M 515.845312 83.116562 
L 535.845312 83.116562 
L 535.845312 76.116562 
L 515.845312 76.116562 
z
" style="fill: #ff0000; fill-opacity: 0.2; stroke: #ff0000; stroke-opacity: 0.2; stroke-linejoin: miter"/>
    </g>
    <g id="text_15">
     <!-- Standard deviation -->
     <g transform="translate(543.845312 83.116562) scale(0.1 -0.1)">
      <defs>
       <path id="DejaVuSans-64" d="M 2906 2969 
L 2906 4863 
L 3481 4863 
L 3481 0 
L 2906 0 
L 2906 525 
Q 2725 213 2448 61 
Q 2172 -91 1784 -91 
Q 1150 -91 751 415 
Q 353 922 353 1747 
Q 353 2572 751 3078 
Q 1150 3584 1784 3584 
Q 2172 3584 2448 3432 
Q 2725 3281 2906 2969 
z
M 947 1747 
Q 947 1113 1208 752 
Q 1469 391 1925 391 
Q 2381 391 2643 752 
Q 2906 1113 2906 1747 
Q 2906 2381 2643 2742 
Q 2381 3103 1925 3103 
Q 1469 3103 1208 2742 
Q 947 2381 947 1747 
z
" transform="scale(0.015625)"/>
       <path id="DejaVuSans-76" d="M 191 3500 
L 800 3500 
L 1894 563 
L 2988 3500 
L 3597 3500 
L 2284 0 
L 1503 0 
L 191 3500 
z
" transform="scale(0.015625)"/>
      </defs>
      <use xlink:href="#DejaVuSans-53"/>
      <use xlink:href="#DejaVuSans-74" x="63.476562"/>
      <use xlink:href="#DejaVuSans-61" x="102.685547"/>
      <use xlink:href="#DejaVuSans-6e" x="163.964844"/>
      <use xlink:href="#DejaVuSans-64" x="227.34375"/>
      <use xlink:href="#DejaVuSans-61" x="290.820312"/>
      <use xlink:href="#DejaVuSans-72" x="352.099609"/>
      <use xlink:href="#DejaVuSans-64" x="391.462891"/>
      <use xlink:href="#DejaVuSans-20" x="454.939453"/>
      <use xlink:href="#DejaVuSans-64" x="486.726562"/>
      <use xlink:href="#DejaVuSans-65" x="550.203125"/>
      <use xlink:href="#DejaVuSans-76" x="611.726562"/>
      <use xlink:href="#DejaVuSans-69" x="670.90625"/>
      <use xlink:href="#DejaVuSans-61" x="698.689453"/>
      <use xlink:href="#DejaVuSans-74" x="759.96875"/>
      <use xlink:href="#DejaVuSans-69" x="799.177734"/>
      <use xlink:href="#DejaVuSans-6f" x="826.960938"/>
      <use xlink:href="#DejaVuSans-6e" x="888.142578"/>
     </g>
    </g>
   </g>
  </g>
 </g>
 <defs>
  <clipPath id="p48c0edcadc">
   <rect x="90" y="51.84" width="558" height="332.64"/>
  </clipPath>
 </defs>
</svg>
