<?xml version="1.0" encoding="utf-8" standalone="no"?>
<!DOCTYPE svg PUBLIC "-//W3C//DTD SVG 1.1//EN"
  "http://www.w3.org/Graphics/SVG/1.1/DTD/svg11.dtd">
<svg xmlns:xlink="http://www.w3.org/1999/xlink" width="720pt" height="432pt" viewBox="0 0 720 432" xmlns="http://www.w3.org/2000/svg" version="1.1">
 <metadata>
  <rdf:RDF xmlns:dc="http://purl.org/dc/elements/1.1/" xmlns:cc="http://creativecommons.org/ns#" xmlns:rdf="http://www.w3.org/1999/02/22-rdf-syntax-ns#">
   <cc:Work>
    <dc:type rdf:resource="http://purl.org/dc/dcmitype/StillImage"/>
    <dc:date>2023-05-31T19:08:24.319550</dc:date>
    <dc:format>image/svg+xml</dc:format>
    <dc:creator>
     <cc:Agent>
      <dc:title>Matplotlib v3.7.1, https://matplotlib.org/</dc:title>
     </cc:Agent>
    </dc:creator>
   </cc:Work>
  </rdf:RDF>
 </metadata>
 <defs>
  <style type="text/css">*{stroke-linejoin: round; stroke-linecap: butt}</style>
 </defs>
 <g id="figure_1">
  <g id="patch_1">
   <path d="M 0 432 
L 720 432 
L 720 0 
L 0 0 
z
" style="fill: #ffffff"/>
  </g>
  <g id="axes_1">
   <g id="patch_2">
    <path d="M 90 384.48 
L 648 384.48 
L 648 51.84 
L 90 51.84 
z
" style="fill: #ffffff"/>
   </g>
   <g id="PolyCollection_1">
    <defs>
     <path id="md9f4799f4d" d="M 115.363636 -90.933567 
L 115.363636 -90.764124 
L 115.871417 -90.763883 
L 116.379197 -90.763641 
L 116.886978 -90.763399 
L 117.394758 -90.763157 
L 117.902539 -90.762915 
L 118.410319 -90.762674 
L 118.9181 -90.762432 
L 119.42588 -90.76219 
L 119.933661 -90.761948 
L 120.441441 -90.761707 
L 120.949222 -90.761465 
L 121.457002 -90.761223 
L 121.964783 -90.760981 
L 122.472563 -90.760739 
L 122.980344 -90.760498 
L 123.488124 -90.760256 
L 123.995905 -90.760014 
L 124.503686 -90.759772 
L 125.011466 -90.759531 
L 125.519247 -90.759289 
L 126.027027 -90.759047 
L 126.534808 -90.758805 
L 127.042588 -90.758563 
L 127.550369 -90.758322 
L 128.058149 -90.75808 
L 128.56593 -90.757838 
L 129.07371 -90.757596 
L 129.581491 -90.757355 
L 130.089271 -90.757113 
L 130.597052 -90.756871 
L 131.104832 -90.756629 
L 131.612613 -90.756387 
L 132.120393 -90.756146 
L 132.628174 -90.755904 
L 133.135954 -90.755662 
L 133.643735 -90.75542 
L 134.151515 -90.755179 
L 134.659296 -90.754937 
L 135.167076 -90.754695 
L 135.674857 -90.754453 
L 136.182637 -90.754211 
L 136.690418 -90.75397 
L 137.198198 -90.753728 
L 137.705979 -90.753486 
L 138.213759 -90.753244 
L 138.72154 -90.753003 
L 139.22932 -90.752761 
L 139.737101 -90.752519 
L 140.244881 -90.752277 
L 140.752662 -90.752035 
L 141.260442 -90.751794 
L 141.768223 -90.751552 
L 142.276003 -90.75131 
L 142.783784 -90.751068 
L 143.291564 -90.750827 
L 143.799345 -90.750585 
L 144.307125 -90.750343 
L 144.814906 -90.750101 
L 145.322686 -90.749859 
L 145.830467 -90.749618 
L 146.338247 -90.749376 
L 146.846028 -90.749134 
L 147.353808 -90.748892 
L 147.861589 -90.748651 
L 148.369369 -90.748409 
L 148.87715 -90.748167 
L 149.38493 -90.747925 
L 149.892711 -90.747683 
L 150.400491 -90.747442 
L 150.908272 -90.7472 
L 151.416052 -90.746958 
L 151.923833 -90.746716 
L 152.431613 -90.746475 
L 152.939394 -90.746233 
L 153.447174 -90.745991 
L 153.954955 -90.745749 
L 154.462735 -90.745507 
L 154.970516 -90.745266 
L 155.478296 -90.745024 
L 155.986077 -90.744782 
L 156.493857 -90.74454 
L 157.001638 -90.744299 
L 157.509419 -90.744057 
L 158.017199 -90.743815 
L 158.52498 -90.743573 
L 159.03276 -90.743331 
L 159.540541 -90.74309 
L 160.048321 -90.742848 
L 160.556102 -90.742606 
L 161.063882 -90.742364 
L 161.571663 -90.742123 
L 162.079443 -90.741881 
L 162.587224 -90.741639 
L 163.095004 -90.741397 
L 163.602785 -90.741155 
L 164.110565 -90.740914 
L 164.618346 -90.740672 
L 165.126126 -90.74043 
L 165.633907 -90.740188 
L 166.141687 -90.739947 
L 166.649468 -90.739705 
L 167.157248 -90.739463 
L 167.665029 -90.739221 
L 168.172809 -90.738979 
L 168.68059 -90.738738 
L 169.18837 -90.738496 
L 169.696151 -90.738254 
L 170.203931 -90.738012 
L 170.711712 -90.737771 
L 171.219492 -90.737529 
L 171.727273 -90.737287 
L 172.235053 -90.737045 
L 172.742834 -90.736803 
L 173.250614 -90.736562 
L 173.758395 -90.73632 
L 174.266175 -90.736078 
L 174.773956 -90.735836 
L 175.281736 -90.735595 
L 175.789517 -90.735353 
L 176.297297 -90.735111 
L 176.805078 -90.734869 
L 177.312858 -90.734627 
L 177.820639 -90.734386 
L 178.328419 -90.734144 
L 178.8362 -90.733902 
L 179.34398 -90.73366 
L 179.851761 -90.733419 
L 180.359541 -90.733177 
L 180.867322 -90.732935 
L 181.375102 -90.732693 
L 181.882883 -90.732451 
L 182.390663 -90.73221 
L 182.898444 -90.731968 
L 183.406224 -90.731726 
L 183.914005 -90.731484 
L 184.421785 -90.731242 
L 184.929566 -90.731001 
L 185.437346 -90.730759 
L 185.945127 -90.730517 
L 186.452907 -90.730275 
L 186.960688 -90.730034 
L 187.468468 -90.729792 
L 187.976249 -90.72955 
L 188.484029 -90.729308 
L 188.99181 -90.729066 
L 189.49959 -90.728825 
L 190.007371 -90.728583 
L 190.515152 -90.728341 
L 191.022932 -90.728099 
L 191.530713 -90.727858 
L 192.038493 -90.727616 
L 192.546274 -90.727374 
L 193.054054 -90.727132 
L 193.561835 -90.72689 
L 194.069615 -90.726649 
L 194.577396 -90.726407 
L 195.085176 -90.726165 
L 195.592957 -90.725923 
L 196.100737 -90.725682 
L 196.608518 -90.72544 
L 197.116298 -90.725198 
L 197.624079 -90.724956 
L 198.131859 -90.724714 
L 198.63964 -90.724473 
L 199.14742 -90.724231 
L 199.655201 -90.723989 
L 200.162981 -90.723747 
L 200.670762 -90.723506 
L 201.178542 -90.723264 
L 201.686323 -90.723022 
L 202.194103 -90.72278 
L 202.701884 -90.722538 
L 203.209664 -90.722297 
L 203.717445 -90.722055 
L 204.225225 -90.721813 
L 204.733006 -90.721571 
L 205.240786 -90.72133 
L 205.748567 -90.721088 
L 206.256347 -90.720846 
L 206.764128 -90.720604 
L 207.271908 -90.720362 
L 207.779689 -90.720121 
L 208.287469 -90.719879 
L 208.79525 -90.719637 
L 209.30303 -90.719395 
L 209.810811 -90.719154 
L 210.318591 -90.718912 
L 210.826372 -90.71867 
L 211.334152 -90.718428 
L 211.841933 -90.718186 
L 212.349713 -90.717945 
L 212.857494 -90.717703 
L 213.365274 -90.717461 
L 213.873055 -90.717219 
L 214.380835 -90.716978 
L 214.888616 -90.716736 
L 215.396396 -90.716494 
L 215.904177 -90.716252 
L 216.411957 -90.71601 
L 216.919738 -90.715769 
L 217.427518 -90.715527 
L 217.935299 -90.715285 
L 218.443079 -90.715043 
L 218.95086 -90.714802 
L 219.45864 -90.71456 
L 219.966421 -90.714318 
L 220.474201 -90.714076 
L 220.981982 -90.713834 
L 221.489762 -90.713593 
L 221.997543 -90.713351 
L 222.505324 -90.713109 
L 223.013104 -90.712867 
L 223.520885 -90.712626 
L 224.028665 -90.712384 
L 224.536446 -90.712142 
L 225.044226 -90.7119 
L 225.552007 -90.711658 
L 226.059787 -90.711417 
L 226.567568 -90.711175 
L 227.075348 -90.710933 
L 227.583129 -90.710691 
L 228.090909 -90.71045 
L 228.59869 -90.710208 
L 229.10647 -90.709966 
L 229.614251 -90.709724 
L 230.122031 -90.709482 
L 230.629812 -90.709241 
L 231.137592 -90.708999 
L 231.645373 -90.708757 
L 232.153153 -90.708515 
L 232.660934 -90.708274 
L 233.168714 -90.708032 
L 233.676495 -90.70779 
L 234.184275 -90.707548 
L 234.692056 -90.707306 
L 235.199836 -90.707065 
L 235.707617 -90.706823 
L 236.215397 -90.706581 
L 236.723178 -90.706339 
L 237.230958 -90.706098 
L 237.738739 -90.705856 
L 238.246519 -90.705614 
L 238.7543 -90.705372 
L 239.26208 -90.70513 
L 239.769861 -90.704889 
L 240.277641 -90.704647 
L 240.785422 -90.704405 
L 241.293202 -90.704163 
L 241.800983 -90.703922 
L 242.308763 -90.70368 
L 242.816544 -90.703438 
L 243.324324 -90.703196 
L 243.832105 -90.702954 
L 244.339885 -90.702713 
L 244.847666 -90.702471 
L 245.355446 -90.702229 
L 245.863227 -90.701987 
L 246.371007 -90.701746 
L 246.878788 -90.701504 
L 247.386568 -90.701262 
L 247.894349 -90.70102 
L 248.402129 -90.700778 
L 248.90991 -90.700537 
L 249.41769 -90.700295 
L 249.925471 -90.700053 
L 250.433251 -90.699811 
L 250.941032 -90.69957 
L 251.448812 -90.699328 
L 251.956593 -90.699086 
L 252.464373 -90.698844 
L 252.972154 -90.698602 
L 253.479934 -90.698361 
L 253.987715 -90.698119 
L 254.495495 -90.697877 
L 255.003276 -90.697635 
L 255.511057 -90.697394 
L 256.018837 -90.697152 
L 256.526618 -90.69691 
L 257.034398 -90.696668 
L 257.542179 -90.696426 
L 258.049959 -90.696185 
L 258.55774 -90.695943 
L 259.06552 -90.695701 
L 259.573301 -90.695459 
L 260.081081 -90.695217 
L 260.588862 -90.694976 
L 261.096642 -90.694734 
L 261.604423 -90.694492 
L 262.112203 -90.69425 
L 262.619984 -90.694009 
L 263.127764 -90.693767 
L 263.635545 -90.693525 
L 264.143325 -90.693283 
L 264.651106 -90.693041 
L 265.158886 -90.6928 
L 265.666667 -90.692558 
L 266.174447 -90.692316 
L 266.682228 -90.692074 
L 267.190008 -90.691833 
L 267.697789 -90.691591 
L 268.205569 -90.691349 
L 268.71335 -90.691107 
L 269.22113 -90.690865 
L 269.728911 -90.690624 
L 270.236691 -90.690382 
L 270.744472 -90.69014 
L 271.252252 -90.689898 
L 271.760033 -90.689657 
L 272.267813 -90.689415 
L 272.775594 -90.689173 
L 273.283374 -90.688931 
L 273.791155 -90.688689 
L 274.298935 -90.688448 
L 274.806716 -90.688206 
L 275.314496 -90.687964 
L 275.822277 -90.687722 
L 276.330057 -90.687481 
L 276.837838 -90.687239 
L 277.345618 -90.686997 
L 277.853399 -90.686755 
L 278.361179 -90.686513 
L 278.86896 -90.686272 
L 279.37674 -90.68603 
L 279.884521 -90.685788 
L 280.392301 -90.685546 
L 280.900082 -90.685305 
L 281.407862 -90.685063 
L 281.915643 -90.684821 
L 282.423423 -90.684579 
L 282.931204 -90.684337 
L 283.438984 -90.684096 
L 283.946765 -90.683854 
L 284.454545 -90.683612 
L 284.962326 -90.68337 
L 285.470106 -90.683129 
L 285.977887 -90.682887 
L 286.485667 -90.682645 
L 286.993448 -90.682403 
L 287.501229 -90.682161 
L 288.009009 -90.68192 
L 288.51679 -90.681678 
L 289.02457 -90.681436 
L 289.532351 -90.681194 
L 290.040131 -90.680953 
L 290.547912 -90.680711 
L 291.055692 -90.680469 
L 291.563473 -90.680227 
L 292.071253 -90.679985 
L 292.579034 -90.679744 
L 293.086814 -90.679502 
L 293.594595 -90.67926 
L 294.102375 -90.679018 
L 294.610156 -90.678777 
L 295.117936 -90.678535 
L 295.625717 -90.678293 
L 296.133497 -90.678051 
L 296.641278 -90.677809 
L 297.149058 -90.677568 
L 297.656839 -90.677326 
L 298.164619 -90.677084 
L 298.6724 -90.676842 
L 299.18018 -90.676601 
L 299.687961 -90.676359 
L 300.195741 -90.676117 
L 300.703522 -90.675875 
L 301.211302 -90.675633 
L 301.719083 -90.675392 
L 302.226863 -90.67515 
L 302.734644 -90.674908 
L 303.242424 -90.674666 
L 303.750205 -90.674425 
L 304.257985 -90.674183 
L 304.765766 -90.673941 
L 305.273546 -90.673699 
L 305.781327 -90.673457 
L 306.289107 -90.673216 
L 306.796888 -90.672974 
L 307.304668 -90.672732 
L 307.812449 -90.67249 
L 308.320229 -90.672249 
L 308.82801 -90.672007 
L 309.33579 -90.671765 
L 309.843571 -90.671523 
L 310.351351 -90.671281 
L 310.859132 -90.67104 
L 311.366912 -90.670798 
L 311.874693 -90.670556 
L 312.382473 -90.670314 
L 312.890254 -90.670073 
L 313.398034 -90.669831 
L 313.905815 -90.669589 
L 314.413595 -90.669347 
L 314.921376 -90.669105 
L 315.429156 -90.668864 
L 315.936937 -90.668622 
L 316.444717 -90.66838 
L 316.952498 -90.668138 
L 317.460278 -90.667897 
L 317.968059 -90.667655 
L 318.475839 -90.667413 
L 318.98362 -90.667171 
L 319.4914 -90.666929 
L 319.999181 -90.666688 
L 320.506962 -90.666446 
L 321.014742 -90.666204 
L 321.522523 -90.665962 
L 322.030303 -90.665721 
L 322.538084 -90.665479 
L 323.045864 -90.665237 
L 323.553645 -90.664995 
L 324.061425 -90.664753 
L 324.569206 -90.664512 
L 325.076986 -90.66427 
L 325.584767 -90.664028 
L 326.092547 -90.663786 
L 326.600328 -90.663545 
L 327.108108 -90.663303 
L 327.615889 -90.663061 
L 328.123669 -90.662819 
L 328.63145 -90.662577 
L 329.13923 -90.662336 
L 329.647011 -90.662094 
L 330.154791 -90.661852 
L 330.662572 -90.66161 
L 331.170352 -90.661369 
L 331.678133 -90.661127 
L 332.185913 -90.660885 
L 332.693694 -90.660643 
L 333.201474 -90.660401 
L 333.709255 -90.66016 
L 334.217035 -90.659918 
L 334.724816 -90.659676 
L 335.232596 -90.659434 
L 335.740377 -90.659192 
L 336.248157 -90.658951 
L 336.755938 -90.658709 
L 337.263718 -90.658467 
L 337.771499 -90.658225 
L 338.279279 -90.657984 
L 338.78706 -90.657742 
L 339.29484 -90.6575 
L 339.802621 -90.657258 
L 340.310401 -90.657016 
L 340.818182 -90.656775 
L 341.325962 -90.656533 
L 341.833743 -90.656291 
L 342.341523 -90.656049 
L 342.849304 -90.655808 
L 343.357084 -90.655566 
L 343.864865 -90.655324 
L 344.372645 -90.655082 
L 344.880426 -90.65484 
L 345.388206 -90.654599 
L 345.895987 -90.654357 
L 346.403767 -90.654115 
L 346.911548 -90.653873 
L 347.419328 -90.653632 
L 347.927109 -90.65339 
L 348.434889 -90.653148 
L 348.94267 -90.652906 
L 349.45045 -90.652664 
L 349.958231 -90.652423 
L 350.466011 -90.652181 
L 350.973792 -90.651939 
L 351.481572 -90.651697 
L 351.989353 -90.651456 
L 352.497133 -90.651214 
L 353.004914 -90.650972 
L 353.512695 -90.65073 
L 354.020475 -90.650488 
L 354.528256 -90.650247 
L 355.036036 -90.650005 
L 355.543817 -90.649763 
L 356.051597 -90.649521 
L 356.559378 -90.64928 
L 357.067158 -90.649038 
L 357.574939 -90.648796 
L 358.082719 -90.648554 
L 358.5905 -90.648312 
L 359.09828 -90.648071 
L 359.606061 -90.647829 
L 360.113841 -90.647587 
L 360.621622 -90.647345 
L 361.129402 -90.647104 
L 361.637183 -90.646862 
L 362.144963 -90.64662 
L 362.652744 -90.646378 
L 363.160524 -90.646136 
L 363.668305 -90.645895 
L 364.176085 -90.645653 
L 364.683866 -90.645411 
L 365.191646 -90.645169 
L 365.699427 -90.644928 
L 366.207207 -90.644686 
L 366.714988 -90.644444 
L 367.222768 -90.644202 
L 367.730549 -90.64396 
L 368.238329 -90.643719 
L 368.74611 -90.643477 
L 369.25389 -90.641257 
L 369.761671 -90.637059 
L 370.269451 -90.63286 
L 370.777232 -90.628662 
L 371.285012 -90.624464 
L 371.792793 -90.620266 
L 372.300573 -90.616067 
L 372.808354 -90.611869 
L 373.316134 -90.607671 
L 373.823915 -90.603473 
L 374.331695 -90.599274 
L 374.839476 -90.595076 
L 375.347256 -90.590878 
L 375.855037 -90.586679 
L 376.362817 -90.582481 
L 376.870598 -90.578283 
L 377.378378 -90.574085 
L 377.886159 -90.569886 
L 378.393939 -90.565688 
L 378.90172 -90.56149 
L 379.4095 -90.557292 
L 379.917281 -90.553093 
L 380.425061 -90.548895 
L 380.932842 -90.544697 
L 381.440622 -90.540499 
L 381.948403 -90.5363 
L 382.456183 -90.532102 
L 382.963964 -90.527904 
L 383.471744 -90.523706 
L 383.979525 -90.519507 
L 384.487305 -90.515309 
L 384.995086 -90.511111 
L 385.502867 -90.506913 
L 386.010647 -90.502714 
L 386.518428 -90.498516 
L 387.026208 -90.494318 
L 387.533989 -90.490119 
L 388.041769 -90.485921 
L 388.54955 -90.481723 
L 389.05733 -90.477525 
L 389.565111 -90.473326 
L 390.072891 -90.469128 
L 390.580672 -90.46493 
L 391.088452 -90.460732 
L 391.596233 -90.456533 
L 392.104013 -90.452335 
L 392.611794 -90.448137 
L 393.119574 -90.443939 
L 393.627355 -90.43974 
L 394.135135 -90.435542 
L 394.642916 -90.431344 
L 395.150696 -90.427146 
L 395.658477 -90.422947 
L 396.166257 -90.418749 
L 396.674038 -90.414551 
L 397.181818 -90.410352 
L 397.689599 -90.406154 
L 398.197379 -90.401956 
L 398.70516 -90.397758 
L 399.21294 -90.393559 
L 399.720721 -90.389361 
L 400.228501 -90.385163 
L 400.736282 -90.380965 
L 401.244062 -90.376766 
L 401.751843 -90.372568 
L 402.259623 -90.36837 
L 402.767404 -90.364172 
L 403.275184 -90.359973 
L 403.782965 -90.355775 
L 404.290745 -90.351577 
L 404.798526 -90.347379 
L 405.306306 -90.34318 
L 405.814087 -90.338982 
L 406.321867 -90.334784 
L 406.829648 -90.330586 
L 407.337428 -90.326387 
L 407.845209 -90.322189 
L 408.352989 -90.317991 
L 408.86077 -90.313792 
L 409.36855 -90.309594 
L 409.876331 -90.305396 
L 410.384111 -90.301198 
L 410.891892 -90.296999 
L 411.399672 -90.292801 
L 411.907453 -90.288603 
L 412.415233 -90.284405 
L 412.923014 -90.280206 
L 413.430794 -90.276008 
L 413.938575 -90.27181 
L 414.446355 -90.267612 
L 414.954136 -90.263413 
L 415.461916 -90.259215 
L 415.969697 -90.255017 
L 416.477477 -90.250819 
L 416.985258 -90.24662 
L 417.493038 -90.242422 
L 418.000819 -90.238224 
L 418.5086 -90.234026 
L 419.01638 -90.229827 
L 419.524161 -90.225629 
L 420.031941 -90.221431 
L 420.539722 -90.217232 
L 421.047502 -90.213034 
L 421.555283 -90.208836 
L 422.063063 -90.204638 
L 422.570844 -90.200439 
L 423.078624 -90.196241 
L 423.586405 -90.192043 
L 424.094185 -90.187845 
L 424.601966 -90.183646 
L 425.109746 -90.179448 
L 425.617527 -90.17525 
L 426.125307 -90.171052 
L 426.633088 -90.166853 
L 427.140868 -90.162655 
L 427.648649 -90.158457 
L 428.156429 -90.154259 
L 428.66421 -90.15006 
L 429.17199 -90.145862 
L 429.679771 -90.141664 
L 430.187551 -90.137466 
L 430.695332 -90.133267 
L 431.203112 -90.129069 
L 431.710893 -90.124871 
L 432.218673 -90.120672 
L 432.726454 -90.116474 
L 433.234234 -90.112276 
L 433.742015 -90.108078 
L 434.249795 -90.103879 
L 434.757576 -90.099681 
L 435.265356 -90.095483 
L 435.773137 -90.091285 
L 436.280917 -90.087086 
L 436.788698 -90.082888 
L 437.296478 -90.07869 
L 437.804259 -90.074492 
L 438.312039 -90.070293 
L 438.81982 -90.066095 
L 439.3276 -90.061897 
L 439.835381 -90.057699 
L 440.343161 -90.0535 
L 440.850942 -90.049302 
L 441.358722 -90.045104 
L 441.866503 -90.040906 
L 442.374283 -90.036707 
L 442.882064 -90.032509 
L 443.389844 -90.028311 
L 443.897625 -90.024112 
L 444.405405 -90.019914 
L 444.913186 -90.015716 
L 445.420966 -90.011518 
L 445.928747 -90.007319 
L 446.436527 -90.003121 
L 446.944308 -89.998923 
L 447.452088 -89.994725 
L 447.959869 -89.990526 
L 448.467649 -89.986328 
L 448.97543 -89.98213 
L 449.48321 -89.977932 
L 449.990991 -89.973733 
L 450.498771 -89.969535 
L 451.006552 -89.965337 
L 451.514333 -89.961139 
L 452.022113 -89.95694 
L 452.529894 -89.952742 
L 453.037674 -89.948544 
L 453.545455 -89.944346 
L 454.053235 -89.940147 
L 454.561016 -89.935949 
L 455.068796 -89.931751 
L 455.576577 -89.927552 
L 456.084357 -89.923354 
L 456.592138 -89.919156 
L 457.099918 -89.914958 
L 457.607699 -89.910759 
L 458.115479 -89.906561 
L 458.62326 -89.902363 
L 459.13104 -89.898165 
L 459.638821 -89.893966 
L 460.146601 -89.889768 
L 460.654382 -89.88557 
L 461.162162 -89.881372 
L 461.669943 -89.877173 
L 462.177723 -89.872975 
L 462.685504 -89.868777 
L 463.193284 -89.864579 
L 463.701065 -89.86038 
L 464.208845 -89.856182 
L 464.716626 -89.851984 
L 465.224406 -89.847785 
L 465.732187 -89.843587 
L 466.239967 -89.839389 
L 466.747748 -89.835191 
L 467.255528 -89.830992 
L 467.763309 -89.826794 
L 468.271089 -89.822596 
L 468.77887 -89.818398 
L 469.28665 -89.814199 
L 469.794431 -89.810001 
L 470.302211 -89.805803 
L 470.809992 -89.801605 
L 471.317772 -89.797406 
L 471.825553 -89.793208 
L 472.333333 -89.78901 
L 472.841114 -89.784812 
L 473.348894 -89.780613 
L 473.856675 -89.776415 
L 474.364455 -89.772217 
L 474.872236 -89.768019 
L 475.380016 -89.76382 
L 475.887797 -89.759622 
L 476.395577 -89.755424 
L 476.903358 -89.751225 
L 477.411138 -89.747027 
L 477.918919 -89.742829 
L 478.426699 -89.738631 
L 478.93448 -89.734432 
L 479.44226 -89.730234 
L 479.950041 -89.726036 
L 480.457821 -89.721838 
L 480.965602 -89.717639 
L 481.473382 -89.713441 
L 481.981163 -89.709243 
L 482.488943 -89.705045 
L 482.996724 -89.700846 
L 483.504505 -89.696648 
L 484.012285 -89.69245 
L 484.520066 -89.688252 
L 485.027846 -89.684053 
L 485.535627 -89.679855 
L 486.043407 -89.675657 
L 486.551188 -89.671459 
L 487.058968 -89.66726 
L 487.566749 -89.663062 
L 488.074529 -89.658864 
L 488.58231 -89.654665 
L 489.09009 -89.650467 
L 489.597871 -89.646269 
L 490.105651 -89.642071 
L 490.613432 -89.637872 
L 491.121212 -89.633674 
L 491.628993 -89.629476 
L 492.136773 -89.625278 
L 492.644554 -89.621079 
L 493.152334 -89.616881 
L 493.660115 -89.612683 
L 494.167895 -89.608485 
L 494.675676 -89.604286 
L 495.183456 -89.600088 
L 495.691237 -89.59589 
L 496.199017 -89.591692 
L 496.706798 -89.587493 
L 497.214578 -89.583295 
L 497.722359 -89.579097 
L 498.230139 -89.574899 
L 498.73792 -89.5707 
L 499.2457 -89.566502 
L 499.753481 -89.562304 
L 500.261261 -89.558105 
L 500.769042 -89.553907 
L 501.276822 -89.549709 
L 501.784603 -89.545511 
L 502.292383 -89.541312 
L 502.800164 -89.537114 
L 503.307944 -89.532916 
L 503.815725 -89.528718 
L 504.323505 -89.524519 
L 504.831286 -89.520321 
L 505.339066 -89.516123 
L 505.846847 -89.511925 
L 506.354627 -89.507726 
L 506.862408 -89.503528 
L 507.370188 -89.49933 
L 507.877969 -89.495132 
L 508.385749 -89.490933 
L 508.89353 -89.486735 
L 509.40131 -89.482537 
L 509.909091 -89.478339 
L 510.416871 -89.47414 
L 510.924652 -89.469942 
L 511.432432 -89.465744 
L 511.940213 -89.461545 
L 512.447993 -89.457347 
L 512.955774 -89.453149 
L 513.463554 -89.448951 
L 513.971335 -89.444752 
L 514.479115 -89.440554 
L 514.986896 -89.436356 
L 515.494676 -89.432158 
L 516.002457 -89.427959 
L 516.510238 -89.423761 
L 517.018018 -89.419563 
L 517.525799 -89.415365 
L 518.033579 -89.411166 
L 518.54136 -89.406968 
L 519.04914 -89.40277 
L 519.556921 -89.398572 
L 520.064701 -89.394373 
L 520.572482 -89.390175 
L 521.080262 -89.385977 
L 521.588043 -89.381778 
L 522.095823 -89.37758 
L 522.603604 -89.373382 
L 523.111384 -89.369184 
L 523.619165 -89.364985 
L 524.126945 -89.360787 
L 524.634726 -89.356589 
L 525.142506 -89.352391 
L 525.650287 -89.348192 
L 526.158067 -89.343994 
L 526.665848 -89.339796 
L 527.173628 -89.335598 
L 527.681409 -89.331399 
L 528.189189 -89.327201 
L 528.69697 -89.323003 
L 529.20475 -89.318805 
L 529.712531 -89.314606 
L 530.220311 -89.310408 
L 530.728092 -89.30621 
L 531.235872 -89.302012 
L 531.743653 -89.297813 
L 532.251433 -89.293615 
L 532.759214 -89.289417 
L 533.266994 -89.285218 
L 533.774775 -89.28102 
L 534.282555 -89.276822 
L 534.790336 -89.272624 
L 535.298116 -89.268425 
L 535.805897 -89.264227 
L 536.313677 -89.260029 
L 536.821458 -89.255831 
L 537.329238 -89.251632 
L 537.837019 -89.247434 
L 538.344799 -89.243236 
L 538.85258 -89.239038 
L 539.36036 -89.234839 
L 539.868141 -89.230641 
L 540.375921 -89.226443 
L 540.883702 -89.222245 
L 541.391482 -89.218046 
L 541.899263 -89.213848 
L 542.407043 -89.20965 
L 542.914824 -89.205452 
L 543.422604 -89.201253 
L 543.930385 -89.197055 
L 544.438165 -89.192857 
L 544.945946 -89.188658 
L 545.453726 -89.18446 
L 545.961507 -89.180262 
L 546.469287 -89.176064 
L 546.977068 -89.171865 
L 547.484848 -89.167667 
L 547.992629 -89.163469 
L 548.50041 -89.159271 
L 549.00819 -89.155072 
L 549.515971 -89.150874 
L 550.023751 -89.146676 
L 550.531532 -89.142478 
L 551.039312 -89.138279 
L 551.547093 -89.134081 
L 552.054873 -89.129883 
L 552.562654 -89.125685 
L 553.070434 -89.121486 
L 553.578215 -89.117288 
L 554.085995 -89.11309 
L 554.593776 -89.108892 
L 555.101556 -89.104693 
L 555.609337 -89.100495 
L 556.117117 -89.096297 
L 556.624898 -89.092098 
L 557.132678 -89.0879 
L 557.640459 -89.083702 
L 558.148239 -89.079504 
L 558.65602 -89.075305 
L 559.1638 -89.071107 
L 559.671581 -89.066909 
L 560.179361 -89.062711 
L 560.687142 -89.058512 
L 561.194922 -89.054314 
L 561.702703 -89.050116 
L 562.210483 -89.045918 
L 562.718264 -89.041719 
L 563.226044 -89.037521 
L 563.733825 -89.033323 
L 564.241605 -89.029125 
L 564.749386 -89.024926 
L 565.257166 -89.020728 
L 565.764947 -89.01653 
L 566.272727 -89.012332 
L 566.780508 -89.008133 
L 567.288288 -89.003935 
L 567.796069 -88.999737 
L 568.303849 -88.995538 
L 568.81163 -88.99134 
L 569.31941 -88.987142 
L 569.827191 -88.982944 
L 570.334971 -88.978745 
L 570.842752 -88.974547 
L 571.350532 -88.970349 
L 571.858313 -88.966151 
L 572.366093 -88.961952 
L 572.873874 -88.957754 
L 573.381654 -88.953556 
L 573.889435 -88.949358 
L 574.397215 -88.945159 
L 574.904996 -88.940961 
L 575.412776 -88.936763 
L 575.920557 -88.932565 
L 576.428337 -88.928366 
L 576.936118 -88.924168 
L 577.443898 -88.91997 
L 577.951679 -88.915771 
L 578.459459 -88.911573 
L 578.96724 -88.907375 
L 579.47502 -88.903177 
L 579.982801 -88.898978 
L 580.490581 -88.89478 
L 580.998362 -88.890582 
L 581.506143 -88.886384 
L 582.013923 -88.882185 
L 582.521704 -88.877987 
L 583.029484 -88.873789 
L 583.537265 -88.869591 
L 584.045045 -88.865392 
L 584.552826 -88.861194 
L 585.060606 -88.856996 
L 585.568387 -88.852798 
L 586.076167 -88.848599 
L 586.583948 -88.844401 
L 587.091728 -88.840203 
L 587.599509 -88.836005 
L 588.107289 -88.831806 
L 588.61507 -88.827608 
L 589.12285 -88.82341 
L 589.630631 -88.819211 
L 590.138411 -88.815013 
L 590.646192 -88.810815 
L 591.153972 -88.806617 
L 591.661753 -88.802418 
L 592.169533 -88.79822 
L 592.677314 -88.794022 
L 593.185094 -88.789824 
L 593.692875 -88.785625 
L 594.200655 -88.781427 
L 594.708436 -88.777229 
L 595.216216 -88.773031 
L 595.723997 -88.768832 
L 596.231777 -88.764634 
L 596.739558 -88.760436 
L 597.247338 -88.756238 
L 597.755119 -88.752039 
L 598.262899 -88.747841 
L 598.77068 -88.743643 
L 599.27846 -88.739445 
L 599.786241 -88.735246 
L 600.294021 -88.731048 
L 600.801802 -88.72685 
L 601.309582 -88.722651 
L 601.817363 -88.718453 
L 602.325143 -88.714255 
L 602.832924 -88.710057 
L 603.340704 -88.705858 
L 603.848485 -88.70166 
L 604.356265 -88.697462 
L 604.864046 -88.693264 
L 605.371826 -88.689065 
L 605.879607 -88.684867 
L 606.387387 -88.680669 
L 606.895168 -88.676471 
L 607.402948 -88.672272 
L 607.910729 -88.668074 
L 608.418509 -88.663876 
L 608.92629 -88.659678 
L 609.43407 -88.655479 
L 609.941851 -88.651281 
L 610.449631 -88.647083 
L 610.957412 -88.642885 
L 611.465192 -88.638686 
L 611.972973 -88.634488 
L 612.480753 -88.63029 
L 612.988534 -88.626091 
L 613.496314 -88.621893 
L 614.004095 -88.617695 
L 614.511876 -88.613497 
L 615.019656 -88.609298 
L 615.527437 -88.6051 
L 616.035217 -88.600902 
L 616.542998 -88.596704 
L 617.050778 -88.592505 
L 617.558559 -88.588307 
L 618.066339 -88.584109 
L 618.57412 -88.579911 
L 619.0819 -88.575712 
L 619.589681 -88.571514 
L 620.097461 -88.567316 
L 620.605242 -88.563118 
L 621.113022 -88.558919 
L 621.620803 -88.554721 
L 622.128583 -88.550523 
L 622.636364 -88.546325 
L 622.636364 -93.319347 
L 622.636364 -93.319347 
L 622.128583 -93.314812 
L 621.620803 -93.310278 
L 621.113022 -93.305743 
L 620.605242 -93.301208 
L 620.097461 -93.296674 
L 619.589681 -93.292139 
L 619.0819 -93.287604 
L 618.57412 -93.28307 
L 618.066339 -93.278535 
L 617.558559 -93.274 
L 617.050778 -93.269466 
L 616.542998 -93.264931 
L 616.035217 -93.260397 
L 615.527437 -93.255862 
L 615.019656 -93.251327 
L 614.511876 -93.246793 
L 614.004095 -93.242258 
L 613.496314 -93.237723 
L 612.988534 -93.233189 
L 612.480753 -93.228654 
L 611.972973 -93.224119 
L 611.465192 -93.219585 
L 610.957412 -93.21505 
L 610.449631 -93.210515 
L 609.941851 -93.205981 
L 609.43407 -93.201446 
L 608.92629 -93.196912 
L 608.418509 -93.192377 
L 607.910729 -93.187842 
L 607.402948 -93.183308 
L 606.895168 -93.178773 
L 606.387387 -93.174238 
L 605.879607 -93.169704 
L 605.371826 -93.165169 
L 604.864046 -93.160634 
L 604.356265 -93.1561 
L 603.848485 -93.151565 
L 603.340704 -93.14703 
L 602.832924 -93.142496 
L 602.325143 -93.137961 
L 601.817363 -93.133426 
L 601.309582 -93.128892 
L 600.801802 -93.124357 
L 600.294021 -93.119823 
L 599.786241 -93.115288 
L 599.27846 -93.110753 
L 598.77068 -93.106219 
L 598.262899 -93.101684 
L 597.755119 -93.097149 
L 597.247338 -93.092615 
L 596.739558 -93.08808 
L 596.231777 -93.083545 
L 595.723997 -93.079011 
L 595.216216 -93.074476 
L 594.708436 -93.069941 
L 594.200655 -93.065407 
L 593.692875 -93.060872 
L 593.185094 -93.056337 
L 592.677314 -93.051803 
L 592.169533 -93.047268 
L 591.661753 -93.042734 
L 591.153972 -93.038199 
L 590.646192 -93.033664 
L 590.138411 -93.02913 
L 589.630631 -93.024595 
L 589.12285 -93.02006 
L 588.61507 -93.015526 
L 588.107289 -93.010991 
L 587.599509 -93.006456 
L 587.091728 -93.001922 
L 586.583948 -92.997387 
L 586.076167 -92.992852 
L 585.568387 -92.988318 
L 585.060606 -92.983783 
L 584.552826 -92.979248 
L 584.045045 -92.974714 
L 583.537265 -92.970179 
L 583.029484 -92.965645 
L 582.521704 -92.96111 
L 582.013923 -92.956575 
L 581.506143 -92.952041 
L 580.998362 -92.947506 
L 580.490581 -92.942971 
L 579.982801 -92.938437 
L 579.47502 -92.933902 
L 578.96724 -92.929367 
L 578.459459 -92.924833 
L 577.951679 -92.920298 
L 577.443898 -92.915763 
L 576.936118 -92.911229 
L 576.428337 -92.906694 
L 575.920557 -92.902159 
L 575.412776 -92.897625 
L 574.904996 -92.89309 
L 574.397215 -92.888556 
L 573.889435 -92.884021 
L 573.381654 -92.879486 
L 572.873874 -92.874952 
L 572.366093 -92.870417 
L 571.858313 -92.865882 
L 571.350532 -92.861348 
L 570.842752 -92.856813 
L 570.334971 -92.852278 
L 569.827191 -92.847744 
L 569.31941 -92.843209 
L 568.81163 -92.838674 
L 568.303849 -92.83414 
L 567.796069 -92.829605 
L 567.288288 -92.82507 
L 566.780508 -92.820536 
L 566.272727 -92.816001 
L 565.764947 -92.811467 
L 565.257166 -92.806932 
L 564.749386 -92.802397 
L 564.241605 -92.797863 
L 563.733825 -92.793328 
L 563.226044 -92.788793 
L 562.718264 -92.784259 
L 562.210483 -92.779724 
L 561.702703 -92.775189 
L 561.194922 -92.770655 
L 560.687142 -92.76612 
L 560.179361 -92.761585 
L 559.671581 -92.757051 
L 559.1638 -92.752516 
L 558.65602 -92.747981 
L 558.148239 -92.743447 
L 557.640459 -92.738912 
L 557.132678 -92.734378 
L 556.624898 -92.729843 
L 556.117117 -92.725308 
L 555.609337 -92.720774 
L 555.101556 -92.716239 
L 554.593776 -92.711704 
L 554.085995 -92.70717 
L 553.578215 -92.702635 
L 553.070434 -92.6981 
L 552.562654 -92.693566 
L 552.054873 -92.689031 
L 551.547093 -92.684496 
L 551.039312 -92.679962 
L 550.531532 -92.675427 
L 550.023751 -92.670892 
L 549.515971 -92.666358 
L 549.00819 -92.661823 
L 548.50041 -92.657289 
L 547.992629 -92.652754 
L 547.484848 -92.648219 
L 546.977068 -92.643685 
L 546.469287 -92.63915 
L 545.961507 -92.634615 
L 545.453726 -92.630081 
L 544.945946 -92.625546 
L 544.438165 -92.621011 
L 543.930385 -92.616477 
L 543.422604 -92.611942 
L 542.914824 -92.607407 
L 542.407043 -92.602873 
L 541.899263 -92.598338 
L 541.391482 -92.593804 
L 540.883702 -92.589269 
L 540.375921 -92.584734 
L 539.868141 -92.5802 
L 539.36036 -92.575665 
L 538.85258 -92.57113 
L 538.344799 -92.566596 
L 537.837019 -92.562061 
L 537.329238 -92.557526 
L 536.821458 -92.552992 
L 536.313677 -92.548457 
L 535.805897 -92.543922 
L 535.298116 -92.539388 
L 534.790336 -92.534853 
L 534.282555 -92.530318 
L 533.774775 -92.525784 
L 533.266994 -92.521249 
L 532.759214 -92.516715 
L 532.251433 -92.51218 
L 531.743653 -92.507645 
L 531.235872 -92.503111 
L 530.728092 -92.498576 
L 530.220311 -92.494041 
L 529.712531 -92.489507 
L 529.20475 -92.484972 
L 528.69697 -92.480437 
L 528.189189 -92.475903 
L 527.681409 -92.471368 
L 527.173628 -92.466833 
L 526.665848 -92.462299 
L 526.158067 -92.457764 
L 525.650287 -92.453229 
L 525.142506 -92.448695 
L 524.634726 -92.44416 
L 524.126945 -92.439626 
L 523.619165 -92.435091 
L 523.111384 -92.430556 
L 522.603604 -92.426022 
L 522.095823 -92.421487 
L 521.588043 -92.416952 
L 521.080262 -92.412418 
L 520.572482 -92.407883 
L 520.064701 -92.403348 
L 519.556921 -92.398814 
L 519.04914 -92.394279 
L 518.54136 -92.389744 
L 518.033579 -92.38521 
L 517.525799 -92.380675 
L 517.018018 -92.37614 
L 516.510238 -92.371606 
L 516.002457 -92.367071 
L 515.494676 -92.362537 
L 514.986896 -92.358002 
L 514.479115 -92.353467 
L 513.971335 -92.348933 
L 513.463554 -92.344398 
L 512.955774 -92.339863 
L 512.447993 -92.335329 
L 511.940213 -92.330794 
L 511.432432 -92.326259 
L 510.924652 -92.321725 
L 510.416871 -92.31719 
L 509.909091 -92.312655 
L 509.40131 -92.308121 
L 508.89353 -92.303586 
L 508.385749 -92.299051 
L 507.877969 -92.294517 
L 507.370188 -92.289982 
L 506.862408 -92.285448 
L 506.354627 -92.280913 
L 505.846847 -92.276378 
L 505.339066 -92.271844 
L 504.831286 -92.267309 
L 504.323505 -92.262774 
L 503.815725 -92.25824 
L 503.307944 -92.253705 
L 502.800164 -92.24917 
L 502.292383 -92.244636 
L 501.784603 -92.240101 
L 501.276822 -92.235566 
L 500.769042 -92.231032 
L 500.261261 -92.226497 
L 499.753481 -92.221962 
L 499.2457 -92.217428 
L 498.73792 -92.212893 
L 498.230139 -92.208359 
L 497.722359 -92.203824 
L 497.214578 -92.199289 
L 496.706798 -92.194755 
L 496.199017 -92.19022 
L 495.691237 -92.185685 
L 495.183456 -92.181151 
L 494.675676 -92.176616 
L 494.167895 -92.172081 
L 493.660115 -92.167547 
L 493.152334 -92.163012 
L 492.644554 -92.158477 
L 492.136773 -92.153943 
L 491.628993 -92.149408 
L 491.121212 -92.144873 
L 490.613432 -92.140339 
L 490.105651 -92.135804 
L 489.597871 -92.13127 
L 489.09009 -92.126735 
L 488.58231 -92.1222 
L 488.074529 -92.117666 
L 487.566749 -92.113131 
L 487.058968 -92.108596 
L 486.551188 -92.104062 
L 486.043407 -92.099527 
L 485.535627 -92.094992 
L 485.027846 -92.090458 
L 484.520066 -92.085923 
L 484.012285 -92.081388 
L 483.504505 -92.076854 
L 482.996724 -92.072319 
L 482.488943 -92.067784 
L 481.981163 -92.06325 
L 481.473382 -92.058715 
L 480.965602 -92.054181 
L 480.457821 -92.049646 
L 479.950041 -92.045111 
L 479.44226 -92.040577 
L 478.93448 -92.036042 
L 478.426699 -92.031507 
L 477.918919 -92.026973 
L 477.411138 -92.022438 
L 476.903358 -92.017903 
L 476.395577 -92.013369 
L 475.887797 -92.008834 
L 475.380016 -92.004299 
L 474.872236 -91.999765 
L 474.364455 -91.99523 
L 473.856675 -91.990696 
L 473.348894 -91.986161 
L 472.841114 -91.981626 
L 472.333333 -91.977092 
L 471.825553 -91.972557 
L 471.317772 -91.968022 
L 470.809992 -91.963488 
L 470.302211 -91.958953 
L 469.794431 -91.954418 
L 469.28665 -91.949884 
L 468.77887 -91.945349 
L 468.271089 -91.940814 
L 467.763309 -91.93628 
L 467.255528 -91.931745 
L 466.747748 -91.92721 
L 466.239967 -91.922676 
L 465.732187 -91.918141 
L 465.224406 -91.913607 
L 464.716626 -91.909072 
L 464.208845 -91.904537 
L 463.701065 -91.900003 
L 463.193284 -91.895468 
L 462.685504 -91.890933 
L 462.177723 -91.886399 
L 461.669943 -91.881864 
L 461.162162 -91.877329 
L 460.654382 -91.872795 
L 460.146601 -91.86826 
L 459.638821 -91.863725 
L 459.13104 -91.859191 
L 458.62326 -91.854656 
L 458.115479 -91.850121 
L 457.607699 -91.845587 
L 457.099918 -91.841052 
L 456.592138 -91.836518 
L 456.084357 -91.831983 
L 455.576577 -91.827448 
L 455.068796 -91.822914 
L 454.561016 -91.818379 
L 454.053235 -91.813844 
L 453.545455 -91.80931 
L 453.037674 -91.804775 
L 452.529894 -91.80024 
L 452.022113 -91.795706 
L 451.514333 -91.791171 
L 451.006552 -91.786636 
L 450.498771 -91.782102 
L 449.990991 -91.777567 
L 449.48321 -91.773032 
L 448.97543 -91.768498 
L 448.467649 -91.763963 
L 447.959869 -91.759429 
L 447.452088 -91.754894 
L 446.944308 -91.750359 
L 446.436527 -91.745825 
L 445.928747 -91.74129 
L 445.420966 -91.736755 
L 444.913186 -91.732221 
L 444.405405 -91.727686 
L 443.897625 -91.723151 
L 443.389844 -91.718617 
L 442.882064 -91.714082 
L 442.374283 -91.709547 
L 441.866503 -91.705013 
L 441.358722 -91.700478 
L 440.850942 -91.695943 
L 440.343161 -91.691409 
L 439.835381 -91.686874 
L 439.3276 -91.68234 
L 438.81982 -91.677805 
L 438.312039 -91.67327 
L 437.804259 -91.668736 
L 437.296478 -91.664201 
L 436.788698 -91.659666 
L 436.280917 -91.655132 
L 435.773137 -91.650597 
L 435.265356 -91.646062 
L 434.757576 -91.641528 
L 434.249795 -91.636993 
L 433.742015 -91.632458 
L 433.234234 -91.627924 
L 432.726454 -91.623389 
L 432.218673 -91.618854 
L 431.710893 -91.61432 
L 431.203112 -91.609785 
L 430.695332 -91.605251 
L 430.187551 -91.600716 
L 429.679771 -91.596181 
L 429.17199 -91.591647 
L 428.66421 -91.587112 
L 428.156429 -91.582577 
L 427.648649 -91.578043 
L 427.140868 -91.573508 
L 426.633088 -91.568973 
L 426.125307 -91.564439 
L 425.617527 -91.559904 
L 425.109746 -91.555369 
L 424.601966 -91.550835 
L 424.094185 -91.5463 
L 423.586405 -91.541765 
L 423.078624 -91.537231 
L 422.570844 -91.532696 
L 422.063063 -91.528162 
L 421.555283 -91.523627 
L 421.047502 -91.519092 
L 420.539722 -91.514558 
L 420.031941 -91.510023 
L 419.524161 -91.505488 
L 419.01638 -91.500954 
L 418.5086 -91.496419 
L 418.000819 -91.491884 
L 417.493038 -91.48735 
L 416.985258 -91.482815 
L 416.477477 -91.47828 
L 415.969697 -91.473746 
L 415.461916 -91.469211 
L 414.954136 -91.464676 
L 414.446355 -91.460142 
L 413.938575 -91.455607 
L 413.430794 -91.451073 
L 412.923014 -91.446538 
L 412.415233 -91.442003 
L 411.907453 -91.437469 
L 411.399672 -91.432934 
L 410.891892 -91.428399 
L 410.384111 -91.423865 
L 409.876331 -91.41933 
L 409.36855 -91.414795 
L 408.86077 -91.410261 
L 408.352989 -91.405726 
L 407.845209 -91.401191 
L 407.337428 -91.396657 
L 406.829648 -91.392122 
L 406.321867 -91.387588 
L 405.814087 -91.383053 
L 405.306306 -91.378518 
L 404.798526 -91.373984 
L 404.290745 -91.369449 
L 403.782965 -91.364914 
L 403.275184 -91.36038 
L 402.767404 -91.355845 
L 402.259623 -91.35131 
L 401.751843 -91.346776 
L 401.244062 -91.342241 
L 400.736282 -91.337706 
L 400.228501 -91.333172 
L 399.720721 -91.328637 
L 399.21294 -91.324102 
L 398.70516 -91.319568 
L 398.197379 -91.315033 
L 397.689599 -91.310499 
L 397.181818 -91.305964 
L 396.674038 -91.301429 
L 396.166257 -91.296895 
L 395.658477 -91.29236 
L 395.150696 -91.287825 
L 394.642916 -91.283291 
L 394.135135 -91.278756 
L 393.627355 -91.274221 
L 393.119574 -91.269687 
L 392.611794 -91.265152 
L 392.104013 -91.260617 
L 391.596233 -91.256083 
L 391.088452 -91.251548 
L 390.580672 -91.247013 
L 390.072891 -91.242479 
L 389.565111 -91.237944 
L 389.05733 -91.23341 
L 388.54955 -91.228875 
L 388.041769 -91.22434 
L 387.533989 -91.219806 
L 387.026208 -91.215271 
L 386.518428 -91.210736 
L 386.010647 -91.206202 
L 385.502867 -91.201667 
L 384.995086 -91.197132 
L 384.487305 -91.192598 
L 383.979525 -91.188063 
L 383.471744 -91.183528 
L 382.963964 -91.178994 
L 382.456183 -91.174459 
L 381.948403 -91.169924 
L 381.440622 -91.16539 
L 380.932842 -91.160855 
L 380.425061 -91.156321 
L 379.917281 -91.151786 
L 379.4095 -91.147251 
L 378.90172 -91.142717 
L 378.393939 -91.138182 
L 377.886159 -91.133647 
L 377.378378 -91.129113 
L 376.870598 -91.124578 
L 376.362817 -91.120043 
L 375.855037 -91.115509 
L 375.347256 -91.110974 
L 374.839476 -91.106439 
L 374.331695 -91.101905 
L 373.823915 -91.09737 
L 373.316134 -91.092835 
L 372.808354 -91.088301 
L 372.300573 -91.083766 
L 371.792793 -91.079232 
L 371.285012 -91.074697 
L 370.777232 -91.070162 
L 370.269451 -91.065628 
L 369.761671 -91.061093 
L 369.25389 -91.056558 
L 368.74611 -91.05417 
L 368.238329 -91.053928 
L 367.730549 -91.053687 
L 367.222768 -91.053445 
L 366.714988 -91.053203 
L 366.207207 -91.052962 
L 365.699427 -91.05272 
L 365.191646 -91.052478 
L 364.683866 -91.052237 
L 364.176085 -91.051995 
L 363.668305 -91.051753 
L 363.160524 -91.051512 
L 362.652744 -91.05127 
L 362.144963 -91.051028 
L 361.637183 -91.050786 
L 361.129402 -91.050545 
L 360.621622 -91.050303 
L 360.113841 -91.050061 
L 359.606061 -91.04982 
L 359.09828 -91.049578 
L 358.5905 -91.049336 
L 358.082719 -91.049095 
L 357.574939 -91.048853 
L 357.067158 -91.048611 
L 356.559378 -91.04837 
L 356.051597 -91.048128 
L 355.543817 -91.047886 
L 355.036036 -91.047645 
L 354.528256 -91.047403 
L 354.020475 -91.047161 
L 353.512695 -91.046919 
L 353.004914 -91.046678 
L 352.497133 -91.046436 
L 351.989353 -91.046194 
L 351.481572 -91.045953 
L 350.973792 -91.045711 
L 350.466011 -91.045469 
L 349.958231 -91.045228 
L 349.45045 -91.044986 
L 348.94267 -91.044744 
L 348.434889 -91.044503 
L 347.927109 -91.044261 
L 347.419328 -91.044019 
L 346.911548 -91.043778 
L 346.403767 -91.043536 
L 345.895987 -91.043294 
L 345.388206 -91.043052 
L 344.880426 -91.042811 
L 344.372645 -91.042569 
L 343.864865 -91.042327 
L 343.357084 -91.042086 
L 342.849304 -91.041844 
L 342.341523 -91.041602 
L 341.833743 -91.041361 
L 341.325962 -91.041119 
L 340.818182 -91.040877 
L 340.310401 -91.040636 
L 339.802621 -91.040394 
L 339.29484 -91.040152 
L 338.78706 -91.03991 
L 338.279279 -91.039669 
L 337.771499 -91.039427 
L 337.263718 -91.039185 
L 336.755938 -91.038944 
L 336.248157 -91.038702 
L 335.740377 -91.03846 
L 335.232596 -91.038219 
L 334.724816 -91.037977 
L 334.217035 -91.037735 
L 333.709255 -91.037494 
L 333.201474 -91.037252 
L 332.693694 -91.03701 
L 332.185913 -91.036769 
L 331.678133 -91.036527 
L 331.170352 -91.036285 
L 330.662572 -91.036043 
L 330.154791 -91.035802 
L 329.647011 -91.03556 
L 329.13923 -91.035318 
L 328.63145 -91.035077 
L 328.123669 -91.034835 
L 327.615889 -91.034593 
L 327.108108 -91.034352 
L 326.600328 -91.03411 
L 326.092547 -91.033868 
L 325.584767 -91.033627 
L 325.076986 -91.033385 
L 324.569206 -91.033143 
L 324.061425 -91.032902 
L 323.553645 -91.03266 
L 323.045864 -91.032418 
L 322.538084 -91.032176 
L 322.030303 -91.031935 
L 321.522523 -91.031693 
L 321.014742 -91.031451 
L 320.506962 -91.03121 
L 319.999181 -91.030968 
L 319.4914 -91.030726 
L 318.98362 -91.030485 
L 318.475839 -91.030243 
L 317.968059 -91.030001 
L 317.460278 -91.02976 
L 316.952498 -91.029518 
L 316.444717 -91.029276 
L 315.936937 -91.029035 
L 315.429156 -91.028793 
L 314.921376 -91.028551 
L 314.413595 -91.028309 
L 313.905815 -91.028068 
L 313.398034 -91.027826 
L 312.890254 -91.027584 
L 312.382473 -91.027343 
L 311.874693 -91.027101 
L 311.366912 -91.026859 
L 310.859132 -91.026618 
L 310.351351 -91.026376 
L 309.843571 -91.026134 
L 309.33579 -91.025893 
L 308.82801 -91.025651 
L 308.320229 -91.025409 
L 307.812449 -91.025167 
L 307.304668 -91.024926 
L 306.796888 -91.024684 
L 306.289107 -91.024442 
L 305.781327 -91.024201 
L 305.273546 -91.023959 
L 304.765766 -91.023717 
L 304.257985 -91.023476 
L 303.750205 -91.023234 
L 303.242424 -91.022992 
L 302.734644 -91.022751 
L 302.226863 -91.022509 
L 301.719083 -91.022267 
L 301.211302 -91.022026 
L 300.703522 -91.021784 
L 300.195741 -91.021542 
L 299.687961 -91.0213 
L 299.18018 -91.021059 
L 298.6724 -91.020817 
L 298.164619 -91.020575 
L 297.656839 -91.020334 
L 297.149058 -91.020092 
L 296.641278 -91.01985 
L 296.133497 -91.019609 
L 295.625717 -91.019367 
L 295.117936 -91.019125 
L 294.610156 -91.018884 
L 294.102375 -91.018642 
L 293.594595 -91.0184 
L 293.086814 -91.018159 
L 292.579034 -91.017917 
L 292.071253 -91.017675 
L 291.563473 -91.017433 
L 291.055692 -91.017192 
L 290.547912 -91.01695 
L 290.040131 -91.016708 
L 289.532351 -91.016467 
L 289.02457 -91.016225 
L 288.51679 -91.015983 
L 288.009009 -91.015742 
L 287.501229 -91.0155 
L 286.993448 -91.015258 
L 286.485667 -91.015017 
L 285.977887 -91.014775 
L 285.470106 -91.014533 
L 284.962326 -91.014292 
L 284.454545 -91.01405 
L 283.946765 -91.013808 
L 283.438984 -91.013566 
L 282.931204 -91.013325 
L 282.423423 -91.013083 
L 281.915643 -91.012841 
L 281.407862 -91.0126 
L 280.900082 -91.012358 
L 280.392301 -91.012116 
L 279.884521 -91.011875 
L 279.37674 -91.011633 
L 278.86896 -91.011391 
L 278.361179 -91.01115 
L 277.853399 -91.010908 
L 277.345618 -91.010666 
L 276.837838 -91.010424 
L 276.330057 -91.010183 
L 275.822277 -91.009941 
L 275.314496 -91.009699 
L 274.806716 -91.009458 
L 274.298935 -91.009216 
L 273.791155 -91.008974 
L 273.283374 -91.008733 
L 272.775594 -91.008491 
L 272.267813 -91.008249 
L 271.760033 -91.008008 
L 271.252252 -91.007766 
L 270.744472 -91.007524 
L 270.236691 -91.007283 
L 269.728911 -91.007041 
L 269.22113 -91.006799 
L 268.71335 -91.006557 
L 268.205569 -91.006316 
L 267.697789 -91.006074 
L 267.190008 -91.005832 
L 266.682228 -91.005591 
L 266.174447 -91.005349 
L 265.666667 -91.005107 
L 265.158886 -91.004866 
L 264.651106 -91.004624 
L 264.143325 -91.004382 
L 263.635545 -91.004141 
L 263.127764 -91.003899 
L 262.619984 -91.003657 
L 262.112203 -91.003416 
L 261.604423 -91.003174 
L 261.096642 -91.002932 
L 260.588862 -91.00269 
L 260.081081 -91.002449 
L 259.573301 -91.002207 
L 259.06552 -91.001965 
L 258.55774 -91.001724 
L 258.049959 -91.001482 
L 257.542179 -91.00124 
L 257.034398 -91.000999 
L 256.526618 -91.000757 
L 256.018837 -91.000515 
L 255.511057 -91.000274 
L 255.003276 -91.000032 
L 254.495495 -90.99979 
L 253.987715 -90.999548 
L 253.479934 -90.999307 
L 252.972154 -90.999065 
L 252.464373 -90.998823 
L 251.956593 -90.998582 
L 251.448812 -90.99834 
L 250.941032 -90.998098 
L 250.433251 -90.997857 
L 249.925471 -90.997615 
L 249.41769 -90.997373 
L 248.90991 -90.997132 
L 248.402129 -90.99689 
L 247.894349 -90.996648 
L 247.386568 -90.996407 
L 246.878788 -90.996165 
L 246.371007 -90.995923 
L 245.863227 -90.995681 
L 245.355446 -90.99544 
L 244.847666 -90.995198 
L 244.339885 -90.994956 
L 243.832105 -90.994715 
L 243.324324 -90.994473 
L 242.816544 -90.994231 
L 242.308763 -90.99399 
L 241.800983 -90.993748 
L 241.293202 -90.993506 
L 240.785422 -90.993265 
L 240.277641 -90.993023 
L 239.769861 -90.992781 
L 239.26208 -90.99254 
L 238.7543 -90.992298 
L 238.246519 -90.992056 
L 237.738739 -90.991814 
L 237.230958 -90.991573 
L 236.723178 -90.991331 
L 236.215397 -90.991089 
L 235.707617 -90.990848 
L 235.199836 -90.990606 
L 234.692056 -90.990364 
L 234.184275 -90.990123 
L 233.676495 -90.989881 
L 233.168714 -90.989639 
L 232.660934 -90.989398 
L 232.153153 -90.989156 
L 231.645373 -90.988914 
L 231.137592 -90.988673 
L 230.629812 -90.988431 
L 230.122031 -90.988189 
L 229.614251 -90.987947 
L 229.10647 -90.987706 
L 228.59869 -90.987464 
L 228.090909 -90.987222 
L 227.583129 -90.986981 
L 227.075348 -90.986739 
L 226.567568 -90.986497 
L 226.059787 -90.986256 
L 225.552007 -90.986014 
L 225.044226 -90.985772 
L 224.536446 -90.985531 
L 224.028665 -90.985289 
L 223.520885 -90.985047 
L 223.013104 -90.984805 
L 222.505324 -90.984564 
L 221.997543 -90.984322 
L 221.489762 -90.98408 
L 220.981982 -90.983839 
L 220.474201 -90.983597 
L 219.966421 -90.983355 
L 219.45864 -90.983114 
L 218.95086 -90.982872 
L 218.443079 -90.98263 
L 217.935299 -90.982389 
L 217.427518 -90.982147 
L 216.919738 -90.981905 
L 216.411957 -90.981664 
L 215.904177 -90.981422 
L 215.396396 -90.98118 
L 214.888616 -90.980938 
L 214.380835 -90.980697 
L 213.873055 -90.980455 
L 213.365274 -90.980213 
L 212.857494 -90.979972 
L 212.349713 -90.97973 
L 211.841933 -90.979488 
L 211.334152 -90.979247 
L 210.826372 -90.979005 
L 210.318591 -90.978763 
L 209.810811 -90.978522 
L 209.30303 -90.97828 
L 208.79525 -90.978038 
L 208.287469 -90.977797 
L 207.779689 -90.977555 
L 207.271908 -90.977313 
L 206.764128 -90.977071 
L 206.256347 -90.97683 
L 205.748567 -90.976588 
L 205.240786 -90.976346 
L 204.733006 -90.976105 
L 204.225225 -90.975863 
L 203.717445 -90.975621 
L 203.209664 -90.97538 
L 202.701884 -90.975138 
L 202.194103 -90.974896 
L 201.686323 -90.974655 
L 201.178542 -90.974413 
L 200.670762 -90.974171 
L 200.162981 -90.973929 
L 199.655201 -90.973688 
L 199.14742 -90.973446 
L 198.63964 -90.973204 
L 198.131859 -90.972963 
L 197.624079 -90.972721 
L 197.116298 -90.972479 
L 196.608518 -90.972238 
L 196.100737 -90.971996 
L 195.592957 -90.971754 
L 195.085176 -90.971513 
L 194.577396 -90.971271 
L 194.069615 -90.971029 
L 193.561835 -90.970788 
L 193.054054 -90.970546 
L 192.546274 -90.970304 
L 192.038493 -90.970062 
L 191.530713 -90.969821 
L 191.022932 -90.969579 
L 190.515152 -90.969337 
L 190.007371 -90.969096 
L 189.49959 -90.968854 
L 188.99181 -90.968612 
L 188.484029 -90.968371 
L 187.976249 -90.968129 
L 187.468468 -90.967887 
L 186.960688 -90.967646 
L 186.452907 -90.967404 
L 185.945127 -90.967162 
L 185.437346 -90.966921 
L 184.929566 -90.966679 
L 184.421785 -90.966437 
L 183.914005 -90.966195 
L 183.406224 -90.965954 
L 182.898444 -90.965712 
L 182.390663 -90.96547 
L 181.882883 -90.965229 
L 181.375102 -90.964987 
L 180.867322 -90.964745 
L 180.359541 -90.964504 
L 179.851761 -90.964262 
L 179.34398 -90.96402 
L 178.8362 -90.963779 
L 178.328419 -90.963537 
L 177.820639 -90.963295 
L 177.312858 -90.963054 
L 176.805078 -90.962812 
L 176.297297 -90.96257 
L 175.789517 -90.962328 
L 175.281736 -90.962087 
L 174.773956 -90.961845 
L 174.266175 -90.961603 
L 173.758395 -90.961362 
L 173.250614 -90.96112 
L 172.742834 -90.960878 
L 172.235053 -90.960637 
L 171.727273 -90.960395 
L 171.219492 -90.960153 
L 170.711712 -90.959912 
L 170.203931 -90.95967 
L 169.696151 -90.959428 
L 169.18837 -90.959186 
L 168.68059 -90.958945 
L 168.172809 -90.958703 
L 167.665029 -90.958461 
L 167.157248 -90.95822 
L 166.649468 -90.957978 
L 166.141687 -90.957736 
L 165.633907 -90.957495 
L 165.126126 -90.957253 
L 164.618346 -90.957011 
L 164.110565 -90.95677 
L 163.602785 -90.956528 
L 163.095004 -90.956286 
L 162.587224 -90.956045 
L 162.079443 -90.955803 
L 161.571663 -90.955561 
L 161.063882 -90.955319 
L 160.556102 -90.955078 
L 160.048321 -90.954836 
L 159.540541 -90.954594 
L 159.03276 -90.954353 
L 158.52498 -90.954111 
L 158.017199 -90.953869 
L 157.509419 -90.953628 
L 157.001638 -90.953386 
L 156.493857 -90.953144 
L 155.986077 -90.952903 
L 155.478296 -90.952661 
L 154.970516 -90.952419 
L 154.462735 -90.952178 
L 153.954955 -90.951936 
L 153.447174 -90.951694 
L 152.939394 -90.951452 
L 152.431613 -90.951211 
L 151.923833 -90.950969 
L 151.416052 -90.950727 
L 150.908272 -90.950486 
L 150.400491 -90.950244 
L 149.892711 -90.950002 
L 149.38493 -90.949761 
L 148.87715 -90.949519 
L 148.369369 -90.949277 
L 147.861589 -90.949036 
L 147.353808 -90.948794 
L 146.846028 -90.948552 
L 146.338247 -90.94831 
L 145.830467 -90.948069 
L 145.322686 -90.947827 
L 144.814906 -90.947585 
L 144.307125 -90.947344 
L 143.799345 -90.947102 
L 143.291564 -90.94686 
L 142.783784 -90.946619 
L 142.276003 -90.946377 
L 141.768223 -90.946135 
L 141.260442 -90.945894 
L 140.752662 -90.945652 
L 140.244881 -90.94541 
L 139.737101 -90.945169 
L 139.22932 -90.944927 
L 138.72154 -90.944685 
L 138.213759 -90.944443 
L 137.705979 -90.944202 
L 137.198198 -90.94396 
L 136.690418 -90.943718 
L 136.182637 -90.943477 
L 135.674857 -90.943235 
L 135.167076 -90.942993 
L 134.659296 -90.942752 
L 134.151515 -90.94251 
L 133.643735 -90.942268 
L 133.135954 -90.942027 
L 132.628174 -90.941785 
L 132.120393 -90.941543 
L 131.612613 -90.941302 
L 131.104832 -90.94106 
L 130.597052 -90.940818 
L 130.089271 -90.940576 
L 129.581491 -90.940335 
L 129.07371 -90.940093 
L 128.56593 -90.939851 
L 128.058149 -90.93961 
L 127.550369 -90.939368 
L 127.042588 -90.939126 
L 126.534808 -90.938885 
L 126.027027 -90.938643 
L 125.519247 -90.938401 
L 125.011466 -90.93816 
L 124.503686 -90.937918 
L 123.995905 -90.937676 
L 123.488124 -90.937435 
L 122.980344 -90.937193 
L 122.472563 -90.936951 
L 121.964783 -90.936709 
L 121.457002 -90.936468 
L 120.949222 -90.936226 
L 120.441441 -90.935984 
L 119.933661 -90.935743 
L 119.42588 -90.935501 
L 118.9181 -90.935259 
L 118.410319 -90.935018 
L 117.902539 -90.934776 
L 117.394758 -90.934534 
L 116.886978 -90.934293 
L 116.379197 -90.934051 
L 115.871417 -90.933809 
L 115.363636 -90.933567 
z
" style="stroke: #ff0000; stroke-opacity: 0.2"/>
    </defs>
    <g clip-path="url(#p9472120ef4)">
     <use xlink:href="#md9f4799f4d" x="0" y="432" style="fill: #ff0000; fill-opacity: 0.2; stroke: #ff0000; stroke-opacity: 0.2"/>
    </g>
   </g>
   <g id="matplotlib.axis_1">
    <g id="xtick_1">
     <g id="line2d_1">
      <path d="M 115.363636 384.48 
L 115.363636 51.84 
" clip-path="url(#p9472120ef4)" style="fill: none; stroke: #b0b0b0; stroke-width: 0.8; stroke-linecap: square"/>
     </g>
     <g id="line2d_2">
      <defs>
       <path id="m44a8ce63c2" d="M 0 0 
L 0 3.5 
" style="stroke: #000000; stroke-width: 0.8"/>
      </defs>
      <g>
       <use xlink:href="#m44a8ce63c2" x="115.363636" y="384.48" style="stroke: #000000; stroke-width: 0.8"/>
      </g>
     </g>
     <g id="text_1">
      <!-- n -->
      <g transform="translate(112.194886 399.078438) scale(0.1 -0.1)">
       <defs>
        <path id="DejaVuSans-6e" d="M 3513 2113 
L 3513 0 
L 2938 0 
L 2938 2094 
Q 2938 2591 2744 2837 
Q 2550 3084 2163 3084 
Q 1697 3084 1428 2787 
Q 1159 2491 1159 1978 
L 1159 0 
L 581 0 
L 581 3500 
L 1159 3500 
L 1159 2956 
Q 1366 3272 1645 3428 
Q 1925 3584 2291 3584 
Q 2894 3584 3203 3211 
Q 3513 2838 3513 2113 
z
" transform="scale(0.015625)"/>
       </defs>
       <use xlink:href="#DejaVuSans-6e"/>
      </g>
     </g>
    </g>
    <g id="xtick_2">
     <g id="line2d_3">
      <path d="M 369 384.48 
L 369 51.84 
" clip-path="url(#p9472120ef4)" style="fill: none; stroke: #b0b0b0; stroke-width: 0.8; stroke-linecap: square"/>
     </g>
     <g id="line2d_4">
      <g>
       <use xlink:href="#m44a8ce63c2" x="369" y="384.48" style="stroke: #000000; stroke-width: 0.8"/>
      </g>
     </g>
     <g id="text_2">
      <!-- 2n -->
      <g transform="translate(359.464063 399.078438) scale(0.1 -0.1)">
       <defs>
        <path id="DejaVuSans-221a" d="M 3488 5191 
L 4078 5191 
L 4078 4891 
L 3719 4891 
L 1863 -128 
L 1656 -128 
L 659 2631 
L 269 2491 
L 191 2741 
L 1075 3047 
L 1875 831 
L 3488 5191 
z
" transform="scale(0.015625)"/>
        <path id="DejaVuSans-32" d="M 1228 531 
L 3431 531 
L 3431 0 
L 469 0 
L 469 531 
Q 828 903 1448 1529 
Q 2069 2156 2228 2338 
Q 2531 2678 2651 2914 
Q 2772 3150 2772 3378 
Q 2772 3750 2511 3984 
Q 2250 4219 1831 4219 
Q 1534 4219 1204 4116 
Q 875 4013 500 3803 
L 500 4441 
Q 881 4594 1212 4672 
Q 1544 4750 1819 4750 
Q 2544 4750 2975 4387 
Q 3406 4025 3406 3419 
Q 3406 3131 3298 2873 
Q 3191 2616 2906 2266 
Q 2828 2175 2409 1742 
Q 1991 1309 1228 531 
z
" transform="scale(0.015625)"/>
       </defs>
       <use xlink:href="#DejaVuSans-221a"/>
       <use xlink:href="#DejaVuSans-32" x="63.720703"/>
       <use xlink:href="#DejaVuSans-6e" x="127.34375"/>
      </g>
     </g>
    </g>
    <g id="xtick_3">
     <g id="line2d_5">
      <path d="M 622.636364 384.48 
L 622.636364 51.84 
" clip-path="url(#p9472120ef4)" style="fill: none; stroke: #b0b0b0; stroke-width: 0.8; stroke-linecap: square"/>
     </g>
     <g id="line2d_6">
      <g>
       <use xlink:href="#m44a8ce63c2" x="622.636364" y="384.48" style="stroke: #000000; stroke-width: 0.8"/>
      </g>
     </g>
     <g id="text_3">
      <!-- (2*2n) -->
      <g transform="translate(600.331676 399.078438) scale(0.1 -0.1)">
       <defs>
        <path id="DejaVuSans-28" d="M 1984 4856 
Q 1566 4138 1362 3434 
Q 1159 2731 1159 2009 
Q 1159 1288 1364 580 
Q 1569 -128 1984 -844 
L 1484 -844 
Q 1016 -109 783 600 
Q 550 1309 550 2009 
Q 550 2706 781 3412 
Q 1013 4119 1484 4856 
L 1984 4856 
z
" transform="scale(0.015625)"/>
        <path id="DejaVuSans-2a" d="M 3009 3897 
L 1888 3291 
L 3009 2681 
L 2828 2375 
L 1778 3009 
L 1778 1831 
L 1422 1831 
L 1422 3009 
L 372 2375 
L 191 2681 
L 1313 3291 
L 191 3897 
L 372 4206 
L 1422 3572 
L 1422 4750 
L 1778 4750 
L 1778 3572 
L 2828 4206 
L 3009 3897 
z
" transform="scale(0.015625)"/>
        <path id="DejaVuSans-29" d="M 513 4856 
L 1013 4856 
Q 1481 4119 1714 3412 
Q 1947 2706 1947 2009 
Q 1947 1309 1714 600 
Q 1481 -109 1013 -844 
L 513 -844 
Q 928 -128 1133 580 
Q 1338 1288 1338 2009 
Q 1338 2731 1133 3434 
Q 928 4138 513 4856 
z
" transform="scale(0.015625)"/>
       </defs>
       <use xlink:href="#DejaVuSans-221a"/>
       <use xlink:href="#DejaVuSans-28" x="63.720703"/>
       <use xlink:href="#DejaVuSans-32" x="102.734375"/>
       <use xlink:href="#DejaVuSans-2a" x="166.357422"/>
       <use xlink:href="#DejaVuSans-221a" x="216.357422"/>
       <use xlink:href="#DejaVuSans-32" x="280.078125"/>
       <use xlink:href="#DejaVuSans-6e" x="343.701172"/>
       <use xlink:href="#DejaVuSans-29" x="407.080078"/>
      </g>
     </g>
    </g>
    <g id="text_4">
     <!-- Sample size -->
     <g transform="translate(338.967969 412.756563) scale(0.1 -0.1)">
      <defs>
       <path id="DejaVuSans-53" d="M 3425 4513 
L 3425 3897 
Q 3066 4069 2747 4153 
Q 2428 4238 2131 4238 
Q 1616 4238 1336 4038 
Q 1056 3838 1056 3469 
Q 1056 3159 1242 3001 
Q 1428 2844 1947 2747 
L 2328 2669 
Q 3034 2534 3370 2195 
Q 3706 1856 3706 1288 
Q 3706 609 3251 259 
Q 2797 -91 1919 -91 
Q 1588 -91 1214 -16 
Q 841 59 441 206 
L 441 856 
Q 825 641 1194 531 
Q 1563 422 1919 422 
Q 2459 422 2753 634 
Q 3047 847 3047 1241 
Q 3047 1584 2836 1778 
Q 2625 1972 2144 2069 
L 1759 2144 
Q 1053 2284 737 2584 
Q 422 2884 422 3419 
Q 422 4038 858 4394 
Q 1294 4750 2059 4750 
Q 2388 4750 2728 4690 
Q 3069 4631 3425 4513 
z
" transform="scale(0.015625)"/>
       <path id="DejaVuSans-61" d="M 2194 1759 
Q 1497 1759 1228 1600 
Q 959 1441 959 1056 
Q 959 750 1161 570 
Q 1363 391 1709 391 
Q 2188 391 2477 730 
Q 2766 1069 2766 1631 
L 2766 1759 
L 2194 1759 
z
M 3341 1997 
L 3341 0 
L 2766 0 
L 2766 531 
Q 2569 213 2275 61 
Q 1981 -91 1556 -91 
Q 1019 -91 701 211 
Q 384 513 384 1019 
Q 384 1609 779 1909 
Q 1175 2209 1959 2209 
L 2766 2209 
L 2766 2266 
Q 2766 2663 2505 2880 
Q 2244 3097 1772 3097 
Q 1472 3097 1187 3025 
Q 903 2953 641 2809 
L 641 3341 
Q 956 3463 1253 3523 
Q 1550 3584 1831 3584 
Q 2591 3584 2966 3190 
Q 3341 2797 3341 1997 
z
" transform="scale(0.015625)"/>
       <path id="DejaVuSans-6d" d="M 3328 2828 
Q 3544 3216 3844 3400 
Q 4144 3584 4550 3584 
Q 5097 3584 5394 3201 
Q 5691 2819 5691 2113 
L 5691 0 
L 5113 0 
L 5113 2094 
Q 5113 2597 4934 2840 
Q 4756 3084 4391 3084 
Q 3944 3084 3684 2787 
Q 3425 2491 3425 1978 
L 3425 0 
L 2847 0 
L 2847 2094 
Q 2847 2600 2669 2842 
Q 2491 3084 2119 3084 
Q 1678 3084 1418 2786 
Q 1159 2488 1159 1978 
L 1159 0 
L 581 0 
L 581 3500 
L 1159 3500 
L 1159 2956 
Q 1356 3278 1631 3431 
Q 1906 3584 2284 3584 
Q 2666 3584 2933 3390 
Q 3200 3197 3328 2828 
z
" transform="scale(0.015625)"/>
       <path id="DejaVuSans-70" d="M 1159 525 
L 1159 -1331 
L 581 -1331 
L 581 3500 
L 1159 3500 
L 1159 2969 
Q 1341 3281 1617 3432 
Q 1894 3584 2278 3584 
Q 2916 3584 3314 3078 
Q 3713 2572 3713 1747 
Q 3713 922 3314 415 
Q 2916 -91 2278 -91 
Q 1894 -91 1617 61 
Q 1341 213 1159 525 
z
M 3116 1747 
Q 3116 2381 2855 2742 
Q 2594 3103 2138 3103 
Q 1681 3103 1420 2742 
Q 1159 2381 1159 1747 
Q 1159 1113 1420 752 
Q 1681 391 2138 391 
Q 2594 391 2855 752 
Q 3116 1113 3116 1747 
z
" transform="scale(0.015625)"/>
       <path id="DejaVuSans-6c" d="M 603 4863 
L 1178 4863 
L 1178 0 
L 603 0 
L 603 4863 
z
" transform="scale(0.015625)"/>
       <path id="DejaVuSans-65" d="M 3597 1894 
L 3597 1613 
L 953 1613 
Q 991 1019 1311 708 
Q 1631 397 2203 397 
Q 2534 397 2845 478 
Q 3156 559 3463 722 
L 3463 178 
Q 3153 47 2828 -22 
Q 2503 -91 2169 -91 
Q 1331 -91 842 396 
Q 353 884 353 1716 
Q 353 2575 817 3079 
Q 1281 3584 2069 3584 
Q 2775 3584 3186 3129 
Q 3597 2675 3597 1894 
z
M 3022 2063 
Q 3016 2534 2758 2815 
Q 2500 3097 2075 3097 
Q 1594 3097 1305 2825 
Q 1016 2553 972 2059 
L 3022 2063 
z
" transform="scale(0.015625)"/>
       <path id="DejaVuSans-20" transform="scale(0.015625)"/>
       <path id="DejaVuSans-73" d="M 2834 3397 
L 2834 2853 
Q 2591 2978 2328 3040 
Q 2066 3103 1784 3103 
Q 1356 3103 1142 2972 
Q 928 2841 928 2578 
Q 928 2378 1081 2264 
Q 1234 2150 1697 2047 
L 1894 2003 
Q 2506 1872 2764 1633 
Q 3022 1394 3022 966 
Q 3022 478 2636 193 
Q 2250 -91 1575 -91 
Q 1294 -91 989 -36 
Q 684 19 347 128 
L 347 722 
Q 666 556 975 473 
Q 1284 391 1588 391 
Q 1994 391 2212 530 
Q 2431 669 2431 922 
Q 2431 1156 2273 1281 
Q 2116 1406 1581 1522 
L 1381 1569 
Q 847 1681 609 1914 
Q 372 2147 372 2553 
Q 372 3047 722 3315 
Q 1072 3584 1716 3584 
Q 2034 3584 2315 3537 
Q 2597 3491 2834 3397 
z
" transform="scale(0.015625)"/>
       <path id="DejaVuSans-69" d="M 603 3500 
L 1178 3500 
L 1178 0 
L 603 0 
L 603 3500 
z
M 603 4863 
L 1178 4863 
L 1178 4134 
L 603 4134 
L 603 4863 
z
" transform="scale(0.015625)"/>
       <path id="DejaVuSans-7a" d="M 353 3500 
L 3084 3500 
L 3084 2975 
L 922 459 
L 3084 459 
L 3084 0 
L 275 0 
L 275 525 
L 2438 3041 
L 353 3041 
L 353 3500 
z
" transform="scale(0.015625)"/>
      </defs>
      <use xlink:href="#DejaVuSans-53"/>
      <use xlink:href="#DejaVuSans-61" x="63.476562"/>
      <use xlink:href="#DejaVuSans-6d" x="124.755859"/>
      <use xlink:href="#DejaVuSans-70" x="222.167969"/>
      <use xlink:href="#DejaVuSans-6c" x="285.644531"/>
      <use xlink:href="#DejaVuSans-65" x="313.427734"/>
      <use xlink:href="#DejaVuSans-20" x="374.951172"/>
      <use xlink:href="#DejaVuSans-73" x="406.738281"/>
      <use xlink:href="#DejaVuSans-69" x="458.837891"/>
      <use xlink:href="#DejaVuSans-7a" x="486.621094"/>
      <use xlink:href="#DejaVuSans-65" x="539.111328"/>
     </g>
    </g>
   </g>
   <g id="matplotlib.axis_2">
    <g id="ytick_1">
     <g id="line2d_7">
      <path d="M 90 384.48 
L 648 384.48 
" clip-path="url(#p9472120ef4)" style="fill: none; stroke: #b0b0b0; stroke-width: 0.8; stroke-linecap: square"/>
     </g>
     <g id="line2d_8">
      <defs>
       <path id="m501100cb76" d="M 0 0 
L -3.5 0 
" style="stroke: #000000; stroke-width: 0.8"/>
      </defs>
      <g>
       <use xlink:href="#m501100cb76" x="90" y="384.48" style="stroke: #000000; stroke-width: 0.8"/>
      </g>
     </g>
     <g id="text_5">
      <!-- 0.10 -->
      <g transform="translate(60.734375 388.279219) scale(0.1 -0.1)">
       <defs>
        <path id="DejaVuSans-30" d="M 2034 4250 
Q 1547 4250 1301 3770 
Q 1056 3291 1056 2328 
Q 1056 1369 1301 889 
Q 1547 409 2034 409 
Q 2525 409 2770 889 
Q 3016 1369 3016 2328 
Q 3016 3291 2770 3770 
Q 2525 4250 2034 4250 
z
M 2034 4750 
Q 2819 4750 3233 4129 
Q 3647 3509 3647 2328 
Q 3647 1150 3233 529 
Q 2819 -91 2034 -91 
Q 1250 -91 836 529 
Q 422 1150 422 2328 
Q 422 3509 836 4129 
Q 1250 4750 2034 4750 
z
" transform="scale(0.015625)"/>
        <path id="DejaVuSans-2e" d="M 684 794 
L 1344 794 
L 1344 0 
L 684 0 
L 684 794 
z
" transform="scale(0.015625)"/>
        <path id="DejaVuSans-31" d="M 794 531 
L 1825 531 
L 1825 4091 
L 703 3866 
L 703 4441 
L 1819 4666 
L 2450 4666 
L 2450 531 
L 3481 531 
L 3481 0 
L 794 0 
L 794 531 
z
" transform="scale(0.015625)"/>
       </defs>
       <use xlink:href="#DejaVuSans-30"/>
       <use xlink:href="#DejaVuSans-2e" x="63.623047"/>
       <use xlink:href="#DejaVuSans-31" x="95.410156"/>
       <use xlink:href="#DejaVuSans-30" x="159.033203"/>
      </g>
     </g>
    </g>
    <g id="ytick_2">
     <g id="line2d_9">
      <path d="M 90 329.04 
L 648 329.04 
" clip-path="url(#p9472120ef4)" style="fill: none; stroke: #b0b0b0; stroke-width: 0.8; stroke-linecap: square"/>
     </g>
     <g id="line2d_10">
      <g>
       <use xlink:href="#m501100cb76" x="90" y="329.04" style="stroke: #000000; stroke-width: 0.8"/>
      </g>
     </g>
     <g id="text_6">
      <!-- 0.15 -->
      <g transform="translate(60.734375 332.839219) scale(0.1 -0.1)">
       <defs>
        <path id="DejaVuSans-35" d="M 691 4666 
L 3169 4666 
L 3169 4134 
L 1269 4134 
L 1269 2991 
Q 1406 3038 1543 3061 
Q 1681 3084 1819 3084 
Q 2600 3084 3056 2656 
Q 3513 2228 3513 1497 
Q 3513 744 3044 326 
Q 2575 -91 1722 -91 
Q 1428 -91 1123 -41 
Q 819 9 494 109 
L 494 744 
Q 775 591 1075 516 
Q 1375 441 1709 441 
Q 2250 441 2565 725 
Q 2881 1009 2881 1497 
Q 2881 1984 2565 2268 
Q 2250 2553 1709 2553 
Q 1456 2553 1204 2497 
Q 953 2441 691 2322 
L 691 4666 
z
" transform="scale(0.015625)"/>
       </defs>
       <use xlink:href="#DejaVuSans-30"/>
       <use xlink:href="#DejaVuSans-2e" x="63.623047"/>
       <use xlink:href="#DejaVuSans-31" x="95.410156"/>
       <use xlink:href="#DejaVuSans-35" x="159.033203"/>
      </g>
     </g>
    </g>
    <g id="ytick_3">
     <g id="line2d_11">
      <path d="M 90 273.6 
L 648 273.6 
" clip-path="url(#p9472120ef4)" style="fill: none; stroke: #b0b0b0; stroke-width: 0.8; stroke-linecap: square"/>
     </g>
     <g id="line2d_12">
      <g>
       <use xlink:href="#m501100cb76" x="90" y="273.6" style="stroke: #000000; stroke-width: 0.8"/>
      </g>
     </g>
     <g id="text_7">
      <!-- 0.20 -->
      <g transform="translate(60.734375 277.399219) scale(0.1 -0.1)">
       <use xlink:href="#DejaVuSans-30"/>
       <use xlink:href="#DejaVuSans-2e" x="63.623047"/>
       <use xlink:href="#DejaVuSans-32" x="95.410156"/>
       <use xlink:href="#DejaVuSans-30" x="159.033203"/>
      </g>
     </g>
    </g>
    <g id="ytick_4">
     <g id="line2d_13">
      <path d="M 90 218.16 
L 648 218.16 
" clip-path="url(#p9472120ef4)" style="fill: none; stroke: #b0b0b0; stroke-width: 0.8; stroke-linecap: square"/>
     </g>
     <g id="line2d_14">
      <g>
       <use xlink:href="#m501100cb76" x="90" y="218.16" style="stroke: #000000; stroke-width: 0.8"/>
      </g>
     </g>
     <g id="text_8">
      <!-- 0.25 -->
      <g transform="translate(60.734375 221.959219) scale(0.1 -0.1)">
       <use xlink:href="#DejaVuSans-30"/>
       <use xlink:href="#DejaVuSans-2e" x="63.623047"/>
       <use xlink:href="#DejaVuSans-32" x="95.410156"/>
       <use xlink:href="#DejaVuSans-35" x="159.033203"/>
      </g>
     </g>
    </g>
    <g id="ytick_5">
     <g id="line2d_15">
      <path d="M 90 162.72 
L 648 162.72 
" clip-path="url(#p9472120ef4)" style="fill: none; stroke: #b0b0b0; stroke-width: 0.8; stroke-linecap: square"/>
     </g>
     <g id="line2d_16">
      <g>
       <use xlink:href="#m501100cb76" x="90" y="162.72" style="stroke: #000000; stroke-width: 0.8"/>
      </g>
     </g>
     <g id="text_9">
      <!-- 0.30 -->
      <g transform="translate(60.734375 166.519219) scale(0.1 -0.1)">
       <defs>
        <path id="DejaVuSans-33" d="M 2597 2516 
Q 3050 2419 3304 2112 
Q 3559 1806 3559 1356 
Q 3559 666 3084 287 
Q 2609 -91 1734 -91 
Q 1441 -91 1130 -33 
Q 819 25 488 141 
L 488 750 
Q 750 597 1062 519 
Q 1375 441 1716 441 
Q 2309 441 2620 675 
Q 2931 909 2931 1356 
Q 2931 1769 2642 2001 
Q 2353 2234 1838 2234 
L 1294 2234 
L 1294 2753 
L 1863 2753 
Q 2328 2753 2575 2939 
Q 2822 3125 2822 3475 
Q 2822 3834 2567 4026 
Q 2313 4219 1838 4219 
Q 1578 4219 1281 4162 
Q 984 4106 628 3988 
L 628 4550 
Q 988 4650 1302 4700 
Q 1616 4750 1894 4750 
Q 2613 4750 3031 4423 
Q 3450 4097 3450 3541 
Q 3450 3153 3228 2886 
Q 3006 2619 2597 2516 
z
" transform="scale(0.015625)"/>
       </defs>
       <use xlink:href="#DejaVuSans-30"/>
       <use xlink:href="#DejaVuSans-2e" x="63.623047"/>
       <use xlink:href="#DejaVuSans-33" x="95.410156"/>
       <use xlink:href="#DejaVuSans-30" x="159.033203"/>
      </g>
     </g>
    </g>
    <g id="ytick_6">
     <g id="line2d_17">
      <path d="M 90 107.28 
L 648 107.28 
" clip-path="url(#p9472120ef4)" style="fill: none; stroke: #b0b0b0; stroke-width: 0.8; stroke-linecap: square"/>
     </g>
     <g id="line2d_18">
      <g>
       <use xlink:href="#m501100cb76" x="90" y="107.28" style="stroke: #000000; stroke-width: 0.8"/>
      </g>
     </g>
     <g id="text_10">
      <!-- 0.35 -->
      <g transform="translate(60.734375 111.079219) scale(0.1 -0.1)">
       <use xlink:href="#DejaVuSans-30"/>
       <use xlink:href="#DejaVuSans-2e" x="63.623047"/>
       <use xlink:href="#DejaVuSans-33" x="95.410156"/>
       <use xlink:href="#DejaVuSans-35" x="159.033203"/>
      </g>
     </g>
    </g>
    <g id="ytick_7">
     <g id="line2d_19">
      <path d="M 90 51.84 
L 648 51.84 
" clip-path="url(#p9472120ef4)" style="fill: none; stroke: #b0b0b0; stroke-width: 0.8; stroke-linecap: square"/>
     </g>
     <g id="line2d_20">
      <g>
       <use xlink:href="#m501100cb76" x="90" y="51.84" style="stroke: #000000; stroke-width: 0.8"/>
      </g>
     </g>
     <g id="text_11">
      <!-- 0.40 -->
      <g transform="translate(60.734375 55.639219) scale(0.1 -0.1)">
       <defs>
        <path id="DejaVuSans-34" d="M 2419 4116 
L 825 1625 
L 2419 1625 
L 2419 4116 
z
M 2253 4666 
L 3047 4666 
L 3047 1625 
L 3713 1625 
L 3713 1100 
L 3047 1100 
L 3047 0 
L 2419 0 
L 2419 1100 
L 313 1100 
L 313 1709 
L 2253 4666 
z
" transform="scale(0.015625)"/>
       </defs>
       <use xlink:href="#DejaVuSans-30"/>
       <use xlink:href="#DejaVuSans-2e" x="63.623047"/>
       <use xlink:href="#DejaVuSans-34" x="95.410156"/>
       <use xlink:href="#DejaVuSans-30" x="159.033203"/>
      </g>
     </g>
    </g>
    <g id="text_12">
     <!-- Score -->
     <g transform="translate(54.654688 232.162344) rotate(-90) scale(0.1 -0.1)">
      <defs>
       <path id="DejaVuSans-63" d="M 3122 3366 
L 3122 2828 
Q 2878 2963 2633 3030 
Q 2388 3097 2138 3097 
Q 1578 3097 1268 2742 
Q 959 2388 959 1747 
Q 959 1106 1268 751 
Q 1578 397 2138 397 
Q 2388 397 2633 464 
Q 2878 531 3122 666 
L 3122 134 
Q 2881 22 2623 -34 
Q 2366 -91 2075 -91 
Q 1284 -91 818 406 
Q 353 903 353 1747 
Q 353 2603 823 3093 
Q 1294 3584 2113 3584 
Q 2378 3584 2631 3529 
Q 2884 3475 3122 3366 
z
" transform="scale(0.015625)"/>
       <path id="DejaVuSans-6f" d="M 1959 3097 
Q 1497 3097 1228 2736 
Q 959 2375 959 1747 
Q 959 1119 1226 758 
Q 1494 397 1959 397 
Q 2419 397 2687 759 
Q 2956 1122 2956 1747 
Q 2956 2369 2687 2733 
Q 2419 3097 1959 3097 
z
M 1959 3584 
Q 2709 3584 3137 3096 
Q 3566 2609 3566 1747 
Q 3566 888 3137 398 
Q 2709 -91 1959 -91 
Q 1206 -91 779 398 
Q 353 888 353 1747 
Q 353 2609 779 3096 
Q 1206 3584 1959 3584 
z
" transform="scale(0.015625)"/>
       <path id="DejaVuSans-72" d="M 2631 2963 
Q 2534 3019 2420 3045 
Q 2306 3072 2169 3072 
Q 1681 3072 1420 2755 
Q 1159 2438 1159 1844 
L 1159 0 
L 581 0 
L 581 3500 
L 1159 3500 
L 1159 2956 
Q 1341 3275 1631 3429 
Q 1922 3584 2338 3584 
Q 2397 3584 2469 3576 
Q 2541 3569 2628 3553 
L 2631 2963 
z
" transform="scale(0.015625)"/>
      </defs>
      <use xlink:href="#DejaVuSans-53"/>
      <use xlink:href="#DejaVuSans-63" x="63.476562"/>
      <use xlink:href="#DejaVuSans-6f" x="118.457031"/>
      <use xlink:href="#DejaVuSans-72" x="179.638672"/>
      <use xlink:href="#DejaVuSans-65" x="218.501953"/>
     </g>
    </g>
   </g>
   <g id="line2d_21">
    <path d="M 115.363636 341.151154 
L 369 341.151177 
L 622.636364 341.067164 
" clip-path="url(#p9472120ef4)" style="fill: none; stroke: #1f77b4; stroke-width: 1.5; stroke-linecap: square"/>
   </g>
   <g id="patch_3">
    <path d="M 90 384.48 
L 90 51.84 
" style="fill: none; stroke: #000000; stroke-width: 0.8; stroke-linejoin: miter; stroke-linecap: square"/>
   </g>
   <g id="patch_4">
    <path d="M 648 384.48 
L 648 51.84 
" style="fill: none; stroke: #000000; stroke-width: 0.8; stroke-linejoin: miter; stroke-linecap: square"/>
   </g>
   <g id="patch_5">
    <path d="M 90 384.48 
L 648 384.48 
" style="fill: none; stroke: #000000; stroke-width: 0.8; stroke-linejoin: miter; stroke-linecap: square"/>
   </g>
   <g id="patch_6">
    <path d="M 90 51.84 
L 648 51.84 
" style="fill: none; stroke: #000000; stroke-width: 0.8; stroke-linejoin: miter; stroke-linecap: square"/>
   </g>
   <g id="text_13">
    <!-- Nystrm MMD scores -->
    <g transform="translate(305.6025 45.84) scale(0.12 -0.12)">
     <defs>
      <path id="DejaVuSans-4e" d="M 628 4666 
L 1478 4666 
L 3547 763 
L 3547 4666 
L 4159 4666 
L 4159 0 
L 3309 0 
L 1241 3903 
L 1241 0 
L 628 0 
L 628 4666 
z
" transform="scale(0.015625)"/>
      <path id="DejaVuSans-79" d="M 2059 -325 
Q 1816 -950 1584 -1140 
Q 1353 -1331 966 -1331 
L 506 -1331 
L 506 -850 
L 844 -850 
Q 1081 -850 1212 -737 
Q 1344 -625 1503 -206 
L 1606 56 
L 191 3500 
L 800 3500 
L 1894 763 
L 2988 3500 
L 3597 3500 
L 2059 -325 
z
" transform="scale(0.015625)"/>
      <path id="DejaVuSans-74" d="M 1172 4494 
L 1172 3500 
L 2356 3500 
L 2356 3053 
L 1172 3053 
L 1172 1153 
Q 1172 725 1289 603 
Q 1406 481 1766 481 
L 2356 481 
L 2356 0 
L 1766 0 
Q 1100 0 847 248 
Q 594 497 594 1153 
L 594 3053 
L 172 3053 
L 172 3500 
L 594 3500 
L 594 4494 
L 1172 4494 
z
" transform="scale(0.015625)"/>
      <path id="DejaVuSans-f6" d="M 1959 3097 
Q 1497 3097 1228 2736 
Q 959 2375 959 1747 
Q 959 1119 1226 758 
Q 1494 397 1959 397 
Q 2419 397 2687 759 
Q 2956 1122 2956 1747 
Q 2956 2369 2687 2733 
Q 2419 3097 1959 3097 
z
M 1959 3584 
Q 2709 3584 3137 3096 
Q 3566 2609 3566 1747 
Q 3566 888 3137 398 
Q 2709 -91 1959 -91 
Q 1206 -91 779 398 
Q 353 888 353 1747 
Q 353 2609 779 3096 
Q 1206 3584 1959 3584 
z
M 2254 4850 
L 2888 4850 
L 2888 4219 
L 2254 4219 
L 2254 4850 
z
M 1032 4850 
L 1666 4850 
L 1666 4219 
L 1032 4219 
L 1032 4850 
z
" transform="scale(0.015625)"/>
      <path id="DejaVuSans-4d" d="M 628 4666 
L 1569 4666 
L 2759 1491 
L 3956 4666 
L 4897 4666 
L 4897 0 
L 4281 0 
L 4281 4097 
L 3078 897 
L 2444 897 
L 1241 4097 
L 1241 0 
L 628 0 
L 628 4666 
z
" transform="scale(0.015625)"/>
      <path id="DejaVuSans-44" d="M 1259 4147 
L 1259 519 
L 2022 519 
Q 2988 519 3436 956 
Q 3884 1394 3884 2338 
Q 3884 3275 3436 3711 
Q 2988 4147 2022 4147 
L 1259 4147 
z
M 628 4666 
L 1925 4666 
Q 3281 4666 3915 4102 
Q 4550 3538 4550 2338 
Q 4550 1131 3912 565 
Q 3275 0 1925 0 
L 628 0 
L 628 4666 
z
" transform="scale(0.015625)"/>
     </defs>
     <use xlink:href="#DejaVuSans-4e"/>
     <use xlink:href="#DejaVuSans-79" x="74.804688"/>
     <use xlink:href="#DejaVuSans-73" x="133.984375"/>
     <use xlink:href="#DejaVuSans-74" x="186.083984"/>
     <use xlink:href="#DejaVuSans-72" x="225.292969"/>
     <use xlink:href="#DejaVuSans-f6" x="264.15625"/>
     <use xlink:href="#DejaVuSans-6d" x="325.337891"/>
     <use xlink:href="#DejaVuSans-20" x="422.75"/>
     <use xlink:href="#DejaVuSans-4d" x="454.537109"/>
     <use xlink:href="#DejaVuSans-4d" x="540.816406"/>
     <use xlink:href="#DejaVuSans-44" x="627.095703"/>
     <use xlink:href="#DejaVuSans-20" x="704.097656"/>
     <use xlink:href="#DejaVuSans-73" x="735.884766"/>
     <use xlink:href="#DejaVuSans-63" x="787.984375"/>
     <use xlink:href="#DejaVuSans-6f" x="842.964844"/>
     <use xlink:href="#DejaVuSans-72" x="904.146484"/>
     <use xlink:href="#DejaVuSans-65" x="943.009766"/>
     <use xlink:href="#DejaVuSans-73" x="1004.533203"/>
    </g>
   </g>
   <g id="legend_1">
    <g id="patch_7">
     <path d="M 513.845312 89.19625 
L 641 89.19625 
Q 643 89.19625 643 87.19625 
L 643 58.84 
Q 643 56.84 641 56.84 
L 513.845312 56.84 
Q 511.845312 56.84 511.845312 58.84 
L 511.845312 87.19625 
Q 511.845312 89.19625 513.845312 89.19625 
z
" style="fill: #ffffff; opacity: 0.8; stroke: #cccccc; stroke-linejoin: miter"/>
    </g>
    <g id="line2d_22">
     <path d="M 515.845312 64.938437 
L 525.845312 64.938437 
L 535.845312 64.938437 
" style="fill: none; stroke: #1f77b4; stroke-width: 1.5; stroke-linecap: square"/>
    </g>
    <g id="text_14">
     <!-- Mean -->
     <g transform="translate(543.845312 68.438437) scale(0.1 -0.1)">
      <use xlink:href="#DejaVuSans-4d"/>
      <use xlink:href="#DejaVuSans-65" x="86.279297"/>
      <use xlink:href="#DejaVuSans-61" x="147.802734"/>
      <use xlink:href="#DejaVuSans-6e" x="209.082031"/>
     </g>
    </g>
    <g id="patch_8">
     <path d="M 515.845312 83.116562 
L 535.845312 83.116562 
L 535.845312 76.116562 
L 515.845312 76.116562 
z
" style="fill: #ff0000; fill-opacity: 0.2; stroke: #ff0000; stroke-opacity: 0.2; stroke-linejoin: miter"/>
    </g>
    <g id="text_15">
     <!-- Standard deviation -->
     <g transform="translate(543.845312 83.116562) scale(0.1 -0.1)">
      <defs>
       <path id="DejaVuSans-64" d="M 2906 2969 
L 2906 4863 
L 3481 4863 
L 3481 0 
L 2906 0 
L 2906 525 
Q 2725 213 2448 61 
Q 2172 -91 1784 -91 
Q 1150 -91 751 415 
Q 353 922 353 1747 
Q 353 2572 751 3078 
Q 1150 3584 1784 3584 
Q 2172 3584 2448 3432 
Q 2725 3281 2906 2969 
z
M 947 1747 
Q 947 1113 1208 752 
Q 1469 391 1925 391 
Q 2381 391 2643 752 
Q 2906 1113 2906 1747 
Q 2906 2381 2643 2742 
Q 2381 3103 1925 3103 
Q 1469 3103 1208 2742 
Q 947 2381 947 1747 
z
" transform="scale(0.015625)"/>
       <path id="DejaVuSans-76" d="M 191 3500 
L 800 3500 
L 1894 563 
L 2988 3500 
L 3597 3500 
L 2284 0 
L 1503 0 
L 191 3500 
z
" transform="scale(0.015625)"/>
      </defs>
      <use xlink:href="#DejaVuSans-53"/>
      <use xlink:href="#DejaVuSans-74" x="63.476562"/>
      <use xlink:href="#DejaVuSans-61" x="102.685547"/>
      <use xlink:href="#DejaVuSans-6e" x="163.964844"/>
      <use xlink:href="#DejaVuSans-64" x="227.34375"/>
      <use xlink:href="#DejaVuSans-61" x="290.820312"/>
      <use xlink:href="#DejaVuSans-72" x="352.099609"/>
      <use xlink:href="#DejaVuSans-64" x="391.462891"/>
      <use xlink:href="#DejaVuSans-20" x="454.939453"/>
      <use xlink:href="#DejaVuSans-64" x="486.726562"/>
      <use xlink:href="#DejaVuSans-65" x="550.203125"/>
      <use xlink:href="#DejaVuSans-76" x="611.726562"/>
      <use xlink:href="#DejaVuSans-69" x="670.90625"/>
      <use xlink:href="#DejaVuSans-61" x="698.689453"/>
      <use xlink:href="#DejaVuSans-74" x="759.96875"/>
      <use xlink:href="#DejaVuSans-69" x="799.177734"/>
      <use xlink:href="#DejaVuSans-6f" x="826.960938"/>
      <use xlink:href="#DejaVuSans-6e" x="888.142578"/>
     </g>
    </g>
   </g>
  </g>
 </g>
 <defs>
  <clipPath id="p9472120ef4">
   <rect x="90" y="51.84" width="558" height="332.64"/>
  </clipPath>
 </defs>
</svg>
